<svg width="1440" height="536" viewBox="0 0 1440 536" fill="none" xmlns="http://www.w3.org/2000/svg">
<g filter="url(#filter0_d_1_909)">
<path d="M-73.3179 227.531C-22.7016 314.41 124.81 478.95 309.929 442.072C440.37 407.967 551.141 309.171 686.731 184.021C799.735 79.7144 1300.95 -191.663 1486.07 527.244" stroke="#5F5D5D" stroke-linecap="round" stroke-linejoin="round" stroke-dasharray="8 15"/>
<path d="M252.175 440.928C255.809 447.472 259.44 453.892 263.015 460.323C263.198 460.657 263.593 460.869 264.025 460.875L270.915 460.961L252.264 428.401L232.769 460.486L239.66 460.573C240.096 460.578 240.498 460.375 240.691 460.047L252.171 440.928L252.175 440.928Z" fill="#181818"/>
<path d="M1053.13 34.3081C1056.69 41.8034 1060.25 49.1592 1063.74 56.5245C1063.92 56.9066 1064.35 57.1609 1064.84 57.1844L1072.67 57.5595L1054.35 20.2457L1029.32 55.4872L1037.15 55.8623C1037.65 55.886 1038.12 55.6748 1038.37 55.3132L1053.13 34.3079L1053.13 34.3081Z" fill="#181818"/>
</g>
<defs>
<filter id="filter0_d_1_909" x="-77.8179" y="20.2457" width="1568.38" height="515.498" filterUnits="userSpaceOnUse" color-interpolation-filters="sRGB">
<feFlood flood-opacity="0" result="BackgroundImageFix"/>
<feColorMatrix in="SourceAlpha" type="matrix" values="0 0 0 0 0 0 0 0 0 0 0 0 0 0 0 0 0 0 127 0" result="hardAlpha"/>
<feOffset dy="4"/>
<feGaussianBlur stdDeviation="2"/>
<feComposite in2="hardAlpha" operator="out"/>
<feColorMatrix type="matrix" values="0 0 0 0 0 0 0 0 0 0 0 0 0 0 0 0 0 0 0.25 0"/>
<feBlend mode="normal" in2="BackgroundImageFix" result="effect1_dropShadow_1_909"/>
<feBlend mode="normal" in="SourceGraphic" in2="effect1_dropShadow_1_909" result="shape"/>
</filter>
</defs>
</svg>
