<svg width="28" height="28" viewBox="0 0 28 28" fill="none" xmlns="http://www.w3.org/2000/svg">
<path d="M23.3541 6.82494C21.6303 3.21119 18.0778 0.92744 14.0791 0.87494C10.0716 0.82244 6.51905 3.02744 4.73405 6.64994C2.87905 10.4037 3.31655 14.7524 5.88905 18.0162L12.5303 26.4512C12.8716 26.8799 13.3791 27.1249 13.9216 27.1249C14.4641 27.1249 14.9716 26.8799 15.3128 26.4512L22.1291 17.7887C24.6053 14.6387 25.0691 10.4474 23.3541 6.83369V6.82494ZM20.7641 16.7037L13.9128 25.3662L7.27156 16.9312C5.12781 14.2099 4.7603 10.5612 6.30905 7.42869C7.79655 4.41869 10.6403 2.63369 13.9303 2.63369H14.0616C17.4391 2.68619 20.3266 4.53244 21.7791 7.58619C23.2316 10.6399 22.8553 14.0437 20.7641 16.7037Z" fill="white"/>
<path d="M13.922 6.26501C11.2883 6.26501 9.14453 8.40876 9.14453 11.0425C9.14453 13.6763 11.2883 15.82 13.922 15.82C16.5558 15.82 18.6995 13.6763 18.6995 11.0425C18.6995 8.40876 16.5558 6.26501 13.922 6.26501ZM13.922 14.0613C12.2508 14.0613 10.8945 12.705 10.8945 11.0338C10.8945 9.36251 12.2508 8.00626 13.922 8.00626C15.5933 8.00626 16.9495 9.36251 16.9495 11.0338C16.9495 12.705 15.5933 14.0613 13.922 14.0613Z" fill="white"/>
</svg>
