<svg width="42" height="42" viewBox="0 0 42 42" fill="none" xmlns="http://www.w3.org/2000/svg">
<path d="M28.8489 22.5172C29.4881 22.2889 29.9172 21.6786 29.9172 21C29.9172 20.3214 29.4881 19.7111 28.8515 19.4827L25.9246 18.4275C23.0345 17.3867 20.7796 15.1305 19.7375 12.2404L18.6823 9.31349C18.4526 8.67693 17.8436 8.24774 17.1676 8.24774C16.4904 8.24774 15.8801 8.67562 15.6491 9.31349L14.5951 12.2404C13.553 15.1318 11.2981 17.3867 8.40669 18.4275L5.48244 19.4827C4.84325 19.7124 4.41406 20.3214 4.41406 21C4.41406 21.6786 4.84325 22.2876 5.47981 22.5172L8.40669 23.5725C11.2968 24.6133 13.5517 26.8682 14.5938 29.7596L15.6491 32.6878C15.8788 33.3244 16.4891 33.7522 17.1663 33.7522C17.8436 33.7522 18.4539 33.3231 18.6823 32.6865L19.7375 29.7596C20.7783 26.8695 23.0345 24.6146 25.9246 23.5725L28.8489 22.5172ZM25.0347 21.1024C21.4057 22.4096 18.5746 25.2407 17.2674 28.8697L17.165 29.1532L17.0626 28.8697C15.7541 25.2407 12.923 22.4096 9.29525 21.1024L9.01306 21L9.29656 20.8976C12.9256 19.5904 15.7567 16.7593 17.0639 13.1302L17.1663 12.8467L17.2687 13.1302C18.5759 16.7593 21.407 19.5904 25.0347 20.8976L25.3183 21L25.0347 21.1024Z" fill="white"/>
<path d="M24.3446 9.79519L25.8264 10.3294C27.1087 10.7914 28.1075 11.7915 28.5695 13.0725L29.1024 14.553C29.3111 15.1331 29.865 15.5229 30.4805 15.5229C31.0961 15.5229 31.6513 15.1331 31.8587 14.5543L32.3929 13.0725C32.8549 11.7902 33.855 10.7901 35.136 10.3294L36.6191 9.79519C37.1953 9.5865 37.5851 9.03394 37.5864 8.421C37.5877 7.80806 37.2019 7.25288 36.6191 7.04025L35.136 6.50606C33.855 6.04406 32.8549 5.04394 32.3929 3.76294L31.8587 2.28113C31.65 1.701 31.0974 1.3125 30.4819 1.3125C29.865 1.3125 29.3111 1.70231 29.1037 2.28113L28.5695 3.76294C28.1075 5.04525 27.1074 6.04406 25.8264 6.50606L24.3407 7.04156C23.7632 7.25156 23.3747 7.80675 23.376 8.421C23.3773 9.03525 23.7671 9.58781 24.3446 9.79519ZM30.4819 5.84719C31.104 6.91294 31.9873 7.79625 33.0517 8.41706C31.986 9.03919 31.1027 9.9225 30.4819 10.9869C29.8597 9.9225 28.9764 9.03788 27.912 8.41706C28.9764 7.79494 29.8597 6.91163 30.4819 5.84719Z" fill="white"/>
<path d="M36.6176 32.2048L35.1358 31.6706C33.8548 31.2086 32.8547 30.2085 32.3927 28.9275L31.8585 27.4457C31.6498 26.8669 31.096 26.4771 30.4804 26.4771C29.8635 26.4771 29.3096 26.8669 29.1023 27.4457L28.5681 28.9275C28.1061 30.2098 27.106 31.2099 25.825 31.6706L24.3445 32.2035C23.7656 32.4109 23.3758 32.9647 23.3745 33.579C23.3732 34.1932 23.7604 34.7484 24.3431 34.9597L25.825 35.4939C27.1073 35.9559 28.1074 36.9547 28.5681 38.2371L29.101 39.7176C29.311 40.2977 29.8648 40.6875 30.4817 40.6875C31.0986 40.6875 31.6525 40.2977 31.8598 39.7189L32.394 38.2371C32.856 36.9561 33.8561 35.9559 35.1371 35.4939L36.6255 34.9584C37.2017 34.7471 37.5889 34.1932 37.5876 33.579C37.5863 32.9647 37.1951 32.4135 36.6176 32.2048ZM30.4817 36.1528C29.8596 35.0871 28.9763 34.2037 27.9118 33.5829C28.9763 32.9608 29.8609 32.0775 30.4817 31.0131C31.1038 32.0775 31.9871 32.9621 33.0516 33.5829C31.9871 34.2051 31.1025 35.0884 30.4817 36.1528Z" fill="white"/>
</svg>
