<svg width="36" height="38" viewBox="0 0 36 38" fill="none" xmlns="http://www.w3.org/2000/svg">
<g clip-path="url(#clip0_1_597)">
<path d="M24.3318 24.8467C24.525 24.8467 24.6742 24.7966 24.718 24.6204L25.0515 23.4024H27.0623L27.3958 24.6204C27.4398 24.7966 27.589 24.8542 27.7823 24.8542C28.0895 24.8542 28.5023 24.6373 28.5023 24.3501C28.4997 24.3178 28.494 24.2861 28.4848 24.2556L26.7902 18.4249C26.711 18.1471 26.3863 18.0167 26.0527 18.0167C25.7278 18.0167 25.4028 18.1462 25.3239 18.4243L23.6293 24.2538C23.621 24.284 23.615 24.3151 23.6118 24.3464C23.6118 24.643 24.0245 24.8467 24.3318 24.8467ZM26.0527 19.553L26.8165 22.3983H25.2887L26.0527 19.553Z" fill="white"/>
<path d="M30.5488 24.8467C30.8297 24.8467 31.0976 24.7169 31.0976 24.4668V18.4424C31.0976 18.183 30.8297 18.0717 30.5488 18.0717C30.259 18.0717 30 18.183 30 18.4424V24.4668C30 24.7169 30.259 24.8467 30.5488 24.8467Z" fill="white"/>
<path d="M35.4146 14.4431H34.5366V11.767C34.5366 11.7649 34.5366 11.7631 34.5366 11.761C34.5366 11.7589 34.5366 11.7571 34.5366 11.755V6.76149C34.5366 5.01585 33.2415 3.63013 31.6498 3.63013H2.88653C1.29506 3.63013 0 5.01585 0 6.76149V31.2386C0 32.9842 1.29506 34.37 2.88653 34.37H31.6498C33.2415 34.37 34.5366 32.9842 34.5366 31.2386V28.1911H35.4146C35.7385 28.1896 36.0003 27.9117 36 27.5699V15.0583C36 14.8948 35.9383 14.7379 35.8282 14.6226C35.7185 14.5071 35.5695 14.4425 35.4146 14.4431ZM2.88653 4.8659H31.6498C32.5958 4.8659 33.3659 5.69709 33.3659 6.76149V11.122H1.17073V6.76149C1.17073 5.69709 1.94045 4.8659 2.88653 4.8659ZM33.3659 31.2386C33.3659 32.303 32.5958 33.1342 31.6498 33.1342H2.88653C1.94045 33.1342 1.17073 32.303 1.17073 31.2386V12.3578H33.3659V14.4431H19.4711C19.147 14.4413 18.882 14.7162 18.878 15.0583V27.5699C18.8815 27.9135 19.1459 28.1902 19.4711 28.1911H21.878V31.2033C21.8772 31.4344 21.999 31.6462 22.1933 31.7524C22.3877 31.8583 22.622 31.8405 22.8001 31.7062L27.4227 28.1911H33.3659V31.2386ZM34.8293 26.9553H27.2341C27.1123 26.9547 26.9937 26.9952 26.8948 27.0703L23.0488 29.9965V27.5699C23.0456 27.2281 22.7812 26.9532 22.4571 26.9553H20.0488V15.6789H34.8293V26.9553Z" fill="white"/>
</g>
<defs>
<clipPath id="clip0_1_597">
<rect width="36" height="38" fill="white"/>
</clipPath>
</defs>
</svg>
