<svg width="656" height="656" viewBox="0 0 656 656" fill="none" xmlns="http://www.w3.org/2000/svg">
<g clip-path="url(#clip0_328_28)">
<path fill-rule="evenodd" clip-rule="evenodd" d="M531.975 444.665C529.208 436.219 521.418 430.5 512.5 430.5C503.582 430.5 495.792 436.219 493.025 444.665L473.549 504.351L413.895 523.754C405.49 526.501 399.75 534.374 399.75 543.25C399.75 552.126 405.49 559.999 413.895 562.746L473.549 582.149L493.025 641.834C495.792 650.28 503.582 656 512.5 656C521.418 656 529.208 650.28 531.975 641.834L551.451 582.149L611.105 562.746C619.51 559.999 625.25 552.126 625.25 543.25C625.25 534.374 619.51 526.501 611.105 523.754L551.451 504.351L531.975 444.665ZM0 379.24C0 394.215 9.63455 407.53 23.882 412.163L174.455 461.096L223.348 611.597C227.96 625.844 241.285 635.5 256.25 635.5C271.215 635.5 284.54 625.855 289.152 611.597L338.147 461.096L488.618 412.163C502.865 407.53 512.5 394.225 512.5 379.25C512.5 364.264 502.865 350.97 488.618 346.337L338.147 297.404L289.152 146.903C284.54 132.645 271.215 123 256.25 123C241.285 123 227.96 132.656 223.348 146.903L174.455 297.404L23.882 346.337C9.63455 350.97 0 364.254 0 379.24ZM256.25 178.268L302.375 320.005C304.322 326.247 309.243 331.137 315.495 333.166L457.252 379.25L315.495 425.334C309.243 427.363 304.322 432.253 302.375 438.495L256.25 580.232L210.125 438.495C208.178 432.253 203.257 427.363 197.005 425.334L55.2477 379.25L197.005 333.166C203.257 331.137 208.178 326.247 210.125 320.005L256.25 178.268ZM512.5 517.297L515.678 526.952C517.626 533.195 522.545 538.084 528.797 540.114L538.433 543.25L528.797 546.386C522.545 548.416 517.626 553.305 515.678 559.548L512.5 569.203L509.322 559.548C507.374 553.305 502.455 548.416 496.203 546.386L486.567 543.25L496.203 540.114C502.455 538.084 507.374 533.195 509.322 526.952L512.5 517.297ZM521.725 14.1655C518.958 5.7195 511.168 0 502.25 0C493.332 0 485.542 5.7195 482.775 14.1655L453.255 104.786L362.645 134.254C354.24 137.001 348.5 144.874 348.5 153.75C348.5 162.626 354.24 170.499 362.645 173.246L453.255 202.714L482.775 293.335C485.542 301.781 493.332 307.5 502.25 307.5C511.168 307.5 518.958 301.781 521.725 293.335L551.245 202.714L641.855 173.246C650.26 170.499 656 162.626 656 153.75C656 144.874 650.26 137.001 641.855 134.254L551.245 104.786L521.725 14.1655ZM502.25 86.797L515.473 127.397C517.523 133.629 522.339 138.518 528.592 140.548L569.183 153.75L528.592 166.952C522.339 168.982 517.523 173.871 515.473 180.103L502.25 220.703L489.027 180.103C486.977 173.871 482.161 168.982 475.908 166.952L435.317 153.75L475.908 140.548C482.161 138.518 486.977 133.629 489.027 127.397L502.25 86.797ZM82 133.25H61.5C50.225 133.25 41 142.434 41 153.75C41 165.066 50.225 174.25 61.5 174.25H82V194.75C82 206.066 91.225 215.25 102.5 215.25C113.775 215.25 123 206.066 123 194.75V174.25H143.5C154.775 174.25 164 165.066 164 153.75C164 142.434 154.775 133.25 143.5 133.25H123V112.75C123 101.434 113.775 92.25 102.5 92.25C91.225 92.25 82 101.434 82 112.75V133.25Z" fill="#FF6600"/>
</g>
<defs>
<clipPath id="clip0_328_28">
<rect width="656" height="656" fill="white"/>
</clipPath>
</defs>
</svg>
