<svg width="512" height="512" viewBox="0 0 512 512" fill="none" xmlns="http://www.w3.org/2000/svg">
<path d="M303.813 373.996L301.765 372.893C296.944 370.068 293.024 365.934 290.458 360.971C287.893 356.007 286.788 350.418 287.271 344.851C287.271 341.858 287.271 338.865 287.271 335.872C287.085 330.32 288.463 324.829 291.249 320.023C294.034 315.218 298.115 311.293 303.025 308.696L305.073 307.672C306.842 306.801 308.22 305.298 308.934 303.461C309.649 301.623 309.648 299.585 308.933 297.747L296.172 264.192C295.477 262.341 294.11 260.819 292.345 259.929C290.579 259.039 288.543 258.845 286.641 259.387L285.145 259.938C279.703 261.352 273.971 261.193 268.617 259.477C263.262 257.762 258.505 254.562 254.897 250.25C252.928 247.965 250.88 245.76 248.753 243.712C244.669 239.895 241.758 234.991 240.363 229.578C238.967 224.164 239.146 218.465 240.876 213.149L241.585 210.944C242.233 209.088 242.164 207.058 241.392 205.25C240.619 203.443 239.199 201.99 237.41 201.176L204.8 186.525C203 185.728 200.967 185.633 199.101 186.26C197.235 186.887 195.671 188.19 194.717 189.912L193.693 191.803C190.851 196.662 186.679 200.608 181.669 203.176C176.659 205.744 171.02 206.826 165.415 206.296C162.343 206.296 159.429 206.296 156.357 206.296C150.736 206.437 145.192 204.98 140.367 202.093C135.542 199.207 131.636 195.01 129.103 189.991L128.079 188.022C127.235 186.225 125.744 184.812 123.904 184.068C122.064 183.323 120.01 183.3 118.154 184.005L84.5981 196.923C82.7471 197.618 81.2253 198.985 80.3352 200.75C79.445 202.516 79.2515 204.552 79.7932 206.454L80.4233 208.502C81.8332 213.906 81.6865 219.598 80.0001 224.922C78.3136 230.246 75.1563 234.985 70.8923 238.592C68.6079 240.561 66.4024 242.688 64.3544 244.814C60.4949 248.911 55.5507 251.827 50.0978 253.221C44.645 254.616 38.9081 254.432 33.5556 252.691L31.5076 252.061C29.6536 251.468 27.6457 251.583 25.8712 252.383C24.0967 253.183 22.6812 254.612 21.8978 256.393L6.93164 288.925C6.03417 290.75 5.87735 292.852 6.49398 294.79C7.11061 296.728 8.45291 298.352 10.2399 299.323L12.2879 300.504C17.0575 303.285 20.9469 307.354 23.5103 312.244C26.0738 317.134 27.2075 322.648 26.7815 328.152V337.211C26.983 342.775 25.6118 348.284 22.8253 353.104C20.0388 357.925 15.9499 361.862 11.0276 364.465L8.97964 365.489C7.22939 366.359 5.86504 367.848 5.15173 369.668C4.43841 371.488 4.42709 373.507 5.11995 375.335L17.8806 408.969C18.591 410.806 19.9635 412.31 21.7277 413.185C23.4919 414.059 25.5197 414.242 27.4116 413.696L29.5384 413.144C34.9802 411.73 40.7117 411.89 46.0662 413.605C51.4208 415.32 56.1784 418.52 59.7858 422.833C61.755 425.038 63.803 427.244 65.9298 429.371C70.0077 433.175 72.915 438.065 74.3103 443.465C75.7056 448.865 75.5309 454.55 73.8067 459.854L73.0978 462.06C72.4497 463.915 72.5187 465.946 73.2911 467.753C74.0635 469.56 75.4836 471.014 77.2726 471.827L110.198 486.557C112.007 487.348 114.048 487.431 115.915 486.789C117.782 486.147 119.34 484.828 120.281 483.091L121.305 481.28C124.139 476.445 128.284 472.51 133.26 469.932C138.236 467.353 143.84 466.235 149.425 466.707H158.405C164.015 466.569 169.55 468.018 174.373 470.889C179.195 473.76 183.107 477.936 185.659 482.934L186.683 484.982C187.348 486.266 188.355 487.342 189.591 488.093C190.828 488.843 192.247 489.238 193.693 489.235C194.633 489.244 195.567 489.083 196.45 488.763L230.085 475.923C231.936 475.228 233.458 473.861 234.348 472.096C235.238 470.33 235.431 468.294 234.89 466.392L233.629 464.738C232.222 459.315 232.378 453.605 234.078 448.266C235.779 442.928 238.955 438.179 243.239 434.569C245.524 432.6 247.729 430.552 249.777 428.425C253.637 424.329 258.581 421.413 264.034 420.019C269.487 418.624 275.224 418.808 280.576 420.549L282.703 421.257C284.547 421.856 286.548 421.752 288.321 420.968C290.094 420.183 291.515 418.771 292.313 417.004L307.2 384.078C307.997 382.279 308.092 380.245 307.465 378.379C306.838 376.513 305.535 374.949 303.813 373.996ZM217.876 363.835C213.389 373.85 206.501 382.603 197.822 389.32C189.143 396.036 178.942 400.508 168.121 402.339C157.301 404.17 146.196 403.304 135.791 399.817C125.385 396.33 116 390.33 108.468 382.349C100.936 374.368 95.4887 364.652 92.6092 354.063C89.7298 343.473 89.507 332.337 91.9606 321.64C94.4142 310.944 99.4685 301.018 106.676 292.742C113.883 284.466 123.02 278.096 133.277 274.195C145.607 269.507 159.049 268.579 171.906 271.528C184.763 274.478 196.457 281.172 205.51 290.765C214.564 300.358 220.571 312.419 222.771 325.425C224.972 338.431 223.269 351.797 217.876 363.835Z" fill="#FF6600"/>
<path d="M214.489 139.737L213.228 140.367C211.464 141.223 210.082 142.707 209.354 144.528C208.626 146.349 208.603 148.376 209.29 150.213L217.639 171.953C218.334 173.787 219.688 175.296 221.436 176.184C223.184 177.073 225.201 177.278 227.092 176.758L228.431 176.364C231.443 175.583 234.615 175.679 237.574 176.642C240.533 177.605 243.155 179.395 245.13 181.8C246.469 183.296 247.887 184.714 249.305 186.132C251.603 188.205 253.239 190.91 254.01 193.908C254.78 196.905 254.651 200.064 253.637 202.988L253.164 204.406C252.521 206.271 252.602 208.31 253.389 210.118C254.177 211.927 255.615 213.374 257.418 214.174L278.685 223.626C280.449 224.45 282.454 224.592 284.316 224.025C286.178 223.458 287.764 222.221 288.768 220.554L289.398 219.372C291.008 216.702 293.344 214.545 296.133 213.15C298.922 211.756 302.05 211.182 305.152 211.496H311.217C314.309 211.456 317.35 212.283 319.996 213.884C322.641 215.486 324.785 217.796 326.183 220.554L326.813 221.893C327.479 223.177 328.485 224.254 329.722 225.004C330.958 225.754 332.378 226.15 333.824 226.147C334.789 226.144 335.746 225.984 336.66 225.674L358.321 217.324C360.155 216.63 361.664 215.276 362.552 213.528C363.441 211.78 363.645 209.763 363.126 207.872L362.732 206.454C361.948 203.462 362.035 200.307 362.984 197.362C363.933 194.418 365.704 191.805 368.089 189.834C369.635 188.525 371.108 187.132 372.5 185.659C374.615 183.37 377.339 181.732 380.353 180.936C383.366 180.141 386.544 180.222 389.514 181.169L390.932 181.563C392.776 182.161 394.776 182.058 396.55 181.273C398.323 180.489 399.744 179.077 400.541 177.31L410.073 156.121C410.876 154.33 410.983 152.304 410.371 150.439C409.759 148.574 408.473 147.005 406.764 146.038L405.504 145.329C402.834 143.719 400.676 141.383 399.281 138.594C397.887 135.806 397.313 132.678 397.627 129.576C397.627 127.528 397.627 125.558 397.627 123.589C397.517 120.492 398.287 117.427 399.848 114.75C401.41 112.073 403.699 109.894 406.449 108.465L407.788 107.835C409.539 106.965 410.903 105.476 411.616 103.656C412.329 101.837 412.341 99.8167 411.648 97.9891L403.456 76.3276C402.76 74.4591 401.381 72.9241 399.597 72.0324C397.814 71.1407 395.759 70.9585 393.846 71.5226L392.428 71.9165C389.416 72.6985 386.244 72.6022 383.285 71.6392C380.325 70.6761 377.704 68.8864 375.729 66.4814C374.39 64.9848 373.051 63.567 371.633 62.1491C369.363 60.0554 367.741 57.3545 366.959 54.3668C366.177 51.3791 366.268 48.2299 367.222 45.2925L367.695 43.9534C368.365 42.088 368.308 40.0383 367.534 38.2133C366.761 36.3882 365.327 34.922 363.52 34.1073L342.252 24.655C340.444 23.8345 338.392 23.7276 336.507 24.3556C334.623 24.9837 333.046 26.3004 332.091 28.042L331.54 29.2236C329.944 31.9071 327.61 34.0759 324.818 35.4722C322.025 36.8686 318.89 37.4337 315.786 37.1005C313.767 36.9446 311.739 36.9446 309.721 37.1005C306.609 37.1869 303.536 36.389 300.859 34.7996C298.182 33.2102 296.011 30.8944 294.597 28.1208L293.967 26.7817C293.083 25.0456 291.588 23.6983 289.77 23.0001C287.951 22.3018 285.939 22.3021 284.121 23.0008L262.695 31.5079C260.876 32.2173 259.385 33.5773 258.512 35.3238C257.639 37.0704 257.445 39.0791 257.969 40.9602V42.378C258.715 45.3722 258.609 48.5155 257.663 51.4526C256.716 54.3896 254.967 57.0033 252.613 58.9983C251.049 60.2877 249.575 61.6825 248.202 63.1731C246.06 65.4214 243.324 67.015 240.312 67.768C237.299 68.5211 234.135 68.4027 231.188 67.4266H229.77C228.068 66.8715 226.229 66.9122 224.554 67.5422C222.878 68.1721 221.468 69.3538 220.554 70.8925L211.023 92.0814C210.143 93.8887 209.987 95.964 210.587 97.8824C211.188 99.8008 212.499 101.417 214.252 102.4L215.591 103.109C218.282 104.698 220.456 107.03 221.853 109.824C223.251 112.619 223.811 115.757 223.468 118.863V124.928C223.504 127.989 222.682 130.999 221.095 133.616C219.508 136.233 217.219 138.354 214.489 139.737ZM268.682 105.315C272.068 97.78 277.424 91.2983 284.186 86.5526C290.947 81.8069 298.864 78.9729 307.101 78.3491C315.338 77.7254 323.591 79.3352 330.99 83.0087C338.389 86.6822 344.66 92.2835 349.142 99.2223C353.624 106.161 356.152 114.181 356.459 122.436C356.766 130.691 354.84 138.875 350.885 146.128C346.93 153.38 341.091 159.431 333.986 163.644C326.88 167.856 318.769 170.074 310.508 170.063C303.941 170.088 297.444 168.719 291.446 166.046C280.343 161.04 271.679 151.836 267.352 140.451C263.026 129.066 263.391 116.431 268.367 105.315H268.682Z" fill="#FF6600"/>
<path d="M502.547 409.6L501.287 408.891C498.617 407.281 496.459 404.945 495.065 402.156C493.67 399.367 493.096 396.239 493.41 393.137C493.41 391.168 493.41 389.12 493.41 387.151C493.309 384.055 494.084 380.994 495.644 378.319C497.205 375.643 499.488 373.463 502.232 372.027L503.571 371.397C505.322 370.527 506.686 369.037 507.399 367.218C508.113 365.398 508.124 363.378 507.431 361.551L499.16 339.81C498.466 337.977 497.112 336.468 495.364 335.579C493.616 334.691 491.599 334.486 489.708 335.005H488.29C485.278 335.778 482.108 335.677 479.151 334.714C476.194 333.752 473.572 331.968 471.591 329.57C470.252 328.074 468.913 326.656 467.495 325.238C465.225 323.144 463.603 320.443 462.821 317.456C462.039 314.468 462.13 311.319 463.084 308.381L463.635 306.964C464.278 305.099 464.198 303.06 463.41 301.252C462.623 299.443 461.185 297.996 459.382 297.196L438.114 287.744C436.306 286.923 434.254 286.816 432.369 287.445C430.485 288.073 428.908 289.389 427.953 291.131L427.402 292.312C425.806 294.996 423.472 297.165 420.68 298.561C417.887 299.957 414.752 300.523 411.648 300.189C409.6 300.189 407.867 300.189 405.583 300.189C402.535 300.253 399.529 299.47 396.901 297.926C394.272 296.382 392.124 294.139 390.695 291.446L390.065 290.107C389.182 288.371 387.687 287.024 385.868 286.325C384.05 285.627 382.037 285.627 380.219 286.326L358.479 294.676C356.659 295.385 355.168 296.745 354.295 298.491C353.422 300.238 353.228 302.247 353.752 304.128L354.146 305.546C354.911 308.539 354.815 311.688 353.867 314.629C352.919 317.57 351.159 320.183 348.79 322.166C347.245 323.477 345.773 324.87 344.379 326.341C342.237 328.589 339.501 330.183 336.489 330.936C333.477 331.689 330.312 331.57 327.365 330.594H325.947C324.102 329.996 322.102 330.099 320.329 330.884C318.556 331.669 317.134 333.08 316.337 334.848L307.2 355.958C306.389 357.739 306.271 359.759 306.868 361.623C307.465 363.487 308.735 365.061 310.429 366.04L311.768 366.749C314.459 368.338 316.633 370.67 318.03 373.465C319.428 376.259 319.988 379.398 319.645 382.503V388.568C319.748 391.674 318.966 394.745 317.39 397.422C315.814 400.1 313.509 402.275 310.744 403.692L309.484 404.322C307.72 405.179 306.338 406.662 305.61 408.483C304.881 410.304 304.859 412.332 305.546 414.168L313.895 435.909C314.59 437.743 315.944 439.251 317.692 440.14C319.44 441.028 321.457 441.233 323.347 440.714L324.765 440.32C327.778 439.548 330.948 439.649 333.905 440.611C336.862 441.574 339.484 443.358 341.464 445.755C342.725 447.252 344.143 448.669 345.56 450.087C347.859 452.161 349.495 454.865 350.266 457.863C351.036 460.861 350.906 464.019 349.893 466.944L349.42 468.283C348.755 470.158 348.823 472.215 349.612 474.042C350.401 475.868 351.852 477.328 353.674 478.129L374.941 487.581C376.741 488.379 378.774 488.473 380.641 487.847C382.507 487.22 384.07 485.917 385.024 484.194L385.654 483.013C387.271 480.349 389.608 478.197 392.395 476.803C395.182 475.41 398.307 474.832 401.408 475.136H407.473C410.583 475.059 413.652 475.861 416.327 477.449C419.002 479.037 421.175 481.348 422.597 484.116L423.227 485.455C423.892 486.739 424.898 487.815 426.135 488.566C427.372 489.316 428.791 489.711 430.237 489.708C431.202 489.705 432.16 489.546 433.073 489.236L454.104 480.492C455.938 479.797 457.447 478.444 458.335 476.696C459.224 474.947 459.429 472.931 458.909 471.04V469.622C458.125 466.629 458.212 463.475 459.161 460.53C460.11 457.585 461.881 454.973 464.266 453.002L468.677 448.827C470.813 446.571 473.549 444.971 476.563 444.218C479.578 443.464 482.744 443.588 485.691 444.573L487.109 444.967C488.843 445.469 490.698 445.359 492.361 444.656C494.025 443.954 495.396 442.701 496.246 441.108L505.777 419.919C506.657 418.111 506.813 416.036 506.212 414.118C505.612 412.199 504.301 410.583 502.547 409.6ZM448.197 406.607C444.567 414.682 438.681 421.536 431.246 426.344C423.811 431.151 415.145 433.707 406.291 433.703C399.831 433.684 393.446 432.316 387.544 429.686C379.252 425.973 372.248 419.883 367.418 412.188C362.588 404.492 360.149 395.537 360.41 386.456C360.671 377.374 363.62 368.573 368.884 361.168C374.148 353.763 381.49 348.085 389.981 344.854C398.473 341.623 407.732 340.983 416.588 343.016C425.443 345.048 433.496 349.662 439.728 356.273C445.961 362.884 450.092 371.195 451.599 380.155C453.107 389.115 451.923 398.32 448.197 406.607Z" fill="#FF6600"/>
</svg>
