<svg width="135" height="33" viewBox="0 0 135 33" fill="none" xmlns="http://www.w3.org/2000/svg">
<path d="M39.4699 0.333008V7.37001H39.5589C40.0889 6.77885 40.7458 6.31545 41.4806 6.0146C42.2153 5.71376 43.0086 5.58329 43.8009 5.63301C47.2179 5.63301 51.0459 8.22501 51.0459 13.584C51.0459 18.943 47.2179 21.533 43.8009 21.533C43.0085 21.5826 42.2151 21.452 41.4804 21.151C40.7457 20.8499 40.0888 20.3863 39.5589 19.795H39.4699V21.237H34.3779V0.333008H39.4699ZM42.7099 17.026C43.1591 17.0332 43.605 16.948 44.0199 16.7757C44.4348 16.6035 44.8099 16.3478 45.1219 16.0246C45.4339 15.7015 45.6762 15.3176 45.8338 14.8969C45.9914 14.4762 46.0609 14.0277 46.0379 13.579C46.0535 13.1303 45.9785 12.683 45.8175 12.2639C45.6565 11.8447 45.4127 11.4623 45.1007 11.1393C44.7888 10.8164 44.415 10.5596 44.0017 10.3842C43.5884 10.2088 43.1439 10.1184 42.6949 10.1184C42.2459 10.1184 41.8015 10.2088 41.3882 10.3842C40.9749 10.5596 40.6011 10.8164 40.2891 11.1393C39.9772 11.4623 39.7334 11.8447 39.5724 12.2639C39.4114 12.683 39.3364 13.1303 39.3519 13.579C39.3246 14.0312 39.3921 14.4841 39.55 14.9088C39.7079 15.3334 39.9528 15.7203 40.2689 16.0448C40.585 16.3693 40.9655 16.6242 41.3858 16.7932C41.8062 16.9622 42.2572 17.0415 42.7099 17.026Z" fill="#989CAA"/>
<path d="M53.4863 5.92815H58.5783V10.1112C59.0783 7.57815 60.5493 5.63615 63.2603 5.63615C63.6487 5.63065 64.036 5.68048 64.4103 5.78415V10.6432C64.0428 10.5585 63.6664 10.5189 63.2893 10.5252C62.6535 10.4785 62.0152 10.5704 61.4184 10.7946C60.8216 11.0187 60.2806 11.3697 59.8326 11.8233C59.3847 12.2769 59.0406 12.8224 58.824 13.422C58.6075 14.0216 58.5236 14.661 58.5783 15.2962V21.2432H53.4863V5.92815Z" fill="#989CAA"/>
<path d="M66.8145 5.92822H71.9064V21.2382H66.8145V5.92822Z" fill="#989CAA"/>
<path d="M74.3496 13.5532C74.3496 8.37219 78.4436 5.63219 82.5636 5.63219C83.9036 5.61213 85.2245 5.95119 86.3891 6.61414C87.5538 7.2771 88.5197 8.23977 89.1866 9.40219L85.5066 11.8172C85.176 11.3365 84.7377 10.9396 84.2266 10.6584C83.7154 10.3771 83.1456 10.2192 82.5626 10.1972C82.1279 10.1953 81.6974 10.282 81.2973 10.452C80.8972 10.622 80.5359 10.8717 80.2356 11.186C79.9352 11.5002 79.702 11.8723 79.5502 12.2797C79.3984 12.687 79.3311 13.121 79.3526 13.5552C79.3299 13.9925 79.3959 14.4299 79.5466 14.8411C79.6972 15.2523 79.9294 15.6288 80.2292 15.9479C80.5291 16.2671 80.8903 16.5223 81.2913 16.6984C81.6923 16.8744 82.1247 16.9675 82.5626 16.9722C83.1456 16.9502 83.7154 16.7923 84.2266 16.511C84.7377 16.2298 85.176 15.8329 85.5066 15.3522L89.1866 17.7672C88.5097 18.9206 87.5416 19.8758 86.3792 20.5371C85.2167 21.1985 83.9009 21.5426 82.5636 21.5352C78.4406 21.5352 74.3506 18.7982 74.3506 13.5542L74.3496 13.5532Z" fill="#989CAA"/>
<path d="M91.6348 0.333008H96.7268V11.139L101.202 5.93301H107.237L101.345 12.466L107.854 21.242H102.288L98.2238 15.972L96.7238 17.651V21.242H91.6348V0.333008Z" fill="#989CAA"/>
<path d="M108.129 17.1179L112.134 16.0269C112.226 16.4665 112.466 16.8614 112.814 17.1455C113.162 17.4296 113.597 17.5857 114.046 17.5879C114.752 17.5879 115.34 17.2629 115.34 16.6149C115.34 16.2899 115.162 15.8789 114.367 15.6419L112.13 14.8169C109.597 13.9329 108.51 12.2539 108.51 10.2829C108.51 7.33886 111.191 5.63086 114.283 5.63086C117.375 5.63086 119.464 7.33986 119.967 9.89886L115.992 10.8719C115.667 9.69586 114.931 9.51786 114.492 9.51786C114.365 9.50014 114.237 9.50851 114.114 9.54245C113.991 9.57639 113.876 9.6352 113.777 9.71522C113.677 9.79525 113.595 9.8948 113.536 10.0077C113.476 10.1207 113.441 10.2446 113.431 10.3719C113.431 10.7269 113.638 11.1379 114.522 11.3719L116.611 12.1379C118.083 12.6079 120.35 13.7579 120.35 16.6129C120.35 19.7049 117.698 21.5309 114.137 21.5309C110.984 21.5339 108.599 20.1209 108.129 17.1179Z" fill="#989CAA"/>
<path d="M122.822 10.7871H126.531V7.07812H130.802V10.7871H134.541V15.0551H130.802V18.7381H126.534V15.0581H122.822V10.7871Z" fill="#989CAA"/>
<path d="M38.6525 25.1841L41.3814 32.2581H39.9064L39.4414 30.9841H36.4314L35.9614 32.2601H34.4814L37.2034 25.1841H38.6494H38.6525ZM38.9814 29.7291L37.9354 26.8841L36.8885 29.7241H38.9814V29.7291Z" fill="#989CAA"/>
<path d="M45.6856 28.7229C45.6739 28.2395 45.7611 27.7588 45.9417 27.3102C46.1224 26.8616 46.3928 26.4547 46.7363 26.1143C47.0799 25.774 47.4893 25.5074 47.9395 25.3309C48.3898 25.1544 48.8713 25.0717 49.3546 25.0879C49.9238 25.0712 50.4875 25.2041 50.9892 25.4735C51.4909 25.7429 51.9131 26.1392 52.2136 26.6229L51.2266 27.3109C51.0193 27.0144 50.7412 26.7742 50.4177 26.6122C50.0941 26.4501 49.7353 26.3714 49.3736 26.3829C48.7593 26.4008 48.1762 26.6574 47.748 27.0982C47.3199 27.539 47.0803 28.1294 47.0803 28.7439C47.0803 29.3585 47.3199 29.9488 47.748 30.3896C48.1762 30.8305 48.7593 31.0871 49.3736 31.1049C49.8177 31.1394 50.2581 31.0027 50.6047 30.7229C50.9512 30.443 51.1777 30.0413 51.2376 29.5999H49.5456V28.4529H52.5666C52.6732 28.9319 52.6685 29.4289 52.553 29.9058C52.4375 30.3827 52.2142 30.8268 51.9002 31.2039C51.5863 31.581 51.19 31.8811 50.742 32.0812C50.2939 32.2812 49.806 32.3759 49.3156 32.3579C48.835 32.3698 48.357 32.2837 47.9108 32.1049C47.4645 31.926 47.0593 31.6582 46.7199 31.3178C46.3805 30.9773 46.1139 30.5713 45.9364 30.1245C45.759 29.6778 45.6743 29.1995 45.6876 28.7189L45.6856 28.7229Z" fill="#989CAA"/>
<path d="M57.8898 25.1841H61.8948V26.4411H59.2558V28.0841H61.4788V29.3191H59.2558V31.0021H61.9848V32.2591H57.8848V25.1841H57.8898Z" fill="#989CAA"/>
<path d="M67.2275 25.1841H68.5925L71.8395 30.0171H71.8875V25.1841H73.2525V32.2581H71.8875L68.6375 27.4251H68.5895V32.2581H67.2275V25.1841Z" fill="#989CAA"/>
<path d="M80.1121 26.4411H78.4121V25.1841H83.1861V26.4411H81.4861V32.2621H80.1211L80.1121 26.4411Z" fill="#989CAA"/>
<path d="M24.875 3.14697H4.34C1.94308 3.14697 0 5.09006 0 7.48697V28.022C0 30.4189 1.94308 32.362 4.34 32.362H24.875C27.2719 32.362 29.215 30.4189 29.215 28.022V7.48697C29.215 5.09006 27.2719 3.14697 24.875 3.14697Z" fill="#989CAA"/>
<path d="M24.4961 11.9609C24.4961 9.53363 22.5283 7.56592 20.1011 7.56592C17.6738 7.56592 15.7061 9.53363 15.7061 11.9609V23.5219C15.7061 25.9492 17.6738 27.9169 20.1011 27.9169C22.5283 27.9169 24.4961 25.9492 24.4961 23.5219V11.9609Z" fill="white"/>
<path d="M13.5117 15.9292C13.5117 13.5019 11.544 11.5342 9.11668 11.5342C6.68939 11.5342 4.72168 13.5019 4.72168 15.9292V19.5502C4.72168 21.9775 6.68939 23.9452 9.11668 23.9452C11.544 23.9452 13.5117 21.9775 13.5117 19.5502V15.9292Z" fill="white"/>
<path d="M69.3622 5.074C70.7633 5.074 71.8992 3.93815 71.8992 2.537C71.8992 1.13585 70.7633 0 69.3622 0C67.961 0 66.8252 1.13585 66.8252 2.537C66.8252 3.93815 67.961 5.074 69.3622 5.074Z" fill="#989CAA"/>
</svg>
