<svg width="64" height="64" viewBox="0 0 64 64" fill="none" xmlns="http://www.w3.org/2000/svg">
<path d="M35.1029 45.2001L36.2172 37.9915L37.2887 35.8487C37.3463 35.7314 37.3757 35.6022 37.3744 35.4715V28.6915C37.3741 28.1642 37.1644 27.6586 36.7916 27.2857C36.4187 26.9129 35.9131 26.7033 35.3858 26.7029H28.6144C28.0871 26.7033 27.5815 26.9129 27.2086 27.2857C26.8358 27.6586 26.6261 28.1642 26.6258 28.6915V35.4715C26.6245 35.6022 26.6539 35.7314 26.7115 35.8487L27.783 37.9915L28.8973 45.2001C28.9262 45.4022 29.027 45.5872 29.1813 45.7211C29.3356 45.8549 29.533 45.9286 29.7373 45.9286H34.263C34.4673 45.9286 34.6646 45.8549 34.8189 45.721C34.9732 45.5872 35.074 45.4022 35.1029 45.2001Z" fill="#F15A23"/>
<path d="M25.5029 26.7029H22.6143C22.087 26.7033 21.5814 26.9129 21.2086 27.2857C20.8357 27.6586 20.6261 28.1642 20.6257 28.6915V35.4715C20.9436 36.341 21.3306 37.1837 21.783 37.9915L22.8972 45.2001C22.9261 45.4023 23.027 45.5872 23.1813 45.7211C23.3356 45.8549 23.533 45.9286 23.7372 45.9286H27.3201C27.262 45.7708 27.2217 45.6069 27.2001 45.4401L26.1287 38.5143L25.1772 36.6115C24.9989 36.2581 24.9078 35.8672 24.9115 35.4715V28.6915C24.91 27.985 25.1156 27.2937 25.5029 26.7029Z" fill="#F15A23"/>
<path d="M26.0001 18.0713C25.0908 18.0713 24.2187 18.4325 23.5757 19.0755C22.9328 19.7185 22.5715 20.5906 22.5715 21.4999C22.5715 22.4092 22.9328 23.2813 23.5757 23.9242C24.2187 24.5672 25.0908 24.9284 26.0001 24.9284C26.6301 24.9309 27.2481 24.7556 27.783 24.4227C27.1806 23.5671 26.8572 22.5463 26.8572 21.4998C26.8572 20.4534 27.1806 19.4326 27.783 18.577C27.2481 18.2442 26.6301 18.0689 26.0001 18.0713Z" fill="#F15A23"/>
<path d="M31.9999 24.9284C32.678 24.9284 33.3409 24.7273 33.9047 24.3506C34.4685 23.9738 34.9079 23.4384 35.1674 22.8119C35.4269 22.1854 35.4948 21.496 35.3625 20.8309C35.2302 20.1659 34.9037 19.555 34.4242 19.0755C33.9447 18.596 33.3338 18.2694 32.6687 18.1372C32.0036 18.0049 31.3143 18.0728 30.6878 18.3323C30.0613 18.5918 29.5258 19.0312 29.1491 19.5951C28.7724 20.1589 28.5713 20.8218 28.5713 21.4999C28.5712 21.9502 28.6598 22.396 28.832 22.8121C29.0043 23.2281 29.2568 23.6061 29.5752 23.9245C29.8936 24.2429 30.2717 24.4954 30.6877 24.6677C31.1037 24.8399 31.5496 24.9285 31.9999 24.9284Z" fill="#F15A23"/>
<path d="M37.9999 24.9284C38.9093 24.9284 39.7813 24.5672 40.4243 23.9242C41.0673 23.2813 41.4285 22.4092 41.4285 21.4999C41.4285 20.5906 41.0673 19.7185 40.4243 19.0755C39.7813 18.4325 38.9093 18.0713 37.9999 18.0713C37.3699 18.0689 36.752 18.2442 36.217 18.577C36.8195 19.4326 37.1428 20.4534 37.1428 21.4998C37.1428 22.5463 36.8195 23.5671 36.217 24.4227C36.752 24.7556 37.3699 24.9309 37.9999 24.9284Z" fill="#F15A23"/>
<path d="M36.6799 45.9286H40.2628C40.4671 45.9286 40.6645 45.8549 40.8188 45.721C40.9731 45.5872 41.0739 45.4022 41.1028 45.2L42.2171 37.9915C42.6714 37.1847 43.0584 36.3418 43.3743 35.4715V28.6915C43.3739 28.1642 43.1643 27.6586 42.7915 27.2857C42.4186 26.9129 41.913 26.7033 41.3857 26.7029H38.4971C38.8844 27.2937 39.09 27.985 39.0885 28.6915V35.4715C39.0922 35.8672 39.0011 36.2581 38.8228 36.6115L37.8713 38.5143L36.7999 45.4657C36.7783 45.6242 36.738 45.7796 36.6799 45.9286Z" fill="#F15A23"/>
<path d="M29.4287 12.457V10.7341C24.6707 11.3103 20.2433 13.4651 16.8543 16.8541C13.4654 20.2431 11.3106 24.6705 10.7344 29.4284H12.4572C13.0269 25.1273 14.9982 21.1338 18.0661 18.0659C21.1341 14.998 25.1275 13.0267 29.4287 12.457Z" fill="#F15A23"/>
<path d="M34.5713 51.5427V53.2656C39.3292 52.6894 43.7566 50.5346 47.1456 47.1456C50.5346 43.7566 52.6894 39.3292 53.2656 34.5713H51.5427C50.973 38.8724 49.0017 42.8659 45.9338 45.9338C42.8659 49.0017 38.8724 50.973 34.5713 51.5427Z" fill="#F15A23"/>
<path d="M51.5427 29.4284H53.2656C52.6894 24.6705 50.5346 20.2431 47.1456 16.8541C43.7566 13.4651 39.3292 11.3103 34.5713 10.7341V12.457C38.8724 13.0267 42.8659 14.998 45.9338 18.0659C49.0017 21.1338 50.973 25.1273 51.5427 29.4284Z" fill="#F15A23"/>
<path d="M12.4572 34.5713H10.7344C11.3106 39.3292 13.4654 43.7566 16.8543 47.1456C20.2433 50.5346 24.6707 52.6894 29.4287 53.2656V51.5427C25.1275 50.973 21.1341 49.0017 18.0662 45.9338C14.9982 42.8659 13.0269 38.8724 12.4572 34.5713Z" fill="#F15A23"/>
<path d="M14.8571 32C14.8572 31.8874 14.835 31.776 14.792 31.6719C14.7489 31.5679 14.6858 31.4734 14.6062 31.3938C14.5266 31.3142 14.4321 31.2511 14.3281 31.208C14.2241 31.165 14.1126 31.1428 14 31.1428H8.85715C8.62982 31.1428 8.4118 31.2331 8.25105 31.3939C8.09031 31.5546 8 31.7726 8 32C8 32.2273 8.09031 32.4453 8.25105 32.6061C8.4118 32.7668 8.62982 32.8571 8.85715 32.8571H14C14.1126 32.8572 14.2241 32.835 14.3281 32.7919C14.4321 32.7489 14.5266 32.6857 14.6062 32.6061C14.6858 32.5265 14.7489 32.432 14.792 32.328C14.835 32.224 14.8572 32.1126 14.8571 32Z" fill="#F15A23"/>
<path d="M31.9999 49.1428C31.8874 49.1428 31.7759 49.1649 31.6719 49.2079C31.5678 49.251 31.4733 49.3141 31.3937 49.3938C31.3141 49.4734 31.251 49.5679 31.2079 49.6719C31.1649 49.7759 31.1428 49.8874 31.1428 50V55.1428C31.1428 55.3701 31.2331 55.5882 31.3939 55.7489C31.5546 55.9096 31.7726 55.9999 31.9999 55.9999C32.2273 55.9999 32.4453 55.9096 32.606 55.7489C32.7668 55.5882 32.8571 55.3701 32.8571 55.1428V50C32.8571 49.8874 32.835 49.7759 32.792 49.6719C32.7489 49.5679 32.6858 49.4734 32.6062 49.3938C32.5266 49.3141 32.4321 49.251 32.328 49.2079C32.224 49.1649 32.1125 49.1428 31.9999 49.1428Z" fill="#F15A23"/>
<path d="M55.1429 31.1428H50C49.7726 31.1428 49.5546 31.2331 49.3939 31.3939C49.2331 31.5546 49.1428 31.7726 49.1428 32C49.1428 32.2273 49.2331 32.4453 49.3939 32.6061C49.5546 32.7668 49.7726 32.8571 50 32.8571H55.1429C55.3702 32.8571 55.5882 32.7668 55.749 32.6061C55.9097 32.4453 56 32.2273 56 32C56 31.7726 55.9097 31.5546 55.749 31.3939C55.5882 31.2331 55.3702 31.1428 55.1429 31.1428Z" fill="#F15A23"/>
<path d="M31.9999 14.8571C32.1125 14.8571 32.224 14.835 32.328 14.7919C32.432 14.7489 32.5265 14.6857 32.6061 14.6061C32.6857 14.5265 32.7488 14.432 32.7919 14.328C32.8349 14.224 32.8571 14.1126 32.8571 14V8.85712C32.8571 8.6298 32.7668 8.41179 32.606 8.25104C32.4453 8.0903 32.2273 8 31.9999 8C31.7726 8 31.5546 8.0903 31.3939 8.25104C31.2331 8.41179 31.1428 8.6298 31.1428 8.85712V14C31.1428 14.1126 31.1649 14.224 31.208 14.328C31.2511 14.432 31.3142 14.5265 31.3938 14.6061C31.4734 14.6857 31.5679 14.7489 31.6719 14.7919C31.7759 14.835 31.8874 14.8571 31.9999 14.8571Z" fill="#F15A23"/>
<path d="M32 2C26.0666 1.9999 20.2663 3.75929 15.3328 7.05567C10.3992 10.3521 6.55398 15.0374 4.28328 20.5192C2.01258 26.0009 1.41841 32.0329 2.57591 37.8524C3.73341 43.6719 6.59059 49.0174 10.7861 53.213C14.9817 57.4087 20.3272 60.2659 26.1466 61.4235C31.9661 62.5811 37.9981 61.987 43.4799 59.7164C48.9617 57.4458 53.6471 53.6006 56.9436 48.6672C60.24 43.7337 61.9995 37.9335 61.9995 32C61.9906 24.0463 58.8271 16.421 53.203 10.7969C47.579 5.17271 39.9537 2.00908 32 2ZM32 60.2913C26.4046 60.2912 20.9348 58.6318 16.2824 55.5231C11.63 52.4143 8.00387 47.9958 5.86265 42.8263C3.72143 37.6567 3.16123 31.9683 4.25291 26.4803C5.34459 20.9924 8.03911 15.9514 11.9957 11.9949C15.9524 8.03833 20.9934 5.3439 26.4813 4.25231C31.9693 3.16073 37.6577 3.72102 42.8272 5.86233C47.9967 8.00364 52.4152 11.6298 55.5239 16.2823C58.6325 20.9347 60.2918 26.4045 60.2918 32C60.2831 39.5007 57.2996 46.6918 51.9957 51.9955C46.6918 57.2993 39.5007 60.2827 32 60.2913Z" fill="#F15A23"/>
</svg>
