<svg width="512" height="512" viewBox="0 0 512 512" fill="none" xmlns="http://www.w3.org/2000/svg">
<g clip-path="url(#clip0_88_80)">
<path d="M368 400H360V392C360 385.635 357.471 379.53 352.971 375.03C348.47 370.529 342.365 368 336 368H329.112L334.192 329.032C334.427 326.947 333.834 324.853 332.54 323.201C331.246 321.549 329.355 320.472 327.275 320.201C325.194 319.931 323.09 320.488 321.417 321.754C319.743 323.02 318.634 324.892 318.328 326.968L312.976 368H198.864L153.312 71.9041C224.42 70.443 294.337 53.3652 358.112 21.8801L322.496 294.968C322.222 297.073 322.796 299.2 324.091 300.882C325.385 302.564 327.295 303.662 329.4 303.936C331.505 304.21 333.632 303.636 335.314 302.341C336.996 301.047 338.094 299.137 338.368 297.032L375.968 9.03206C376.16 7.588 375.954 6.1189 375.373 4.78327C374.791 3.44764 373.856 2.29617 372.668 1.4531C371.48 0.610033 370.084 0.107364 368.631 -0.000672333C367.178 -0.108709 365.724 0.181989 364.424 0.840059L352.6 6.76006C287.8 39.0569 216.402 55.9104 144 56.0001C142.847 56.0005 141.707 56.2502 140.66 56.7321C139.612 57.214 138.681 57.9167 137.93 58.792C137.18 59.6673 136.627 60.6946 136.311 61.8034C135.994 62.9122 135.921 64.0763 136.096 65.2161L182.672 368H176C169.635 368 163.53 370.529 159.029 375.03C154.529 379.53 152 385.635 152 392V400H144C137.635 400 131.53 402.529 127.029 407.03C122.529 411.53 120 417.635 120 424V504C120 506.122 120.843 508.157 122.343 509.657C123.843 511.157 125.878 512 128 512H384C386.122 512 388.157 511.157 389.657 509.657C391.157 508.157 392 506.122 392 504V424C392 417.635 389.471 411.53 384.971 407.03C380.47 402.529 374.365 400 368 400ZM376 496H136V424C136 421.878 136.843 419.843 138.343 418.343C139.843 416.843 141.878 416 144 416H192C194.122 416 196.157 415.157 197.657 413.657C199.157 412.157 200 410.122 200 408C200 405.878 199.157 403.843 197.657 402.343C196.157 400.843 194.122 400 192 400H168V392C168 389.878 168.843 387.843 170.343 386.343C171.843 384.843 173.878 384 176 384H336C338.122 384 340.157 384.843 341.657 386.343C343.157 387.843 344 389.878 344 392V400H224C221.878 400 219.843 400.843 218.343 402.343C216.843 403.843 216 405.878 216 408C216 410.122 216.843 412.157 218.343 413.657C219.843 415.157 221.878 416 224 416H368C370.122 416 372.157 416.843 373.657 418.343C375.157 419.843 376 421.878 376 424V496Z" fill="#F15A23"/>
<path d="M304 448H208C205.878 448 203.843 448.843 202.343 450.343C200.843 451.843 200 453.878 200 456C200 458.122 200.843 460.157 202.343 461.657C203.843 463.157 205.878 464 208 464H304C306.122 464 308.157 463.157 309.657 461.657C311.157 460.157 312 458.122 312 456C312 453.878 311.157 451.843 309.657 450.343C308.157 448.843 306.122 448 304 448Z" fill="#F15A23"/>
<path d="M314.08 130.2C313.618 128.782 312.769 127.52 311.628 126.559C310.487 125.598 309.1 124.975 307.624 124.76L276.912 120.288L263.2 92.4641C262.467 91.2147 261.419 90.1787 260.162 89.4589C258.904 88.739 257.481 88.3604 256.032 88.3604C254.583 88.3604 253.16 88.739 251.902 89.4589C250.645 90.1787 249.598 91.2147 248.864 92.4641L235.12 120.288L204.408 124.76C202.933 124.977 201.547 125.602 200.408 126.564C199.269 127.527 198.422 128.788 197.962 130.207C197.502 131.625 197.448 133.144 197.805 134.592C198.162 136.04 198.917 137.359 199.984 138.4L222.2 160.064L216.952 190.648C216.7 192.119 216.864 193.632 217.427 195.014C217.99 196.397 218.928 197.595 220.135 198.472C221.343 199.349 222.772 199.871 224.261 199.978C225.75 200.086 227.239 199.775 228.56 199.08L256 184.64L283.472 199.08C284.793 199.775 286.282 200.086 287.771 199.978C289.26 199.871 290.689 199.349 291.897 198.472C293.104 197.595 294.042 196.397 294.605 195.014C295.168 193.632 295.332 192.119 295.08 190.648L289.832 160.064L312.048 138.4C313.118 137.359 313.876 136.039 314.235 134.59C314.594 133.141 314.54 131.62 314.08 130.2ZM275.68 151.536C274.749 152.44 274.053 153.557 273.65 154.791C273.247 156.024 273.15 157.337 273.368 158.616L276.568 177.376L259.72 168.52C258.573 167.917 257.296 167.603 256 167.603C254.704 167.603 253.427 167.917 252.28 168.52L235.432 177.376L238.632 158.616C238.85 157.337 238.753 156.024 238.35 154.791C237.947 153.557 237.251 152.44 236.32 151.536L222.72 138.256L241.552 135.512C242.835 135.327 244.053 134.832 245.103 134.071C246.152 133.31 247.001 132.306 247.576 131.144L256 114.08L264.424 131.144C264.999 132.306 265.848 133.31 266.897 134.071C267.947 134.832 269.165 135.327 270.448 135.512L289.28 138.256L275.68 151.536Z" fill="#F15A23"/>
<path d="M304 248C304 245.878 303.157 243.843 301.657 242.343C300.157 240.843 298.122 240 296 240H216C213.878 240 211.843 240.843 210.343 242.343C208.843 243.843 208 245.878 208 248C208 250.122 208.843 252.157 210.343 253.657C211.843 255.157 213.878 256 216 256H296C298.122 256 300.157 255.157 301.657 253.657C303.157 252.157 304 250.122 304 248Z" fill="#F15A23"/>
<path d="M232 272C229.878 272 227.843 272.843 226.343 274.343C224.843 275.843 224 277.878 224 280C224 282.122 224.843 284.157 226.343 285.657C227.843 287.157 229.878 288 232 288H280C282.122 288 284.157 287.157 285.657 285.657C287.157 284.157 288 282.122 288 280C288 277.878 287.157 275.843 285.657 274.343C284.157 272.843 282.122 272 280 272H232Z" fill="#F15A23"/>
</g>
<defs>
<clipPath id="clip0_88_80">
<rect width="512" height="512" fill="white"/>
</clipPath>
</defs>
</svg>
