<svg width="512" height="512" viewBox="0 0 512 512" fill="none" xmlns="http://www.w3.org/2000/svg">
<path fill-rule="evenodd" clip-rule="evenodd" d="M320.72 191.29C307.921 178.491 291.613 169.775 273.86 166.243C256.107 162.712 237.706 164.525 220.983 171.452C204.26 178.379 189.966 190.109 179.91 205.159C169.854 220.21 164.486 237.904 164.486 256.005C164.486 274.106 169.854 291.8 179.91 306.851C189.966 321.901 204.26 333.631 220.983 340.558C237.706 347.485 256.107 349.298 273.86 345.767C291.613 342.235 307.921 333.519 320.72 320.72C337.881 303.555 347.522 280.277 347.522 256.005C347.522 231.733 337.881 208.455 320.72 191.29ZM256 144.71C278.014 144.71 299.533 151.238 317.836 163.468C336.139 175.698 350.405 193.082 358.829 213.42C367.253 233.758 369.456 256.137 365.161 277.727C360.865 299.318 350.264 319.149 334.698 334.715C319.131 350.28 299.298 360.879 277.707 365.173C256.117 369.466 233.738 367.261 213.4 358.835C193.063 350.409 175.681 336.142 163.453 317.838C151.224 299.533 144.698 278.014 144.7 256C144.703 226.483 156.43 198.176 177.303 177.305C198.175 156.435 226.483 144.71 256 144.71ZM155.78 55.24C188.894 46.0466 220.92 33.3061 251.3 17.24C252.726 16.4674 254.321 16.0578 255.943 16.0473C257.565 16.0369 259.164 16.4259 260.6 17.18C291.008 33.2829 323.067 46.0504 356.22 55.26C389.709 64.5101 424.072 70.2444 458.75 72.37C460.051 72.3634 461.34 72.6143 462.543 73.1081C463.747 73.6019 464.84 74.3289 465.762 75.2473C466.683 76.1656 467.413 77.2572 467.911 78.459C468.408 79.6609 468.663 80.9493 468.66 82.25V204.76V204.83C467.93 280.09 450.29 341 415.4 389.08C380.51 437.16 328.53 472.15 259.17 495.46C257.14 496.145 254.94 496.145 252.91 495.46C183.55 472.15 131.6 437.19 96.6801 389.08C61.8901 341.2 44.2601 280.59 43.3901 205.77C43.3703 205.437 43.3703 205.103 43.3901 204.77V82.25C43.3907 79.7349 44.3514 77.3148 46.0762 75.4842C47.8009 73.6535 50.1594 72.5504 52.6701 72.4C87.5452 70.2979 122.104 64.5465 155.78 55.24ZM256 37C316.35 68.13 381.32 86.07 448.89 91.42V204.76C448.18 275.68 431.77 332.76 399.33 377.49C367.41 421.49 319.73 453.75 255.96 475.7C192.19 453.75 144.51 421.47 112.59 377.49C80.3001 332.94 63.9001 276.08 63.0801 205.5C63.0801 205.26 63.0801 205.01 63.0801 204.76V91.44C130.68 86.09 195.65 68.15 256 37ZM291.45 218C293.232 216.085 295.702 214.957 298.316 214.863C300.931 214.769 303.475 215.718 305.39 217.5C307.305 219.282 308.433 221.752 308.527 224.366C308.621 226.981 307.672 229.525 305.89 231.44L247.62 294.11C246.652 295.16 245.467 295.987 244.148 296.533C242.828 297.079 241.406 297.332 239.979 297.274C238.552 297.216 237.155 296.848 235.884 296.197C234.614 295.545 233.5 294.625 232.62 293.5L206 264C205.133 263.041 204.463 261.921 204.028 260.704C203.594 259.486 203.403 258.195 203.468 256.904C203.532 255.612 203.851 254.347 204.404 253.178C204.958 252.01 205.736 250.962 206.695 250.095C208.631 248.343 211.184 247.432 213.792 247.563C215.083 247.627 216.349 247.945 217.517 248.499C218.685 249.053 219.733 249.831 220.6 250.79L240.45 272.72L291.45 218Z" fill="#F15A23"/>
</svg>
