<svg width="682" height="682" viewBox="0 0 682 682" fill="none" xmlns="http://www.w3.org/2000/svg">
<g clip-path="url(#clip0_88_74)">
<path d="M142.388 252.839C142.388 362.905 231.931 452.449 341.997 452.449C452.063 452.449 541.607 362.905 541.607 252.839C541.607 142.773 452.063 53.2292 341.997 53.2292C231.931 53.2292 142.388 142.773 142.388 252.839ZM341.997 79.8439C437.389 79.8439 514.992 157.447 514.992 252.839C514.992 348.231 437.389 425.834 341.997 425.834C246.606 425.834 169.002 348.231 169.002 252.839C169.002 157.447 246.606 79.8439 341.997 79.8439Z" fill="#F15A23"/>
<path d="M218.759 229.114L270.341 279.937L258.473 351.365C257.647 356.34 259.7 361.351 263.781 364.314C267.856 367.277 273.257 367.677 277.732 365.358L341.997 331.986L406.257 365.358C410.696 367.661 416.097 367.303 420.209 364.314C424.29 361.351 426.343 356.34 425.516 351.365L413.649 279.937L465.23 229.114C468.822 225.58 470.106 220.319 468.547 215.521C466.987 210.728 462.855 207.23 457.87 206.476L386.286 195.701L353.896 130.926C351.645 126.419 347.034 123.571 341.997 123.571C336.955 123.571 332.35 126.419 330.094 130.926L297.704 195.701L226.12 206.476C221.135 207.225 217.002 210.728 215.443 215.521C213.883 220.319 215.173 225.58 218.759 229.114ZM308.5 220.99C312.784 220.345 316.485 217.658 318.424 213.785L341.997 166.632L365.571 213.785C367.51 217.658 371.211 220.345 375.494 220.99L427.596 228.834L390.049 265.819C386.967 268.86 385.553 273.21 386.26 277.483L394.899 329.47L348.126 305.184C346.208 304.186 344.103 303.687 341.997 303.687C339.892 303.687 337.787 304.186 335.864 305.184L289.09 329.47L297.73 277.483C298.442 273.21 297.028 268.86 293.94 265.819L256.399 228.834L308.5 220.99Z" fill="#F15A23"/>
<path d="M355.305 13.3073C355.305 20.6575 349.347 26.6146 341.997 26.6146C334.647 26.6146 328.69 20.6575 328.69 13.3073C328.69 5.9571 334.647 0 341.997 0C349.347 0 355.305 5.9571 355.305 13.3073Z" fill="#F15A23"/>
<path d="M279.281 7.84406C167.339 36.4184 89.1584 137.164 89.1584 252.839C89.1584 324.683 119.365 392.379 172.392 440.321L92.2202 581.613C89.6419 586.161 89.9642 591.796 93.0415 596.017C96.1188 600.243 101.379 602.275 106.5 601.21L197.545 582.304L229.545 672.477C231.282 677.384 235.726 680.82 240.914 681.282C246.102 681.745 251.076 679.13 253.649 674.603L341.997 519.281L430.34 674.603C432.721 678.787 437.15 681.329 441.901 681.329C442.291 681.329 442.686 681.314 443.076 681.282C448.264 680.82 452.708 677.379 454.449 672.477L486.444 582.304L577.49 601.21C582.605 602.27 587.871 600.238 590.948 596.017C594.031 591.796 594.348 586.161 591.769 581.613L511.598 440.321C564.625 392.379 594.831 324.683 594.831 252.839C594.831 137.164 516.651 36.4184 404.713 7.84406C397.587 6.0247 390.346 10.3236 388.526 17.4451C386.707 24.5666 391.006 31.8128 398.127 33.6322C498.275 59.1968 568.222 149.338 568.222 252.839C568.222 378.806 465.917 479.063 341.997 479.063C217.99 479.063 115.773 378.723 115.773 252.839C115.773 149.338 185.714 59.1968 285.862 33.6322C292.984 31.8128 297.283 24.5666 295.469 17.4451C293.649 10.3236 286.408 6.0247 279.281 7.84406ZM244.901 636.162L218.749 562.468C216.524 556.199 210.016 552.534 203.503 553.886L129.881 569.174L193.33 457.351C230.325 484.246 274.13 500.63 319.682 504.685L244.901 636.162ZM480.487 553.886C473.979 552.534 467.466 556.199 465.241 562.468L439.094 636.162L364.308 504.685C409.865 500.63 453.664 484.246 490.665 457.351L554.114 569.174L480.487 553.886Z" fill="#F15A23"/>
</g>
<defs>
<clipPath id="clip0_88_74">
<rect width="681.333" height="681.333" fill="white"/>
</clipPath>
</defs>
</svg>
