<svg width="159" height="43" viewBox="0 0 159 43" fill="none" xmlns="http://www.w3.org/2000/svg">
<path d="M104.466 25.7531C104.404 25.2485 104.374 24.7404 104.377 24.2321V18.1321C104.409 17.5227 104.24 16.9198 103.898 16.4151C103.578 15.9824 103.157 15.6351 102.672 15.4041C102.147 15.1559 101.588 14.9903 101.014 14.9131C100.419 14.8314 99.8196 14.79 99.2195 14.7891C98.5677 14.7893 97.9176 14.854 97.2785 14.9821C96.668 15.0978 96.0817 15.3166 95.5445 15.6291C95.0334 15.926 94.5974 16.3366 94.2705 16.8291C93.9165 17.3938 93.7217 18.0437 93.7065 18.7101H96.9275C96.9304 18.4509 96.9885 18.1954 97.098 17.9605C97.2075 17.7256 97.3658 17.5168 97.5625 17.3481C98.0047 17.0522 98.5313 16.9086 99.0625 16.9391C99.3322 16.9381 99.6016 16.9568 99.8685 16.9951C100.099 17.0266 100.322 17.1037 100.523 17.2221C100.714 17.3368 100.87 17.5018 100.974 17.6991C101.1 17.9562 101.159 18.2417 101.144 18.5281C101.161 18.6694 101.143 18.8127 101.091 18.9451C101.038 19.0774 100.954 19.1946 100.845 19.2861C100.59 19.4814 100.295 19.6179 99.9815 19.6861C99.5716 19.7832 99.1552 19.8501 98.7355 19.8861C98.2665 19.9341 97.7865 19.9861 97.3055 20.0681C96.8205 20.1435 96.3401 20.246 95.8665 20.3751C95.4119 20.4906 94.9809 20.6841 94.5925 20.9471C94.2139 21.2164 93.9031 21.5701 93.6845 21.9801C93.432 22.4909 93.311 23.0566 93.3325 23.6261C93.3181 24.1648 93.4237 24.7001 93.6415 25.1931C93.8337 25.6185 94.1244 25.9921 94.4895 26.2831C94.8661 26.5782 95.2984 26.7942 95.7605 26.9181C96.2721 27.0553 96.7999 27.1226 97.3295 27.1181C98.0518 27.1183 98.7702 27.0121 99.4615 26.8031C100.151 26.5924 100.776 26.2085 101.276 25.6881C101.293 25.8823 101.32 26.0756 101.358 26.2671C101.397 26.4545 101.447 26.6394 101.508 26.8211H104.775C104.6 26.4898 104.495 26.1264 104.466 25.7531ZM101.151 22.3051C101.147 22.5472 101.129 22.789 101.096 23.0291C101.053 23.3459 100.948 23.6515 100.79 23.9291C100.602 24.2449 100.336 24.5071 100.018 24.6901C99.5647 24.9276 99.0561 25.0385 98.5455 25.0111C98.2935 25.0106 98.0421 24.9868 97.7945 24.9401C97.5701 24.8998 97.3548 24.8188 97.1595 24.7011C96.9787 24.5856 96.8312 24.425 96.7315 24.2351C96.6191 24.0096 96.5644 23.7598 96.5725 23.5081C96.5631 23.2498 96.6177 22.9932 96.7315 22.7611C96.833 22.5689 96.9753 22.4013 97.1485 22.2701C97.3371 22.1372 97.5448 22.0336 97.7645 21.9631C97.9985 21.8872 98.2374 21.8274 98.4795 21.7841C98.7375 21.7361 98.9935 21.7021 99.2515 21.6681C99.5095 21.6341 99.7515 21.6031 99.9875 21.5581C100.21 21.5137 100.43 21.4566 100.646 21.3871C100.833 21.3276 101.006 21.2299 101.153 21.1001V22.3061L101.151 22.3051Z" fill="#989CAA"/>
<path d="M112.862 10.6328H109.639V26.8398H112.862V10.6328Z" fill="#989CAA"/>
<path d="M89.0751 16.8508H82.5171V10.6328H78.9541V26.8398H82.5171V19.8478H89.0761V26.8388H92.6411V10.6328H89.0761L89.0751 16.8508Z" fill="#989CAA"/>
<path d="M108.594 10.6328H105.371V26.8398H108.594V10.6328Z" fill="#989CAA"/>
<path d="M38.5554 25.7532C38.4902 25.2488 38.4588 24.7407 38.4614 24.2322V18.1322C38.4921 17.5233 38.3247 16.9209 37.9844 16.4152C37.6633 15.9804 37.2416 15.6301 36.7554 15.3942C36.2316 15.1474 35.6725 14.9838 35.0984 14.9092C34.5049 14.8275 33.9065 14.7861 33.3074 14.7852C32.6546 14.7846 32.0033 14.8492 31.3634 14.9782C30.7534 15.0959 30.1674 15.3145 29.6294 15.6252C29.119 15.9221 28.6841 16.3327 28.3584 16.8252C28.0053 17.3904 27.8102 18.0399 27.7934 18.7062H31.0114C31.0145 18.4471 31.0731 18.1917 31.1834 17.9573C31.2936 17.7229 31.4529 17.5148 31.6504 17.3472C32.0926 17.0514 32.6192 16.9078 33.1504 16.9382C33.4201 16.936 33.6896 16.9547 33.9564 16.9942C34.1884 17.0261 34.412 17.1032 34.6144 17.2212C34.803 17.3386 34.9591 17.5016 35.0684 17.6952C35.1896 17.9537 35.2458 18.2379 35.2324 18.5232C35.2496 18.6649 35.2312 18.8088 35.1788 18.9417C35.1264 19.0745 35.0417 19.1923 34.9324 19.2842C34.6795 19.4799 34.386 19.6166 34.0734 19.6842C33.6627 19.7825 33.2452 19.8494 32.8244 19.8842C32.3554 19.9322 31.8764 19.9842 31.3944 20.0692C30.9081 20.1434 30.4267 20.2459 29.9524 20.3762C29.4991 20.4927 29.0692 20.6862 28.6814 20.9482C28.3028 21.2175 27.992 21.5712 27.7734 21.9812C27.5209 22.492 27.3999 23.0578 27.4214 23.6272C27.4082 24.1656 27.513 24.7005 27.7284 25.1942C27.9242 25.6182 28.2155 25.9913 28.5794 26.2842C28.9569 26.5777 29.3889 26.7936 29.8504 26.9192C30.3601 27.0556 30.8858 27.1228 31.4134 27.1192C32.1376 27.1201 32.8578 27.013 33.5504 26.8012C34.24 26.5894 34.8647 26.2065 35.3664 25.6882C35.3948 26.0734 35.4711 26.4537 35.5934 26.8202H38.8644C38.6879 26.49 38.5826 26.1265 38.5554 25.7532ZM35.2384 22.3052C35.2348 22.5474 35.2161 22.7892 35.1824 23.0292C35.1411 23.3466 35.0367 23.6526 34.8754 23.9292C34.6897 24.2455 34.4246 24.5078 34.1064 24.6902C33.6516 24.9282 33.1409 25.0391 32.6284 25.0112C32.3777 25.0106 32.1276 24.9868 31.8814 24.9402C31.6569 24.9001 31.4416 24.819 31.2464 24.7012C31.0632 24.5867 30.9135 24.426 30.8124 24.2352C30.7029 24.0088 30.6495 23.7595 30.6564 23.5082C30.6474 23.2502 30.7009 22.9939 30.8124 22.7612C30.9156 22.5696 31.0585 22.4023 31.2314 22.2702C31.4196 22.136 31.6279 22.0324 31.8484 21.9632C32.0822 21.8895 32.3199 21.8287 32.5604 21.7812C32.8184 21.7352 33.0744 21.6992 33.3324 21.6672C33.5904 21.6352 33.8374 21.6022 34.0684 21.5572C34.2906 21.5121 34.5103 21.455 34.7264 21.3862C34.915 21.3274 35.0891 21.2296 35.2374 21.0992V22.3032L35.2384 22.3052Z" fill="#989CAA"/>
<path d="M10.5254 23.2312C10.1959 23.5707 9.79746 23.8357 9.35687 24.0082C8.91629 24.1807 8.44384 24.2568 7.97139 24.2312C7.26154 24.253 6.5579 24.093 5.92739 23.7662C5.3819 23.4678 4.91509 23.0442 4.56539 22.5302C4.21122 22.0007 3.95389 21.4126 3.80539 20.7932C3.64686 20.1434 3.56762 19.4769 3.56939 18.8082C3.56711 18.112 3.64631 17.4179 3.80539 16.7402C3.95153 16.1059 4.20883 15.5026 4.56539 14.9582C4.91321 14.4391 5.38022 14.0108 5.92739 13.7092C6.55781 13.382 7.26146 13.2216 7.97139 13.2432C8.40088 13.2429 8.82717 13.317 9.23139 13.4622C9.62288 13.5986 9.9879 13.8016 10.3104 14.0622C10.6239 14.3127 10.8918 14.6155 11.1024 14.9572C11.316 15.299 11.4553 15.682 11.5114 16.0812H14.9614C14.8755 15.2046 14.6139 14.3544 14.1924 13.5812C13.8002 12.8754 13.272 12.2545 12.6384 11.7542C11.9994 11.2553 11.2768 10.874 10.5044 10.6282C9.68495 10.3703 8.83041 10.2414 7.97139 10.2462C6.82178 10.2278 5.68125 10.4524 4.62439 10.9052C3.6649 11.321 2.80765 11.941 2.11239 12.7222C1.41935 13.5161 0.887161 14.4372 0.545386 15.4342C0.174667 16.519 -0.00960648 17.6588 0.00038559 18.8052C-0.00815156 19.9282 0.176193 21.0445 0.545386 22.1052C0.886525 23.0879 1.41684 23.9943 2.10639 24.7732C2.80463 25.5415 3.66182 26.1486 4.61839 26.5522C5.67829 27.0015 6.82032 27.2245 7.97139 27.2072C8.90624 27.2167 9.83556 27.0627 10.7174 26.7522C11.5251 26.4619 12.2659 26.0115 12.8954 25.4282C13.5287 24.8387 14.0386 24.1293 14.3954 23.3412C14.7882 22.4733 15.0271 21.5438 15.1014 20.5942H11.6414C11.5586 21.569 11.1677 22.4932 10.5254 23.2312Z" fill="#989CAA"/>
<path d="M25.8218 16.4232C25.4786 15.9891 25.0276 15.6526 24.5138 15.4472C23.8376 15.1914 23.1174 15.0717 22.3948 15.0952C21.7464 15.1051 21.109 15.2638 20.5318 15.5592C19.9677 15.8935 19.4416 16.2882 18.9628 16.7362H18.8978V11.6582H15.6758V26.8382H18.8978V20.9962C18.8226 20.0976 19.0292 19.198 19.4888 18.4222C19.7196 18.1476 20.0134 17.933 20.3451 17.7965C20.6768 17.6599 21.0366 17.6057 21.3938 17.6382C21.7018 17.6053 22.0131 17.6542 22.2961 17.7801C22.5792 17.906 22.824 18.1044 23.0058 18.3552C23.3516 19.0231 23.5086 19.7727 23.4598 20.5232V26.8402H26.6828V19.9312C26.6888 19.2647 26.6251 18.5994 26.4928 17.9462C26.384 17.3953 26.1549 16.8753 25.8218 16.4232Z" fill="#989CAA"/>
<path d="M45.0373 15.249C44.6602 15.3699 44.3013 15.5415 43.9703 15.759C43.6383 15.982 43.3399 16.2514 43.0843 16.559C42.8298 16.8631 42.6228 17.2039 42.4703 17.57H42.4313V15.104H39.3613V26.834H42.5853V21.601C42.5836 21.103 42.6386 20.6065 42.7493 20.121C42.8419 19.6908 43.0242 19.2849 43.2843 18.93C43.5389 18.5836 43.8762 18.3065 44.2653 18.124C44.7375 17.9166 45.2499 17.8169 45.7653 17.832C45.9603 17.832 46.1533 17.804 46.3733 17.812C46.5373 17.812 46.7733 17.801 46.9203 17.812V15.112H46.2203C45.8221 15.0967 45.4239 15.144 45.0403 15.252L45.0373 15.249Z" fill="#989CAA"/>
<path d="M53.863 24.4319C53.6741 24.4887 53.4733 24.4932 53.282 24.4452C53.0907 24.3971 52.916 24.2982 52.7764 24.1588C52.6368 24.0195 52.5374 23.845 52.489 23.6538C52.4405 23.4627 52.4446 23.2619 52.501 23.0729V17.2609H54.864V15.1039H52.501V11.5879H49.284V15.1039H47.335V17.2609H49.284V24.1839C49.2628 24.6781 49.3659 25.1698 49.584 25.6139C49.7692 25.9634 50.0484 26.2543 50.39 26.4539C50.7547 26.6592 51.1545 26.7949 51.569 26.8539C52.0392 26.9221 52.5138 26.9556 52.989 26.9539C53.305 26.9539 53.63 26.9449 53.965 26.9299C54.2691 26.9163 54.5722 26.886 54.873 26.8389V24.3389C54.7152 24.3718 54.5556 24.3952 54.395 24.4089C54.218 24.4259 54.048 24.4319 53.863 24.4319Z" fill="#989CAA"/>
<path d="M65.9449 19.1459C65.7446 18.3453 65.3937 17.5902 64.9109 16.9209C64.4284 16.2688 63.8017 15.737 63.0799 15.3669C62.2708 14.964 61.3754 14.7652 60.4719 14.7879C59.6343 14.7771 58.8035 14.9385 58.0309 15.2619C57.3181 15.5657 56.6742 16.0106 56.1379 16.5699C55.5979 17.1322 55.1801 17.8002 54.9109 18.5319C54.6183 19.317 54.4722 20.1491 54.4799 20.9869C54.4711 21.8369 54.6133 22.6816 54.8999 23.4819C55.1599 24.2071 55.5652 24.8717 56.0909 25.4349C56.6171 25.9886 57.2595 26.4189 57.9719 26.6949C58.7694 27.0002 59.618 27.1502 60.4719 27.1369C61.6695 27.1718 62.8512 26.8562 63.8719 26.2289C64.9013 25.499 65.6406 24.4297 65.9599 23.2089H63.1219C62.9622 23.6426 62.6573 24.0076 62.2589 24.2419C61.6844 24.5952 61.0155 24.7639 60.3421 24.7255C59.6688 24.6871 59.0234 24.4432 58.4929 24.0269C57.9476 23.3993 57.6641 22.5864 57.7009 21.7559H66.1709C66.2321 20.8794 66.1559 19.9988 65.9449 19.1459ZM57.7059 19.7129C57.7251 19.4512 57.7727 19.1923 57.8479 18.9409C57.9379 18.6425 58.0853 18.3647 58.2819 18.1229C58.5047 17.8515 58.7838 17.6318 59.0999 17.4789C59.4998 17.2914 59.9385 17.202 60.3799 17.2179C60.7018 17.1927 61.0254 17.2363 61.3292 17.3457C61.633 17.4552 61.91 17.6281 62.1419 17.8529C62.577 18.3874 62.856 19.0318 62.9479 19.7149H57.7069L57.7059 19.7129Z" fill="#989CAA"/>
<path d="M72.5032 14.9691C72.1271 15.0892 71.7694 15.2609 71.4402 15.4791C70.7718 15.9159 70.2494 16.5428 69.9402 17.2791H69.8932V15.0991H66.8232V26.8371H70.0512V21.5531C70.0469 21.0568 70.0992 20.5616 70.2072 20.0771C70.301 19.6473 70.4832 19.2417 70.7422 18.8861C70.9978 18.5421 71.3349 18.2672 71.7232 18.0861C72.1942 17.8741 72.707 17.7716 73.2232 17.7861C73.4284 17.7859 73.6334 17.7973 73.8372 17.8201C74.0192 17.8379 74.2001 17.8652 74.3792 17.9021V14.9021C74.1522 14.8328 73.9166 14.7951 73.6792 14.7901C73.2803 14.7878 72.8834 14.8482 72.5032 14.9691Z" fill="#989CAA"/>
<path d="M141.028 11.8638L123.743 27.4198L141.028 42.9808L158.318 27.4198L141.028 11.8638Z" fill="#989CAA"/>
<path d="M123.227 26.559L140.517 11V0L123.227 15.557V26.559Z" fill="#989CAA"/>
<path d="M141.548 0.000976562V11.001L158.838 26.56V15.56L141.548 0.000976562Z" fill="#989CAA"/>
</svg>
