<svg width="42" height="42" viewBox="0 0 42 42" fill="none" xmlns="http://www.w3.org/2000/svg">
<path d="M29.8613 10.752V12.5813C29.8613 12.9435 30.1553 13.2375 30.5176 13.2375C30.8798 13.2375 31.1738 12.9435 31.1738 12.5813V10.752C32.487 10.4524 33.4707 9.2774 33.4707 7.875C33.4707 6.24652 32.1457 4.92188 30.5176 4.92188C28.8894 4.92188 27.5645 6.24652 27.5645 7.875C27.5645 9.2774 28.5482 10.4524 29.8613 10.752ZM30.5176 6.23437C31.4222 6.23437 32.1582 6.97036 32.1582 7.875C32.1582 8.77964 31.4222 9.51563 30.5176 9.51563C29.6129 9.51563 28.877 8.77964 28.877 7.875C28.877 6.97036 29.6129 6.23437 30.5176 6.23437Z" fill="white"/>
<path d="M7.54882 10.752V12.5813C7.54882 12.9435 7.84282 13.2375 8.20507 13.2375C8.56731 13.2375 8.86132 12.9435 8.86132 12.5813V10.752C10.1745 10.4524 11.1582 9.2774 11.1582 7.875C11.1582 6.24652 9.83323 4.92188 8.20507 4.92188C6.57691 4.92188 5.25195 6.24652 5.25195 7.875C5.25195 9.2774 6.23567 10.4524 7.54882 10.752ZM8.20507 6.23437C9.10971 6.23437 9.8457 6.97036 9.8457 7.875C9.8457 8.77964 9.10971 9.51563 8.20507 9.51563C7.30043 9.51563 6.56444 8.77964 6.56444 7.875C6.56444 6.97036 7.30043 6.23437 8.20507 6.23437Z" fill="white"/>
<path d="M19.3613 5.90625C20.9895 5.90625 22.3145 4.58161 22.3145 2.95313C22.3145 1.32464 20.9895 0 19.3613 0C17.7332 0 16.4082 1.32465 16.4082 2.95314C16.4082 4.58162 17.7332 5.90625 19.3613 5.90625ZM19.3613 1.31251C20.266 1.31251 21.002 2.0485 21.002 2.95314C21.002 3.85778 20.266 4.59377 19.3613 4.59377C18.4567 4.59377 17.7207 3.85778 17.7207 2.95314C17.7207 2.0485 18.4567 1.31251 19.3613 1.31251Z" fill="white"/>
<path d="M9.51758 33.7969H20.3457C20.708 33.7969 21.002 33.5029 21.002 33.1406C21.002 32.7784 20.708 32.4844 20.3457 32.4844H9.51758C4.99437 32.4844 1.31446 28.8044 1.31446 24.2812C1.31446 19.7581 4.99439 16.0781 9.51758 16.0781C11.6697 16.0781 13.7189 16.9421 15.288 18.5109C15.5442 18.7671 15.96 18.7671 16.2159 18.5109C16.4722 18.2546 16.4722 17.8392 16.2159 17.5829C14.8709 16.2376 13.2172 15.3415 11.4335 14.9661C12.3696 11.3915 15.603 8.85937 19.3613 8.85937C23.8845 8.85937 27.5644 12.5393 27.5644 17.0625V18.0469C27.5644 18.4091 27.8584 18.7031 28.2207 18.7031C28.9206 18.7031 29.7081 18.8153 30.3269 19.003C30.3906 19.0224 30.4549 19.0312 30.5176 19.0312C30.7991 19.0312 31.0593 18.8488 31.1456 18.5653C31.2506 18.2185 31.055 17.852 30.7082 17.7466C30.1543 17.5786 29.5122 17.4638 28.8769 17.4156V17.0625C28.8769 11.8155 24.6084 7.54688 19.3613 7.54688C14.9471 7.54688 11.1559 10.5577 10.124 14.7876C9.92249 14.7745 9.72069 14.7656 9.51758 14.7656C4.27054 14.7656 0.00195312 19.0342 0.00195312 24.2812C0.00195312 29.5283 4.27053 33.7969 9.51758 33.7969Z" fill="white"/>
<path d="M36.9441 27.0986L31.5019 32.5409L29.3408 30.3798C29.0849 30.1236 28.6688 30.1236 28.4129 30.3798C28.1566 30.6361 28.1566 31.0515 28.4129 31.3078L31.0379 33.9328C31.1659 34.0611 31.3339 34.125 31.5019 34.125C31.6699 34.125 31.8379 34.061 31.9658 33.9328L37.8721 28.0265C38.1283 27.7702 38.1283 27.3548 37.8721 27.0986C37.6161 26.8423 37.2001 26.8423 36.9441 27.0986Z" fill="white"/>
<path d="M40.6789 24.4571L33.4602 20.3319C33.0874 20.119 32.6615 20.0156 32.1579 20.0156C31.6542 20.0156 31.2283 20.119 30.8555 20.3319L23.6368 24.4571C22.8211 24.9234 22.3145 25.7969 22.3145 26.7363V31.412C22.3145 34.567 24.0118 37.507 26.7533 39.0898L31.8393 41.9173C31.9384 41.9724 32.0483 42 32.1582 42C32.2681 42 32.3777 41.9724 32.4771 41.9173L37.5723 39.0843C40.3046 37.5066 42.0019 34.567 42.0019 31.412V26.7363C42.0016 25.7968 41.495 24.9234 40.6789 24.4571ZM40.6891 31.412C40.6891 34.0997 39.2431 36.604 36.9249 37.9427L32.1579 40.593L27.4001 37.9477C25.0727 36.6037 23.6266 34.0994 23.6266 31.4121V26.7363C23.6266 26.2664 23.8799 25.83 24.2881 25.5967L31.5069 21.4718C31.6755 21.375 31.8888 21.3281 32.1579 21.3281C32.4269 21.3281 32.6402 21.375 32.8092 21.4718L40.028 25.5967C40.4358 25.83 40.6895 26.2667 40.6895 26.7363V31.412H40.6891Z" fill="white"/>
</svg>
