<svg width="2000" height="2000" viewBox="0 0 2000 2000" fill="none" xmlns="http://www.w3.org/2000/svg">
<g clip-path="url(#clip0_5113_194)">
<path d="M406.66 1429.34C405.55 1429.34 404.456 1429.4 403.377 1429.52C176.91 1427.62 0 1243.99 0 1010.01C0 778.695 183.081 590.506 408.118 590.506C465.848 590.506 520.375 598.413 557.434 612.092C645.94 645.78 720.897 710.676 768.493 794.831C776.714 809.359 795.153 814.469 809.681 806.26C824.211 798.041 829.327 779.6 821.111 765.072C784.014 699.484 732.344 644.085 670.995 603.149C768.202 448.986 907.826 373.959 1097.03 373.959C1337.79 373.959 1543.42 541.492 1597.62 776.762C1446.31 781.539 1329.1 847.069 1248.74 971.856C1240.47 967.96 1232.04 964.372 1223.46 961.109C1176.78 943.875 1120.52 941.301 1091.14 941.301C974.903 941.301 871.222 997.392 804.55 1084.52L651.353 931.324H731.693C748.386 931.324 761.918 917.793 761.918 901.099C761.918 884.406 748.386 870.874 731.693 870.874H578.385C569.847 870.874 562.151 874.428 556.655 880.12C550.963 885.616 547.409 893.312 547.409 901.85V1055.16C547.409 1071.85 560.94 1085.38 577.634 1085.38C594.327 1085.38 607.859 1071.85 607.859 1055.16V973.318L771.133 1136.59C743.138 1189.35 727.224 1249.75 727.224 1313.89C727.224 1353.76 733.145 1392.61 744.518 1429.34H406.66ZM1617.99 1626.04C1617 1625.94 1616.01 1625.89 1615 1625.89H1090.04C1089.08 1625.89 1088.13 1625.94 1087.2 1626.03C919.004 1624.4 787.673 1487.85 787.673 1313.89C787.673 1266.68 797.938 1221.88 816.264 1181.72L989.031 1354.49H907.192C890.499 1354.49 876.967 1368.02 876.967 1384.72C876.967 1401.41 890.499 1414.94 907.192 1414.94H1060.5C1069.04 1414.94 1076.74 1411.38 1082.24 1405.69C1082.36 1405.57 1082.49 1405.47 1082.61 1405.35C1082.61 1405.35 1082.62 1405.34 1082.62 1405.34C1083.32 1404.63 1083.99 1403.89 1084.62 1403.12C1084.91 1402.77 1085.17 1402.4 1085.44 1402.04C1085.76 1401.61 1086.09 1401.19 1086.38 1400.75C1086.67 1400.32 1086.93 1399.86 1087.19 1399.42C1087.43 1399.02 1087.68 1398.63 1087.9 1398.22C1088.15 1397.76 1088.35 1397.29 1088.57 1396.83C1088.77 1396.4 1088.99 1395.98 1089.17 1395.54C1089.36 1395.08 1089.51 1394.62 1089.68 1394.16C1089.84 1393.69 1090.03 1393.23 1090.17 1392.74C1090.31 1392.28 1090.41 1391.81 1090.53 1391.34C1090.65 1390.85 1090.79 1390.37 1090.89 1389.88C1091 1389.33 1091.06 1388.79 1091.14 1388.24C1091.2 1387.81 1091.28 1387.39 1091.32 1386.95C1091.42 1385.96 1091.47 1384.96 1091.47 1383.96V1230.66C1091.47 1213.97 1077.94 1200.43 1061.25 1200.43C1044.56 1200.43 1031.03 1213.97 1031.03 1230.66V1311L847.726 1127.7C903.098 1051.31 991.598 1001.75 1091.15 1001.75C1134.27 1001.75 1174.87 1007.61 1202.25 1017.71C1268.05 1042.76 1323.8 1091.03 1359.21 1153.63C1367.43 1168.16 1385.87 1173.27 1400.4 1165.06C1414.92 1156.84 1420.04 1138.4 1411.82 1123.87C1384.22 1075.06 1346.2 1033.52 1301.12 1002.16C1373.55 891.016 1476.69 836.9 1615.59 836.9C1827.56 836.9 2000 1013.91 2000 1231.47C2000 1448.4 1828.8 1625.01 1617.99 1626.04Z" fill="#FF6600"/>
</g>
<defs>
<clipPath id="clip0_5113_194">
<rect width="2000" height="2000" fill="white"/>
</clipPath>
</defs>
</svg>
