<svg width="651" height="665" viewBox="0 0 651 665" fill="none" xmlns="http://www.w3.org/2000/svg">
<path fill-rule="evenodd" clip-rule="evenodd" d="M136.044 153.121C140.379 124.161 152.946 87.688 179.329 57.4017C209.355 22.934 256.015 -1.99257 323.866 0.125482C391.718 -1.99257 438.377 22.934 468.403 57.4017C494.786 87.688 507.353 124.161 511.689 153.121C535.282 156.599 564.846 165.156 590.469 181.992C620.739 201.881 646.097 233.928 647.636 281.672C650.72 377.386 579.252 417.758 541.983 426.106C539.937 426.564 537.998 426.741 536.198 426.741H482.008L519.398 467.566C527.016 465.048 535.159 463.685 543.62 463.685C586.246 463.685 620.8 498.27 620.8 540.933C620.8 583.595 586.246 618.18 543.62 618.18C500.994 618.18 466.44 583.595 466.44 540.933C466.44 521.493 473.614 503.73 485.458 490.152L427.382 426.741H342.28V506.643C375.142 515.507 399.326 545.545 399.326 581.236C399.326 623.898 364.771 658.483 322.146 658.483C279.52 658.483 244.965 623.898 244.965 581.236C244.965 545.545 269.15 515.507 302.012 506.643V426.741H220.266L160.443 492.059C171.324 505.373 177.852 522.39 177.852 540.933C177.852 583.595 143.297 618.18 100.672 618.18C58.0459 618.18 23.491 583.595 23.491 540.933C23.491 498.27 58.0459 463.685 100.672 463.685C110.081 463.685 119.096 465.37 127.434 468.456L165.639 426.741H111.534C109.735 426.741 107.795 426.564 105.749 426.106C68.4806 417.758 -2.98816 377.386 0.0967201 281.672C1.63551 233.928 26.9931 201.881 57.2628 181.992C82.8865 165.156 112.449 156.599 136.044 153.121ZM324.765 40.4866L323.866 40.4517L322.967 40.4866C321.794 40.5345 320.64 40.481 319.514 40.3338C265.168 39.4012 231.121 59.2759 209.681 83.8874C186.855 110.091 177 143.281 174.903 167.172C173.755 180.246 163.452 190.775 150.227 191.993C129.863 193.868 101.91 200.868 79.3617 215.684C57.4925 230.053 41.3703 251.123 40.3438 282.971C38.1389 351.383 86.9327 379.955 113.111 386.438H322.146H325.586H534.621C560.8 379.955 609.593 351.383 607.388 282.971C606.362 251.123 590.24 230.053 568.37 215.684C545.822 200.868 517.869 193.868 497.505 191.993C484.28 190.775 473.977 180.246 472.829 167.172C470.733 143.281 460.878 110.091 438.051 83.8874C416.611 59.2759 382.564 39.4012 328.218 40.3338C327.092 40.481 325.938 40.5345 324.765 40.4866ZM543.62 577.877C523.234 577.877 506.708 561.337 506.708 540.933C506.708 520.529 523.234 503.988 543.62 503.988C564.006 503.988 580.532 520.529 580.532 540.933C580.532 561.337 564.006 577.877 543.62 577.877ZM285.233 581.236C285.233 601.64 301.759 618.18 322.146 618.18C342.532 618.18 359.058 601.64 359.058 581.236C359.058 560.832 342.532 544.291 322.146 544.291C301.759 544.291 285.233 560.832 285.233 581.236ZM100.672 577.877C80.2852 577.877 63.7591 561.337 63.7591 540.933C63.7591 520.529 80.2852 503.988 100.672 503.988C121.058 503.988 137.584 520.529 137.584 540.933C137.584 561.337 121.058 577.877 100.672 577.877Z" fill="#FF6600"/>
</svg>
