<svg width="512" height="512" viewBox="0 0 512 512" fill="none" xmlns="http://www.w3.org/2000/svg">
<path d="M486.08 272.8C484.168 267.842 480.797 263.582 476.411 260.582C472.026 257.582 466.833 255.984 461.52 256H432V80C432 69.3913 427.785 59.2172 420.284 51.7157C412.783 44.2143 402.608 40 392 40H120C109.391 40 99.2169 44.2143 91.7155 51.7157C84.214 59.2172 79.9997 69.3913 79.9997 80V256H50.3997C45.0944 255.982 39.9074 257.568 35.519 260.549C31.1306 263.531 27.7457 267.769 25.8082 272.708C23.8706 277.647 23.4709 283.056 24.6615 288.226C25.852 293.396 28.5772 298.086 32.4797 301.68L216.64 472C227.196 482.224 241.304 487.959 256 488C270.601 487.96 284.61 482.219 295.04 472L479.04 301.28C482.916 297.774 485.657 293.19 486.912 288.116C488.166 283.042 487.876 277.708 486.08 272.8ZM273.12 449.28C268.505 453.771 262.319 456.284 255.88 456.284C249.44 456.284 243.255 453.771 238.64 449.28L64.7997 288H95.9997C100.243 288 104.313 286.314 107.313 283.314C110.314 280.313 112 276.243 112 272V80C112 77.8783 112.843 75.8434 114.343 74.3431C115.843 72.8429 117.878 72 120 72H392C394.121 72 396.156 72.8429 397.657 74.3431C399.157 75.8434 400 77.8783 400 80V272C400 276.243 401.685 280.313 404.686 283.314C407.687 286.314 411.756 288 416 288H447.2L273.12 449.28Z" fill="#FF6600"/>
<path d="M256 216H240C235.757 216 231.687 214.314 228.686 211.314C225.686 208.313 224 204.243 224 200C224 195.757 225.686 191.687 228.686 188.686C231.687 185.686 235.757 184 240 184H280C284.243 184 288.313 182.314 291.314 179.314C294.314 176.313 296 172.243 296 168C296 163.757 294.314 159.687 291.314 156.686C288.313 153.686 284.243 152 280 152H272V144C272 139.757 270.314 135.687 267.314 132.686C264.313 129.686 260.243 128 256 128C251.757 128 247.687 129.686 244.686 132.686C241.686 135.687 240 139.757 240 144V152C227.27 152 215.061 157.057 206.059 166.059C197.057 175.061 192 187.27 192 200C192 212.73 197.057 224.939 206.059 233.941C215.061 242.943 227.27 248 240 248H256C260.243 248 264.313 249.686 267.314 252.686C270.314 255.687 272 259.757 272 264V272C272 276.243 270.314 280.313 267.314 283.314C264.313 286.314 260.243 288 256 288H216C211.757 288 207.687 289.686 204.686 292.686C201.686 295.687 200 299.757 200 304C200 308.243 201.686 312.313 204.686 315.314C207.687 318.314 211.757 320 216 320H224V328C224 332.243 225.686 336.313 228.686 339.314C231.687 342.314 235.757 344 240 344C244.243 344 248.313 342.314 251.314 339.314C254.314 336.313 256 332.243 256 328V320C268.73 320 280.939 314.943 289.941 305.941C298.943 296.939 304 284.73 304 272V264C304 251.27 298.943 239.061 289.941 230.059C280.939 221.057 268.73 216 256 216Z" fill="#FF6600"/>
</svg>
