<svg width="60" height="40" viewBox="0 0 60 40" fill="none" xmlns="http://www.w3.org/2000/svg">
<path d="M50.715 2.0404L45.5937 3.85046C45.1845 3.99298 44.9729 4.44906 45.114 4.86238L51.096 22.1078C51.2935 22.6351 51.3499 23.1625 51.7732 23.362C51.9566 23.4475 52.1682 23.4618 52.3798 23.3905L57.5012 21.5805C57.9103 21.4379 58.1219 20.9819 57.9809 20.5685L51.7026 2.51073C51.5615 2.09741 51.1101 1.88363 50.715 2.0404ZM45.0152 1.94064L50.066 0.159085C51.491 -0.354001 53.0711 0.415629 53.579 1.86937L59.815 19.8417C60.3934 21.3097 59.561 23.0342 58.0796 23.4903L53.0288 25.2718C51.7308 25.7422 50.2777 25.1293 49.671 23.9036L46.4543 25.5996C46.8634 27.7375 44.6202 30.2459 42.3911 30.3742C42.2923 32.4408 40.2748 34.4504 38.2291 34.5216C37.961 37.2866 34.0248 39.7523 31.6405 37.5717C31.0902 38.7546 29.891 39.6383 28.5789 39.909C27.2527 40.1798 25.729 39.8806 24.417 38.5408C21.9057 36.0039 20.2268 34.2508 18.6607 32.5976C16.8407 30.6877 15.1477 28.9062 12.1003 25.8847L10.0264 24.3739C9.30685 25.2861 8.07942 25.6566 6.96485 25.2718L1.8435 23.4618C0.418552 22.9629 -0.343302 21.3667 0.150493 19.9272L6.41463 1.86937C6.92253 0.415629 8.53089 -0.354001 9.92762 0.159085L15.049 1.96914C16.1918 2.36821 16.9254 3.4799 16.8972 4.6771L28.72 7.3138C30.3848 6.65819 35.0829 5.93131 39.1038 5.30421C40.6134 5.06191 42.0242 4.84813 43.1388 4.64859C43.1247 4.20677 43.2235 3.7792 43.4069 3.39438C43.6749 2.75303 44.3239 2.12592 45.0152 1.94064ZM48.9656 22.008L43.6185 6.57267C40.3453 7.15702 30.0462 8.56801 29.2561 9.25212C29.1715 9.32339 29.1009 9.39465 29.0022 9.45166L21.9057 13.7131C21.172 14.155 21.5106 14.9673 21.9621 15.5232C22.2443 15.8652 22.6252 16.193 23.1049 16.4496C24.6709 17.3047 27.1258 17.4473 29.8769 15.5659C32.9667 13.4566 35.746 14.2405 38.5536 17.0482L45.3821 23.9036L48.9656 22.008ZM16.3328 6.58692L10.8165 22.5211L13.4124 24.4309C19.2533 30.2317 20.1139 31.4004 25.7996 37.1441C27.9723 39.339 30.5541 36.859 29.8346 35.9041L25.3199 31.5429C24.9249 31.1581 24.9108 30.531 25.2917 30.1319C25.6726 29.7328 26.2934 29.7186 26.6884 30.1034L31.8521 35.106L32.4023 35.6191L32.9384 36.1037C34.2505 37.3009 37.1427 34.8067 35.9717 33.6237L30.8081 28.6354C30.413 28.2506 30.3989 27.6235 30.7798 27.2244C31.1608 26.8253 31.7815 26.8111 32.1766 27.1959L37.3544 32.1985C38.6806 33.4955 41.2765 30.702 40.1478 29.5048L40.0632 29.4193L34.9136 24.4309C34.5186 24.0461 34.5045 23.419 34.8854 23.0199C35.2663 22.6209 35.8871 22.6066 36.2821 22.9914L41.4317 27.9798C41.4458 27.994 41.474 28.0225 41.5022 28.0368C42.772 29.3195 45.2269 26.5403 44.3662 25.6709L37.1851 18.4734C35.8871 17.1765 34.7866 16.5351 33.7849 16.4068C32.8397 16.2786 31.9226 16.5921 31.0056 17.2335C27.5208 19.6136 24.3041 19.3713 22.2019 18.2169C20.9322 17.5185 19.8599 16.3641 19.5919 15.0101C19.3661 13.8414 19.7612 12.7297 20.9463 12.0313L26.2511 8.8388L16.3328 6.58692ZM14.3577 3.85046L9.23631 2.0404C8.82716 1.89788 8.3757 2.11167 8.23461 2.52499L1.98459 20.5685C1.8435 20.9819 2.05513 21.4379 2.46427 21.5805L7.58563 23.3905C7.99477 23.533 8.44624 23.3192 8.58732 22.9059L14.8515 4.84813C14.9784 4.44906 14.7668 3.99298 14.3577 3.85046Z" fill="white"/>
</svg>
