<svg width="512" height="512" viewBox="0 0 512 512" fill="none" xmlns="http://www.w3.org/2000/svg">
<path fill-rule="evenodd" clip-rule="evenodd" d="M248 121.792H264V137.792H248V121.792ZM446.04 126.177V217.571C446.04 221.989 442.458 225.571 438.04 225.571C433.622 225.571 430.04 221.989 430.04 217.571V126.177L426.363 130.886C423.654 134.355 418.645 134.97 415.175 132.261C411.706 129.552 411.09 124.542 413.8 121.073L431.666 98.195C434.795 94.035 441.072 93.915 444.322 98.076L462.281 121.073C464.99 124.542 464.375 129.551 460.906 132.261C457.437 134.97 452.428 134.355 449.718 130.886L446.04 126.177ZM98.2 121.074C100.909 124.543 100.294 129.552 96.825 132.262C93.356 134.971 88.347 134.356 85.637 130.887L81.96 126.178V217.572C81.96 221.99 78.378 225.572 73.96 225.572C69.542 225.572 65.96 221.99 65.96 217.572V126.178L62.283 130.887C59.574 134.356 54.564 134.971 51.095 132.262C47.626 129.553 47.01 124.543 49.72 121.074L67.586 98.196C70.716 94.036 76.992 93.916 80.242 98.077L98.2 121.074ZM496 256.001V288.48L456.229 303.788C451.186 324.979 442.784 345.217 431.364 363.765L448.674 402.739L402.74 448.674L363.778 431.369C345.228 442.794 324.981 451.195 303.785 456.238L288.481 496H223.52L208.211 456.229C187.02 451.186 166.782 442.785 148.234 431.364L109.26 448.674L63.326 402.74L80.631 363.778C69.205 345.228 60.805 324.98 55.761 303.785L16 288.481V256.001H142.71C142.71 318.574 193.426 369.29 255.999 369.29C318.572 369.29 369.289 318.575 369.289 256.001H496ZM182.71 256.001C182.71 296.495 215.505 329.29 256 329.29C296.494 329.29 329.29 296.496 329.29 256.001H182.71ZM280.585 121.792H296.585V137.792H280.585V121.792ZM215.415 121.792H231.415V137.792H215.415V121.792ZM248 92.72H264V108.72H248V92.72ZM280.585 92.72H296.585V108.72H280.585V92.72ZM215.415 92.72H231.415V108.72H215.415V92.72ZM248 63.647H264V79.647H248V63.647ZM280.585 63.647H296.585V79.647H280.585V63.647ZM215.415 63.647H231.415V79.647H215.415V63.647ZM248 34.575H264V50.575H248V34.575ZM280.585 34.575H296.585V50.575H280.585V34.575ZM215.415 34.575H231.415V50.575H215.415V34.575ZM369.701 139.857V155.857H353.701V139.857H369.701ZM369.701 172.442V188.442H353.701V172.442H369.701ZM369.701 107.272V123.272H353.701V107.272H369.701ZM383.681 78.142H334.724V217.572H383.681C386.435 217.572 388.681 215.326 388.681 212.572V83.142C388.68 80.388 386.434 78.142 383.681 78.142ZM158.298 74.686V90.686H142.298V74.686H158.298ZM158.298 139.857V155.857H142.298V139.857H158.298ZM158.298 172.442V188.442H142.298V172.442H158.298ZM158.298 107.272V123.272H142.298V107.272H158.298ZM177.277 217.572V45.557H128.319C125.565 45.557 123.319 47.803 123.319 50.557V212.572C123.319 215.326 125.565 217.572 128.319 217.572H177.277ZM198.276 16C195.522 16 193.276 18.246 193.276 21V217.572H231.876V163.745C231.876 158.794 235.927 154.742 240.879 154.742H272.922C277.873 154.742 281.925 158.793 281.925 163.745V217.572H318.722V21C318.722 18.246 316.476 16 313.722 16H198.276Z" fill="#FF6600"/>
</svg>
