<svg width="1440" height="879" viewBox="0 0 1440 879" fill="none" xmlns="http://www.w3.org/2000/svg">
<rect width="1440" height="650" fill="#010101"/>
<g clip-path="url(#clip0_260_8)">
<mask id="mask0_260_8" style="mask-type:luminance" maskUnits="userSpaceOnUse" x="595" y="91" width="860" height="860">
<path d="M1454.6 91.4H595.4V950.6H1454.6V91.4Z" fill="black" fill-opacity="0.25"/>
</mask>
<g mask="url(#mask0_260_8)">
<mask id="mask1_260_8" style="mask-type:luminance" maskUnits="userSpaceOnUse" x="667" y="163" width="716" height="430">
<path d="M1383 163H667V592.6H1383V163Z" fill="white"/>
</mask>
<g mask="url(#mask1_260_8)">
<path d="M889.882 165.073C889.591 165.088 889.352 165.211 889.166 165.439H890.564C890.408 165.189 890.18 165.07 889.882 165.073Z" fill="#9B9B9D"/>
<path d="M898.951 163.556C898.261 163.421 896.311 163.809 894.808 164.891C894.584 165.055 894.376 165.238 894.182 165.439H911.011C909.177 163.996 907.469 165.439 903.505 163.738C901.894 163.048 902.494 164.246 898.951 163.556Z" fill="#9B9B9D"/>
<path d="M876.169 171.152C875.561 171.465 873.853 169.966 873.223 170C871.519 170.093 873.178 170.876 869.863 172.073C869.762 172.11 869.665 172.151 869.568 172.204H918.581C918.353 171.816 918.297 171.402 918.417 170.969C918.573 170.365 918.323 169.959 917.887 169.627H876.986C876.788 170.223 876.62 170.917 876.169 171.152Z" fill="#9B9B9D"/>
<path d="M951.356 171.104C948.264 171.558 944.96 171.51 942.234 172.204H963.524C959.937 170.317 955.372 170.514 951.356 171.104Z" fill="#9B9B9D"/>
<path d="M1123.8 172.204H1129.88C1129.42 171.82 1129.05 171.536 1128.15 170.91C1127.5 170.458 1126.99 169.94 1126.49 169.627H1124.96C1124.27 170.145 1123.93 171.174 1123.8 172.204Z" fill="#9B9B9D"/>
<path d="M1124.95 178.968H1139.07C1138.67 178.26 1138.34 177.521 1137.5 177.048C1136.46 176.455 1135.01 176.817 1133.97 176.395H1124.19C1124.39 177.212 1124.65 178.118 1124.95 178.968Z" fill="#9B9B9D"/>
<path d="M863.605 177.689C863.217 178.051 862.926 178.48 862.732 178.968H912.603C912.934 178.797 913.278 178.644 913.628 178.517C914.952 177.935 916.205 177.227 917.383 176.395H864.742C864.392 176.854 864.015 177.283 863.605 177.689Z" fill="#9B9B9D"/>
<path d="M967.436 177.216C967.275 176.955 967.145 176.682 967.044 176.395H937.136C936.853 176.891 936.428 177.219 935.275 177.26C934.817 177.275 934.448 176.735 934.022 176.395H932.781C932.605 176.544 932.449 176.712 932.311 176.902C930.513 179.282 930.435 175.981 925.393 176.947C923.003 177.402 919.926 177.376 918.043 178.968H969.849C969.028 178.387 967.853 177.872 967.436 177.216Z" fill="#9B9B9D"/>
<path d="M1134.16 184.786C1135.49 185.33 1136.87 185.647 1138.3 185.737H1151.87C1151.89 185.655 1151.92 185.569 1151.94 185.479C1152.07 185.051 1152.07 184.625 1151.93 184.2C1151.79 183.775 1151.54 183.428 1151.19 183.16H1131.46C1132.39 183.619 1133.27 184.394 1134.16 184.786Z" fill="#9B9B9D"/>
<path d="M863.142 184.965C863.098 185.245 862.997 185.502 862.833 185.737H904.063C904.644 185.338 905.248 184.954 905.942 184.551C906.677 184.122 907.381 183.637 908.086 183.16H861.986C862.158 183.738 863.228 184.297 863.142 184.965Z" fill="#9B9B9D"/>
<path d="M969.539 183.16H915.962C915.947 183.171 915.932 183.182 915.918 183.19C915.287 183.578 914.743 183.32 914.034 183.16H912.461C912.211 183.223 911.972 183.309 911.741 183.417C910.402 184.126 909.104 184.898 907.848 185.737H969.92C969.293 184.648 969.304 183.842 969.539 183.16Z" fill="#9B9B9D"/>
<path d="M1146.95 190.488C1147.2 190.357 1147.39 190.167 1147.53 189.925H1145.4C1145.72 190.521 1146.17 190.89 1146.95 190.488Z" fill="#9B9B9D"/>
<path d="M861.853 190.611C862.103 191.517 862.405 192.02 862.961 192.501H891.198C892.887 191.577 895.214 191.92 896.971 190.626C897.336 190.357 897.668 190.13 897.977 189.925H861.719C861.749 190.156 861.793 190.383 861.853 190.611Z" fill="#9B9B9D"/>
<path d="M979.214 192.289C979.795 191.45 980.675 190.849 981.156 189.925H905.316C905.723 190.51 906.152 191.107 906.126 191.595C906.107 191.901 906.055 192.207 905.969 192.501H979.061C979.113 192.431 979.161 192.363 979.214 192.289Z" fill="#9B9B9D"/>
<path d="M1154 190.163C1153.08 190.57 1152.48 191.461 1152.2 192.501H1159.23C1157.88 191.226 1155.93 189.313 1154 190.163Z" fill="#9B9B9D"/>
<path d="M1152.25 199.27H1177.07C1176.8 198.33 1176.38 197.472 1175.8 196.693H1152.7C1153.07 197.618 1152.76 198.502 1152.25 199.27Z" fill="#9B9B9D"/>
<path d="M731.95 198.274C730.996 198.136 729.702 199.042 728.516 199.27H733.669C733.199 198.763 732.625 198.431 731.95 198.274Z" fill="#9B9B9D"/>
<path d="M725.402 199.173C725.238 199.195 725.07 199.229 724.906 199.27H727.162C726.581 199.165 725.995 199.132 725.402 199.173Z" fill="#9B9B9D"/>
<path d="M975.506 196.727C975.518 196.715 975.525 196.704 975.533 196.693H897.045C894.431 197.096 891.943 197.707 891.078 199.27H974.201C974.589 198.431 974.899 197.558 975.506 196.727Z" fill="#9B9B9D"/>
<path d="M865.676 199.27H887.074C887.54 198.945 887.98 198.621 888.364 198.315C888.916 197.905 889.266 197.364 889.423 196.693H866.377C865.881 197.428 865.989 198.453 865.676 199.27Z" fill="#9B9B9D"/>
<path d="M853.802 198.636C852.84 198.155 851.706 197.54 850.722 197.995C850.326 198.174 850.102 198.681 849.916 199.27H854.473C854.305 198.998 854.081 198.789 853.802 198.636Z" fill="#9B9B9D"/>
<path d="M1265.88 199.27H1270.31C1268.95 198.83 1267.36 198.908 1265.88 199.27Z" fill="#9B9B9D"/>
<path d="M843.311 197.808C842.58 197.898 840.346 199.311 839.351 199.098C838.541 198.927 838.661 196.797 837.557 196.749C836.651 196.712 836.487 198.144 836.371 199.27H846.067C844.844 198.737 844.419 197.678 843.311 197.808Z" fill="#9B9B9D"/>
<path d="M1327.09 199.046C1324.16 197.67 1321.24 197.331 1318.19 196.693H1293.3C1293.05 197.208 1292.81 197.767 1292.11 198.196C1291.25 198.729 1290.01 198.778 1289.04 199.27H1327.5C1327.37 199.188 1327.23 199.113 1327.09 199.046Z" fill="#9B9B9D"/>
<path d="M1249.6 198.472C1245.27 196.656 1240.72 198.658 1234.79 198.505C1233.92 198.453 1233.16 198.707 1232.49 199.27H1251.04C1250.58 198.96 1250.1 198.696 1249.6 198.472Z" fill="#9B9B9D"/>
<path d="M1344.74 203.458H1281.25C1279.67 203.998 1278.09 203.998 1276.51 203.458H1231.28C1231.65 204.301 1232.25 205.348 1232.22 206.035H1346.15C1346.25 205.035 1345.72 204.196 1344.74 203.458Z" fill="#9B9B9D"/>
<path d="M1142.13 206.035H1176.68C1176.82 205.24 1177.15 204.364 1177.34 203.458H1144.76C1143.52 204.148 1142.81 205.031 1142.13 206.035Z" fill="#9B9B9D"/>
<path d="M808.045 203.998C807.634 203.749 807.194 203.566 806.728 203.458H795.09C794.62 204.491 793.93 205.348 793.027 206.035H809.108C809.052 205.199 808.697 204.521 808.045 203.998Z" fill="#9B9B9D"/>
<path d="M836.73 203.842C837.971 204.256 839.012 204.722 838.937 205.404C838.915 205.628 838.885 205.837 838.852 206.035H878.821C878.66 205.203 877.657 204.935 877.732 204.301C877.81 203.943 877.997 203.663 878.302 203.458H836.219C836.346 203.644 836.517 203.771 836.73 203.842Z" fill="#9B9B9D"/>
<path d="M969.446 204.834C969.603 204.334 969.845 203.875 970.162 203.458H892.133C892.715 204.379 893.121 205.218 892.424 205.975C892.401 205.997 892.379 206.016 892.353 206.035H968.98C969.144 205.654 969.3 205.259 969.446 204.834Z" fill="#9B9B9D"/>
<path d="M737.742 205.483C737.433 204.871 737.422 204.025 737.224 203.458H714.51C713.838 204.017 713.201 204.547 712.686 204.897C711.784 205.483 710.799 205.863 709.736 206.035H738.567C738.153 205.837 737.824 205.647 737.742 205.483Z" fill="#9B9B9D"/>
<path d="M1210.52 204.054C1210.02 203.842 1209.49 203.64 1208.92 203.458H1200.82C1200.71 203.674 1200.63 203.898 1200.58 204.133C1200.44 204.763 1200.41 205.397 1200.49 206.035H1213.03C1212.34 205.184 1211.5 204.524 1210.52 204.054Z" fill="#9B9B9D"/>
<path d="M810.077 212.516C810.014 211.733 809.857 210.968 809.607 210.226H788.18C787.866 210.696 787.624 211.2 787.456 211.737C787.378 212.091 787.374 212.445 787.445 212.799H810.137C810.1 212.71 810.081 212.613 810.077 212.516Z" fill="#9B9B9D"/>
<path d="M966.996 210.226H890.69C890.906 211.162 890.459 211.889 890.798 212.799H967.548C967.045 212.005 966.754 211.177 966.996 210.226Z" fill="#9B9B9D"/>
<path d="M747.461 212.169C746.588 211.778 745.917 211.162 744.984 210.659C744.701 210.506 744.444 210.36 744.209 210.226H703.277C703.531 211.017 703.971 211.889 704.143 212.799H749.217C748.628 212.564 748.016 212.419 747.461 212.169Z" fill="#9B9B9D"/>
<path d="M1136.64 212.799H1345.33C1344.83 212.091 1343.86 210.987 1343.93 210.226H1225.78C1224.76 210.819 1223.66 211.218 1222.49 211.416C1221.32 211.613 1220.16 211.602 1218.99 211.379C1218.1 211.203 1217.3 210.815 1216.61 210.226H1138.86C1138.07 211.043 1137.33 211.901 1136.64 212.799Z" fill="#9B9B9D"/>
<path d="M846.392 212.359C848.081 213.348 848.905 211.535 850.027 212.035C850.43 212.21 850.77 212.464 851.049 212.799H872.246C872.119 212.053 871.683 211.681 870.967 211.069C870.62 210.771 870.169 210.498 869.773 210.226H844.684C845.232 211.073 845.869 212.05 846.392 212.359Z" fill="#9B9B9D"/>
<path d="M1099.41 210.838C1099.04 211.587 1098.54 212.24 1097.92 212.799H1104.14C1104.31 212.445 1104.43 212.076 1104.5 211.688C1104.59 211.192 1104.56 210.704 1104.41 210.226H1099.74C1099.62 210.424 1099.52 210.633 1099.41 210.838Z" fill="#9B9B9D"/>
<path d="M861.995 217.33C863.256 217.52 864.527 217.148 866.78 218.203C867.98 218.77 869.737 218.113 870.904 216.991H860.041C860.731 217.129 861.41 217.241 861.995 217.33Z" fill="#9B9B9D"/>
<path d="M1089.13 219.568H1096.86C1096.86 219.56 1096.87 219.557 1096.87 219.549C1097.59 218.635 1098.69 217.819 1099.84 216.991H1090.71C1090 217.737 1089.48 218.598 1089.13 219.568Z" fill="#9B9B9D"/>
<path d="M846.961 216.991H843.016C842.938 217.017 842.855 217.043 842.773 217.073C841.972 217.356 840.696 218.755 840.025 218.281C839.581 217.942 839.264 217.513 839.074 216.991H832.28C832.06 217.621 832.048 218.166 831.273 218.404C830.613 218.609 830.113 218.378 828.756 218.236C827.42 218.102 826.44 219.501 825.235 218.732C824.586 218.315 824.474 217.688 824.433 216.991H788.234C788.32 217.133 788.421 217.259 788.536 217.375C789.428 218.229 790.938 218.125 791.4 218.132C792.474 218.154 793.522 218.117 794.294 218.445C794.708 218.621 794.932 219.016 795.059 219.568H850.485C849.281 218.378 848.173 217.465 846.961 216.991Z" fill="#9B9B9D"/>
<path d="M970.152 219.568C970.226 219.366 970.29 219.165 970.346 218.96C970.521 218.3 970.513 217.644 970.316 216.991H904.246C904.679 217.819 905.04 218.676 905.324 219.568H970.152Z" fill="#9B9B9D"/>
<path d="M698.509 219.516C698.296 219.516 698.08 219.534 697.867 219.568H698.874C698.755 219.534 698.635 219.516 698.509 219.516Z" fill="#9B9B9D"/>
<path d="M754.93 218.229C754.658 217.796 754.057 217.394 753.446 216.991H703.743C703.725 217.185 703.721 217.379 703.736 217.573C703.781 218.136 703.881 218.863 703.9 219.568H755.47C755.351 219.094 755.172 218.65 754.93 218.229Z" fill="#9B9B9D"/>
<path d="M1135.18 217.972C1135.29 218.497 1135.32 219.031 1135.26 219.568H1329.56C1329.69 218.654 1329.98 217.796 1330.43 216.991H1135.08C1135.08 217.319 1135.12 217.647 1135.18 217.972Z" fill="#9B9B9D"/>
<path d="M1346.51 216.991H1343.48C1344.74 217.263 1345.86 217.371 1346.51 216.991Z" fill="#9B9B9D"/>
<path d="M1129.33 226.332H1333.55C1333.53 226.314 1333.52 226.291 1333.5 226.273C1332.85 225.393 1331.74 224.628 1330.87 223.756H1130.98C1130.38 224.58 1129.82 225.437 1129.33 226.332Z" fill="#9B9B9D"/>
<path d="M869.628 223.856C869.561 223.823 869.494 223.789 869.427 223.756H795.746C795.854 224.296 795.779 224.807 795.522 225.292C795.309 225.65 795.078 225.997 794.832 226.332H871.854C871.608 225.415 871.011 224.58 869.628 223.856Z" fill="#9B9B9D"/>
<path d="M1087.74 224.792C1087.6 225.299 1087.44 225.814 1087.27 226.332H1093.9C1094.26 225.419 1094.52 224.572 1094.78 223.756H1088C1087.92 224.114 1087.83 224.46 1087.74 224.792Z" fill="#9B9B9D"/>
<path d="M784.953 225.478C783.6 225.37 783.078 224.386 782.373 223.756H690.743C690.814 224.322 690.926 224.882 690.788 225.199C690.65 225.564 690.546 225.945 690.482 226.332H786.382C786.031 225.84 785.554 225.553 784.953 225.478Z" fill="#9B9B9D"/>
<path d="M906.196 226.332H967.898C967.977 225.464 968.115 224.606 968.316 223.756H906.039C906.106 224.61 906.166 225.478 906.196 226.332Z" fill="#9B9B9D"/>
<path d="M905.506 233.101H966.75C967.127 232.277 967.388 231.419 967.529 230.524H906.024C905.905 231.3 905.715 232.18 905.506 233.101Z" fill="#9B9B9D"/>
<path d="M1112.35 233.101H1336.63C1338.1 232.832 1339.25 232.404 1337.72 230.573C1337.71 230.554 1337.69 230.539 1337.68 230.524H1112.7C1112.51 231.371 1112.39 232.232 1112.35 233.101Z" fill="#9B9B9D"/>
<path d="M1085.36 233.101H1091.42C1091.61 232.225 1091.87 231.367 1092.17 230.524H1085.94C1085.7 231.371 1085.5 232.228 1085.36 233.101Z" fill="#9B9B9D"/>
<path d="M872.512 232.508C872.221 231.878 872.049 231.218 871.997 230.524H793.472C792.972 231.449 792.23 232.079 791.298 231.926C790.697 231.826 790.022 231.206 789.411 230.524H691.494C692.415 230.994 693.635 230.986 694.664 231.27C695.54 231.512 696.704 232.198 697.174 233.101H872.933C872.765 232.922 872.624 232.724 872.512 232.508Z" fill="#9B9B9D"/>
<path d="M1085.05 239.866H1092.28C1091.75 239.079 1091.41 238.221 1091.25 237.289H1084.91C1084.84 238.154 1084.89 239.012 1085.05 239.866Z" fill="#9B9B9D"/>
<path d="M1112.29 239.866H1330.42C1330.73 239 1331.07 238.117 1331.45 237.289H1111.97C1111.97 238.161 1112.08 239.019 1112.29 239.866Z" fill="#9B9B9D"/>
<path d="M904.478 239.866H961.818C962.179 238.881 962.731 238.023 963.477 237.292V237.289H904.642C904.497 238.143 904.441 239 904.478 239.866Z" fill="#9B9B9D"/>
<path d="M876.763 237.442C876.752 237.389 876.737 237.341 876.718 237.289H692.076C692.02 237.319 691.968 237.345 691.908 237.371C691.531 237.546 691.095 237.442 690.655 237.289H688.033C686.944 237.878 686.128 238.997 685.199 239.866H878.243C877.542 239.06 876.96 238.288 876.763 237.442Z" fill="#9B9B9D"/>
<path d="M1113.9 246.63H1309.61C1310.54 245.884 1311.04 246.022 1311.27 246.63H1328.59C1328.67 245.761 1328.82 244.9 1329.04 244.057H1113.29C1113.58 244.889 1113.92 245.843 1113.9 246.63Z" fill="#9B9B9D"/>
<path d="M1094.79 245.526C1095.87 245.37 1096.73 245.351 1096.87 244.292C1096.88 244.214 1096.88 244.136 1096.88 244.057H1088.47C1090.4 245.083 1092.99 245.784 1094.79 245.526Z" fill="#9B9B9D"/>
<path d="M1102.81 246.63H1108.4C1105.99 245.586 1103.54 244.65 1102.81 246.63Z" fill="#9B9B9D"/>
<path d="M904.123 246.63H961.392C961.31 245.791 961.235 244.922 961.22 244.057H906.118C905.723 244.814 904.794 245.627 904.123 246.63Z" fill="#9B9B9D"/>
<path d="M863.799 246.63H881.919C881.908 246.313 881.878 245.996 881.826 245.679C881.74 245.12 881.587 244.576 881.359 244.057H864.008C864.228 244.915 863.948 245.81 863.799 246.63Z" fill="#9B9B9D"/>
<path d="M855.115 245.232C855.137 244.855 855.026 244.441 855.078 244.057H681.105C680.847 244.87 680.989 245.687 680.84 246.63H854.619C854.936 246.22 855.1 245.754 855.115 245.232Z" fill="#9B9B9D"/>
<path d="M868.702 253.399H881.046C880.628 253.182 880.233 252.929 879.864 252.645C879.111 252.026 878.797 251.392 878.79 250.822H867.289C868.102 251.493 868.572 252.351 868.702 253.399Z" fill="#9B9B9D"/>
<path d="M905.858 252.664C905.906 252.907 905.936 253.149 905.947 253.399H959.073C959.8 252.638 960.382 251.78 960.814 250.822H904.135C904.806 251.419 905.679 251.765 905.858 252.664Z" fill="#9B9B9D"/>
<path d="M1310.55 253.112C1310.53 253.205 1310.5 253.302 1310.48 253.399H1317.07C1317.97 252.903 1319.39 253.302 1320.48 252.399C1320.88 252.075 1321.16 251.475 1321.42 250.822H1311.09C1310.92 251.713 1310.71 252.545 1310.55 253.112Z" fill="#9B9B9D"/>
<path d="M1053.03 252.694C1052.29 252.049 1051.58 251.411 1050.87 250.822H1034.91C1034.74 250.908 1034.56 250.99 1034.38 251.075C1032.97 251.75 1031.62 252.526 1030.31 253.399H1054.15C1053.74 253.216 1053.37 252.985 1053.03 252.694Z" fill="#9B9B9D"/>
<path d="M1103.11 251.154C1102.33 251.814 1098.55 252.202 1097.49 252.541C1096.16 252.951 1094.8 253.235 1093.42 253.399H1298.37C1298.48 252.53 1298.64 251.668 1298.85 250.822H1103.41C1103.33 250.945 1103.23 251.057 1103.11 251.154Z" fill="#9B9B9D"/>
<path d="M852.351 250.822H679.605C679.556 251.833 679.705 252.832 680.041 253.399H852.123C852.504 252.724 852.44 252.015 852.351 250.822Z" fill="#9B9B9D"/>
<path d="M866.217 257.747C865.09 258.661 863.916 259.078 863.293 260.163H887.1C886.589 259.052 885.217 258.426 884.266 257.587H866.411C866.347 257.639 866.284 257.695 866.217 257.747Z" fill="#9B9B9D"/>
<path d="M846.835 257.587H714.92C715.006 257.602 715.088 257.62 715.17 257.646C716.277 257.971 716.833 259.134 717.762 260.163H844.46C844.665 259.067 845.732 258.344 846.835 257.587Z" fill="#9B9B9D"/>
<path d="M1069.13 259.399C1068.25 258.724 1067.32 258.12 1066.35 257.587H1025.18C1024.53 258.258 1023.95 258.993 1023.44 259.787C1023.37 259.906 1023.3 260.033 1023.24 260.163H1069.88C1069.66 259.884 1069.41 259.626 1069.13 259.399Z" fill="#9B9B9D"/>
<path d="M1084.29 260.163H1299.95C1299.9 259.914 1299.81 259.682 1299.69 259.459C1299.33 258.81 1298.44 258.202 1297.96 257.587H1085.92C1085.4 258.373 1084.87 259.317 1084.29 260.163Z" fill="#9B9B9D"/>
<path d="M1077.07 259.709C1076.93 259.835 1076.82 259.988 1076.75 260.163H1079.1C1078.53 259.421 1077.93 258.951 1077.07 259.709Z" fill="#9B9B9D"/>
<path d="M681.443 260.163H711.891C712.171 260.025 712.413 259.843 712.618 259.608C713.312 258.776 713.625 257.743 714.461 257.587H682.505C682.006 258.549 681.39 259.556 681.443 260.163Z" fill="#9B9B9D"/>
<path d="M1309.71 260.163H1316.48C1316.74 259.634 1317.16 259.112 1317.15 258.4C1317.14 258.12 1317.08 257.848 1316.99 257.587H1309.97C1309.91 258.47 1309.85 259.343 1309.71 260.163Z" fill="#9B9B9D"/>
<path d="M902.164 260.163H943.521C945.228 259.779 947.004 259.656 948.842 259.045C949.927 258.683 951.273 258.206 952.679 257.587H903.384C902.865 258.392 902.459 259.25 902.164 260.163Z" fill="#9B9B9D"/>
<path d="M688.186 265.161C687.862 265.817 687.44 266.406 686.926 266.928H693.247C694.981 266.179 696.502 265.794 697.729 264.355H688.414C688.369 264.631 688.294 264.899 688.186 265.161Z" fill="#9B9B9D"/>
<path d="M901.703 266.928H935.508C935.788 266.682 936.056 266.421 936.31 266.145C936.798 265.578 937.246 264.982 937.649 264.355H901.416C901.416 265.224 901.513 266.082 901.703 266.928Z" fill="#9B9B9D"/>
<path d="M832.34 265.366C833.25 265.325 834.156 264.892 834.991 264.355H725.111C726.014 265.078 726.763 265.936 727.36 266.928H829.263C829.64 266.458 830.095 266.089 830.632 265.817C831.169 265.545 831.739 265.395 832.34 265.366Z" fill="#9B9B9D"/>
<path d="M853.973 266.126C854.167 266.492 854.446 266.757 854.823 266.928H876.642C876.366 266.574 876.195 266.175 876.124 265.731C876.109 264.855 877.399 264.441 877.97 264.583C878.827 264.799 879.208 266.194 879.894 266.928H881.822C882.355 266.518 882.9 265.932 883.515 265.642C884.13 265.321 884.656 264.892 885.096 264.355H854.181C853.809 264.967 853.682 265.627 853.973 266.126Z" fill="#9B9B9D"/>
<path d="M1307.5 266.928H1321.31C1320.85 266.35 1320.5 265.716 1320.23 265.026C1320.15 264.78 1320.03 264.556 1319.87 264.355H1308.42C1308.09 265.213 1307.76 266.07 1307.5 266.928Z" fill="#9B9B9D"/>
<path d="M836.957 266.678C836.953 266.768 836.953 266.85 836.953 266.928H847.656C847.544 266.731 847.417 266.522 847.261 266.298C846.824 265.66 846.414 265.011 846.037 264.355H838.087C837.576 265.25 836.975 266.16 836.957 266.678Z" fill="#9B9B9D"/>
<path d="M1074.3 264.873C1073.92 264.791 1073.59 264.616 1073.3 264.355H1022.75C1022.72 264.899 1022.62 265.433 1022.44 265.951C1022.32 266.276 1022.19 266.604 1022.06 266.928H1275.88C1276.47 265.761 1277.31 264.791 1278.88 264.452C1279.95 264.225 1281.33 265.03 1282.41 264.642C1282.61 264.568 1282.81 264.471 1283 264.355H1076C1075.7 264.773 1075.19 265 1074.3 264.873Z" fill="#9B9B9D"/>
<path d="M1039.55 271.12H1020.28C1020.14 271.403 1020.01 271.687 1019.87 271.966C1019.58 272.567 1019.29 273.145 1018.99 273.697H1038.12C1038.46 272.764 1038.94 271.903 1039.55 271.12Z" fill="#9B9B9D"/>
<path d="M1307.32 273.697H1322.55C1322.55 273.633 1322.55 273.57 1322.55 273.506C1322.55 273.003 1322.9 271.992 1323.11 271.12H1306.95C1306.98 271.992 1307.11 272.85 1307.32 273.697Z" fill="#9B9B9D"/>
<path d="M901.9 273.697H923.857C924.133 272.805 924.491 271.948 924.923 271.12H901.896C901.698 271.977 901.698 272.839 901.9 273.697Z" fill="#9B9B9D"/>
<path d="M954.561 271.12C954.572 271.355 954.635 271.578 954.751 271.784C955.396 272.884 956.194 272.913 956.477 273.697H973.259C973.121 273.01 972.565 271.951 972.05 271.12H954.561Z" fill="#9B9B9D"/>
<path d="M863.665 271.575C863.81 272.298 864.008 273.003 864.265 273.697H877.981C878.104 273.346 878.25 273.007 878.414 272.675C878.649 272.179 878.72 271.66 878.634 271.12H863.561C863.594 271.265 863.631 271.414 863.665 271.575Z" fill="#9B9B9D"/>
<path d="M1043.66 273.697H1273.97C1274.14 272.828 1274.31 271.959 1274.5 271.12H1043.52C1044.11 271.832 1044.04 272.753 1043.66 273.697Z" fill="#9B9B9D"/>
<path d="M675.606 272.746C674.972 272.772 674.253 273.212 673.406 273.697H681.931C682.058 273.659 682.188 273.618 682.326 273.574C684.094 272.984 685.437 272.134 686.839 271.12H680.063C678.448 271.989 677.009 272.69 675.606 272.746Z" fill="#9B9B9D"/>
<path d="M823.255 271.12H729.295C729.575 271.959 729.776 272.82 729.907 273.697H820.372C821.211 272.705 822.174 271.847 823.255 271.12Z" fill="#9B9B9D"/>
<path d="M1038.57 280.461H1272.34C1272.53 279.622 1272.7 278.809 1272.98 277.948C1272.98 277.929 1272.99 277.907 1273 277.884H1040.71C1039.85 278.895 1039.11 279.648 1038.57 280.461Z" fill="#9B9B9D"/>
<path d="M669.189 277.884H667C667.518 278.16 668.473 278.041 669.189 277.884Z" fill="#9B9B9D"/>
<path d="M961.235 279.227C963.585 280.54 965.498 279.223 967.649 277.884H958.002C958.677 278.462 960.243 278.671 961.235 279.227Z" fill="#9B9B9D"/>
<path d="M861.393 277.884H850.098C849.949 278.727 849.848 279.6 849.729 280.461H862.919C862.135 279.831 861.83 278.847 861.393 277.884Z" fill="#9B9B9D"/>
<path d="M816.808 277.884H730.102C730.184 278.753 730.329 279.615 730.53 280.461H815.294C815.742 279.57 816.245 278.709 816.808 277.884Z" fill="#9B9B9D"/>
<path d="M904.283 280.252C904.298 280.32 904.313 280.39 904.328 280.461H919.912C920.46 279.589 921.046 278.753 921.62 277.884H903.5C903.832 278.653 904.097 279.44 904.283 280.252Z" fill="#9B9B9D"/>
<path d="M1036.35 277.884H1015.62C1014.43 278.817 1013.03 279.551 1011.87 280.461H1033.78C1034.48 279.715 1035.63 278.765 1036.35 277.884Z" fill="#9B9B9D"/>
<path d="M1310.55 280.461H1321.82C1321.83 280.431 1321.84 280.398 1321.85 280.364C1322.5 278.873 1323.55 278.69 1323.89 277.884H1309.03C1309.49 278.746 1310 279.596 1310.55 280.461Z" fill="#9B9B9D"/>
<path d="M870.456 277.918C871.037 278.153 874.427 280.726 874.916 280.376C875.277 280.118 874.558 278.91 874.114 277.884H870.385C870.407 277.896 870.433 277.907 870.456 277.918Z" fill="#9B9B9D"/>
<path d="M874.316 285.466C873.653 285.451 872.933 286.283 872.262 287.23H875.778C875.566 286.279 875.174 285.485 874.316 285.466Z" fill="#9B9B9D"/>
<path d="M1314.57 287.23H1321.49C1321.87 286.558 1322.48 285.746 1322.55 285.223C1322.57 285.033 1322.57 284.843 1322.55 284.653H1313.09C1313.6 285.529 1314.09 286.379 1314.57 287.23Z" fill="#9B9B9D"/>
<path d="M816.921 285.526C816.719 285.194 816.469 284.903 816.175 284.653H731.262C731.262 284.66 731.262 284.668 731.262 284.675C731.306 285.637 731.265 286.529 731.478 287.23H817.036C817.126 286.607 817.167 285.984 816.921 285.526Z" fill="#9B9B9D"/>
<path d="M865.078 284.813C865.104 284.757 865.127 284.705 865.149 284.653H848.569C848.349 285.048 848.088 285.41 847.779 285.742C847.331 286.193 846.943 286.685 846.611 287.23H864.731C864.631 286.391 864.746 285.585 865.078 284.813Z" fill="#9B9B9D"/>
<path d="M1030.79 284.653H1008.35C1007.88 285.466 1007.53 286.324 1007.28 287.23H1030.28C1030.19 286.316 1030.36 285.458 1030.79 284.653Z" fill="#9B9B9D"/>
<path d="M906.618 285.779C907.367 286.447 909.251 286.585 909.989 286.995C910.108 287.062 910.224 287.14 910.332 287.23H916.944C917.324 286.379 917.645 285.466 917.925 284.653H905.727C905.965 285.074 906.264 285.451 906.618 285.779Z" fill="#9B9B9D"/>
<path d="M1038.5 287.23H1275.16C1274.94 286.674 1274.71 286.122 1274.39 285.917C1273.38 285.264 1271.36 286.581 1270.97 284.989C1270.95 284.877 1270.95 284.765 1270.98 284.653H1037.73C1037.85 285.555 1038.1 286.413 1038.5 287.23Z" fill="#9B9B9D"/>
<path d="M1033.53 291.418H1007.15C1007.27 291.962 1007.44 292.492 1007.65 293.006C1007.77 293.301 1007.88 293.636 1008.01 293.994H1033.67C1034.42 292.92 1034.2 292.186 1033.53 291.418Z" fill="#9B9B9D"/>
<path d="M876.528 291.418H847.623C847.985 292.245 848.082 293.107 847.918 293.994H877.218C876.994 293.148 876.752 292.257 876.528 291.418Z" fill="#9B9B9D"/>
<path d="M1317 291.466C1317.57 292.439 1318.07 293.319 1318.52 293.994H1320.7C1320.75 293.733 1320.8 293.431 1320.85 293.085C1320.91 292.529 1320.94 291.977 1320.94 291.418H1316.97C1316.98 291.436 1316.99 291.451 1317 291.466Z" fill="#9B9B9D"/>
<path d="M821.551 292.052C821.245 291.798 820.913 291.589 820.551 291.418H735.176C735.105 291.925 735.064 292.436 735.053 292.947C735.053 293.297 735.075 293.648 735.12 293.994H823.855C823.143 293.349 822.405 292.753 821.551 292.052Z" fill="#9B9B9D"/>
<path d="M1041.39 292.469C1041.52 292.984 1041.5 293.495 1041.32 293.994H1286.4C1286.31 293.603 1286.18 293.223 1286.03 292.853C1285.81 292.357 1285.56 291.876 1285.28 291.418H1041.01C1041.17 291.757 1041.3 292.104 1041.39 292.469Z" fill="#9B9B9D"/>
<path d="M1030.76 298.712C1030.74 298.537 1030.73 298.361 1030.73 298.186H1010.4C1010.84 298.522 1011.34 298.749 1011.88 298.865C1013.1 299.126 1014.01 298.909 1014.81 300.021C1014.97 300.245 1015.06 300.491 1015.08 300.759H1031.11C1031 300.092 1030.84 299.394 1030.76 298.712Z" fill="#9B9B9D"/>
<path d="M831.34 299.499C830.11 299.391 829.009 298.951 828.04 298.186H736.336C736.56 299.029 736.701 299.89 736.769 300.759H834.145C833.76 300.028 832.888 299.618 831.34 299.499Z" fill="#9B9B9D"/>
<path d="M1040.32 300.252C1040.26 300.427 1040.2 300.595 1040.13 300.759H1286.69C1286.44 299.939 1286.37 299.1 1286.49 298.249C1286.49 298.227 1286.5 298.205 1286.5 298.186H1040.27C1040.4 298.865 1040.56 299.517 1040.32 300.252Z" fill="#9B9B9D"/>
<path d="M994.474 300.562C993.78 299.715 992.315 300.099 991.931 298.865C991.863 298.641 991.808 298.414 991.766 298.186H988C987.314 298.954 986.766 299.812 986.355 300.759H994.612C994.571 300.692 994.522 300.625 994.474 300.562Z" fill="#9B9B9D"/>
<path d="M877.899 300.431C877.504 299.592 877.56 298.906 877.66 298.186H846.324C845.959 298.816 845.489 299.353 844.911 299.801C844.333 300.245 843.695 300.565 842.99 300.759H878.063C878.007 300.655 877.951 300.547 877.899 300.431Z" fill="#9B9B9D"/>
<path d="M1038.4 307.528H1288.31C1288.25 306.659 1288.13 305.801 1287.95 304.951H1039.1C1039.29 306.424 1038.89 307.08 1038.4 307.528Z" fill="#9B9B9D"/>
<path d="M993.309 304.951H985.914C985.884 306.372 985.187 307.147 983.938 307.528H995.203C994.379 306.815 993.19 306.219 993.309 304.951Z" fill="#9B9B9D"/>
<path d="M882.241 304.951H838.766C838.468 306.036 838.102 307.102 837.498 307.528H884.295C883.669 306.066 883.177 305.73 882.241 304.951Z" fill="#9B9B9D"/>
<path d="M834.183 304.951H735.617C735.49 305.637 735.546 306.405 736.098 307.528H836.163C835.619 307.319 835.167 306.979 834.813 306.517C834.455 306.055 834.246 305.532 834.183 304.951Z" fill="#9B9B9D"/>
<path d="M1026.91 306.111C1027.12 305.514 1027.55 305.216 1028.11 304.951H1013.61C1013.57 305.771 1013.88 306.625 1014.21 307.528H1025.12C1025.79 307.367 1026.5 307.237 1026.91 306.111Z" fill="#9B9B9D"/>
<path d="M886.544 311.715H738.623C738.776 311.976 738.933 312.249 739.085 312.532C739.38 313.092 739.6 313.677 739.746 314.292H886.235C886.44 313.446 886.544 312.588 886.544 311.715Z" fill="#9B9B9D"/>
<path d="M1000.14 314.21C999.138 313.539 998.295 312.707 997.613 311.715H977.904C977.904 312.424 978.285 313.397 978.512 314.292H1000.25C1000.22 314.266 1000.18 314.236 1000.14 314.21Z" fill="#9B9B9D"/>
<path d="M1026.72 311.715H1014.54C1013.62 312.954 1011.27 312.894 1009.57 313.666C1009.17 313.845 1008.78 314.054 1008.4 314.292H1288C1288.12 313.438 1288.22 312.577 1288.29 311.715H1028.02C1027.59 311.853 1027.16 311.853 1026.72 311.715Z" fill="#9B9B9D"/>
<path d="M864.94 320.117C866.308 318.372 870.817 320.151 872.693 320.151C874.662 320.151 878.984 319.099 879.155 321.061H884.499C884.495 321.031 884.484 321.005 884.481 320.979C884.365 320.438 884.495 319.453 884.727 318.484H740.05C739.994 319.196 739.878 319.905 739.703 320.598C739.666 320.755 739.621 320.904 739.58 321.061H864.746C864.638 320.71 864.701 320.393 864.94 320.117Z" fill="#9B9B9D"/>
<path d="M984.536 318.484H977.186C977.696 320.449 982.253 318.752 984.536 318.484Z" fill="#9B9B9D"/>
<path d="M1294.71 318.484C1294.8 319.334 1294.96 320.166 1295.19 320.986C1295.2 321.012 1295.21 321.035 1295.21 321.061H1297.71C1297.35 320.326 1297 319.237 1296.6 318.484H1294.71Z" fill="#9B9B9D"/>
<path d="M1003.74 319.621C1002.32 319.763 1001.94 319.245 1001.77 318.484H985.449C988.145 318.879 987.646 319.83 987.124 321.061H1286.46C1286.71 320.233 1286.95 319.371 1287.17 318.484H1005.58C1005.15 319.159 1004.54 319.539 1003.74 319.621Z" fill="#9B9B9D"/>
<path d="M865.421 326.587C865.604 326.136 865.816 325.677 865.992 325.249H738.171C737.839 326.106 737.496 326.957 737.16 327.825H865.044C865.127 327.4 865.25 326.986 865.421 326.587Z" fill="#9B9B9D"/>
<path d="M1295.34 327.825H1305.07C1305.35 327.08 1305.46 326.386 1305.29 325.92C1305.18 325.648 1305 325.424 1304.77 325.249H1295.86C1295.85 326.14 1295.67 326.998 1295.34 327.825Z" fill="#9B9B9D"/>
<path d="M876.277 327.15C876.519 327.471 877.108 327.684 877.779 327.825H889.884C889.888 326.953 889.78 326.095 889.56 325.249H876.605C876.135 325.927 875.874 326.613 876.277 327.15Z" fill="#9B9B9D"/>
<path d="M990.39 327.233C990.025 327.374 989.697 327.572 989.398 327.825H1284.17C1284.61 327.001 1284.96 326.144 1285.23 325.249H992.993C992.87 326.229 991.17 326.897 990.39 327.233Z" fill="#9B9B9D"/>
<path d="M873.394 333.274C873.737 332.923 873.872 332.502 873.786 332.017H735.691C735.65 332.151 735.609 332.286 735.568 332.424C735.363 333.151 735.15 333.874 734.941 334.59H870.705C871.727 334.24 872.73 333.826 873.394 333.274Z" fill="#9B9B9D"/>
<path d="M994.607 334.59H1061.18C1061.24 334.504 1061.31 334.422 1061.39 334.348C1063.34 332.453 1064.42 333.259 1065.25 334.59H1274.47C1274.53 334.076 1274.73 333.628 1275.09 333.244C1275.57 332.696 1276.58 332.323 1277.64 332.017H992.258C993.22 332.752 994.055 333.546 994.607 334.59Z" fill="#9B9B9D"/>
<path d="M1295.12 334.59H1298.94C1298.68 333.852 1298.33 332.826 1298.4 332.017H1294.46C1294.57 332.901 1294.79 333.762 1295.12 334.59Z" fill="#9B9B9D"/>
<path d="M850.915 338.938C850.967 338.886 851.027 338.834 851.086 338.782H733.92C733.782 339.554 733.689 340.329 733.64 341.112C733.636 341.195 733.633 341.277 733.629 341.359H849.916C850.068 340.493 850.232 339.628 850.915 338.938Z" fill="#9B9B9D"/>
<path d="M1015.12 341.105C1016.11 340.71 1017.46 340.389 1018.43 340.799C1018.72 340.922 1018.96 341.112 1019.15 341.359H1025.51C1024.96 340.546 1024.5 339.688 1024.13 338.782H995.293C995.218 339.781 994.834 340.639 994.133 341.359H1014.6C1014.77 341.262 1014.94 341.18 1015.12 341.105Z" fill="#9B9B9D"/>
<path d="M1030.84 341.359H1057.16C1057.29 340.9 1057.45 340.456 1057.65 340.027C1057.92 339.52 1058.29 339.102 1058.77 338.782H1027.52C1027.89 339.106 1028.3 339.39 1028.74 339.625C1029.6 340.012 1030.3 340.587 1030.84 341.359Z" fill="#9B9B9D"/>
<path d="M1082 341.359H1271.56C1272.1 340.4 1273.73 340.617 1274.33 338.782H1077.55C1079.09 339.543 1080.57 340.4 1082 341.359Z" fill="#9B9B9D"/>
<path d="M1297.12 340.259C1297.17 340.598 1297.22 340.967 1297.25 341.359H1302.21C1302.19 341.273 1302.16 341.191 1302.13 341.105C1301.82 340.296 1301.45 339.524 1301 338.782H1296.77C1296.92 339.263 1297.04 339.755 1297.12 340.259Z" fill="#9B9B9D"/>
<path d="M861.368 338.782H860.76C860.961 338.808 861.163 338.808 861.368 338.782Z" fill="#9B9B9D"/>
<path d="M1265.99 347.504C1266.09 347.735 1266.22 347.941 1266.39 348.123H1275.33C1274.59 347.318 1273.69 346.456 1272.95 345.546H1265.41C1265.56 346.214 1265.76 346.867 1265.99 347.504Z" fill="#9B9B9D"/>
<path d="M1004.95 345.546H979.027C979.027 345.938 979.042 346.356 979.061 346.811C979.083 347.217 979.109 347.665 979.128 348.123H1003.07C1003.56 347.859 1003.97 347.501 1004.3 347.049C1004.63 346.598 1004.85 346.098 1004.95 345.546Z" fill="#9B9B9D"/>
<path d="M1296.58 346.501C1296.21 347.131 1295.74 347.672 1295.17 348.123H1301.9C1301.9 348.097 1301.9 348.071 1301.9 348.041C1301.86 347.202 1301.94 346.371 1302.11 345.546H1296.98C1296.88 345.882 1296.75 346.199 1296.58 346.501Z" fill="#9B9B9D"/>
<path d="M845.145 345.546H733.941C734.076 346.393 734.251 347.258 734.452 348.123H841.136C842.061 347.154 843.31 346.356 845.145 345.546Z" fill="#9B9B9D"/>
<path d="M1084.47 347.273C1084.1 347.624 1083.68 347.907 1083.22 348.123H1253.47C1253.25 347.445 1253.19 346.747 1253.28 346.039C1253.3 345.863 1253.32 345.703 1253.34 345.546H1085.33C1085.29 346.248 1085.01 346.822 1084.47 347.273Z" fill="#9B9B9D"/>
<path d="M1023.44 346.885C1024.04 347.266 1024.61 347.676 1025.16 348.123H1033.38C1033.17 348.008 1032.99 347.903 1032.84 347.81C1031.67 347.116 1030.54 346.359 1029.45 345.546H1022.13C1022.49 346.072 1022.93 346.52 1023.44 346.885Z" fill="#9B9B9D"/>
<path d="M1070.42 345.546H1068.96C1067.39 345.8 1066.25 346.84 1064.43 347.426C1062.23 348.138 1059.49 348.806 1057.57 346.501C1057.35 346.214 1057.18 345.897 1057.06 345.546H1036.77C1037.77 346.143 1038.42 347.005 1038.73 348.123H1078.1C1075.43 347.366 1072.67 345.908 1070.48 345.558C1070.46 345.554 1070.44 345.55 1070.42 345.546Z" fill="#9B9B9D"/>
<path d="M838.751 352.662C838.788 352.542 838.826 352.427 838.863 352.315H735.621C735.752 352.725 735.882 353.128 736.02 353.523C736.162 353.971 736.281 354.426 736.371 354.888H837.177C837.793 354.221 838.434 353.642 838.751 352.662Z" fill="#9B9B9D"/>
<path d="M998.017 353.825C998.099 353.307 998.237 352.803 998.423 352.315H978.416C978.133 352.792 978.024 353.307 978.088 353.859C978.203 354.258 978.409 354.601 978.711 354.888H997.767C997.871 354.541 997.957 354.183 998.017 353.825Z" fill="#9B9B9D"/>
<path d="M1049.06 354.888C1048.52 354.444 1047.86 354.045 1047.48 353.669C1046.95 353.143 1046.39 352.841 1046.42 352.315H1040.33C1040.75 352.904 1041.77 354.213 1042.27 354.888H1049.06Z" fill="#9B9B9D"/>
<path d="M1031.68 354.888H1034.13C1034.5 353.784 1034.03 352.968 1033.98 352.315H1031.67C1031.82 352.494 1031.94 352.695 1032.02 352.915C1032.1 353.135 1032.14 353.367 1032.14 353.601C1032.14 353.836 1032.1 354.064 1032.02 354.284C1031.94 354.508 1031.83 354.709 1031.68 354.888Z" fill="#9B9B9D"/>
<path d="M1272.22 354.888H1275.81C1276.34 354.112 1276.63 353.255 1276.68 352.315H1270.72C1271.1 353.24 1271.6 354.101 1272.22 354.888Z" fill="#9B9B9D"/>
<path d="M1053.29 354.888H1257.69C1258.53 354.071 1259.6 353.415 1260.08 352.315H1052.98C1053.02 353.18 1053.13 354.038 1053.29 354.888Z" fill="#9B9B9D"/>
<path d="M1290.57 353.206C1289.84 353.803 1288.38 354.101 1287.57 354.273C1286.94 354.392 1286.34 354.597 1285.77 354.888H1300.87C1301.32 354.608 1301.67 354.239 1301.94 353.784C1302.21 353.333 1302.36 352.841 1302.38 352.315H1291.39C1291.15 352.643 1290.88 352.941 1290.57 353.206Z" fill="#9B9B9D"/>
<path d="M1047.1 360.377C1047.36 360.198 1047.58 359.628 1047.8 359.08H1044.37C1044.94 359.997 1046.23 360.967 1047.1 360.377Z" fill="#9B9B9D"/>
<path d="M993.702 360.299C994.287 359.963 994.817 359.557 995.294 359.08H979.729C979.848 359.37 980.064 359.546 980.374 359.605C981.835 359.99 983.152 359.479 984.069 360.609C984.3 360.922 984.435 361.269 984.472 361.656H988.007C988.473 360.224 992.516 360.974 993.702 360.299Z" fill="#9B9B9D"/>
<path d="M1278.94 361.656H1287.18C1289.14 360.717 1291.29 360.571 1293.11 359.296C1293.22 359.225 1293.32 359.15 1293.43 359.08H1280.97C1279.6 359.725 1278.25 360.258 1278.94 361.656Z" fill="#9B9B9D"/>
<path d="M1057.96 361.224C1058.37 361.25 1058.92 360.198 1059.35 360.146C1060.03 360.057 1061.14 361.071 1061.58 361.071C1063.36 361.071 1063.4 359.49 1065.19 360.206C1066.29 360.646 1066.7 361.496 1067.98 361.656H1068.74C1070.31 361.459 1071.73 360.172 1072.6 360.068C1073.98 359.904 1074.59 360.631 1074.77 361.656H1259.52C1259.47 361.563 1259.42 361.474 1259.37 361.377C1258.87 360.426 1257.94 359.811 1257.27 359.08H1055.52C1056.19 359.893 1057.22 361.175 1057.96 361.224Z" fill="#9B9B9D"/>
<path d="M1029.07 359.758C1029.91 359.934 1030.35 359.59 1030.72 359.08H1027.26C1027.84 359.37 1028.44 359.598 1029.07 359.758Z" fill="#9B9B9D"/>
<path d="M835.51 359.08H737.947C738.104 359.236 738.275 359.37 738.466 359.49C739.398 360.06 741.643 360.657 742.325 361.522C742.359 361.567 742.392 361.612 742.426 361.656H833.858C834.659 360.959 835.211 360.098 835.51 359.08Z" fill="#9B9B9D"/>
<path d="M1020.11 359.08H1017.22C1015.11 359.538 1012.13 359.796 1010.04 359.997C1007.4 360.247 1004.52 359.997 1001.95 360.452C1000.67 360.668 999.451 361.071 998.295 361.656H1021.03C1020.96 361.257 1020.92 360.843 1020.9 360.53C1020.88 359.911 1020.62 359.426 1020.11 359.08Z" fill="#9B9B9D"/>
<path d="M827.22 365.844H744.033C744.309 366.691 744.6 367.567 744.835 368.421H824.315C825.195 367.463 826.164 366.605 827.22 365.844Z" fill="#9B9B9D"/>
<path d="M1020.59 367.466C1020.16 366.765 1020.46 366.307 1020.85 365.844H983.743C983.195 366.941 982.3 367.728 981.342 368.421H1021.71C1021.27 368.182 1020.9 367.862 1020.59 367.466Z" fill="#9B9B9D"/>
<path d="M1073.73 368.421H1263.55C1263.58 367.843 1263.47 367.295 1263.22 366.773C1263.08 366.448 1262.91 366.139 1262.71 365.844H1074.17C1074.01 366.583 1073.87 367.493 1073.73 368.421Z" fill="#9B9B9D"/>
<path d="M1283.02 368.086C1284.18 367.948 1284.57 366.989 1284.85 365.844H1281.42C1281.75 366.833 1282.04 368.201 1283.02 368.086Z" fill="#9B9B9D"/>
<path d="M1072.57 372.818C1071.04 375.111 1068.12 372.445 1065.82 372.631C1063.1 372.851 1061.35 375.022 1058.11 373.325C1057.56 373.034 1056.97 372.799 1056.37 372.613H1041.69C1041.6 373.575 1041.57 374.556 1041.12 375.19H1264.33C1264.56 374.321 1264.53 373.459 1264.23 372.613H1072.68C1072.65 372.684 1072.61 372.755 1072.57 372.818Z" fill="#9B9B9D"/>
<path d="M1035.77 374.328C1034.18 373.87 1032.99 374.011 1031.87 372.613H977.095C976.987 373.004 976.931 373.403 976.935 373.81C976.935 374.306 976.916 374.765 976.879 375.19H1037.54C1036.98 374.843 1036.39 374.556 1035.77 374.328Z" fill="#9B9B9D"/>
<path d="M794.5 374.899C795.261 374.876 796.007 374.973 796.738 375.19H804.267C804.48 374.627 804.696 374.071 805.013 373.899C805.755 373.489 806.952 374.052 807.907 374.037C808.69 374.026 809.76 373.966 810.487 374.399C810.931 374.664 811.293 374.97 811.643 375.19H813.557C814.657 374.798 815.537 374.559 816.249 375.19H821.537C821.544 374.313 821.667 373.456 821.91 372.613H745.936C746.502 373.534 747.263 374.239 747.692 375.19H792.927C793.441 375.029 793.963 374.932 794.5 374.899Z" fill="#9B9B9D"/>
<path d="M1112.31 381.954H1261.83C1262.24 381.126 1262.57 380.269 1262.82 379.377H1109.52C1110.4 380.284 1111.33 381.141 1112.31 381.954Z" fill="#9B9B9D"/>
<path d="M785.644 380.276C785.801 379.955 785.991 379.657 786.215 379.377H747.096C747.111 379.415 747.129 379.452 747.152 379.486C747.644 380.306 748.957 381.112 749.967 381.954H785.264C785.286 381.373 785.413 380.813 785.644 380.276Z" fill="#9B9B9D"/>
<path d="M817.573 381.954H822.667C822.551 381.085 822.38 380.228 822.156 379.377H817.144C817.133 380.287 817.192 381.205 817.573 381.954Z" fill="#9B9B9D"/>
<path d="M972.821 380.795C972.228 381.149 971.657 381.537 971.105 381.954H1072.74C1072.95 380.712 1073.78 381.041 1074.77 381.954H1105.36C1104.8 381.153 1104.35 380.295 1104.01 379.377H974.842C974.212 379.911 973.537 380.384 972.821 380.795Z" fill="#9B9B9D"/>
<path d="M1129.58 387.779C1133.68 388.014 1138.37 387.567 1142.41 387.451C1143.52 387.421 1144.65 387.947 1145.69 388.719H1258.15C1258.84 387.955 1259.4 387.097 1259.83 386.146H1124.54C1125.99 387.28 1127.75 387.671 1129.58 387.779Z" fill="#9B9B9D"/>
<path d="M1078.73 386.664C1079.35 387.313 1079.92 387.996 1080.44 388.719H1113.35C1112.38 387.91 1111.68 386.653 1110.15 386.146H1078.29C1078.46 386.362 1078.61 386.537 1078.73 386.664Z" fill="#9B9B9D"/>
<path d="M784.267 386.146H751.518C751.547 386.303 751.585 386.455 751.637 386.605C751.894 387.369 752.864 388.141 753.419 388.689C753.431 388.7 753.442 388.712 753.449 388.719H757.067C757.156 388.451 757.294 388.208 757.488 387.999C758.163 387.294 759.561 386.828 760.151 387.063C760.852 387.336 761.445 387.992 761.941 388.719H783.372C783.648 387.869 783.935 386.992 784.267 386.146Z" fill="#9B9B9D"/>
<path d="M822.073 386.146H819.832C820.578 387.235 821.372 387.716 822.073 386.146Z" fill="#9B9B9D"/>
<path d="M965.031 388.719H1074.45C1074.02 387.887 1073.65 387.03 1073.34 386.146H966.989C966.325 386.963 965.658 387.831 965.031 388.719Z" fill="#9B9B9D"/>
<path d="M1117.96 388.719H1122.05C1120.79 386.925 1119.68 387.899 1117.96 388.719Z" fill="#9B9B9D"/>
<path d="M1083.7 395.271C1083.73 395.342 1083.76 395.413 1083.79 395.487H1129.27C1129.32 395.275 1129.35 395.062 1129.37 394.85C1129.47 394.089 1129.05 393.466 1128.38 392.911H1082.73C1083.04 393.642 1083.35 394.417 1083.7 395.271Z" fill="#9B9B9D"/>
<path d="M782.608 392.911H764.686C765.051 393.366 765.293 393.876 765.413 394.447C765.457 394.798 765.431 395.144 765.334 395.487H782.817C782.664 394.633 782.597 393.776 782.608 392.911Z" fill="#9B9B9D"/>
<path d="M1149.67 393.477C1150.02 394.186 1150.43 394.857 1150.9 395.487H1191.73C1192.45 394.887 1193.14 395.279 1194.05 395.487H1195.39C1196.79 395.159 1198.45 394.059 1199.69 394.384C1200.19 394.51 1200.62 394.943 1201.03 395.487H1236.59C1237.11 395.331 1237.62 395.331 1238.13 395.487H1245.61C1245.87 395.156 1246.17 394.857 1246.5 394.6C1247.85 393.533 1249.28 393.556 1250.89 392.981C1250.95 392.959 1251.02 392.933 1251.08 392.911H1149.37C1149.49 393.116 1149.59 393.31 1149.67 393.477Z" fill="#9B9B9D"/>
<path d="M811.15 394.38C811.031 394.999 811.15 395.331 811.407 395.487H812.571C813.205 395.279 813.82 395.036 814.428 394.76C816.971 393.798 818.023 393.843 820.708 395.312C820.827 395.379 820.95 395.435 821.081 395.487H827.931C826.95 394.891 825.91 394.436 824.802 394.126C824.139 393.951 823.501 393.343 822.833 392.911H813.067C812.179 393.146 811.314 393.537 811.15 394.38Z" fill="#9B9B9D"/>
<path d="M960.963 395.487H1079.1C1078.96 395.267 1078.8 395.062 1078.63 394.865C1078.13 394.294 1077.6 393.634 1077.07 392.911H962.414C961.832 393.716 961.347 394.574 960.963 395.487Z" fill="#9B9B9D"/>
<path d="M805.2 399.675H797.693C797.432 400.458 797.089 401.212 796.496 401.719C796.198 401.954 795.87 402.129 795.512 402.252H804.122C804.477 401.353 804.79 400.477 805.2 399.675Z" fill="#9B9B9D"/>
<path d="M784.417 399.675H765.395C766.055 400.451 767.073 401.279 768.102 402.252H786.673C785.737 401.555 784.984 400.697 784.417 399.675Z" fill="#9B9B9D"/>
<path d="M1206.13 402.252H1233.43C1233.01 401.443 1232.84 400.585 1232.92 399.675H1204.91C1205.42 400.485 1205.83 401.342 1206.13 402.252Z" fill="#9B9B9D"/>
<path d="M1158.87 402.252H1185.38C1186.29 401.473 1187.27 400.805 1188.32 400.246C1188.61 400.089 1188.88 399.899 1189.12 399.675H1159.07C1158.92 400.529 1158.85 401.387 1158.87 402.252Z" fill="#9B9B9D"/>
<path d="M961.806 402.14C961.821 402.178 961.836 402.215 961.851 402.252H1081.39C1080.93 401.447 1080.62 400.589 1080.45 399.675H960.93C961.15 400.522 961.441 401.346 961.806 402.14Z" fill="#9B9B9D"/>
<path d="M1265.93 402.252H1267.31C1266.7 401.943 1266.25 401.98 1265.93 402.252Z" fill="#9B9B9D"/>
<path d="M827.604 400.093C828.921 400.884 830.599 400.22 832.176 400.611C833.175 400.861 835.409 401.23 835.409 401.987C835.409 402.084 835.387 402.17 835.338 402.252H846.026C844.769 400.238 839.694 400.507 837.587 400.194C836.882 400.086 836.192 399.914 835.521 399.675H827.123C827.257 399.847 827.418 399.985 827.604 400.093Z" fill="#9B9B9D"/>
<path d="M1241.15 400.719C1241.64 400.843 1242.12 400.805 1242.59 400.615C1243.06 400.421 1243.42 400.108 1243.69 399.675H1240.18C1240.32 400.238 1240.55 400.604 1241.15 400.719Z" fill="#9B9B9D"/>
<path d="M1088.34 402.252H1125.59C1126.23 401.443 1126.42 400.667 1126.93 399.675H1086.12C1086.78 400.604 1087.52 401.462 1088.34 402.252Z" fill="#9B9B9D"/>
<path d="M1264.71 408.737C1264.69 408.83 1264.67 408.924 1264.66 409.021H1268.92C1269.29 408.14 1269.88 407.298 1270.19 406.444H1264.96C1264.95 407.216 1264.86 407.98 1264.71 408.737Z" fill="#9B9B9D"/>
<path d="M1161.22 409.021H1178.55C1179.28 408.48 1180.03 408.148 1180.86 407.41C1181.2 407.108 1181.52 406.787 1181.82 406.444H1160.37C1160.66 407.301 1160.91 408.152 1161.22 409.021Z" fill="#9B9B9D"/>
<path d="M1207.77 408.689C1207.86 408.804 1207.95 408.912 1208.04 409.021H1211.29C1212.24 408.536 1213.16 408.107 1213.96 409.021H1238.61C1237.89 408.14 1237.23 407.32 1236.52 406.444H1207.1C1207.2 407.279 1207.34 408.081 1207.77 408.689Z" fill="#9B9B9D"/>
<path d="M802.081 408.032C802.324 407.521 802.51 406.992 802.644 406.444H775C776.067 406.992 777.208 407.596 778.371 408.271C778.986 408.577 779.624 408.827 780.284 409.021H786.367C786.963 408.83 787.56 408.823 788.16 408.994C788.183 409.002 788.209 409.013 788.231 409.021H802.204C801.921 408.804 801.85 408.487 802.081 408.032Z" fill="#9B9B9D"/>
<path d="M1092.88 409.021H1115.76C1116.65 408.704 1117.55 408.424 1118.34 408.066C1119.22 407.622 1120.05 407.081 1120.81 406.444H1091.67C1092.12 407.279 1092.52 408.14 1092.88 409.021Z" fill="#9B9B9D"/>
<path d="M961.884 407.574C961.821 408.077 961.679 408.562 961.459 409.021H1085.51C1085.04 408.185 1084.63 407.324 1084.26 406.444H962.015C961.966 406.832 961.918 407.212 961.884 407.574Z" fill="#9B9B9D"/>
<path d="M1267.31 415.785H1274.84C1274.05 414.928 1273.73 413.992 1272.97 413.346C1272.92 413.298 1272.86 413.253 1272.8 413.208H1265.84C1266.34 414.137 1266.9 415.025 1267.31 415.785Z" fill="#9B9B9D"/>
<path d="M1164.52 415.707C1164.53 415.733 1164.55 415.759 1164.56 415.785H1176.62C1176.61 415.461 1176.57 415.136 1176.51 414.819C1176.4 414.286 1176.35 413.749 1176.36 413.208H1163.14C1163.59 414.047 1164.07 414.89 1164.52 415.707Z" fill="#9B9B9D"/>
<path d="M1216.61 415.785H1221.11C1221.24 415.36 1221.39 415.069 1221.54 414.995C1221.84 414.846 1222.28 415.218 1222.85 415.785H1242.44C1242.47 414.86 1242.24 414.003 1241.77 413.208H1215.86C1216.14 414.051 1216.39 414.924 1216.61 415.785Z" fill="#9B9B9D"/>
<path d="M960.617 415.785H1092.19C1091.1 415.084 1089.78 414.2 1089 413.208H960.158C960.214 414.085 960.367 414.942 960.617 415.785Z" fill="#9B9B9D"/>
<path d="M1094.71 413.928C1094.95 414.588 1095.27 415.207 1095.67 415.785H1101.32C1103.19 414.924 1105.41 414.417 1106.92 413.522C1107.11 413.41 1107.3 413.309 1107.49 413.208H1094.45C1094.53 413.451 1094.62 413.689 1094.71 413.928Z" fill="#9B9B9D"/>
<path d="M813.235 413.208H794.004C795.428 413.924 797.051 414.778 798.703 415.271C799.087 415.386 799.661 415.573 800.265 415.785H812.586C812.9 414.95 813.116 414.092 813.235 413.208Z" fill="#9B9B9D"/>
<path d="M811.741 419.977H805.912C806.05 420.145 806.173 420.324 806.289 420.51C806.617 421.096 806.65 421.845 806.897 422.55H812.964C812.539 421.875 811.961 421.006 811.741 419.977Z" fill="#9B9B9D"/>
<path d="M1270.34 422.144C1270.39 422.285 1270.45 422.42 1270.52 422.55H1278.89C1278.75 422.188 1278.63 421.868 1278.54 421.607C1278.37 421.073 1278.27 420.533 1278.23 419.977H1269.49C1269.81 420.685 1270.09 421.405 1270.34 422.144Z" fill="#9B9B9D"/>
<path d="M861.92 421.976C861.23 421.633 860.391 421.73 859.358 421.718C857.81 421.7 856.158 421.554 855.394 421.994C855.002 422.229 854.585 422.416 854.148 422.55H862.315C862.285 422.285 862.155 422.095 861.92 421.976Z" fill="#9B9B9D"/>
<path d="M964.48 422.043C964.692 422.222 964.901 422.39 965.106 422.55H1112.34C1112.6 421.666 1112.58 420.794 1111.99 419.977H1108.51C1107.69 420.286 1106.85 420.663 1106.18 420.943C1104.5 421.64 1103.2 421.461 1101.55 421.621C1099.49 421.819 1097.13 423.061 1095.42 421.125C1095.12 420.786 1094.88 420.402 1094.72 419.977H962.611C963.141 420.749 963.764 421.439 964.48 422.043Z" fill="#9B9B9D"/>
<path d="M849.434 422.166C847.331 422.442 845.887 421.327 844.813 420.581C844.478 420.346 844.217 420.145 844 419.977H834.353C834.278 420.014 834.208 420.055 834.129 420.096C833.182 420.63 831.247 420.738 830.445 421.51C830.154 421.808 829.945 422.155 829.818 422.55H852.242C851.459 422.341 850.694 422.002 849.434 422.166Z" fill="#9B9B9D"/>
<path d="M1217.41 422.55H1220.26C1220.24 422.323 1220.22 422.084 1220.21 421.838C1220.21 421.215 1220.25 420.592 1220.33 419.977H1217.38C1217.44 420.835 1217.46 421.692 1217.41 422.55Z" fill="#9B9B9D"/>
<path d="M1167.42 422.55H1175.51C1175.68 421.689 1175.64 420.853 1175.71 419.977H1166.51C1166.84 420.823 1167.13 421.677 1167.42 422.55Z" fill="#9B9B9D"/>
<path d="M1229.79 422.55H1237.47C1238.75 421.685 1239.44 421.774 1240.46 420.327C1240.54 420.208 1240.62 420.089 1240.69 419.977H1227.79C1228.43 420.872 1228.98 421.953 1229.79 422.55Z" fill="#9B9B9D"/>
<path d="M970.345 429.318H1109.16C1109.52 428.442 1109.89 427.577 1110.27 426.742H968.562C969.062 427.879 969.431 428.58 970.345 429.318Z" fill="#9B9B9D"/>
<path d="M864.973 427.129C864.768 426.988 864.556 426.861 864.336 426.742H811.762C812.414 427.364 813.209 427.484 814.219 427.637C814.939 427.745 815.983 428.726 816.919 429.318H819.429C819.921 428.923 820.35 428.397 821.208 428.267C822.375 428.095 823.042 428.39 823.643 429.318H867.531C866.726 428.535 865.872 427.804 864.973 427.129Z" fill="#9B9B9D"/>
<path d="M1172.59 426.742H1169.01C1169.96 427.901 1171.34 427.633 1172.59 426.742Z" fill="#9B9B9D"/>
<path d="M1271.77 428.789C1272.34 429.162 1274.22 428.74 1274.7 429.318H1280.61C1280.56 428.446 1280.42 427.588 1280.21 426.742H1271.42C1271.14 427.525 1270.99 428.271 1271.77 428.789Z" fill="#9B9B9D"/>
<path d="M1218.96 428.591C1219.22 428.841 1219.46 429.084 1219.68 429.318H1223.94C1223.13 428.528 1222.4 427.67 1221.74 426.742H1217.78C1218.03 427.454 1218.42 428.069 1218.96 428.591Z" fill="#9B9B9D"/>
<path d="M1222.88 436.083H1229.17C1229.06 435.308 1228.79 434.588 1228.38 433.92C1228.29 433.786 1228.18 433.648 1228.07 433.506H1222.04C1222.32 434.39 1222.53 435.255 1222.88 436.083Z" fill="#9B9B9D"/>
<path d="M879.384 433.506H824.789C824.789 434.215 824.957 435.17 825.028 436.083H882.908C881.968 434.905 880.794 434.043 879.384 433.506Z" fill="#9B9B9D"/>
<path d="M975.618 433.618C976.927 434.998 978.206 435.789 979.795 436.083H982.551C984.128 435.707 986.149 434.636 987.484 434.431C989.554 434.107 991.392 435.293 993.38 435.36C995.084 435.419 996.871 434.293 998.53 433.506H975.514C975.547 433.544 975.581 433.581 975.618 433.618Z" fill="#9B9B9D"/>
<path d="M1217.07 435.196C1215.97 434.349 1214.74 433.786 1213.37 433.506H1211.66C1210.15 433.835 1210.95 434.964 1212.13 436.083H1217.96C1217.7 435.748 1217.41 435.453 1217.07 435.196Z" fill="#9B9B9D"/>
<path d="M1254.97 434.081C1254.42 434.316 1253.69 435.341 1252.88 436.083H1262.47C1263.35 435.542 1264.55 435.143 1264.18 433.857C1264.14 433.73 1264.09 433.614 1264.02 433.506H1255.72C1255.51 433.749 1255.26 433.943 1254.97 434.081Z" fill="#9B9B9D"/>
<path d="M1010.99 436.061C1011.01 436.068 1011.02 436.076 1011.03 436.083H1105.76C1106.35 435.267 1106.86 434.409 1107.31 433.506H1009.47C1009.94 434.435 1010.31 435.505 1010.99 436.061Z" fill="#9B9B9D"/>
<path d="M1245.51 441.718C1244.22 441.707 1243.15 441.222 1242.28 441.897C1241.96 442.143 1241.73 442.46 1241.61 442.848H1263.35C1262.98 441.927 1262.27 441.091 1261.71 440.275H1247.39C1246.92 440.98 1246.64 441.725 1245.51 441.718Z" fill="#9B9B9D"/>
<path d="M1229.12 442.848H1232.16C1231.82 442.106 1231.07 441.088 1230.5 440.275H1225.98C1226.92 441.259 1227.97 442.117 1229.12 442.848Z" fill="#9B9B9D"/>
<path d="M1223.65 442.221C1223.02 441.554 1222.41 440.912 1221.82 440.275H1216.53C1217.23 441.125 1217.83 441.979 1218.42 442.848H1224.35C1224.1 442.658 1223.87 442.449 1223.65 442.221Z" fill="#9B9B9D"/>
<path d="M1019.46 442.848H1098.18C1099.32 442.046 1100.49 441.185 1101.6 440.275H1019.93C1019.82 441.196 1019.61 442.121 1019.46 442.848Z" fill="#9B9B9D"/>
<path d="M884.813 440.275H823.073C822.879 440.439 822.715 440.633 822.589 440.853C822.205 441.621 821.686 442.285 821.041 442.848H886.6C886.283 441.785 885.19 441.021 884.813 440.275Z" fill="#9B9B9D"/>
<path d="M1019.18 449.616H1091.12C1091.78 448.729 1092.47 447.852 1093.19 447.039H1018.74C1018.67 447.934 1018.81 448.796 1019.18 449.616Z" fill="#9B9B9D"/>
<path d="M1295.61 447.23C1294.7 447.039 1293.37 447.215 1292.48 447.304C1291.5 447.405 1290 447.267 1290 447.916C1290 448.729 1291.02 449.072 1291.94 449.616H1298.43C1297.88 448.348 1297.37 447.595 1295.61 447.23Z" fill="#9B9B9D"/>
<path d="M1243.24 449.318C1243.28 449.419 1243.31 449.519 1243.35 449.616H1259.37C1259.4 449.575 1259.42 449.538 1259.45 449.497C1260.03 448.643 1260.84 448.031 1261.19 447.039H1242.34C1242.65 447.811 1242.97 448.587 1243.24 449.318Z" fill="#9B9B9D"/>
<path d="M1232.95 449.557C1232.06 449.236 1230.22 448.945 1229.57 448.113C1229.32 447.778 1229.1 447.42 1228.91 447.039H1221.38C1221.52 447.218 1221.67 447.401 1221.82 447.58C1222.33 448.222 1222.79 448.9 1223.19 449.616H1233.11C1233.06 449.598 1233 449.575 1232.95 449.557Z" fill="#9B9B9D"/>
<path d="M1273.02 447.972C1272.79 447.043 1271.49 447.438 1270.43 447.647C1269.07 447.92 1268.6 449.527 1267.65 448.419C1266.25 446.801 1264.88 447.897 1264.25 449.616H1271.97C1272.62 449.277 1273.25 448.926 1273.02 447.972Z" fill="#9B9B9D"/>
<path d="M895.441 448.196C894.349 447.722 893.103 447.852 891.921 447.61C891.164 447.465 890.418 447.274 889.68 447.039H818.251C818.039 447.692 817.867 448.352 817.729 449.023C817.688 449.217 817.666 449.415 817.662 449.616H897.339C896.732 449.057 896.139 448.498 895.441 448.196Z" fill="#9B9B9D"/>
<path d="M1295.31 454.789C1296.68 455.244 1298.49 455.221 1299.88 455.669C1300.55 455.878 1301.25 456.112 1301.95 456.381H1323.33C1322.38 455.423 1321.4 455.091 1320.04 454.785C1319.16 454.569 1318.33 454.24 1317.53 453.804H1294.08C1294.35 454.3 1294.76 454.628 1295.31 454.789Z" fill="#9B9B9D"/>
<path d="M1252.45 453.808C1253.88 454.3 1254.65 454.953 1256.46 454.882C1257.78 454.833 1258.33 454.419 1258.58 453.804H1252.45V453.808Z" fill="#9B9B9D"/>
<path d="M913.566 455.367C912.988 454.777 912.346 454.255 911.653 453.804H818.189C817.868 454.166 817.577 454.546 817.316 454.953C817.036 455.396 816.843 455.87 816.734 456.381H915.278C914.644 456.146 914.077 455.81 913.566 455.367Z" fill="#9B9B9D"/>
<path d="M1269.98 456.381C1270.7 455.907 1271.25 455.329 1271.1 453.804H1264.52C1264.58 453.89 1264.64 453.968 1264.72 454.047C1265.33 454.71 1265.1 455.542 1265.02 456.381H1269.98Z" fill="#9B9B9D"/>
<path d="M1236.13 453.804H1225.86C1226.71 454.733 1227.63 455.59 1228.61 456.381H1235.09C1235.29 455.609 1235.79 454.748 1236.13 453.804Z" fill="#9B9B9D"/>
<path d="M1023.79 456.381H1086.7C1087.11 455.516 1087.59 454.692 1088.14 453.912C1088.16 453.879 1088.19 453.841 1088.21 453.804H1021.77C1022.43 454.662 1023.12 455.493 1023.79 456.381Z" fill="#9B9B9D"/>
<path d="M1027.04 462.795C1027.07 462.918 1027.1 463.034 1027.12 463.149H1086.14C1086.14 462.851 1086.13 462.53 1086.1 462.176C1086.05 461.591 1086.01 461.061 1086 460.573H1026.28C1026.58 461.296 1026.83 462.038 1027.04 462.795Z" fill="#9B9B9D"/>
<path d="M1252.41 463.149C1250.84 462.295 1249.1 461.113 1247.65 460.975C1245.71 460.785 1243.9 462.441 1242.34 461.348C1241.91 461.05 1241.45 460.789 1240.97 460.573H1233.24C1234.68 461.706 1236.27 462.568 1238.01 463.149H1252.41Z" fill="#9B9B9D"/>
<path d="M920.091 460.573H818.143C818.795 461.453 819.556 462.273 820.317 463.149H920.504C920.553 462.258 920.415 461.4 920.091 460.573Z" fill="#9B9B9D"/>
<path d="M1307.29 461.74C1307.29 462.228 1306.96 462.698 1306.61 463.149H1328.22C1327.96 461.926 1328.31 461.255 1327.99 460.573H1307.16C1307.25 460.957 1307.3 461.345 1307.29 461.74Z" fill="#9B9B9D"/>
<path d="M1329.48 469.873C1329.52 469.884 1329.58 469.899 1329.64 469.914H1333.62C1333.68 469.172 1332.63 468.109 1331.77 467.337H1325.72C1326.56 468.367 1327.57 469.358 1329.48 469.873Z" fill="#9B9B9D"/>
<path d="M1028.2 469.914H1088.53C1088.12 469.042 1087.29 468.199 1086.73 467.337H1027.08C1027.29 468.214 1027.84 469.056 1028.2 469.914Z" fill="#9B9B9D"/>
<path d="M1315.7 467.337H1314.9C1315.17 467.356 1315.43 467.356 1315.7 467.337Z" fill="#9B9B9D"/>
<path d="M918.932 467.337H823.186C823.648 468.188 824.099 469.056 824.554 469.914H916.967C917.671 469.094 918.328 468.236 918.932 467.337Z" fill="#9B9B9D"/>
<path d="M1025.93 476.679H1088.29C1088.15 476.209 1088.07 475.728 1088.05 475.236C1088.06 474.855 1088.11 474.475 1088.2 474.106H1027.66C1027.16 474.982 1026.52 475.825 1025.93 476.679Z" fill="#9B9B9D"/>
<path d="M1106.17 475.858C1106.01 476.142 1105.84 476.414 1105.67 476.679H1109.69C1109.12 474.203 1107.88 472.905 1106.17 475.858Z" fill="#9B9B9D"/>
<path d="M912.891 475.157C913.096 474.803 913.319 474.453 913.562 474.106H826.762C827.183 474.963 827.597 475.832 828.022 476.679H912.223C912.387 476.146 912.607 475.638 912.891 475.157Z" fill="#9B9B9D"/>
<path d="M1303.23 474.106H1288.71C1288.72 474.192 1288.73 474.281 1288.74 474.378C1288.83 474.997 1288.3 475.844 1287.72 476.679H1302.64C1302.97 475.638 1303.83 474.852 1303.23 474.106Z" fill="#9B9B9D"/>
<path d="M1314.16 474.106C1314.08 474.419 1314.02 474.691 1313.97 474.874C1313.79 475.467 1313.64 476.071 1313.53 476.679H1318.27C1318.14 475.806 1317.94 474.945 1317.66 474.106H1314.16Z" fill="#9B9B9D"/>
<path d="M1109.95 480.87H1101.32C1100.97 481.072 1100.61 481.269 1100.22 481.456C1099.05 481.974 1097.97 482.638 1096.98 483.447H1109.1C1109.52 482.634 1109.81 481.777 1109.95 480.87Z" fill="#9B9B9D"/>
<path d="M1024.12 483.447H1086.12C1087.03 482.739 1087.77 481.881 1088.33 480.87H1024.23C1024.13 481.724 1024.09 482.586 1024.12 483.447Z" fill="#9B9B9D"/>
<path d="M1302.17 483.425C1301.92 483.227 1300.12 481.974 1300.34 481.098C1300.37 481.02 1300.39 480.945 1300.42 480.87H1275.84C1275.33 481.545 1274.77 482.183 1274.16 482.776C1273.9 483.022 1273.63 483.242 1273.36 483.447H1302.2C1302.2 483.44 1302.19 483.432 1302.17 483.425Z" fill="#9B9B9D"/>
<path d="M1312.66 483.447H1321.86C1321.85 482.575 1321.82 481.754 1321.41 480.87H1313.15C1313.05 481.743 1312.88 482.601 1312.66 483.447Z" fill="#9B9B9D"/>
<path d="M911.914 481.777C911.91 481.463 911.902 481.161 911.895 480.87H831.412C832.054 481.393 832.71 481.892 833.325 482.422C833.784 482.806 834.272 483.149 834.791 483.447H911.858C911.902 482.91 911.921 482.358 911.914 481.777Z" fill="#9B9B9D"/>
<path d="M1309.24 487.635H1268.97C1268.95 487.687 1268.93 487.74 1268.9 487.792C1268.59 488.638 1268.19 489.444 1267.72 490.212H1323.19C1323.07 489.332 1322.86 488.474 1322.56 487.635H1309.98C1309.73 487.699 1309.48 487.699 1309.24 487.635Z" fill="#9B9B9D"/>
<path d="M1107.32 487.635H1095.44C1095.48 487.889 1095.54 488.135 1095.61 488.377C1095.81 488.978 1095.95 489.589 1096.04 490.212H1106.63C1106.88 489.321 1107.08 488.485 1107.32 487.635Z" fill="#9B9B9D"/>
<path d="M910.087 490.19C910.426 489.28 910.724 488.444 910.982 487.635H841.66C842.369 488.362 842.831 489.22 843.051 490.212H910.079L910.087 490.19Z" fill="#9B9B9D"/>
<path d="M1025.64 490.164C1025.65 490.178 1025.66 490.197 1025.67 490.212H1076.56C1077.27 489.172 1078.16 488.314 1079.22 487.635H1024.68C1024.88 488.523 1025.21 489.362 1025.64 490.164Z" fill="#9B9B9D"/>
<path d="M1029.12 496.98H1076.3C1076.08 496.123 1075.83 495.25 1075.69 494.404H1028.12C1028.54 495.228 1028.87 496.085 1029.12 496.98Z" fill="#9B9B9D"/>
<path d="M1258.32 494.422C1256.26 494.933 1254.74 496.324 1252.75 496.902C1252.67 496.928 1252.59 496.954 1252.51 496.98H1328.59C1328.39 496.03 1328.13 495.243 1327.14 494.422C1327.13 494.415 1327.12 494.407 1327.11 494.404H1258.41C1258.38 494.411 1258.35 494.415 1258.32 494.422Z" fill="#9B9B9D"/>
<path d="M908.531 494.404H843.218C843.181 495.261 843.114 496.119 843.043 496.98H907.132C907.707 496.179 908.173 495.321 908.531 494.404Z" fill="#9B9B9D"/>
<path d="M1105.05 494.404H1094.87C1094.77 494.583 1094.66 494.765 1094.53 494.959C1094.15 495.586 1093.89 496.261 1093.73 496.98H1103.95C1104.3 496.104 1104.68 495.25 1105.05 494.404Z" fill="#9B9B9D"/>
<path d="M1102.42 501.168H1093.9C1094 501.508 1094.13 501.836 1094.27 502.157C1094.52 502.738 1094.85 503.268 1095.26 503.745H1100.39C1101.28 503.063 1101.96 502.201 1102.42 501.168Z" fill="#9B9B9D"/>
<path d="M1030.2 503.745H1072.09C1072.33 503.548 1072.59 503.372 1072.86 503.223C1073.98 502.611 1075.78 502.302 1076.44 501.168H1029.72C1029.82 502.037 1029.98 502.899 1030.2 503.745Z" fill="#9B9B9D"/>
<path d="M1248.44 501.537C1248.26 502.268 1248.13 503.003 1248.04 503.745H1332.39C1332.27 503.025 1332 502.377 1331.56 501.791C1331.38 501.571 1331.19 501.362 1330.98 501.168H1248.54C1248.5 501.291 1248.47 501.414 1248.44 501.537Z" fill="#9B9B9D"/>
<path d="M896.441 501.634C896.821 501.459 897.213 501.314 897.605 501.168H842.804C842.793 502.03 842.838 502.887 842.935 503.745H893.726C894.465 502.828 895.367 502.123 896.441 501.634Z" fill="#9B9B9D"/>
<path d="M1246.98 510.51H1335.72C1335.63 509.54 1335.27 508.683 1334.64 507.937H1246.54C1246.11 508.787 1246.52 509.634 1246.98 510.51Z" fill="#9B9B9D"/>
<path d="M892.305 510.219C892.405 509.667 892.148 508.787 892.01 507.937H843.158C843.139 508.794 843.095 509.652 843.031 510.51H892.241C892.264 510.413 892.286 510.316 892.305 510.219Z" fill="#9B9B9D"/>
<path d="M1033.2 510.51H1069.4C1069.66 509.663 1069.84 508.794 1070.08 507.937H1031.81C1032.26 508.832 1032.73 509.678 1033.2 510.51Z" fill="#9B9B9D"/>
<path d="M1036.43 517.278H1063.85C1064.08 516.999 1064.32 516.711 1064.56 516.424C1065.11 515.79 1065.72 515.216 1066.39 514.701H1035.3C1035.67 515.507 1036.07 516.395 1036.43 517.278Z" fill="#9B9B9D"/>
<path d="M1248.6 517.278H1335.32C1335.36 516.835 1335.38 516.365 1335.41 515.85C1335.42 515.485 1335.46 515.097 1335.49 514.701H1248.28C1248.42 515.552 1248.52 516.413 1248.6 517.278Z" fill="#9B9B9D"/>
<path d="M890.25 514.701H842.677C842.607 515.529 842.547 516.365 842.506 517.219C842.506 517.237 842.506 517.256 842.506 517.278H888.733C889.285 516.447 889.792 515.585 890.25 514.701Z" fill="#9B9B9D"/>
<path d="M1037.41 524.043H1055.99C1057.47 523.398 1058.81 522.54 1060.02 521.466H1037.47C1037.39 522.357 1037.09 523.025 1037.41 524.043Z" fill="#9B9B9D"/>
<path d="M1248.95 521.5C1249.03 522.253 1249.19 523.118 1249.28 524.043H1333.56C1333.94 523.204 1334.28 522.343 1334.57 521.466H1248.95C1248.95 521.477 1248.95 521.489 1248.95 521.5Z" fill="#9B9B9D"/>
<path d="M884.963 522.805C885.25 522.335 885.537 521.891 885.821 521.466H842.85C842.939 522.205 843.021 522.984 843.058 523.838C843.062 523.905 843.062 523.976 843.066 524.043H884.281C884.482 523.644 884.706 523.226 884.963 522.805Z" fill="#9B9B9D"/>
<path d="M1289.89 530.808H1330.32C1330.55 530.577 1330.78 530.338 1330.99 530.084C1331.43 529.521 1331.77 528.906 1332.01 528.235H1287.93C1288.77 528.951 1289.42 529.808 1289.89 530.808Z" fill="#9B9B9D"/>
<path d="M875.968 530.353C876.322 528.842 878.758 528.906 880.559 528.235H842.961C842.887 529.13 842.779 530.006 842.641 530.808H875.938C875.927 530.655 875.938 530.506 875.968 530.353Z" fill="#9B9B9D"/>
<path d="M1246.99 530.692C1246.98 530.733 1246.98 530.77 1246.98 530.808H1267.16C1268.6 529.984 1270.08 528.883 1271.36 528.235H1248.61C1247.97 529.2 1247.09 529.883 1246.99 530.692Z" fill="#9B9B9D"/>
<path d="M876.244 536.629C876.438 536.099 876.568 535.559 876.643 534.999H841.589C841.357 535.842 841.212 536.704 841.152 537.576H875.61C875.875 537.296 876.083 536.979 876.244 536.629Z" fill="#9B9B9D"/>
<path d="M1292.29 537.576H1325.15C1325.69 536.726 1326.27 535.887 1326.86 534.999H1291.08C1291.32 535.935 1291.73 536.793 1292.29 537.576Z" fill="#9B9B9D"/>
<path d="M1299.34 544.341H1322.17C1322.44 543.401 1322.64 542.432 1322.91 541.764H1299.15C1299.24 542.603 1299.19 543.491 1299.34 544.341Z" fill="#9B9B9D"/>
<path d="M1372.99 541.764C1373.06 542.014 1373.12 542.264 1373.18 542.521C1373.29 543.103 1373.41 543.711 1373.53 544.341H1376.54C1376.1 543.442 1375.59 542.584 1375 541.764H1372.99Z" fill="#9B9B9D"/>
<path d="M866.387 542.178C866.398 542.04 866.421 541.902 866.458 541.764H841.961C842.013 541.913 842.069 542.059 842.125 542.215C842.353 542.905 842.438 543.614 842.379 544.341H866.469C866.555 543.479 866.368 542.529 866.387 542.178Z" fill="#9B9B9D"/>
<path d="M1307.98 548.868C1309.77 548.409 1310.58 550.927 1312.08 550.766C1313.23 550.643 1314.09 549.468 1315.02 548.532H1302.83C1304.51 549.237 1306.22 549.349 1307.98 548.868Z" fill="#9B9B9D"/>
<path d="M1374.13 551.109H1378.69C1378.39 550.27 1378.17 549.413 1378.03 548.532H1374.15C1374.21 549.39 1374.21 550.248 1374.13 551.109Z" fill="#9B9B9D"/>
<path d="M864.422 549.972C864.579 549.506 863.915 549.047 863.329 548.532H841.887C841.853 548.876 841.838 549.215 841.846 549.558C841.861 550.091 841.961 550.61 842.148 551.109H863.326C863.792 550.807 864.18 550.699 864.422 549.972Z" fill="#9B9B9D"/>
<path d="M1372.02 556.498C1371.62 557.106 1371.23 557.371 1371.05 557.874H1379.35C1380.2 557.158 1381.11 556.517 1382.06 555.95L1380.95 557.43C1381.72 556.8 1382.4 556.088 1383 555.297H1372.75C1372.51 555.719 1372.27 556.121 1372.02 556.498Z" fill="#9B9B9D"/>
<path d="M1308.89 556.945C1307.87 555.95 1307.03 555.293 1306.43 556.386C1306.22 556.86 1306.11 557.356 1306.1 557.874H1314.63C1314.64 557.714 1314.63 557.557 1314.6 557.397C1314.15 555.465 1310.53 558.542 1308.89 556.945Z" fill="#9B9B9D"/>
<path d="M862.08 556.039C862.173 555.801 862.218 555.554 862.218 555.297H843.17C842.961 555.998 842.506 556.807 842.58 557.874H860.436C861.077 557.445 861.719 556.949 862.08 556.039Z" fill="#9B9B9D"/>
<path d="M1367.62 562.431C1365.75 562.45 1365.04 563.054 1363.8 564.37C1363.72 564.46 1363.63 564.549 1363.55 564.639H1374.03C1374.32 564.355 1374.57 564.046 1374.8 563.718C1375.17 563.192 1375.49 562.64 1375.76 562.066H1371.06C1370.21 562.752 1368.71 562.424 1367.62 562.431Z" fill="#9B9B9D"/>
<path d="M859.403 562.066H841.79C841.757 562.181 841.731 562.297 841.716 562.416C841.525 563.751 842.499 564.139 843.122 564.639H862.457C862.013 563.561 860.429 562.852 859.403 562.066Z" fill="#9B9B9D"/>
<path d="M1305.98 564.639H1311.9C1312.09 564.434 1312.25 564.21 1312.4 563.971C1312.74 563.356 1313.03 562.722 1313.27 562.066H1305.8C1305.68 562.931 1305.65 563.844 1305.98 564.639Z" fill="#9B9B9D"/>
<path d="M1357.31 571.407H1365.67C1366.06 570.714 1366.51 570.065 1367.03 569.461C1367.2 569.255 1367.39 569.043 1367.57 568.83H1359.99C1359.18 569.774 1358.28 570.631 1357.31 571.407Z" fill="#9B9B9D"/>
<path d="M860.305 568.83H842.737C842.719 569.673 842.995 570.479 843.323 571.407H859.903C860.037 570.505 860.037 569.442 860.305 568.83Z" fill="#9B9B9D"/>
<path d="M858.701 577.105C858.41 576.636 858.198 576.132 858.056 575.595H844.635C844.929 576.468 845.258 577.325 845.619 578.172H859.227C859.074 577.806 858.899 577.448 858.701 577.105Z" fill="#9B9B9D"/>
<path d="M1350.77 576.136C1350.17 576.773 1349.29 577.448 1348.54 578.172H1358.58C1359.13 577.225 1359.66 576.266 1360.58 575.629C1360.6 575.617 1360.61 575.606 1360.63 575.595H1351.3C1351.12 575.77 1350.95 575.949 1350.77 576.136Z" fill="#9B9B9D"/>
<path d="M861.218 582.363H847.789C848.389 583.285 849.064 584.142 849.821 584.94H863.332C862.512 584.176 861.807 583.314 861.218 582.363Z" fill="#9B9B9D"/>
<path d="M1353.63 583.359C1354.09 583.057 1354.54 582.725 1354.95 582.363H1349.7C1351.22 583.449 1351.41 584.776 1353.63 583.359Z" fill="#9B9B9D"/>
<path d="M859.701 590.62C860.976 590.955 863.665 591.824 864.388 591.586C865.175 591.321 864.743 590.735 865.869 589.468C865.932 589.4 866.059 589.27 866.201 589.128H855.785C857.042 589.755 858.347 590.251 859.701 590.62Z" fill="#9B9B9D"/>
</g>
</g>
<mask id="mask2_260_8" style="mask-type:luminance" maskUnits="userSpaceOnUse" x="1170" y="405" width="26" height="34">
<path d="M1170.84 405.276H1195.18V438.899H1170.84V405.276Z" fill="white"/>
</mask>
<g mask="url(#mask2_260_8)">
<path d="M1183.09 405.221C1182.29 405.221 1181.51 405.299 1180.73 405.456C1179.94 405.612 1179.19 405.84 1178.45 406.145C1177.72 406.451 1177.02 406.824 1176.36 407.268C1175.7 407.708 1175.08 408.211 1174.52 408.774C1173.95 409.338 1173.45 409.949 1173.01 410.613C1172.57 411.273 1172.19 411.974 1171.89 412.709C1171.59 413.443 1171.35 414.2 1171.2 414.98C1171.04 415.763 1170.96 416.55 1170.96 417.348C1170.96 426.615 1182.02 437.78 1182.49 438.25L1183.09 438.85L1183.69 438.25C1184.16 437.78 1195.22 426.615 1195.22 417.348C1195.22 416.55 1195.14 415.763 1194.98 414.98C1194.83 414.2 1194.59 413.443 1194.29 412.709C1193.99 411.974 1193.61 411.273 1193.17 410.613C1192.73 409.949 1192.22 409.338 1191.66 408.774C1191.1 408.211 1190.49 407.708 1189.83 407.268C1189.16 406.824 1188.46 406.451 1187.73 406.145C1186.99 405.84 1186.23 405.612 1185.45 405.456C1184.68 405.299 1183.88 405.221 1183.09 405.221ZM1183.09 423.833C1182.67 423.833 1182.24 423.792 1181.83 423.71C1181.41 423.624 1181 423.501 1180.61 423.341C1180.21 423.177 1179.84 422.975 1179.49 422.74C1179.13 422.505 1178.81 422.233 1178.5 421.935C1178.2 421.633 1177.93 421.304 1177.7 420.95C1177.46 420.596 1177.26 420.223 1177.1 419.828C1176.93 419.436 1176.81 419.03 1176.73 418.612C1176.65 418.194 1176.6 417.773 1176.6 417.348C1176.6 416.919 1176.65 416.498 1176.73 416.08C1176.81 415.662 1176.93 415.259 1177.1 414.864C1177.26 414.469 1177.46 414.096 1177.7 413.742C1177.93 413.387 1178.2 413.059 1178.5 412.761C1178.81 412.459 1179.13 412.19 1179.49 411.952C1179.84 411.717 1180.21 411.515 1180.61 411.355C1181 411.191 1181.41 411.068 1181.83 410.986C1182.24 410.9 1182.67 410.859 1183.09 410.859C1183.52 410.859 1183.94 410.9 1184.35 410.986C1184.77 411.068 1185.18 411.191 1185.57 411.355C1185.97 411.515 1186.34 411.717 1186.69 411.952C1187.05 412.19 1187.37 412.459 1187.68 412.761C1187.98 413.059 1188.25 413.387 1188.48 413.742C1188.72 414.096 1188.92 414.469 1189.08 414.864C1189.25 415.259 1189.37 415.662 1189.45 416.08C1189.53 416.498 1189.58 416.919 1189.58 417.348C1189.58 417.773 1189.53 418.194 1189.45 418.612C1189.37 419.03 1189.24 419.436 1189.08 419.828C1188.92 420.219 1188.72 420.596 1188.48 420.95C1188.24 421.304 1187.98 421.629 1187.67 421.931C1187.37 422.233 1187.05 422.502 1186.69 422.736C1186.34 422.975 1185.97 423.173 1185.57 423.337C1185.18 423.501 1184.77 423.624 1184.35 423.706C1183.94 423.792 1183.52 423.833 1183.09 423.833Z" fill="#F15A23"/>
</g>
<mask id="mask3_260_8" style="mask-type:luminance" maskUnits="userSpaceOnUse" x="1310" y="502" width="26" height="34">
<path d="M1310.95 502.086H1335.29V535.738H1310.95V502.086Z" fill="white"/>
</mask>
<g mask="url(#mask3_260_8)">
<path d="M1323.2 502.03C1322.4 502.03 1321.61 502.108 1320.84 502.265C1320.05 502.421 1319.3 502.649 1318.56 502.955C1317.83 503.26 1317.13 503.633 1316.46 504.077C1315.8 504.521 1315.19 505.021 1314.63 505.584C1314.07 506.147 1313.56 506.758 1313.12 507.422C1312.68 508.082 1312.3 508.783 1312 509.518C1311.7 510.253 1311.46 511.01 1311.31 511.793C1311.15 512.572 1311.07 513.359 1311.07 514.157C1311.07 523.424 1322.13 534.589 1322.6 535.059L1323.2 535.659L1323.8 535.059C1324.27 534.589 1335.33 523.424 1335.33 514.157C1335.33 513.359 1335.25 512.572 1335.09 511.793C1334.94 511.01 1334.7 510.253 1334.4 509.518C1334.1 508.783 1333.72 508.082 1333.28 507.422C1332.84 506.758 1332.33 506.147 1331.77 505.584C1331.21 505.021 1330.59 504.521 1329.93 504.077C1329.27 503.633 1328.57 503.26 1327.84 502.955C1327.1 502.649 1326.34 502.421 1325.56 502.265C1324.78 502.108 1323.99 502.03 1323.2 502.03ZM1323.2 520.642C1322.77 520.642 1322.35 520.601 1321.94 520.519C1321.52 520.437 1321.11 520.314 1320.72 520.15C1320.32 519.986 1319.95 519.788 1319.6 519.549C1319.24 519.314 1318.91 519.042 1318.61 518.744C1318.31 518.442 1318.04 518.114 1317.81 517.759C1317.57 517.405 1317.37 517.032 1317.21 516.637C1317.04 516.245 1316.92 515.839 1316.84 515.421C1316.76 515.004 1316.71 514.582 1316.71 514.157C1316.71 513.732 1316.76 513.307 1316.84 512.889C1316.92 512.471 1317.04 512.069 1317.21 511.673C1317.37 511.282 1317.57 510.905 1317.81 510.551C1318.04 510.197 1318.31 509.872 1318.61 509.57C1318.91 509.268 1319.24 509 1319.6 508.761C1319.95 508.526 1320.32 508.325 1320.72 508.164C1321.11 508 1321.52 507.877 1321.94 507.795C1322.35 507.709 1322.77 507.668 1323.2 507.668C1323.62 507.668 1324.05 507.709 1324.46 507.795C1324.88 507.877 1325.29 508 1325.68 508.164C1326.07 508.325 1326.45 508.526 1326.8 508.761C1327.16 509 1327.48 509.268 1327.79 509.57C1328.09 509.872 1328.36 510.197 1328.59 510.551C1328.83 510.905 1329.03 511.282 1329.19 511.673C1329.36 512.069 1329.48 512.471 1329.56 512.889C1329.64 513.307 1329.68 513.732 1329.68 514.157C1329.68 514.582 1329.64 515.004 1329.56 515.421C1329.48 515.839 1329.35 516.245 1329.19 516.637C1329.03 517.032 1328.83 517.405 1328.59 517.759C1328.35 518.114 1328.08 518.438 1327.78 518.74C1327.48 519.042 1327.16 519.311 1326.8 519.546C1326.45 519.784 1326.07 519.986 1325.68 520.146C1325.29 520.31 1324.88 520.433 1324.46 520.515C1324.05 520.601 1323.62 520.642 1323.2 520.642Z" fill="#F15A23"/>
</g>
</g>
<defs>
<clipPath id="clip0_260_8">
<rect width="716" height="716" fill="white" transform="translate(667 163)"/>
</clipPath>
</defs>
</svg>
