<svg width="716" height="430" viewBox="0 0 716 430" fill="none" xmlns="http://www.w3.org/2000/svg">
<mask id="mask0_371_29" style="mask-type:luminance" maskUnits="userSpaceOnUse" x="0" y="0" width="716" height="430">
<path d="M716 0H0V429.6H716V0Z" fill="white"/>
</mask>
<g mask="url(#mask0_371_29)">
<path d="M222.882 2.07342C222.591 2.08834 222.352 2.2114 222.166 2.43888H223.564C223.408 2.18902 223.18 2.06969 222.882 2.07342Z" fill="#9B9B9D" fill-opacity="0.29"/>
<path d="M231.951 0.555635C231.261 0.421385 229.311 0.809218 227.808 1.89068C227.584 2.05476 227.376 2.23749 227.182 2.43886H244.011C242.177 0.995677 240.469 2.43886 236.505 0.738365C234.894 0.0484683 235.494 1.24553 231.951 0.555635Z" fill="#9B9B9D" fill-opacity="0.29"/>
<path d="M209.169 8.15194C208.561 8.46519 206.853 6.96606 206.223 6.99963C204.519 7.09286 206.178 7.87598 202.863 9.07304C202.762 9.11033 202.665 9.15136 202.568 9.20356H251.581C251.353 8.81573 251.297 8.40179 251.417 7.96921C251.573 7.36508 251.323 6.9586 250.887 6.62671H209.986C209.788 7.22338 209.62 7.917 209.169 8.15194Z" fill="#9B9B9D" fill-opacity="0.29"/>
<path d="M284.356 8.10348C281.264 8.55844 277.96 8.50996 275.234 9.20359H296.524C292.937 7.31663 288.372 7.51427 284.356 8.10348Z" fill="#9B9B9D" fill-opacity="0.29"/>
<path d="M456.797 9.20356H462.875C462.417 8.81946 462.048 8.53604 461.153 7.90954C460.504 7.45831 459.985 6.93996 459.493 6.62671H457.957C457.274 7.14506 456.935 8.17431 456.797 9.20356Z" fill="#9B9B9D" fill-opacity="0.29"/>
<path d="M457.952 15.9683H472.067C471.668 15.2597 471.336 14.5214 470.501 14.0477C469.457 13.4548 468.01 13.8165 466.969 13.3951H457.191C457.393 14.2118 457.65 15.118 457.952 15.9683Z" fill="#9B9B9D" fill-opacity="0.29"/>
<path d="M196.605 14.6892C196.217 15.0509 195.926 15.4797 195.732 15.9683H245.603C245.934 15.7967 246.278 15.6438 246.628 15.517C247.952 14.9353 249.205 14.2267 250.383 13.3951H197.742C197.392 13.8538 197.015 14.2827 196.605 14.6892Z" fill="#9B9B9D" fill-opacity="0.29"/>
<path d="M300.436 14.2156C300.275 13.9545 300.145 13.6823 300.044 13.3951H270.136C269.853 13.8911 269.428 14.2193 268.275 14.2603C267.817 14.2752 267.448 13.7345 267.022 13.3951H265.781C265.605 13.5443 265.449 13.7121 265.311 13.9023C263.513 16.2815 263.435 12.9812 258.393 13.9471C256.003 14.402 252.926 14.3759 251.043 15.9683H302.849C302.028 15.3865 300.853 14.8719 300.436 14.2156Z" fill="#9B9B9D" fill-opacity="0.29"/>
<path d="M467.161 21.7858C468.488 22.3302 469.868 22.6472 471.304 22.7367H484.867C484.893 22.6547 484.919 22.5689 484.941 22.4794C485.072 22.0505 485.068 21.6254 484.93 21.2003C484.792 20.7752 484.542 20.4284 484.188 20.1599H464.457C465.389 20.6185 466.273 21.3942 467.161 21.7858Z" fill="#9B9B9D" fill-opacity="0.29"/>
<path d="M196.142 21.9648C196.098 22.2445 195.997 22.5018 195.833 22.7367H237.063C237.644 22.3377 238.248 21.9536 238.942 21.5508C239.677 21.122 240.381 20.6372 241.086 20.1599H194.986C195.158 20.7379 196.228 21.2972 196.142 21.9648Z" fill="#9B9B9D" fill-opacity="0.29"/>
<path d="M302.539 20.1599H248.962C248.947 20.171 248.932 20.1822 248.918 20.1897C248.287 20.5775 247.743 20.3202 247.034 20.1599H245.461C245.211 20.2232 244.972 20.309 244.741 20.4172C243.402 21.1257 242.104 21.8976 240.848 22.7367H302.92C302.293 21.6478 302.304 20.8423 302.539 20.1599Z" fill="#9B9B9D" fill-opacity="0.29"/>
<path d="M479.952 27.4877C480.198 27.3571 480.388 27.167 480.53 26.9246H478.404C478.721 27.5212 479.165 27.8904 479.952 27.4877Z" fill="#9B9B9D" fill-opacity="0.29"/>
<path d="M194.853 27.6107C195.103 28.5169 195.405 29.0204 195.961 29.5014H224.198C225.887 28.5766 228.214 28.9197 229.971 27.6256C230.336 27.3571 230.668 27.1297 230.977 26.9246H194.719C194.749 27.1558 194.793 27.3832 194.853 27.6107Z" fill="#9B9B9D" fill-opacity="0.29"/>
<path d="M312.214 29.2889C312.795 28.4498 313.675 27.8494 314.156 26.9246H238.316C238.723 27.51 239.152 28.1067 239.126 28.5952C239.107 28.901 239.055 29.2068 238.969 29.5014H312.061C312.113 29.4306 312.161 29.3634 312.214 29.2889Z" fill="#9B9B9D" fill-opacity="0.29"/>
<path d="M486.999 27.1632C486.078 27.5697 485.485 28.461 485.201 29.5014H492.231C490.884 28.2261 488.934 26.313 486.999 27.1632Z" fill="#9B9B9D" fill-opacity="0.29"/>
<path d="M485.246 36.2698H510.067C509.803 35.3301 509.378 34.4724 508.796 33.693H485.701C486.07 34.6178 485.761 35.5016 485.246 36.2698Z" fill="#9B9B9D" fill-opacity="0.29"/>
<path d="M64.9502 35.2742C63.9955 35.1362 62.7015 36.0424 61.5156 36.2699H66.6693C66.1995 35.7627 65.6252 35.4308 64.9502 35.2742Z" fill="#9B9B9D" fill-opacity="0.29"/>
<path d="M58.4022 36.1729C58.2381 36.1953 58.0703 36.2289 57.9062 36.2699H60.1624C59.5806 36.1655 58.9952 36.1319 58.4022 36.1729Z" fill="#9B9B9D" fill-opacity="0.29"/>
<path d="M308.506 33.7266C308.518 33.7154 308.525 33.7042 308.533 33.693H230.045C227.431 34.0957 224.943 34.7073 224.078 36.2698H307.201C307.589 35.4308 307.899 34.5582 308.506 33.7266Z" fill="#9B9B9D" fill-opacity="0.29"/>
<path d="M198.676 36.2698H220.074C220.54 35.9454 220.98 35.621 221.364 35.3152C221.916 34.905 222.266 34.3642 222.423 33.693H199.377C198.881 34.4276 198.989 35.4532 198.676 36.2698Z" fill="#9B9B9D" fill-opacity="0.29"/>
<path d="M186.802 35.6359C185.84 35.1549 184.706 34.5395 183.722 34.9945C183.326 35.1735 183.102 35.6807 182.916 36.2699H187.473C187.305 35.9976 187.081 35.7888 186.802 35.6359Z" fill="#9B9B9D" fill-opacity="0.29"/>
<path d="M598.875 36.2699H603.313C601.948 35.8298 600.359 35.9081 598.875 36.2699Z" fill="#9B9B9D" fill-opacity="0.29"/>
<path d="M176.311 34.808C175.58 34.8975 173.346 36.3109 172.351 36.0983C171.541 35.9268 171.661 33.7974 170.557 33.7489C169.651 33.7117 169.487 35.1437 169.371 36.2699H179.067C177.844 35.7366 177.419 34.6775 176.311 34.808Z" fill="#9B9B9D" fill-opacity="0.29"/>
<path d="M660.093 36.0461C657.158 34.67 654.238 34.3307 651.192 33.693H626.303C626.053 34.2076 625.815 34.767 625.114 35.1958C624.249 35.7291 623.007 35.7776 622.037 36.2698H660.503C660.373 36.1878 660.235 36.1132 660.093 36.0461Z" fill="#9B9B9D" fill-opacity="0.29"/>
<path d="M582.596 35.4718C578.267 33.6557 573.721 35.6583 567.788 35.5054C566.922 35.4532 566.158 35.7068 565.494 36.2699H584.039C583.584 35.9603 583.103 35.6956 582.596 35.4718Z" fill="#9B9B9D" fill-opacity="0.29"/>
<path d="M677.743 40.4577H614.247C612.665 40.9985 611.088 40.9985 609.511 40.4577H564.283C564.649 41.3005 565.253 42.3484 565.219 43.0346H679.153C679.25 42.0352 678.72 41.1961 677.743 40.4577Z" fill="#9B9B9D" fill-opacity="0.29"/>
<path d="M475.133 43.0346H509.684C509.822 42.2403 510.153 41.3639 510.34 40.4577H477.762C476.52 41.1476 475.812 42.0314 475.133 43.0346Z" fill="#9B9B9D" fill-opacity="0.29"/>
<path d="M141.045 40.9985C140.634 40.7486 140.194 40.5659 139.728 40.4577H128.09C127.62 41.4907 126.93 42.3484 126.027 43.0346H142.108C142.052 42.1993 141.697 41.5205 141.045 40.9985Z" fill="#9B9B9D" fill-opacity="0.29"/>
<path d="M169.73 40.8418C170.971 41.2558 172.012 41.7219 171.937 42.4044C171.915 42.6281 171.885 42.8369 171.852 43.0346H211.821C211.66 42.203 210.657 41.9345 210.732 41.3005C210.81 40.9425 210.997 40.6628 211.302 40.4577H169.219C169.346 40.6442 169.517 40.771 169.73 40.8418Z" fill="#9B9B9D" fill-opacity="0.29"/>
<path d="M302.446 41.8338C302.603 41.3341 302.845 40.8754 303.162 40.4577H225.133C225.715 41.3788 226.121 42.2179 225.424 42.9749C225.401 42.9973 225.379 43.0159 225.353 43.0346H301.98C302.144 42.6542 302.3 42.2589 302.446 41.8338Z" fill="#9B9B9D" fill-opacity="0.29"/>
<path d="M70.7424 42.4827C70.4328 41.8711 70.4217 41.0246 70.224 40.4577H47.5097C46.8384 41.0171 46.2007 41.5466 45.6861 41.8972C44.7836 42.4827 43.7991 42.863 42.7363 43.0346H71.5665C71.1526 42.8369 70.8244 42.6468 70.7424 42.4827Z" fill="#9B9B9D" fill-opacity="0.29"/>
<path d="M543.519 41.0544C543.023 40.8418 542.486 40.6405 541.919 40.4577H533.823C533.715 40.674 533.633 40.8978 533.577 41.1327C533.442 41.7629 533.413 42.3969 533.487 43.0346H546.028C545.342 42.1843 544.503 41.5243 543.519 41.0544Z" fill="#9B9B9D" fill-opacity="0.29"/>
<path d="M143.077 49.5158C143.014 48.7327 142.857 47.9682 142.607 47.2261H121.18C120.866 47.696 120.624 48.1994 120.456 48.7364C120.378 49.0907 120.374 49.445 120.445 49.7993H143.137C143.1 49.7098 143.081 49.6128 143.077 49.5158Z" fill="#9B9B9D" fill-opacity="0.29"/>
<path d="M299.996 47.2261H223.69C223.906 48.1622 223.459 48.8893 223.798 49.7993H300.548C300.045 49.0049 299.754 48.1771 299.996 47.2261Z" fill="#9B9B9D" fill-opacity="0.29"/>
<path d="M80.4605 49.169C79.5879 48.7775 78.9166 48.1622 77.9843 47.6587C77.7009 47.5058 77.4436 47.3604 77.2087 47.2261H36.2773C36.5309 48.0167 36.971 48.8893 37.1425 49.7993H82.2169C81.6277 49.5643 81.0162 49.4189 80.4605 49.169Z" fill="#9B9B9D" fill-opacity="0.29"/>
<path d="M469.645 49.7993H678.332C677.833 49.0907 676.863 47.9869 676.934 47.2261H558.783C557.757 47.8191 556.661 48.2181 555.494 48.4157C554.323 48.6134 553.159 48.6022 551.992 48.3784C551.097 48.2032 550.299 47.8153 549.605 47.2261H471.86C471.073 48.0428 470.334 48.9005 469.645 49.7993Z" fill="#9B9B9D" fill-opacity="0.29"/>
<path d="M179.392 49.3592C181.081 50.3474 181.905 48.5351 183.027 49.0348C183.43 49.2101 183.77 49.4636 184.049 49.7993H205.246C205.119 49.0534 204.683 48.6805 203.967 48.0689C203.62 47.7706 203.169 47.4984 202.773 47.2261H177.684C178.232 48.0727 178.869 49.0497 179.392 49.3592Z" fill="#9B9B9D" fill-opacity="0.29"/>
<path d="M432.412 47.8377C432.039 48.5873 431.543 49.2399 430.924 49.7993H437.137C437.308 49.445 437.427 49.0758 437.498 48.688C437.592 48.192 437.562 47.7035 437.413 47.2261H432.736C432.624 47.4238 432.52 47.6326 432.412 47.8377Z" fill="#9B9B9D" fill-opacity="0.29"/>
<path d="M194.995 54.3302C196.256 54.5204 197.527 54.1475 199.78 55.2029C200.98 55.7697 202.737 55.1134 203.904 53.9909H193.041C193.731 54.1289 194.41 54.2407 194.995 54.3302Z" fill="#9B9B9D" fill-opacity="0.29"/>
<path d="M422.135 56.5677H429.858C429.862 56.5603 429.865 56.5565 429.869 56.5491C430.593 55.6354 431.693 54.8187 432.837 53.9909H423.712C423.004 54.7367 422.478 55.5981 422.135 56.5677Z" fill="#9B9B9D" fill-opacity="0.29"/>
<path d="M179.961 53.9909H176.016C175.938 54.017 175.855 54.0431 175.773 54.0729C174.972 54.3563 173.696 55.7548 173.025 55.2812C172.581 54.9418 172.264 54.513 172.074 53.9909H165.28C165.06 54.6211 165.048 55.1656 164.273 55.4042C163.613 55.6093 163.113 55.3781 161.756 55.2364C160.42 55.1022 159.44 56.5006 158.235 55.7324C157.586 55.3147 157.474 54.6882 157.433 53.9909H121.234C121.32 54.1326 121.421 54.2594 121.536 54.375C122.428 55.229 123.938 55.1245 124.4 55.132C125.474 55.1544 126.522 55.1171 127.294 55.4453C127.708 55.6205 127.932 56.0158 128.059 56.5677H183.485C182.281 55.3781 181.173 54.4645 179.961 53.9909Z" fill="#9B9B9D" fill-opacity="0.29"/>
<path d="M303.152 56.5677C303.226 56.3664 303.29 56.165 303.346 55.9599C303.521 55.2998 303.513 54.6435 303.316 53.9909H237.246C237.679 54.8187 238.04 55.6765 238.324 56.5677H303.152Z" fill="#9B9B9D" fill-opacity="0.29"/>
<path d="M31.5086 56.5155C31.296 56.5155 31.0798 56.5341 30.8672 56.5677H31.8741C31.7547 56.5341 31.6354 56.5155 31.5086 56.5155Z" fill="#9B9B9D" fill-opacity="0.29"/>
<path d="M87.9298 55.229C87.6575 54.7964 87.0571 54.3936 86.4456 53.9909H36.7432C36.7246 54.1848 36.7209 54.3787 36.7358 54.5726C36.7805 55.1357 36.8812 55.8629 36.8999 56.5677H88.4705C88.3512 56.0941 88.1722 55.6504 87.9298 55.229Z" fill="#9B9B9D" fill-opacity="0.29"/>
<path d="M468.179 54.9716C468.294 55.4975 468.324 56.0307 468.265 56.5677H662.558C662.688 55.6541 662.979 54.7964 663.431 53.9909H468.078C468.082 54.319 468.115 54.6472 468.179 54.9716Z" fill="#9B9B9D" fill-opacity="0.29"/>
<path d="M679.507 53.9909H676.479C677.735 54.2631 678.861 54.3712 679.507 53.9909Z" fill="#9B9B9D" fill-opacity="0.29"/>
<path d="M462.328 63.3324H666.548C666.534 63.3138 666.519 63.2914 666.504 63.2728C665.855 62.3927 664.736 61.6282 663.867 60.7556H463.984C463.38 61.5797 462.824 62.4374 462.328 63.3324Z" fill="#9B9B9D" fill-opacity="0.29"/>
<path d="M202.628 60.8563C202.561 60.8227 202.494 60.7891 202.427 60.7556H128.746C128.854 61.2963 128.779 61.8072 128.522 62.292C128.309 62.65 128.078 62.9968 127.832 63.3324H204.854C204.608 62.4151 204.011 61.5797 202.628 60.8563Z" fill="#9B9B9D" fill-opacity="0.29"/>
<path d="M420.74 61.7923C420.598 62.2995 420.438 62.8141 420.273 63.3324H426.896C427.262 62.4188 427.515 61.5723 427.78 60.7556H421.004C420.919 61.1136 420.833 61.4604 420.74 61.7923Z" fill="#9B9B9D" fill-opacity="0.29"/>
<path d="M117.953 62.4785C116.6 62.3703 116.078 61.3858 115.373 60.7556H23.7435C23.8143 61.3224 23.9262 61.8818 23.7882 62.1988C23.6502 62.5642 23.5458 62.9446 23.4824 63.3324H119.382C119.031 62.8402 118.554 62.553 117.953 62.4785Z" fill="#9B9B9D" fill-opacity="0.29"/>
<path d="M239.196 63.3324H300.898C300.977 62.4635 301.115 61.6058 301.316 60.7556H239.039C239.106 61.6096 239.166 62.4785 239.196 63.3324Z" fill="#9B9B9D" fill-opacity="0.29"/>
<path d="M238.506 70.1009H299.75C300.127 69.2767 300.388 68.419 300.529 67.524H239.024C238.905 68.2997 238.715 69.1798 238.506 70.1009Z" fill="#9B9B9D" fill-opacity="0.29"/>
<path d="M445.348 70.1009H669.631C671.1 69.8324 672.245 69.4035 670.724 67.5725C670.709 67.5539 670.694 67.5389 670.679 67.524H445.698C445.512 68.3705 445.392 69.232 445.348 70.1009Z" fill="#9B9B9D" fill-opacity="0.29"/>
<path d="M418.363 70.1009H424.416C424.613 69.2245 424.867 68.3668 425.173 67.524H418.938C418.695 68.3705 418.501 69.2282 418.363 70.1009Z" fill="#9B9B9D" fill-opacity="0.29"/>
<path d="M205.512 69.5079C205.221 68.8777 205.049 68.2176 204.997 67.524H126.472C125.972 68.4489 125.23 69.0791 124.298 68.9262C123.697 68.8255 123.022 68.2065 122.411 67.524H24.4941C25.4152 67.9939 26.6347 67.9864 27.6639 68.2699C28.5403 68.5122 29.7038 69.1984 30.1737 70.1009H205.933C205.765 69.9219 205.624 69.7242 205.512 69.5079Z" fill="#9B9B9D" fill-opacity="0.29"/>
<path d="M418.055 76.8656H425.278C424.748 76.0787 424.409 75.221 424.252 74.2887H417.913C417.838 75.1539 417.887 76.0116 418.055 76.8656Z" fill="#9B9B9D" fill-opacity="0.29"/>
<path d="M445.286 76.8656H663.423C663.729 76.0004 664.072 75.1166 664.449 74.2887H444.969C444.972 75.1614 445.077 76.0191 445.286 76.8656Z" fill="#9B9B9D" fill-opacity="0.29"/>
<path d="M237.478 76.8656H294.818C295.179 75.8811 295.731 75.0234 296.477 74.2925V74.2887H237.642C237.497 75.1427 237.441 76.0004 237.478 76.8656Z" fill="#9B9B9D" fill-opacity="0.29"/>
<path d="M209.763 74.4416C209.752 74.3894 209.737 74.3409 209.718 74.2887H25.0758C25.0199 74.3186 24.9677 74.3447 24.908 74.3708C24.5313 74.546 24.095 74.4416 23.655 74.2887H21.0334C19.9445 74.8779 19.1278 75.9967 18.1992 76.8656H211.243C210.542 76.0601 209.96 75.2881 209.763 74.4416Z" fill="#9B9B9D" fill-opacity="0.29"/>
<path d="M446.897 83.6303H642.611C643.539 82.8845 644.039 83.0224 644.27 83.6303H661.592C661.667 82.7614 661.816 81.9 662.04 81.0572H446.285C446.58 81.8888 446.923 82.8434 446.897 83.6303Z" fill="#9B9B9D" fill-opacity="0.29"/>
<path d="M427.792 82.5265C428.87 82.3698 429.731 82.3512 429.869 81.2921C429.88 81.2138 429.884 81.1355 429.88 81.0572H421.475C423.399 82.0827 425.987 82.7838 427.792 82.5265Z" fill="#9B9B9D" fill-opacity="0.29"/>
<path d="M435.812 83.6303H441.399C438.99 82.5861 436.543 81.6501 435.812 83.6303Z" fill="#9B9B9D" fill-opacity="0.29"/>
<path d="M237.123 83.6303H294.392C294.31 82.7912 294.235 81.9223 294.22 81.0572H239.118C238.723 81.8142 237.794 82.6271 237.123 83.6303Z" fill="#9B9B9D" fill-opacity="0.29"/>
<path d="M196.799 83.6303H214.919C214.908 83.3133 214.878 82.9963 214.826 82.6793C214.74 82.12 214.587 81.5755 214.359 81.0572H197.008C197.228 81.9149 196.948 82.8099 196.799 83.6303Z" fill="#9B9B9D" fill-opacity="0.29"/>
<path d="M188.115 82.2318C188.137 81.8552 188.026 81.4413 188.078 81.0572H14.1046C13.8473 81.8701 13.989 82.6868 13.8398 83.6303H187.619C187.936 83.2201 188.1 82.7539 188.115 82.2318Z" fill="#9B9B9D" fill-opacity="0.29"/>
<path d="M201.702 90.3987H214.046C213.628 90.1824 213.233 89.9288 212.864 89.6454C212.111 89.0264 211.797 88.3924 211.79 87.8219H200.289C201.102 88.4931 201.572 89.3508 201.702 90.3987Z" fill="#9B9B9D" fill-opacity="0.29"/>
<path d="M238.858 89.6641C238.906 89.9065 238.936 90.1489 238.947 90.3987H292.073C292.8 89.638 293.382 88.7803 293.814 87.8219H237.135C237.806 88.4185 238.679 88.7653 238.858 89.6641Z" fill="#9B9B9D" fill-opacity="0.29"/>
<path d="M643.553 90.1116C643.527 90.2048 643.505 90.3018 643.479 90.3987H650.072C650.967 89.9027 652.391 90.3018 653.484 89.3993C653.875 89.0749 654.159 88.4745 654.416 87.8219H644.09C643.919 88.7131 643.713 89.5447 643.553 90.1116Z" fill="#9B9B9D" fill-opacity="0.29"/>
<path d="M386.029 89.6939C385.294 89.0488 384.582 88.4111 383.866 87.8219H367.913C367.737 87.9076 367.562 87.9897 367.383 88.0755C365.973 88.7504 364.616 89.5261 363.314 90.3987H387.151C386.745 90.216 386.368 89.9848 386.029 89.6939Z" fill="#9B9B9D" fill-opacity="0.29"/>
<path d="M436.112 88.1538C435.332 88.8138 431.555 89.2017 430.488 89.541C429.157 89.9512 427.8 90.2346 426.416 90.3987H631.371C631.475 89.5298 631.636 88.6684 631.852 87.8219H436.41C436.328 87.9449 436.227 88.0568 436.112 88.1538Z" fill="#9B9B9D" fill-opacity="0.29"/>
<path d="M185.351 87.8219H12.6046C12.5562 88.8325 12.7053 89.8319 13.041 90.3987H185.123C185.504 89.7237 185.44 89.0152 185.351 87.8219Z" fill="#9B9B9D" fill-opacity="0.29"/>
<path d="M199.217 94.7469C198.09 95.6606 196.916 96.0782 196.293 97.1634H220.1C219.589 96.0521 218.217 95.4256 217.266 94.5866H199.411C199.347 94.6388 199.284 94.6947 199.217 94.7469Z" fill="#9B9B9D" fill-opacity="0.29"/>
<path d="M179.835 94.5866H47.9199C48.0057 94.6015 48.0877 94.6201 48.1698 94.6462C49.2773 94.9707 49.833 96.1342 50.7615 97.1634H177.46C177.665 96.0671 178.732 95.3436 179.835 94.5866Z" fill="#9B9B9D" fill-opacity="0.29"/>
<path d="M402.132 96.399C401.251 95.724 400.323 95.1198 399.35 94.5866H358.183C357.527 95.2578 356.945 95.9925 356.442 96.7868C356.371 96.9061 356.304 97.0329 356.244 97.1634H402.881C402.661 96.8837 402.411 96.6264 402.132 96.399Z" fill="#9B9B9D" fill-opacity="0.29"/>
<path d="M417.289 97.1634H632.947C632.898 96.9136 632.813 96.6824 632.686 96.4586C632.328 95.8097 631.436 95.2019 630.955 94.5866H418.922C418.404 95.3734 417.867 96.3169 417.289 97.1634Z" fill="#9B9B9D" fill-opacity="0.29"/>
<path d="M410.071 96.7085C409.929 96.8353 409.821 96.9882 409.746 97.1634H412.103C411.529 96.4213 410.928 95.9515 410.071 96.7085Z" fill="#9B9B9D" fill-opacity="0.29"/>
<path d="M14.4426 97.1634H44.8912C45.1709 97.0255 45.4133 96.8427 45.6184 96.6078C46.312 95.7762 46.6253 94.7432 47.4606 94.5866H15.5054C15.0057 95.5487 14.3904 96.5556 14.4426 97.1634Z" fill="#9B9B9D" fill-opacity="0.29"/>
<path d="M642.711 97.1634H649.479C649.74 96.6339 650.158 96.1118 650.154 95.3995C650.139 95.1198 650.084 94.8476 649.987 94.5866H642.972C642.912 95.4704 642.845 96.343 642.711 97.1634Z" fill="#9B9B9D" fill-opacity="0.29"/>
<path d="M235.164 97.1634H276.521C278.228 96.7793 280.004 96.6563 281.842 96.0447C282.927 95.683 284.273 95.2056 285.679 94.5866H236.384C235.865 95.3921 235.459 96.2498 235.164 97.1634Z" fill="#9B9B9D" fill-opacity="0.29"/>
<path d="M21.1862 102.161C20.8618 102.817 20.4404 103.406 19.9258 103.928H26.2467C27.9808 103.179 29.5023 102.794 30.7292 101.355H21.4137C21.369 101.631 21.2944 101.899 21.1862 102.161Z" fill="#9B9B9D" fill-opacity="0.29"/>
<path d="M234.703 103.928H268.508C268.788 103.682 269.056 103.421 269.31 103.145C269.798 102.578 270.246 101.982 270.649 101.355H234.416C234.416 102.224 234.513 103.082 234.703 103.928Z" fill="#9B9B9D" fill-opacity="0.29"/>
<path d="M165.34 102.366C166.25 102.325 167.156 101.892 167.991 101.355H58.1113C59.0138 102.078 59.7633 102.936 60.36 103.928H162.263C162.64 103.458 163.095 103.089 163.632 102.817C164.169 102.545 164.739 102.395 165.34 102.366Z" fill="#9B9B9D" fill-opacity="0.29"/>
<path d="M186.973 103.126C187.167 103.492 187.446 103.757 187.823 103.928H209.642C209.366 103.574 209.195 103.175 209.124 102.731C209.109 101.855 210.399 101.441 210.97 101.582C211.827 101.799 212.208 103.193 212.894 103.928H214.822C215.355 103.518 215.9 102.932 216.515 102.642C217.13 102.321 217.656 101.892 218.096 101.355H187.181C186.809 101.967 186.682 102.627 186.973 103.126Z" fill="#9B9B9D" fill-opacity="0.29"/>
<path d="M640.496 103.928H654.309C653.854 103.35 653.496 102.716 653.235 102.026C653.149 101.78 653.026 101.556 652.866 101.355H641.417C641.085 102.213 640.757 103.07 640.496 103.928Z" fill="#9B9B9D" fill-opacity="0.29"/>
<path d="M169.957 103.678C169.953 103.768 169.953 103.85 169.953 103.928H180.656C180.544 103.73 180.417 103.522 180.261 103.298C179.824 102.66 179.414 102.011 179.037 101.355H171.087C170.576 102.25 169.975 103.16 169.957 103.678Z" fill="#9B9B9D" fill-opacity="0.29"/>
<path d="M407.295 101.873C406.919 101.791 406.587 101.616 406.303 101.355H355.747C355.721 101.899 355.62 102.433 355.441 102.951C355.318 103.276 355.195 103.604 355.064 103.928H608.883C609.468 102.761 610.315 101.791 611.885 101.452C612.948 101.224 614.331 102.03 615.405 101.642C615.61 101.568 615.808 101.471 615.998 101.355H408.999C408.697 101.773 408.186 102 407.295 101.873Z" fill="#9B9B9D" fill-opacity="0.29"/>
<path d="M372.547 108.12H353.279C353.144 108.403 353.01 108.687 352.872 108.966C352.577 109.567 352.287 110.145 351.988 110.697H371.123C371.462 109.764 371.939 108.903 372.547 108.12Z" fill="#9B9B9D" fill-opacity="0.29"/>
<path d="M640.324 110.697H655.554C655.547 110.633 655.547 110.57 655.547 110.506C655.554 110.003 655.901 108.992 656.11 108.12H639.951C639.985 108.992 640.112 109.85 640.324 110.697Z" fill="#9B9B9D" fill-opacity="0.29"/>
<path d="M234.9 110.697H256.857C257.133 109.805 257.491 108.948 257.923 108.12H234.896C234.698 108.977 234.698 109.839 234.9 110.697Z" fill="#9B9B9D" fill-opacity="0.29"/>
<path d="M287.561 108.12C287.572 108.355 287.635 108.578 287.751 108.784C288.396 109.884 289.194 109.913 289.477 110.697H306.259C306.121 110.01 305.565 108.951 305.05 108.12H287.561Z" fill="#9B9B9D" fill-opacity="0.29"/>
<path d="M196.665 108.575C196.81 109.298 197.008 110.003 197.265 110.697H210.981C211.104 110.346 211.25 110.007 211.414 109.675C211.649 109.179 211.72 108.66 211.634 108.12H196.561C196.594 108.265 196.631 108.414 196.665 108.575Z" fill="#9B9B9D" fill-opacity="0.29"/>
<path d="M376.661 110.697H606.971C607.138 109.828 607.306 108.959 607.496 108.12H376.516C377.109 108.832 377.038 109.753 376.661 110.697Z" fill="#9B9B9D" fill-opacity="0.29"/>
<path d="M8.60646 109.746C7.9725 109.772 7.25277 110.212 6.40625 110.697H14.9311C15.0579 110.659 15.1884 110.618 15.3264 110.574C17.094 109.984 18.4365 109.134 19.8387 108.12H13.0628C11.4481 108.989 10.0086 109.69 8.60646 109.746Z" fill="#9B9B9D" fill-opacity="0.29"/>
<path d="M156.255 108.12H62.2949C62.5746 108.959 62.776 109.82 62.9065 110.697H153.372C154.211 109.705 155.174 108.847 156.255 108.12Z" fill="#9B9B9D" fill-opacity="0.29"/>
<path d="M371.574 117.461H605.341C605.535 116.622 605.702 115.809 605.978 114.948C605.982 114.929 605.99 114.907 605.997 114.884H373.707C372.846 115.895 372.107 116.648 371.574 117.461Z" fill="#9B9B9D" fill-opacity="0.29"/>
<path d="M2.18902 114.884H0C0.518354 115.16 1.47302 115.041 2.18902 114.884Z" fill="#9B9B9D" fill-opacity="0.29"/>
<path d="M294.235 116.227C296.585 117.54 298.498 116.223 300.649 114.884H291.002C291.677 115.462 293.243 115.671 294.235 116.227Z" fill="#9B9B9D" fill-opacity="0.29"/>
<path d="M194.393 114.884H183.098C182.949 115.727 182.848 116.6 182.729 117.461H195.919C195.135 116.831 194.83 115.847 194.393 114.884Z" fill="#9B9B9D" fill-opacity="0.29"/>
<path d="M149.808 114.884H63.1016C63.1836 115.753 63.329 116.615 63.5304 117.461H148.294C148.742 116.57 149.245 115.709 149.808 114.884Z" fill="#9B9B9D" fill-opacity="0.29"/>
<path d="M237.283 117.252C237.298 117.32 237.313 117.39 237.328 117.461H252.912C253.46 116.589 254.046 115.753 254.62 114.884H236.5C236.832 115.653 237.097 116.439 237.283 117.252Z" fill="#9B9B9D" fill-opacity="0.29"/>
<path d="M369.347 114.884H348.617C347.431 115.817 346.032 116.551 344.865 117.461H366.778C367.483 116.715 368.631 115.765 369.347 114.884Z" fill="#9B9B9D" fill-opacity="0.29"/>
<path d="M643.547 117.461H654.816C654.828 117.431 654.839 117.398 654.854 117.364C655.499 115.873 656.547 115.69 656.886 114.884H642.025C642.488 115.746 643.002 116.596 643.547 117.461Z" fill="#9B9B9D" fill-opacity="0.29"/>
<path d="M203.456 114.918C204.037 115.153 207.427 117.726 207.916 117.376C208.277 117.118 207.558 115.91 207.114 114.884H203.385C203.407 114.896 203.433 114.907 203.456 114.918Z" fill="#9B9B9D" fill-opacity="0.29"/>
<path d="M207.316 122.466C206.653 122.451 205.933 123.283 205.262 124.23H208.778C208.566 123.279 208.174 122.484 207.316 122.466Z" fill="#9B9B9D" fill-opacity="0.29"/>
<path d="M647.57 124.23H654.492C654.872 123.558 655.476 122.746 655.547 122.223C655.569 122.033 655.573 121.843 655.547 121.653H646.09C646.601 122.529 647.086 123.379 647.57 124.23Z" fill="#9B9B9D" fill-opacity="0.29"/>
<path d="M149.921 122.525C149.719 122.194 149.469 121.903 149.175 121.653H64.2617C64.2617 121.66 64.2617 121.668 64.2617 121.675C64.3065 122.637 64.2654 123.529 64.478 124.23H150.036C150.126 123.607 150.167 122.984 149.921 122.525Z" fill="#9B9B9D" fill-opacity="0.29"/>
<path d="M198.078 121.813C198.104 121.757 198.127 121.705 198.149 121.653H181.569C181.349 122.048 181.088 122.41 180.779 122.742C180.331 123.193 179.943 123.685 179.611 124.23H197.731C197.631 123.391 197.746 122.585 198.078 121.813Z" fill="#9B9B9D" fill-opacity="0.29"/>
<path d="M363.792 121.653H341.35C340.883 122.466 340.525 123.324 340.279 124.23H363.281C363.188 123.316 363.359 122.458 363.792 121.653Z" fill="#9B9B9D" fill-opacity="0.29"/>
<path d="M239.618 122.779C240.367 123.447 242.251 123.585 242.989 123.995C243.108 124.062 243.224 124.14 243.332 124.23H249.944C250.324 123.379 250.645 122.466 250.925 121.653H238.727C238.965 122.074 239.264 122.451 239.618 122.779Z" fill="#9B9B9D" fill-opacity="0.29"/>
<path d="M371.495 124.23H608.156C607.939 123.674 607.712 123.122 607.391 122.917C606.38 122.264 604.355 123.581 603.968 121.988C603.949 121.877 603.953 121.765 603.975 121.653H370.734C370.846 122.555 371.1 123.413 371.495 124.23Z" fill="#9B9B9D" fill-opacity="0.29"/>
<path d="M366.529 128.418H340.152C340.272 128.962 340.436 129.492 340.648 130.006C340.768 130.301 340.883 130.636 341.006 130.994H366.667C367.42 129.92 367.2 129.186 366.529 128.418Z" fill="#9B9B9D" fill-opacity="0.29"/>
<path d="M209.528 128.418H180.623C180.985 129.245 181.082 130.107 180.918 130.994H210.218C209.994 130.148 209.752 129.257 209.528 128.418Z" fill="#9B9B9D" fill-opacity="0.29"/>
<path d="M649.997 128.466C650.571 129.439 651.075 130.319 651.522 130.994H653.696C653.752 130.733 653.804 130.431 653.849 130.085C653.909 129.529 653.939 128.977 653.939 128.418H649.971C649.982 128.436 649.989 128.451 649.997 128.466Z" fill="#9B9B9D" fill-opacity="0.29"/>
<path d="M154.551 129.052C154.245 128.798 153.913 128.589 153.551 128.418H68.1758C68.1049 128.925 68.0639 129.436 68.0527 129.947C68.0527 130.297 68.0751 130.648 68.1199 130.994H156.855C156.143 130.349 155.405 129.753 154.551 129.052Z" fill="#9B9B9D" fill-opacity="0.29"/>
<path d="M374.394 129.469C374.524 129.984 374.498 130.495 374.315 130.994H619.404C619.31 130.603 619.184 130.222 619.027 129.853C618.814 129.357 618.565 128.876 618.277 128.418H374.006C374.17 128.757 374.3 129.104 374.394 129.469Z" fill="#9B9B9D" fill-opacity="0.29"/>
<path d="M363.762 135.712C363.739 135.537 363.732 135.361 363.732 135.186H343.4C343.844 135.522 344.34 135.749 344.885 135.865C346.1 136.126 347.006 135.909 347.812 137.021C347.969 137.245 348.058 137.491 348.08 137.759H364.108C364.004 137.092 363.844 136.394 363.762 135.712Z" fill="#9B9B9D" fill-opacity="0.29"/>
<path d="M164.34 136.499C163.11 136.391 162.009 135.951 161.04 135.186H69.3359C69.5597 136.029 69.7014 136.89 69.7685 137.759H167.145C166.76 137.028 165.888 136.618 164.34 136.499Z" fill="#9B9B9D" fill-opacity="0.29"/>
<path d="M373.315 137.252C373.259 137.427 373.196 137.595 373.129 137.759H619.694C619.437 136.939 619.37 136.1 619.489 135.249C619.493 135.227 619.496 135.205 619.5 135.186H373.271C373.397 135.865 373.561 136.517 373.315 137.252Z" fill="#9B9B9D" fill-opacity="0.29"/>
<path d="M327.474 137.562C326.78 136.715 325.315 137.099 324.931 135.865C324.863 135.641 324.808 135.414 324.766 135.186H321C320.314 135.954 319.766 136.812 319.355 137.759H327.612C327.571 137.692 327.522 137.625 327.474 137.562Z" fill="#9B9B9D" fill-opacity="0.29"/>
<path d="M210.899 137.431C210.504 136.592 210.56 135.906 210.66 135.186H179.324C178.959 135.816 178.489 136.353 177.911 136.801C177.333 137.245 176.695 137.565 175.99 137.759H211.063C211.007 137.655 210.951 137.547 210.899 137.431Z" fill="#9B9B9D" fill-opacity="0.29"/>
<path d="M371.402 144.528H621.309C621.245 143.659 621.13 142.801 620.954 141.951H372.103C372.286 143.424 371.887 144.08 371.402 144.528Z" fill="#9B9B9D" fill-opacity="0.29"/>
<path d="M326.309 141.951H318.914C318.884 143.372 318.187 144.147 316.938 144.528H328.203C327.379 143.815 326.19 143.219 326.309 141.951Z" fill="#9B9B9D" fill-opacity="0.29"/>
<path d="M215.241 141.951H171.766C171.468 143.036 171.102 144.102 170.498 144.528H217.295C216.669 143.066 216.177 142.73 215.241 141.951Z" fill="#9B9B9D" fill-opacity="0.29"/>
<path d="M167.183 141.951H68.6172C68.4904 142.637 68.5463 143.405 69.0983 144.528H169.163C168.619 144.319 168.167 143.979 167.813 143.517C167.455 143.055 167.246 142.532 167.183 141.951Z" fill="#9B9B9D" fill-opacity="0.29"/>
<path d="M359.909 143.111C360.125 142.514 360.55 142.216 361.109 141.951H346.607C346.569 142.771 346.879 143.625 347.211 144.528H358.119C358.793 144.367 359.498 144.237 359.909 143.111Z" fill="#9B9B9D" fill-opacity="0.29"/>
<path d="M219.544 148.715H71.623C71.7759 148.976 71.9326 149.249 72.0855 149.532C72.3801 150.092 72.6001 150.677 72.7455 151.292H219.235C219.44 150.446 219.544 149.588 219.544 148.715Z" fill="#9B9B9D" fill-opacity="0.29"/>
<path d="M333.138 151.21C332.138 150.539 331.295 149.707 330.613 148.715H310.904C310.904 149.424 311.285 150.397 311.512 151.292H333.253C333.216 151.266 333.179 151.236 333.138 151.21Z" fill="#9B9B9D" fill-opacity="0.29"/>
<path d="M359.724 148.715H347.54C346.623 149.954 344.27 149.894 342.573 150.666C342.167 150.845 341.775 151.054 341.398 151.292H621C621.123 150.438 621.22 149.577 621.287 148.715H361.021C360.589 148.853 360.156 148.853 359.724 148.715Z" fill="#9B9B9D" fill-opacity="0.29"/>
<path d="M197.94 157.117C199.308 155.372 203.817 157.151 205.693 157.151C207.662 157.151 211.984 156.099 212.155 158.061H217.499C217.495 158.031 217.484 158.005 217.481 157.979C217.365 157.438 217.495 156.453 217.727 155.484H73.05C72.994 156.196 72.8784 156.905 72.7031 157.598C72.6658 157.755 72.6211 157.904 72.5801 158.061H197.746C197.638 157.71 197.701 157.393 197.94 157.117Z" fill="#9B9B9D" fill-opacity="0.29"/>
<path d="M317.536 155.484H310.186C310.696 157.449 315.253 155.752 317.536 155.484Z" fill="#9B9B9D" fill-opacity="0.29"/>
<path d="M627.713 155.484C627.799 156.334 627.959 157.166 628.194 157.986C628.201 158.012 628.205 158.035 628.213 158.061H630.711C630.353 157.326 629.999 156.237 629.596 155.484H627.713Z" fill="#9B9B9D" fill-opacity="0.29"/>
<path d="M336.745 156.621C335.32 156.763 334.936 156.245 334.772 155.484H318.449C321.145 155.879 320.646 156.83 320.124 158.061H619.46C619.714 157.233 619.952 156.371 620.172 155.484H338.583C338.154 156.159 337.539 156.539 336.745 156.621Z" fill="#9B9B9D" fill-opacity="0.29"/>
<path d="M198.421 163.587C198.604 163.136 198.816 162.677 198.992 162.249H71.1708C70.8389 163.106 70.4958 163.957 70.1602 164.825H198.044C198.127 164.4 198.25 163.986 198.421 163.587Z" fill="#9B9B9D" fill-opacity="0.29"/>
<path d="M628.338 164.825H638.067C638.347 164.08 638.463 163.386 638.287 162.92C638.175 162.648 638 162.424 637.765 162.249H628.864C628.849 163.14 628.674 163.998 628.338 164.825Z" fill="#9B9B9D" fill-opacity="0.29"/>
<path d="M209.277 164.15C209.519 164.471 210.108 164.684 210.779 164.825H222.884C222.888 163.953 222.78 163.095 222.56 162.249H209.605C209.135 162.927 208.874 163.613 209.277 164.15Z" fill="#9B9B9D" fill-opacity="0.29"/>
<path d="M323.39 164.232C323.025 164.374 322.697 164.572 322.398 164.825H617.167C617.607 164.001 617.961 163.144 618.233 162.249H325.993C325.87 163.229 324.17 163.897 323.39 164.232Z" fill="#9B9B9D" fill-opacity="0.29"/>
<path d="M206.394 170.274C206.737 169.923 206.872 169.502 206.786 169.017H68.691C68.6499 169.151 68.6089 169.286 68.5679 169.424C68.3628 170.151 68.1502 170.874 67.9414 171.59H203.705C204.727 171.24 205.73 170.826 206.394 170.274Z" fill="#9B9B9D" fill-opacity="0.29"/>
<path d="M327.607 171.59H394.177C394.24 171.504 394.311 171.422 394.389 171.348C396.336 169.453 397.417 170.259 398.249 171.59H607.466C607.53 171.076 607.735 170.628 608.085 170.244C608.574 169.696 609.581 169.323 610.636 169.017H325.258C326.22 169.752 327.055 170.546 327.607 171.59Z" fill="#9B9B9D" fill-opacity="0.29"/>
<path d="M628.119 171.59H631.938C631.681 170.852 631.326 169.826 631.397 169.017H627.463C627.571 169.901 627.791 170.762 628.119 171.59Z" fill="#9B9B9D" fill-opacity="0.29"/>
<path d="M183.915 175.938C183.967 175.886 184.027 175.834 184.086 175.782H66.9198C66.7818 176.554 66.6886 177.329 66.6401 178.112C66.6364 178.195 66.6326 178.277 66.6289 178.359H182.916C183.068 177.493 183.232 176.628 183.915 175.938Z" fill="#9B9B9D" fill-opacity="0.29"/>
<path d="M348.121 178.105C349.109 177.71 350.455 177.389 351.432 177.799C351.719 177.922 351.958 178.112 352.152 178.359H358.51C357.958 177.546 357.496 176.688 357.126 175.782H328.293C328.218 176.781 327.834 177.639 327.133 178.359H347.602C347.77 178.262 347.942 178.18 348.121 178.105Z" fill="#9B9B9D" fill-opacity="0.29"/>
<path d="M363.844 178.359H390.164C390.288 177.9 390.448 177.456 390.653 177.027C390.921 176.52 391.291 176.102 391.768 175.782H360.518C360.894 176.106 361.304 176.39 361.741 176.625C362.602 177.012 363.303 177.587 363.844 178.359Z" fill="#9B9B9D" fill-opacity="0.29"/>
<path d="M415.003 178.359H604.561C605.101 177.4 606.735 177.616 607.328 175.782H410.547C412.091 176.542 413.575 177.4 415.003 178.359Z" fill="#9B9B9D" fill-opacity="0.29"/>
<path d="M630.122 177.258C630.17 177.598 630.219 177.967 630.252 178.359H635.212C635.186 178.273 635.16 178.191 635.13 178.105C634.821 177.296 634.448 176.524 634 175.782H629.768C629.924 176.263 630.044 176.755 630.122 177.258Z" fill="#9B9B9D" fill-opacity="0.29"/>
<path d="M194.368 175.782H193.76C193.961 175.808 194.163 175.808 194.368 175.782Z" fill="#9B9B9D" fill-opacity="0.29"/>
<path d="M598.994 184.504C599.087 184.735 599.218 184.941 599.389 185.123H608.328C607.586 184.318 606.695 183.456 605.949 182.546H598.412C598.561 183.214 598.755 183.867 598.994 184.504Z" fill="#9B9B9D" fill-opacity="0.29"/>
<path d="M337.953 182.546H312.027C312.027 182.938 312.042 183.356 312.061 183.811C312.083 184.217 312.109 184.665 312.128 185.123H336.066C336.558 184.859 336.972 184.501 337.3 184.049C337.632 183.598 337.848 183.098 337.953 182.546Z" fill="#9B9B9D" fill-opacity="0.29"/>
<path d="M629.579 183.501C629.21 184.131 628.74 184.672 628.166 185.123H634.901C634.901 185.097 634.897 185.071 634.897 185.041C634.864 184.202 634.938 183.371 635.113 182.546H629.978C629.881 182.882 629.747 183.199 629.579 183.501Z" fill="#9B9B9D" fill-opacity="0.29"/>
<path d="M178.145 182.546H66.9414C67.0757 183.393 67.2509 184.258 67.4523 185.123H174.136C175.061 184.154 176.31 183.356 178.145 182.546Z" fill="#9B9B9D" fill-opacity="0.29"/>
<path d="M417.466 184.273C417.097 184.624 416.679 184.907 416.217 185.123H586.472C586.252 184.445 586.189 183.747 586.282 183.039C586.297 182.863 586.315 182.703 586.341 182.546H418.331C418.294 183.248 418.007 183.822 417.466 184.273Z" fill="#9B9B9D" fill-opacity="0.29"/>
<path d="M356.442 183.885C357.038 184.266 357.613 184.676 358.161 185.123H366.38C366.175 185.008 365.992 184.903 365.843 184.81C364.672 184.116 363.542 183.359 362.453 182.546H355.133C355.487 183.072 355.927 183.52 356.442 183.885Z" fill="#9B9B9D" fill-opacity="0.29"/>
<path d="M403.422 182.546H401.964C400.39 182.8 399.253 183.84 397.433 184.426C395.229 185.138 392.488 185.806 390.575 183.501C390.347 183.214 390.176 182.897 390.064 182.546H369.773C370.769 183.143 371.422 184.005 371.728 185.123H411.104C408.434 184.366 405.67 182.908 403.481 182.558C403.463 182.554 403.444 182.55 403.422 182.546Z" fill="#9B9B9D" fill-opacity="0.29"/>
<path d="M171.751 189.662C171.788 189.542 171.826 189.427 171.863 189.315H68.6211C68.7516 189.725 68.8821 190.128 69.0201 190.523C69.1618 190.971 69.2812 191.426 69.3707 191.888H170.177C170.793 191.22 171.434 190.642 171.751 189.662Z" fill="#9B9B9D" fill-opacity="0.29"/>
<path d="M331.017 190.825C331.099 190.307 331.237 189.803 331.423 189.315H311.416C311.133 189.792 311.024 190.307 311.088 190.859C311.203 191.258 311.409 191.601 311.711 191.888H330.767C330.871 191.541 330.957 191.183 331.017 190.825Z" fill="#9B9B9D" fill-opacity="0.29"/>
<path d="M382.064 191.888C381.523 191.444 380.856 191.045 380.483 190.669C379.953 190.143 379.394 189.841 379.424 189.315H373.334C373.748 189.904 374.773 191.213 375.273 191.888H382.064Z" fill="#9B9B9D" fill-opacity="0.29"/>
<path d="M364.683 191.888H367.126C367.502 190.784 367.029 189.967 366.98 189.315H364.672C364.821 189.494 364.937 189.695 365.019 189.915C365.097 190.135 365.138 190.367 365.138 190.601C365.138 190.836 365.101 191.064 365.022 191.284C364.944 191.508 364.832 191.709 364.683 191.888Z" fill="#9B9B9D" fill-opacity="0.29"/>
<path d="M605.222 191.888H608.806C609.339 191.112 609.63 190.255 609.678 189.315H603.723C604.103 190.24 604.603 191.101 605.222 191.888Z" fill="#9B9B9D" fill-opacity="0.29"/>
<path d="M386.294 191.888H590.69C591.532 191.071 592.595 190.415 593.084 189.315H385.984C386.022 190.18 386.126 191.038 386.294 191.888Z" fill="#9B9B9D" fill-opacity="0.29"/>
<path d="M623.573 190.206C622.842 190.803 621.384 191.101 620.567 191.273C619.941 191.392 619.34 191.597 618.773 191.888H633.873C634.317 191.608 634.675 191.239 634.939 190.784C635.208 190.333 635.357 189.841 635.383 189.315H624.39C624.155 189.643 623.882 189.941 623.573 190.206Z" fill="#9B9B9D" fill-opacity="0.29"/>
<path d="M380.095 197.377C380.36 197.198 380.584 196.628 380.804 196.08H377.373C377.944 196.997 379.226 197.967 380.095 197.377Z" fill="#9B9B9D" fill-opacity="0.29"/>
<path d="M326.702 197.299C327.287 196.963 327.817 196.557 328.294 196.08H312.729C312.848 196.37 313.064 196.546 313.374 196.605C314.835 196.989 316.152 196.479 317.069 197.609C317.3 197.922 317.435 198.269 317.472 198.656H321.007C321.473 197.224 325.516 197.974 326.702 197.299Z" fill="#9B9B9D" fill-opacity="0.29"/>
<path d="M611.94 198.656H620.182C622.136 197.717 624.291 197.571 626.111 196.296C626.216 196.225 626.324 196.15 626.432 196.08H613.969C612.604 196.725 611.254 197.258 611.94 198.656Z" fill="#9B9B9D" fill-opacity="0.29"/>
<path d="M390.962 198.224C391.365 198.25 391.921 197.198 392.346 197.146C393.032 197.057 394.143 198.071 394.583 198.071C396.362 198.071 396.399 196.49 398.189 197.206C399.286 197.646 399.696 198.496 400.979 198.656H401.736C403.306 198.459 404.727 197.172 405.599 197.068C406.979 196.904 407.591 197.631 407.773 198.656H592.52C592.468 198.563 592.416 198.474 592.367 198.377C591.875 197.426 590.939 196.81 590.271 196.08H388.523C389.195 196.893 390.224 198.175 390.962 198.224Z" fill="#9B9B9D" fill-opacity="0.29"/>
<path d="M362.068 196.758C362.907 196.934 363.348 196.59 363.724 196.08H360.26C360.838 196.37 361.442 196.598 362.068 196.758Z" fill="#9B9B9D" fill-opacity="0.29"/>
<path d="M168.51 196.08H70.9473C71.1039 196.236 71.2754 196.37 71.4656 196.49C72.3979 197.06 74.6429 197.657 75.3253 198.522C75.3589 198.567 75.3924 198.612 75.426 198.656H166.858C167.659 197.959 168.211 197.098 168.51 196.08Z" fill="#9B9B9D" fill-opacity="0.29"/>
<path d="M353.107 196.08H350.224C348.106 196.538 345.134 196.796 343.038 196.997C340.398 197.247 337.523 196.997 334.946 197.452C333.667 197.668 332.451 198.071 331.295 198.656H354.028C353.965 198.257 353.92 197.843 353.901 197.53C353.882 196.911 353.618 196.426 353.107 196.08Z" fill="#9B9B9D" fill-opacity="0.29"/>
<path d="M160.22 202.844H77.0332C77.3092 203.691 77.6 204.567 77.835 205.421H157.315C158.195 204.463 159.164 203.605 160.22 202.844Z" fill="#9B9B9D" fill-opacity="0.29"/>
<path d="M353.591 204.466C353.162 203.765 353.461 203.307 353.852 202.844H316.743C316.195 203.941 315.3 204.728 314.342 205.421H354.706C354.27 205.182 353.897 204.862 353.591 204.466Z" fill="#9B9B9D" fill-opacity="0.29"/>
<path d="M406.732 205.421H596.554C596.584 204.843 596.472 204.295 596.219 203.773C596.077 203.448 595.909 203.139 595.712 202.844H407.169C407.008 203.583 406.874 204.493 406.732 205.421Z" fill="#9B9B9D" fill-opacity="0.29"/>
<path d="M616.022 205.086C617.178 204.948 617.566 203.989 617.845 202.844H614.422C614.746 203.833 615.045 205.201 616.022 205.086Z" fill="#9B9B9D" fill-opacity="0.29"/>
<path d="M405.565 209.818C404.044 212.111 401.124 209.445 398.819 209.631C396.097 209.851 394.352 212.022 391.115 210.325C390.555 210.034 389.974 209.799 389.373 209.613H374.691C374.602 210.575 374.568 211.556 374.117 212.19H597.326C597.561 211.321 597.528 210.459 597.226 209.613H405.685C405.647 209.684 405.606 209.754 405.565 209.818Z" fill="#9B9B9D" fill-opacity="0.29"/>
<path d="M368.77 211.328C367.178 210.869 365.992 211.011 364.869 209.613H310.095C309.987 210.004 309.931 210.403 309.935 210.81C309.935 211.306 309.916 211.764 309.879 212.19H370.545C369.982 211.843 369.393 211.556 368.77 211.328Z" fill="#9B9B9D" fill-opacity="0.29"/>
<path d="M127.5 211.899C128.261 211.876 129.007 211.973 129.738 212.19H137.267C137.48 211.626 137.696 211.071 138.013 210.899C138.755 210.489 139.952 211.052 140.907 211.037C141.69 211.026 142.76 210.966 143.487 211.399C143.931 211.664 144.293 211.97 144.643 212.19H146.557C147.657 211.798 148.537 211.559 149.249 212.19H154.537C154.544 211.313 154.667 210.456 154.91 209.613H78.9355C79.5024 210.534 80.2631 211.239 80.692 212.19H125.927C126.441 212.029 126.963 211.932 127.5 211.899Z" fill="#9B9B9D" fill-opacity="0.29"/>
<path d="M445.307 218.954H594.832C595.242 218.126 595.57 217.269 595.824 216.377H442.518C443.401 217.284 444.334 218.141 445.307 218.954Z" fill="#9B9B9D" fill-opacity="0.29"/>
<path d="M118.644 217.276C118.801 216.955 118.991 216.657 119.215 216.377H80.0957C80.1106 216.415 80.1293 216.452 80.1516 216.486C80.6439 217.306 81.9566 218.112 82.9672 218.954H118.264C118.286 218.373 118.413 217.813 118.644 217.276Z" fill="#9B9B9D" fill-opacity="0.29"/>
<path d="M150.573 218.954H155.667C155.551 218.085 155.38 217.228 155.156 216.377H150.144C150.133 217.287 150.192 218.205 150.573 218.954Z" fill="#9B9B9D" fill-opacity="0.29"/>
<path d="M305.821 217.795C305.228 218.149 304.657 218.537 304.105 218.954H405.74C405.949 217.712 406.777 218.041 407.765 218.954H438.363C437.804 218.153 437.349 217.295 437.005 216.377H307.842C307.212 216.911 306.537 217.384 305.821 217.795Z" fill="#9B9B9D" fill-opacity="0.29"/>
<path d="M462.584 224.779C466.675 225.014 471.367 224.567 475.405 224.451C476.517 224.421 477.654 224.947 478.691 225.719H591.147C591.845 224.955 592.404 224.097 592.826 223.146H457.535C458.99 224.28 460.75 224.671 462.584 224.779Z" fill="#9B9B9D" fill-opacity="0.29"/>
<path d="M411.729 223.664C412.348 224.313 412.919 224.996 413.444 225.719H446.347C445.381 224.91 444.676 223.653 443.151 223.146H411.285C411.46 223.362 411.61 223.537 411.729 223.664Z" fill="#9B9B9D" fill-opacity="0.29"/>
<path d="M117.267 223.146H84.5176C84.5474 223.302 84.5847 223.455 84.6369 223.605C84.8942 224.369 85.8638 225.141 86.4195 225.689C86.4306 225.7 86.4418 225.712 86.4493 225.719H90.0666C90.1561 225.45 90.2941 225.208 90.488 224.999C91.163 224.294 92.5614 223.828 93.1506 224.063C93.8517 224.335 94.4446 224.992 94.9406 225.719H116.372C116.648 224.869 116.935 223.992 117.267 223.146Z" fill="#9B9B9D" fill-opacity="0.29"/>
<path d="M155.073 223.146H152.832C153.578 224.235 154.372 224.716 155.073 223.146Z" fill="#9B9B9D" fill-opacity="0.29"/>
<path d="M298.031 225.719H407.449C407.016 224.887 406.647 224.03 406.337 223.146H299.989C299.325 223.963 298.658 224.831 298.031 225.719Z" fill="#9B9B9D" fill-opacity="0.29"/>
<path d="M450.957 225.719H455.052C453.787 223.925 452.68 224.899 450.957 225.719Z" fill="#9B9B9D" fill-opacity="0.29"/>
<path d="M416.7 232.271C416.73 232.342 416.76 232.413 416.789 232.487H462.267C462.315 232.275 462.352 232.062 462.375 231.85C462.468 231.089 462.054 230.466 461.375 229.911H415.727C416.04 230.641 416.353 231.417 416.7 232.271Z" fill="#9B9B9D" fill-opacity="0.29"/>
<path d="M115.608 229.911H97.6855C98.051 230.365 98.2934 230.876 98.4127 231.447C98.4575 231.797 98.4314 232.144 98.3344 232.487H115.817C115.664 231.633 115.597 230.776 115.608 229.911Z" fill="#9B9B9D" fill-opacity="0.29"/>
<path d="M482.673 230.477C483.016 231.186 483.426 231.857 483.896 232.487H524.734C525.447 231.887 526.14 232.279 527.05 232.487H528.389C529.787 232.159 531.451 231.059 532.689 231.384C533.192 231.51 533.617 231.943 534.028 232.487H569.593C570.107 232.331 570.618 232.331 571.133 232.487H578.61C578.871 232.155 579.165 231.857 579.497 231.6C580.851 230.533 582.283 230.556 583.89 229.981C583.954 229.959 584.017 229.933 584.08 229.911H482.371C482.49 230.116 482.591 230.31 482.673 230.477Z" fill="#9B9B9D" fill-opacity="0.29"/>
<path d="M144.15 231.38C144.031 231.999 144.15 232.331 144.407 232.487H145.571C146.205 232.279 146.82 232.036 147.428 231.76C149.971 230.798 151.023 230.843 153.708 232.312C153.827 232.379 153.95 232.435 154.081 232.487H160.931C159.95 231.891 158.91 231.436 157.802 231.126C157.139 230.951 156.501 230.343 155.833 229.911H146.067C145.179 230.145 144.314 230.537 144.15 231.38Z" fill="#9B9B9D" fill-opacity="0.29"/>
<path d="M293.963 232.487H412.099C411.957 232.267 411.801 232.062 411.633 231.865C411.133 231.294 410.604 230.634 410.067 229.911H295.414C294.832 230.716 294.347 231.574 293.963 232.487Z" fill="#9B9B9D" fill-opacity="0.29"/>
<path d="M138.2 236.675H130.693C130.432 237.458 130.089 238.212 129.496 238.719C129.198 238.954 128.87 239.129 128.512 239.252H137.122C137.477 238.353 137.79 237.477 138.2 236.675Z" fill="#9B9B9D" fill-opacity="0.29"/>
<path d="M117.417 236.675H98.3945C99.0546 237.451 100.073 238.279 101.102 239.252H119.673C118.737 238.555 117.984 237.697 117.417 236.675Z" fill="#9B9B9D" fill-opacity="0.29"/>
<path d="M539.126 239.252H566.435C566.013 238.443 565.838 237.585 565.916 236.675H537.914C538.425 237.485 538.828 238.342 539.126 239.252Z" fill="#9B9B9D" fill-opacity="0.29"/>
<path d="M491.87 239.252H518.385C519.287 238.473 520.268 237.805 521.323 237.246C521.614 237.089 521.879 236.899 522.125 236.675H492.072C491.919 237.529 491.852 238.387 491.87 239.252Z" fill="#9B9B9D" fill-opacity="0.29"/>
<path d="M294.806 239.14C294.821 239.178 294.836 239.215 294.851 239.252H414.393C413.934 238.447 413.621 237.589 413.453 236.675H293.93C294.15 237.522 294.441 238.346 294.806 239.14Z" fill="#9B9B9D" fill-opacity="0.29"/>
<path d="M598.926 239.252H600.313C599.698 238.943 599.254 238.98 598.926 239.252Z" fill="#9B9B9D" fill-opacity="0.29"/>
<path d="M160.604 237.093C161.921 237.884 163.599 237.22 165.176 237.611C166.175 237.861 168.409 238.23 168.409 238.987C168.409 239.084 168.387 239.17 168.338 239.252H179.026C177.769 237.238 172.694 237.507 170.587 237.194C169.882 237.086 169.192 236.914 168.521 236.675H160.123C160.257 236.847 160.418 236.985 160.604 237.093Z" fill="#9B9B9D" fill-opacity="0.29"/>
<path d="M574.153 237.719C574.642 237.843 575.123 237.805 575.589 237.615C576.059 237.421 576.424 237.108 576.685 236.675H573.18C573.318 237.238 573.553 237.604 574.153 237.719Z" fill="#9B9B9D" fill-opacity="0.29"/>
<path d="M421.336 239.252H458.591C459.228 238.443 459.422 237.667 459.933 236.675H419.125C419.781 237.604 420.52 238.462 421.336 239.252Z" fill="#9B9B9D" fill-opacity="0.29"/>
<path d="M597.714 245.737C597.692 245.83 597.673 245.924 597.658 246.021H601.924C602.286 245.14 602.879 244.298 603.192 243.444H597.96C597.945 244.216 597.863 244.98 597.714 245.737Z" fill="#9B9B9D" fill-opacity="0.29"/>
<path d="M494.219 246.021H511.545C512.276 245.48 513.026 245.148 513.861 244.41C514.2 244.108 514.521 243.787 514.819 243.444H493.369C493.656 244.301 493.914 245.152 494.219 246.021Z" fill="#9B9B9D" fill-opacity="0.29"/>
<path d="M540.775 245.689C540.857 245.804 540.946 245.912 541.04 246.021H544.288C545.239 245.536 546.156 245.107 546.961 246.021H571.608C570.892 245.14 570.228 244.32 569.519 243.444H540.104C540.2 244.279 540.338 245.081 540.775 245.689Z" fill="#9B9B9D" fill-opacity="0.29"/>
<path d="M135.081 245.032C135.324 244.521 135.51 243.992 135.644 243.444H108C109.067 243.992 110.208 244.596 111.371 245.271C111.986 245.577 112.624 245.827 113.284 246.021H119.367C119.963 245.83 120.56 245.823 121.16 245.994C121.183 246.002 121.209 246.013 121.231 246.021H135.204C134.921 245.804 134.85 245.487 135.081 245.032Z" fill="#9B9B9D" fill-opacity="0.29"/>
<path d="M425.878 246.021H448.757C449.648 245.704 450.547 245.424 451.337 245.066C452.225 244.622 453.053 244.081 453.81 243.444H424.674C425.121 244.279 425.52 245.14 425.878 246.021Z" fill="#9B9B9D" fill-opacity="0.29"/>
<path d="M294.884 244.574C294.821 245.077 294.679 245.562 294.459 246.021H418.506C418.04 245.185 417.626 244.324 417.26 243.444H295.015C294.966 243.832 294.918 244.212 294.884 244.574Z" fill="#9B9B9D" fill-opacity="0.29"/>
<path d="M600.307 252.785H607.84C607.046 251.928 606.733 250.992 605.972 250.346C605.916 250.298 605.856 250.253 605.797 250.208H598.838C599.341 251.137 599.904 252.025 600.307 252.785Z" fill="#9B9B9D" fill-opacity="0.29"/>
<path d="M497.518 252.707C497.533 252.733 497.548 252.759 497.563 252.785H509.616C509.612 252.461 509.575 252.136 509.508 251.819C509.4 251.286 509.351 250.749 509.362 250.208H496.139C496.59 251.047 497.067 251.89 497.518 252.707Z" fill="#9B9B9D" fill-opacity="0.29"/>
<path d="M549.605 252.785H554.106C554.244 252.36 554.39 252.069 554.539 251.995C554.837 251.846 555.285 252.218 555.852 252.785H575.445C575.467 251.86 575.243 251.003 574.773 250.208H548.859C549.135 251.051 549.385 251.924 549.605 252.785Z" fill="#9B9B9D" fill-opacity="0.29"/>
<path d="M293.617 252.785H425.189C424.1 252.084 422.777 251.2 422.005 250.208H293.158C293.214 251.085 293.367 251.942 293.617 252.785Z" fill="#9B9B9D" fill-opacity="0.29"/>
<path d="M427.714 250.928C427.952 251.588 428.273 252.207 428.672 252.785H434.318C436.19 251.924 438.405 251.417 439.923 250.522C440.11 250.41 440.3 250.309 440.49 250.208H427.445C427.535 250.451 427.624 250.689 427.714 250.928Z" fill="#9B9B9D" fill-opacity="0.29"/>
<path d="M146.235 250.208H127.004C128.428 250.924 130.051 251.778 131.703 252.271C132.087 252.386 132.661 252.573 133.265 252.785H145.586C145.9 251.95 146.116 251.092 146.235 250.208Z" fill="#9B9B9D" fill-opacity="0.29"/>
<path d="M144.741 256.977H138.912C139.05 257.145 139.173 257.324 139.289 257.51C139.617 258.096 139.65 258.845 139.897 259.55H145.964C145.539 258.875 144.961 258.006 144.741 256.977Z" fill="#9B9B9D" fill-opacity="0.29"/>
<path d="M603.339 259.144C603.387 259.285 603.45 259.419 603.521 259.55H611.886C611.752 259.188 611.632 258.868 611.535 258.607C611.367 258.073 611.267 257.533 611.226 256.977H602.488C602.809 257.685 603.092 258.405 603.339 259.144Z" fill="#9B9B9D" fill-opacity="0.29"/>
<path d="M194.92 258.976C194.23 258.633 193.391 258.73 192.358 258.718C190.81 258.7 189.158 258.554 188.394 258.994C188.002 259.229 187.585 259.416 187.148 259.55H195.315C195.285 259.285 195.155 259.095 194.92 258.976Z" fill="#9B9B9D" fill-opacity="0.29"/>
<path d="M297.48 259.043C297.692 259.222 297.901 259.39 298.106 259.55H445.345C445.598 258.666 445.58 257.794 444.994 256.977H441.515C440.687 257.286 439.852 257.663 439.181 257.943C437.499 258.64 436.197 258.461 434.549 258.621C432.487 258.819 430.13 260.061 428.422 258.125C428.12 257.786 427.885 257.402 427.725 256.977H295.611C296.141 257.749 296.764 258.439 297.48 259.043Z" fill="#9B9B9D" fill-opacity="0.29"/>
<path d="M182.434 259.166C180.331 259.442 178.887 258.327 177.813 257.581C177.478 257.346 177.217 257.145 177 256.977H167.353C167.278 257.014 167.208 257.055 167.129 257.096C166.182 257.629 164.247 257.738 163.445 258.51C163.154 258.808 162.945 259.155 162.818 259.55H185.242C184.459 259.341 183.694 259.002 182.434 259.166Z" fill="#9B9B9D" fill-opacity="0.29"/>
<path d="M550.414 259.55H553.264C553.237 259.323 553.219 259.084 553.208 258.838C553.208 258.215 553.249 257.592 553.331 256.977H550.381C550.444 257.835 550.455 258.692 550.414 259.55Z" fill="#9B9B9D" fill-opacity="0.29"/>
<path d="M500.418 259.55H508.506C508.682 258.689 508.644 257.853 508.708 256.977H499.508C499.836 257.823 500.134 258.677 500.418 259.55Z" fill="#9B9B9D" fill-opacity="0.29"/>
<path d="M562.794 259.55H570.468C571.755 258.685 572.445 258.774 573.455 257.327C573.537 257.208 573.62 257.089 573.694 256.977H560.795C561.429 257.872 561.981 258.953 562.794 259.55Z" fill="#9B9B9D" fill-opacity="0.29"/>
<path d="M303.345 266.318H442.163C442.521 265.442 442.887 264.577 443.275 263.742H301.562C302.062 264.879 302.431 265.58 303.345 266.318Z" fill="#9B9B9D" fill-opacity="0.29"/>
<path d="M197.973 264.129C197.768 263.988 197.556 263.861 197.336 263.742H144.762C145.414 264.364 146.209 264.484 147.219 264.637C147.939 264.745 148.983 265.725 149.919 266.318H152.429C152.921 265.923 153.35 265.397 154.208 265.267C155.375 265.095 156.042 265.39 156.643 266.318H200.531C199.726 265.535 198.872 264.804 197.973 264.129Z" fill="#9B9B9D" fill-opacity="0.29"/>
<path d="M505.593 263.742H502.006C502.964 264.901 504.344 264.633 505.593 263.742Z" fill="#9B9B9D" fill-opacity="0.29"/>
<path d="M604.773 265.789C605.34 266.162 607.219 265.74 607.697 266.318H613.611C613.555 265.446 613.421 264.588 613.208 263.742H604.415C604.135 264.525 603.99 265.271 604.773 265.789Z" fill="#9B9B9D" fill-opacity="0.29"/>
<path d="M551.961 265.591C552.222 265.841 552.461 266.083 552.677 266.318H556.94C556.127 265.528 555.396 264.67 554.743 263.742H550.779C551.025 264.454 551.421 265.069 551.961 265.591Z" fill="#9B9B9D" fill-opacity="0.29"/>
<path d="M555.876 273.083H562.171C562.055 272.308 561.791 271.588 561.377 270.92C561.287 270.786 561.183 270.648 561.075 270.506H555.037C555.324 271.39 555.526 272.255 555.876 273.083Z" fill="#9B9B9D" fill-opacity="0.29"/>
<path d="M212.384 270.506H157.789C157.789 271.215 157.957 272.17 158.028 273.083H215.908C214.968 271.905 213.794 271.043 212.384 270.506Z" fill="#9B9B9D" fill-opacity="0.29"/>
<path d="M308.618 270.618C309.927 271.998 311.206 272.789 312.795 273.083H315.551C317.128 272.707 319.149 271.636 320.484 271.431C322.554 271.107 324.392 272.293 326.38 272.36C328.084 272.419 329.871 271.293 331.53 270.506H308.514C308.547 270.544 308.581 270.581 308.618 270.618Z" fill="#9B9B9D" fill-opacity="0.29"/>
<path d="M550.07 272.196C548.966 271.349 547.736 270.786 546.375 270.506H544.663C543.153 270.835 543.947 271.964 545.133 273.083H550.958C550.7 272.748 550.406 272.453 550.07 272.196Z" fill="#9B9B9D" fill-opacity="0.29"/>
<path d="M587.967 271.081C587.423 271.316 586.688 272.341 585.883 273.083H595.467C596.351 272.542 597.551 272.143 597.178 270.857C597.141 270.73 597.089 270.614 597.018 270.506H588.717C588.508 270.749 588.258 270.943 587.967 271.081Z" fill="#9B9B9D" fill-opacity="0.29"/>
<path d="M343.994 273.061C344.005 273.068 344.016 273.076 344.028 273.083H438.756C439.345 272.267 439.863 271.409 440.315 270.506H342.469C342.939 271.435 343.308 272.505 343.994 273.061Z" fill="#9B9B9D" fill-opacity="0.29"/>
<path d="M578.51 278.718C577.224 278.707 576.153 278.222 575.281 278.897C574.956 279.143 574.732 279.46 574.609 279.848H596.35C595.981 278.927 595.269 278.091 594.71 277.275H580.386C579.923 277.979 579.64 278.725 578.51 278.718Z" fill="#9B9B9D" fill-opacity="0.29"/>
<path d="M562.124 279.848H565.156C564.82 279.106 564.071 278.088 563.496 277.275H558.977C559.92 278.259 560.972 279.117 562.124 279.848Z" fill="#9B9B9D" fill-opacity="0.29"/>
<path d="M556.652 279.221C556.018 278.554 555.414 277.912 554.817 277.275H549.525C550.226 278.125 550.831 278.979 551.424 279.848H557.345C557.099 279.658 556.868 279.449 556.652 279.221Z" fill="#9B9B9D" fill-opacity="0.29"/>
<path d="M352.463 279.848H431.178C432.319 279.046 433.487 278.185 434.598 277.275H352.929C352.825 278.196 352.608 279.121 352.463 279.848Z" fill="#9B9B9D" fill-opacity="0.29"/>
<path d="M217.813 277.275H156.073C155.879 277.439 155.715 277.633 155.589 277.853C155.205 278.621 154.686 279.285 154.041 279.848H219.6C219.283 278.785 218.19 278.02 217.813 277.275Z" fill="#9B9B9D" fill-opacity="0.29"/>
<path d="M352.176 286.616H424.119C424.775 285.729 425.465 284.852 426.185 284.039H351.74C351.665 284.934 351.811 285.796 352.176 286.616Z" fill="#9B9B9D" fill-opacity="0.29"/>
<path d="M628.611 284.23C627.697 284.039 626.373 284.215 625.482 284.304C624.505 284.405 623.002 284.267 623.002 284.916C623.002 285.729 624.024 286.072 624.941 286.616H631.426C630.878 285.348 630.375 284.595 628.611 284.23Z" fill="#9B9B9D" fill-opacity="0.29"/>
<path d="M576.239 286.318C576.276 286.419 576.313 286.519 576.351 286.616H592.375C592.397 286.575 592.423 286.538 592.449 286.497C593.027 285.643 593.837 285.031 594.191 284.039H575.344C575.646 284.811 575.974 285.587 576.239 286.318Z" fill="#9B9B9D" fill-opacity="0.29"/>
<path d="M565.945 286.557C565.061 286.236 563.219 285.945 562.57 285.113C562.317 284.778 562.097 284.42 561.91 284.039H554.381C554.523 284.218 554.668 284.401 554.817 284.58C555.332 285.222 555.79 285.9 556.193 286.616H566.109C566.057 286.598 566.001 286.575 565.945 286.557Z" fill="#9B9B9D" fill-opacity="0.29"/>
<path d="M606.015 284.972C605.792 284.043 604.49 284.438 603.431 284.647C602.07 284.92 601.6 286.527 600.645 285.419C599.255 283.801 597.878 284.897 597.252 286.616H604.971C605.624 286.277 606.247 285.926 606.015 284.972Z" fill="#9B9B9D" fill-opacity="0.29"/>
<path d="M228.441 285.195C227.349 284.722 226.103 284.852 224.921 284.61C224.164 284.465 223.418 284.274 222.68 284.039H151.251C151.039 284.692 150.867 285.352 150.729 286.023C150.688 286.217 150.666 286.415 150.662 286.616H230.339C229.732 286.057 229.139 285.498 228.441 285.195Z" fill="#9B9B9D" fill-opacity="0.29"/>
<path d="M628.305 291.789C629.678 292.244 631.49 292.221 632.885 292.669C633.548 292.877 634.249 293.112 634.951 293.381H656.326C655.379 292.423 654.398 292.091 653.041 291.785C652.161 291.569 651.325 291.24 650.531 290.804H627.082C627.354 291.3 627.764 291.628 628.305 291.789Z" fill="#9B9B9D" fill-opacity="0.29"/>
<path d="M585.449 290.808C586.877 291.3 587.646 291.953 589.458 291.882C590.778 291.833 591.334 291.419 591.58 290.804H585.449V290.808Z" fill="#9B9B9D" fill-opacity="0.29"/>
<path d="M246.566 292.367C245.988 291.777 245.346 291.255 244.653 290.804H151.189C150.868 291.166 150.577 291.546 150.316 291.953C150.036 292.396 149.843 292.87 149.734 293.381H248.278C247.644 293.146 247.077 292.81 246.566 292.367Z" fill="#9B9B9D" fill-opacity="0.29"/>
<path d="M602.977 293.381C603.704 292.907 604.253 292.329 604.096 290.804H597.521C597.581 290.89 597.645 290.968 597.715 291.046C598.331 291.71 598.103 292.542 598.021 293.381H602.977Z" fill="#9B9B9D" fill-opacity="0.29"/>
<path d="M569.126 290.804H558.863C559.714 291.733 560.631 292.59 561.608 293.381H568.089C568.294 292.609 568.79 291.748 569.126 290.804Z" fill="#9B9B9D" fill-opacity="0.29"/>
<path d="M356.791 293.381H419.702C420.108 292.516 420.59 291.692 421.141 290.912C421.164 290.879 421.186 290.841 421.212 290.804H354.773C355.433 291.662 356.123 292.493 356.791 293.381Z" fill="#9B9B9D" fill-opacity="0.29"/>
<path d="M360.036 299.795C360.07 299.918 360.096 300.034 360.118 300.149H419.136C419.14 299.851 419.129 299.53 419.099 299.176C419.047 298.591 419.013 298.061 418.998 297.573H359.279C359.581 298.296 359.835 299.038 360.036 299.795Z" fill="#9B9B9D" fill-opacity="0.29"/>
<path d="M585.412 300.149C583.842 299.295 582.1 298.113 580.653 297.975C578.711 297.785 576.902 299.441 575.339 298.348C574.907 298.05 574.448 297.789 573.967 297.573H566.24C567.68 298.706 569.268 299.568 571.006 300.149H585.412Z" fill="#9B9B9D" fill-opacity="0.29"/>
<path d="M253.091 297.573H151.143C151.795 298.453 152.556 299.273 153.317 300.149H253.504C253.553 299.258 253.415 298.4 253.091 297.573Z" fill="#9B9B9D" fill-opacity="0.29"/>
<path d="M640.29 298.74C640.286 299.228 639.962 299.698 639.611 300.149H661.222C660.961 298.926 661.308 298.255 660.987 297.573H640.156C640.253 297.957 640.297 298.345 640.29 298.74Z" fill="#9B9B9D" fill-opacity="0.29"/>
<path d="M662.483 306.873C662.524 306.884 662.577 306.899 662.636 306.914H666.623C666.682 306.172 665.635 305.109 664.769 304.337H658.721C659.56 305.367 660.574 306.358 662.483 306.873Z" fill="#9B9B9D" fill-opacity="0.29"/>
<path d="M361.197 306.914H421.527C421.117 306.042 420.289 305.199 419.73 304.337H360.078C360.294 305.214 360.839 306.056 361.197 306.914Z" fill="#9B9B9D" fill-opacity="0.29"/>
<path d="M648.697 304.337H647.902C648.167 304.356 648.432 304.356 648.697 304.337Z" fill="#9B9B9D" fill-opacity="0.29"/>
<path d="M251.932 304.337H156.186C156.648 305.188 157.099 306.056 157.554 306.914H249.967C250.671 306.094 251.328 305.236 251.932 304.337Z" fill="#9B9B9D" fill-opacity="0.29"/>
<path d="M358.932 313.679H421.294C421.145 313.209 421.067 312.728 421.052 312.236C421.063 311.855 421.112 311.475 421.198 311.106H360.658C360.159 311.982 359.517 312.825 358.932 313.679Z" fill="#9B9B9D" fill-opacity="0.29"/>
<path d="M439.169 312.858C439.005 313.142 438.838 313.414 438.666 313.679H442.694C442.119 311.203 440.877 309.905 439.169 312.858Z" fill="#9B9B9D" fill-opacity="0.29"/>
<path d="M245.891 312.157C246.096 311.803 246.319 311.453 246.562 311.106H159.762C160.183 311.963 160.597 312.832 161.022 313.679H245.223C245.387 313.146 245.607 312.638 245.891 312.157Z" fill="#9B9B9D" fill-opacity="0.29"/>
<path d="M636.226 311.106H621.709C621.72 311.191 621.731 311.281 621.742 311.378C621.828 311.997 621.299 312.844 620.717 313.679H635.641C635.973 312.638 636.831 311.852 636.226 311.106Z" fill="#9B9B9D" fill-opacity="0.29"/>
<path d="M647.156 311.106C647.085 311.419 647.022 311.691 646.969 311.874C646.79 312.467 646.641 313.071 646.529 313.679H651.269C651.142 312.806 650.941 311.945 650.665 311.106H647.156Z" fill="#9B9B9D" fill-opacity="0.29"/>
<path d="M442.947 317.87H434.318C433.971 318.072 433.605 318.269 433.221 318.456C432.054 318.974 430.973 319.638 429.984 320.447H442.1C442.522 319.634 442.805 318.777 442.947 317.87Z" fill="#9B9B9D" fill-opacity="0.29"/>
<path d="M357.115 320.447H419.117C420.03 319.739 420.769 318.881 421.328 317.87H357.235C357.127 318.724 357.089 319.586 357.115 320.447Z" fill="#9B9B9D" fill-opacity="0.29"/>
<path d="M635.175 320.425C634.925 320.227 633.116 318.974 633.344 318.098C633.366 318.02 633.392 317.945 633.422 317.87H608.843C608.329 318.545 607.769 319.183 607.161 319.776C606.897 320.022 606.628 320.242 606.363 320.447H635.205C635.197 320.44 635.186 320.432 635.175 320.425Z" fill="#9B9B9D" fill-opacity="0.29"/>
<path d="M645.656 320.447H654.856C654.852 319.575 654.815 318.754 654.409 317.87H646.149C646.052 318.743 645.884 319.601 645.656 320.447Z" fill="#9B9B9D" fill-opacity="0.29"/>
<path d="M244.914 318.777C244.91 318.463 244.902 318.161 244.895 317.87H164.412C165.054 318.393 165.71 318.892 166.325 319.422C166.784 319.806 167.272 320.149 167.791 320.447H244.858C244.902 319.91 244.921 319.358 244.914 318.777Z" fill="#9B9B9D" fill-opacity="0.29"/>
<path d="M642.241 324.635H601.97C601.947 324.687 601.925 324.74 601.903 324.792C601.586 325.638 601.19 326.444 600.717 327.212H656.188C656.073 326.332 655.864 325.474 655.562 324.635H642.976C642.73 324.699 642.483 324.699 642.241 324.635Z" fill="#9B9B9D" fill-opacity="0.29"/>
<path d="M440.32 324.635H428.436C428.48 324.889 428.54 325.135 428.615 325.377C428.808 325.978 428.95 326.589 429.043 327.212H439.627C439.88 326.321 440.078 325.485 440.32 324.635Z" fill="#9B9B9D" fill-opacity="0.29"/>
<path d="M243.087 327.19C243.426 326.28 243.724 325.444 243.982 324.635H174.66C175.369 325.362 175.831 326.22 176.051 327.212H243.079L243.087 327.19Z" fill="#9B9B9D" fill-opacity="0.29"/>
<path d="M358.638 327.164C358.649 327.178 358.66 327.197 358.668 327.212H409.556C410.268 326.172 411.156 325.314 412.219 324.635H357.676C357.885 325.523 358.205 326.362 358.638 327.164Z" fill="#9B9B9D" fill-opacity="0.29"/>
<path d="M362.12 333.98H409.302C409.078 333.123 408.832 332.25 408.694 331.404H361.117C361.539 332.228 361.87 333.085 362.12 333.98Z" fill="#9B9B9D" fill-opacity="0.29"/>
<path d="M591.323 331.422C589.261 331.933 587.74 333.324 585.752 333.902C585.67 333.928 585.588 333.954 585.506 333.98H661.592C661.394 333.029 661.13 332.243 660.138 331.422C660.13 331.415 660.123 331.407 660.112 331.404H591.405C591.379 331.411 591.349 331.415 591.323 331.422Z" fill="#9B9B9D" fill-opacity="0.29"/>
<path d="M241.531 331.404H176.218C176.181 332.261 176.114 333.119 176.043 333.98H240.132C240.707 333.179 241.173 332.321 241.531 331.404Z" fill="#9B9B9D" fill-opacity="0.29"/>
<path d="M438.054 331.404H427.874C427.769 331.583 427.657 331.765 427.534 331.959C427.154 332.586 426.885 333.261 426.732 333.98H436.947C437.301 333.104 437.681 332.25 438.054 331.404Z" fill="#9B9B9D" fill-opacity="0.29"/>
<path d="M435.418 338.168H426.904C427.005 338.508 427.128 338.836 427.27 339.157C427.52 339.738 427.852 340.268 428.262 340.745H433.386C434.284 340.063 434.963 339.201 435.418 338.168Z" fill="#9B9B9D" fill-opacity="0.29"/>
<path d="M363.202 340.745H405.088C405.33 340.547 405.587 340.372 405.863 340.223C406.978 339.611 408.783 339.302 409.436 338.168H362.717C362.821 339.037 362.982 339.899 363.202 340.745Z" fill="#9B9B9D" fill-opacity="0.29"/>
<path d="M581.436 338.537C581.265 339.268 581.13 340.003 581.037 340.745H665.395C665.272 340.025 664.996 339.377 664.563 338.791C664.38 338.571 664.186 338.362 663.978 338.168H581.537C581.503 338.291 581.466 338.414 581.436 338.537Z" fill="#9B9B9D" fill-opacity="0.29"/>
<path d="M229.441 338.634C229.821 338.459 230.213 338.314 230.605 338.168H175.804C175.793 339.03 175.838 339.887 175.935 340.745H226.726C227.465 339.828 228.367 339.123 229.441 338.634Z" fill="#9B9B9D" fill-opacity="0.29"/>
<path d="M579.979 347.51H668.718C668.625 346.54 668.267 345.683 667.637 344.937H579.535C579.107 345.787 579.521 346.633 579.979 347.51Z" fill="#9B9B9D" fill-opacity="0.29"/>
<path d="M225.305 347.219C225.405 346.667 225.148 345.787 225.01 344.937H176.158C176.139 345.794 176.095 346.652 176.031 347.51H225.241C225.264 347.413 225.286 347.316 225.305 347.219Z" fill="#9B9B9D" fill-opacity="0.29"/>
<path d="M366.196 347.51H402.402C402.66 346.663 402.842 345.794 403.085 344.937H364.809C365.256 345.832 365.733 346.678 366.196 347.51Z" fill="#9B9B9D" fill-opacity="0.29"/>
<path d="M369.431 354.278H396.855C397.082 353.999 397.317 353.711 397.556 353.424C398.112 352.79 398.719 352.216 399.387 351.701H368.297C368.67 352.507 369.073 353.394 369.431 354.278Z" fill="#9B9B9D" fill-opacity="0.29"/>
<path d="M581.596 354.278H668.322C668.355 353.835 668.381 353.365 668.408 352.85C668.422 352.485 668.456 352.097 668.493 351.701H581.279C581.421 352.552 581.518 353.413 581.596 354.278Z" fill="#9B9B9D" fill-opacity="0.29"/>
<path d="M223.25 351.701H175.677C175.607 352.529 175.547 353.365 175.506 354.219C175.506 354.237 175.506 354.256 175.506 354.278H221.733C222.285 353.447 222.792 352.585 223.25 351.701Z" fill="#9B9B9D" fill-opacity="0.29"/>
<path d="M370.41 361.043H388.985C390.466 360.398 391.812 359.54 393.024 358.466H370.466C370.392 359.357 370.09 360.025 370.41 361.043Z" fill="#9B9B9D" fill-opacity="0.29"/>
<path d="M581.951 358.5C582.029 359.253 582.19 360.118 582.279 361.043H666.562C666.942 360.204 667.278 359.342 667.569 358.466H581.947C581.947 358.477 581.951 358.489 581.951 358.5Z" fill="#9B9B9D" fill-opacity="0.29"/>
<path d="M217.963 359.805C218.25 359.335 218.537 358.891 218.821 358.466H175.85C175.939 359.205 176.021 359.984 176.058 360.838C176.062 360.905 176.062 360.976 176.066 361.043H217.281C217.482 360.644 217.706 360.226 217.963 359.805Z" fill="#9B9B9D" fill-opacity="0.29"/>
<path d="M622.886 367.808H663.325C663.552 367.576 663.776 367.338 663.989 367.084C664.429 366.521 664.772 365.906 665.014 365.235H620.932C621.771 365.951 622.423 366.808 622.886 367.808Z" fill="#9B9B9D" fill-opacity="0.29"/>
<path d="M208.968 367.353C209.322 365.842 211.758 365.906 213.559 365.235H175.961C175.887 366.13 175.779 367.006 175.641 367.808H208.938C208.927 367.655 208.938 367.506 208.968 367.353Z" fill="#9B9B9D" fill-opacity="0.29"/>
<path d="M579.99 367.692C579.982 367.733 579.979 367.77 579.979 367.808H600.164C601.604 366.984 603.081 365.883 604.364 365.235H581.608C580.974 366.2 580.094 366.883 579.99 367.692Z" fill="#9B9B9D" fill-opacity="0.29"/>
<path d="M209.244 373.629C209.438 373.099 209.568 372.559 209.643 371.999H174.589C174.357 372.842 174.212 373.703 174.152 374.576H208.61C208.875 374.296 209.083 373.979 209.244 373.629Z" fill="#9B9B9D" fill-opacity="0.29"/>
<path d="M625.292 374.576H658.146C658.69 373.726 659.268 372.887 659.861 371.999H624.076C624.322 372.935 624.725 373.793 625.292 374.576Z" fill="#9B9B9D" fill-opacity="0.29"/>
<path d="M632.341 381.341H655.171C655.439 380.401 655.644 379.432 655.909 378.764H632.154C632.24 379.603 632.192 380.491 632.341 381.341Z" fill="#9B9B9D" fill-opacity="0.29"/>
<path d="M705.99 378.764C706.057 379.014 706.124 379.264 706.177 379.521C706.289 380.103 706.412 380.711 706.535 381.341H709.54C709.097 380.442 708.586 379.584 708.004 378.764H705.99Z" fill="#9B9B9D" fill-opacity="0.29"/>
<path d="M199.387 379.178C199.398 379.04 199.421 378.902 199.458 378.764H174.961C175.013 378.913 175.069 379.059 175.125 379.215C175.353 379.905 175.438 380.614 175.379 381.341H199.469C199.555 380.479 199.368 379.529 199.387 379.178Z" fill="#9B9B9D" fill-opacity="0.29"/>
<path d="M640.976 385.868C642.77 385.409 643.583 387.927 645.078 387.766C646.234 387.643 647.092 386.468 648.021 385.532H635.83C637.508 386.237 639.224 386.349 640.976 385.868Z" fill="#9B9B9D" fill-opacity="0.29"/>
<path d="M707.133 388.109H711.686C711.388 387.27 711.168 386.413 711.026 385.532H707.148C707.215 386.39 707.211 387.248 707.133 388.109Z" fill="#9B9B9D" fill-opacity="0.29"/>
<path d="M197.422 386.972C197.579 386.506 196.915 386.047 196.329 385.532H174.887C174.853 385.876 174.838 386.215 174.846 386.558C174.861 387.091 174.961 387.61 175.148 388.109H196.326C196.792 387.807 197.18 387.699 197.422 386.972Z" fill="#9B9B9D" fill-opacity="0.29"/>
<path d="M705.022 393.498C704.623 394.106 704.232 394.371 704.049 394.874H712.346C713.2 394.158 714.106 393.517 715.061 392.95L713.95 394.43C714.718 393.8 715.4 393.088 716.001 392.297H705.746C705.514 392.719 705.272 393.121 705.022 393.498Z" fill="#9B9B9D" fill-opacity="0.29"/>
<path d="M641.891 393.945C640.865 392.95 640.026 392.293 639.433 393.386C639.221 393.86 639.113 394.356 639.102 394.874H647.63C647.641 394.714 647.63 394.557 647.6 394.397C647.149 392.465 643.528 395.542 641.891 393.945Z" fill="#9B9B9D" fill-opacity="0.29"/>
<path d="M195.08 393.039C195.173 392.801 195.218 392.554 195.218 392.297H176.17C175.961 392.998 175.506 393.807 175.58 394.874H193.436C194.077 394.445 194.719 393.949 195.08 393.039Z" fill="#9B9B9D" fill-opacity="0.29"/>
<path d="M700.621 399.431C698.753 399.45 698.037 400.054 696.803 401.37C696.717 401.46 696.635 401.549 696.553 401.639H707.032C707.315 401.355 707.572 401.046 707.804 400.718C708.165 400.192 708.486 399.64 708.758 399.066H704.063C703.206 399.752 701.714 399.424 700.621 399.431Z" fill="#9B9B9D" fill-opacity="0.29"/>
<path d="M192.403 399.066H174.79C174.757 399.181 174.731 399.297 174.716 399.416C174.525 400.751 175.499 401.139 176.122 401.639H195.457C195.013 400.561 193.429 399.852 192.403 399.066Z" fill="#9B9B9D" fill-opacity="0.29"/>
<path d="M638.982 401.639H644.9C645.09 401.434 645.254 401.21 645.403 400.971C645.735 400.356 646.026 399.722 646.272 399.066H638.795C638.683 399.931 638.65 400.844 638.982 401.639Z" fill="#9B9B9D" fill-opacity="0.29"/>
<path d="M690.311 408.407H698.668C699.055 407.713 699.51 407.065 700.025 406.46C700.204 406.255 700.387 406.043 700.569 405.83H692.988C692.175 406.774 691.284 407.631 690.311 408.407Z" fill="#9B9B9D" fill-opacity="0.29"/>
<path d="M193.305 405.83H175.737C175.719 406.673 175.995 407.479 176.323 408.407H192.903C193.037 407.505 193.037 406.442 193.305 405.83Z" fill="#9B9B9D" fill-opacity="0.29"/>
<path d="M191.701 414.105C191.41 413.635 191.198 413.132 191.056 412.595H177.635C177.929 413.468 178.258 414.325 178.619 415.172H192.227C192.074 414.806 191.899 414.448 191.701 414.105Z" fill="#9B9B9D" fill-opacity="0.29"/>
<path d="M683.769 413.136C683.165 413.773 682.289 414.448 681.543 415.172H691.578C692.13 414.225 692.663 413.266 693.581 412.629C693.596 412.617 693.611 412.606 693.629 412.595H684.299C684.124 412.77 683.948 412.949 683.769 413.136Z" fill="#9B9B9D" fill-opacity="0.29"/>
<path d="M194.218 419.363H180.789C181.389 420.285 182.064 421.142 182.821 421.94H196.332C195.512 421.176 194.807 420.314 194.218 419.363Z" fill="#9B9B9D" fill-opacity="0.29"/>
<path d="M686.626 420.359C687.092 420.057 687.536 419.725 687.954 419.363H682.703C684.225 420.449 684.407 421.776 686.626 420.359Z" fill="#9B9B9D" fill-opacity="0.29"/>
<path d="M192.701 427.62C193.976 427.955 196.665 428.824 197.388 428.586C198.175 428.321 197.743 427.735 198.869 426.468C198.932 426.4 199.059 426.27 199.201 426.128H188.785C190.042 426.755 191.347 427.251 192.701 427.62Z" fill="#9B9B9D" fill-opacity="0.29"/>
</g>
<mask id="mask1_371_29" style="mask-type:luminance" maskUnits="userSpaceOnUse" x="647" y="339" width="25" height="34">
<path d="M647 339H671.344V372.622H647V339Z" fill="white"/>
</mask>
<g mask="url(#mask1_371_29)">
<path d="M659.254 338.944C658.456 338.944 657.669 339.022 656.89 339.179C656.107 339.336 655.35 339.563 654.615 339.869C653.88 340.175 653.179 340.548 652.519 340.991C651.859 341.431 651.244 341.935 650.681 342.498C650.118 343.061 649.618 343.673 649.174 344.336C648.73 344.997 648.358 345.698 648.052 346.432C647.75 347.167 647.519 347.924 647.362 348.703C647.205 349.486 647.127 350.273 647.127 351.071C647.127 360.338 658.184 371.503 658.658 371.973L659.254 372.574L659.851 371.973C660.324 371.503 671.381 360.338 671.381 351.071C671.381 350.273 671.303 349.486 671.147 348.703C670.99 347.924 670.759 347.167 670.453 346.432C670.151 345.698 669.774 344.997 669.334 344.336C668.89 343.673 668.387 343.061 667.824 342.498C667.261 341.935 666.649 341.431 665.989 340.991C665.325 340.548 664.628 340.175 663.893 339.869C663.159 339.563 662.398 339.336 661.618 339.179C660.839 339.022 660.049 338.944 659.254 338.944ZM659.254 357.556C658.829 357.556 658.408 357.515 657.99 357.433C657.572 357.348 657.166 357.224 656.771 357.064C656.379 356.9 656.002 356.699 655.652 356.464C655.298 356.229 654.969 355.957 654.667 355.658C654.365 355.356 654.097 355.028 653.862 354.674C653.623 354.319 653.426 353.947 653.261 353.551C653.097 353.16 652.974 352.753 652.892 352.336C652.81 351.918 652.765 351.496 652.765 351.071C652.765 350.642 652.81 350.221 652.892 349.803C652.974 349.386 653.097 348.983 653.261 348.588C653.426 348.192 653.623 347.82 653.862 347.465C654.097 347.111 654.365 346.783 654.667 346.484C654.969 346.182 655.298 345.914 655.652 345.675C656.002 345.44 656.379 345.239 656.771 345.079C657.166 344.914 657.572 344.791 657.99 344.709C658.408 344.624 658.829 344.583 659.254 344.583C659.679 344.583 660.101 344.624 660.518 344.709C660.936 344.791 661.343 344.914 661.738 345.079C662.129 345.239 662.502 345.44 662.857 345.675C663.211 345.914 663.539 346.182 663.841 346.484C664.143 346.783 664.412 347.111 664.647 347.465C664.885 347.82 665.083 348.192 665.247 348.588C665.411 348.983 665.534 349.386 665.616 349.803C665.698 350.221 665.739 350.642 665.739 351.071C665.739 351.496 665.698 351.918 665.616 352.336C665.53 352.753 665.407 353.16 665.243 353.551C665.083 353.943 664.882 354.319 664.647 354.674C664.408 355.028 664.139 355.352 663.837 355.654C663.539 355.957 663.211 356.225 662.857 356.46C662.502 356.699 662.129 356.896 661.734 357.06C661.343 357.224 660.936 357.348 660.518 357.43C660.101 357.515 659.679 357.556 659.254 357.556Z" fill="#F15A23"/>
</g>
<mask id="mask2_371_29" style="mask-type:luminance" maskUnits="userSpaceOnUse" x="491" y="234" width="25" height="34">
<path d="M491 234H515.344V267.622H491V234Z" fill="white"/>
</mask>
<g mask="url(#mask2_371_29)">
<path d="M503.254 233.944C502.456 233.944 501.669 234.022 500.89 234.179C500.107 234.336 499.35 234.563 498.615 234.869C497.88 235.175 497.179 235.548 496.519 235.991C495.859 236.431 495.244 236.935 494.681 237.498C494.118 238.061 493.618 238.673 493.174 239.336C492.73 239.997 492.358 240.698 492.052 241.432C491.75 242.167 491.519 242.924 491.362 243.703C491.205 244.486 491.127 245.273 491.127 246.071C491.127 255.338 502.184 266.503 502.658 266.973L503.254 267.574L503.851 266.973C504.324 266.503 515.381 255.338 515.381 246.071C515.381 245.273 515.303 244.486 515.147 243.703C514.99 242.924 514.759 242.167 514.453 241.432C514.151 240.698 513.774 239.997 513.334 239.336C512.89 238.673 512.387 238.061 511.824 237.498C511.261 236.935 510.649 236.431 509.989 235.991C509.325 235.548 508.628 235.175 507.893 234.869C507.159 234.563 506.398 234.336 505.618 234.179C504.839 234.022 504.049 233.944 503.254 233.944ZM503.254 252.556C502.829 252.556 502.408 252.515 501.99 252.433C501.572 252.348 501.166 252.224 500.771 252.064C500.379 251.9 500.002 251.699 499.652 251.464C499.298 251.229 498.969 250.957 498.667 250.658C498.365 250.356 498.097 250.028 497.862 249.674C497.623 249.319 497.426 248.947 497.261 248.551C497.097 248.16 496.974 247.753 496.892 247.336C496.81 246.918 496.765 246.496 496.765 246.071C496.765 245.642 496.81 245.221 496.892 244.803C496.974 244.386 497.097 243.983 497.261 243.588C497.426 243.192 497.623 242.82 497.862 242.465C498.097 242.111 498.365 241.783 498.667 241.484C498.969 241.182 499.298 240.914 499.652 240.675C500.002 240.44 500.379 240.239 500.771 240.079C501.166 239.914 501.572 239.791 501.99 239.709C502.408 239.624 502.829 239.583 503.254 239.583C503.679 239.583 504.101 239.624 504.518 239.709C504.936 239.791 505.343 239.914 505.738 240.079C506.129 240.239 506.502 240.44 506.857 240.675C507.211 240.914 507.539 241.182 507.841 241.484C508.143 241.783 508.412 242.111 508.647 242.465C508.885 242.82 509.083 243.192 509.247 243.588C509.411 243.983 509.534 244.386 509.616 244.803C509.698 245.221 509.739 245.642 509.739 246.071C509.739 246.496 509.698 246.918 509.616 247.336C509.53 247.753 509.407 248.16 509.243 248.551C509.083 248.943 508.882 249.319 508.647 249.674C508.408 250.028 508.139 250.352 507.837 250.654C507.539 250.957 507.211 251.225 506.857 251.46C506.502 251.699 506.129 251.896 505.734 252.06C505.343 252.224 504.936 252.348 504.518 252.43C504.101 252.515 503.679 252.556 503.254 252.556Z" fill="#F15A23"/>
</g>
</svg>
