<svg width="562" height="562" viewBox="0 0 562 562" fill="none" xmlns="http://www.w3.org/2000/svg">
<g clip-path="url(#clip0_328_23)">
<path d="M158.062 474.188C167.762 474.188 175.625 466.325 175.625 456.625C175.625 446.925 167.762 439.062 158.062 439.062C148.363 439.062 140.5 446.925 140.5 456.625C140.5 466.325 148.363 474.188 158.062 474.188Z" fill="#FF6600"/>
<path d="M158.062 333.688C167.762 333.688 175.625 325.825 175.625 316.125C175.625 306.425 167.762 298.562 158.062 298.562C148.363 298.562 140.5 306.425 140.5 316.125C140.5 325.825 148.363 333.688 158.062 333.688Z" fill="#FF6600"/>
<path d="M561.997 210.748C561.955 173.498 547.139 137.785 520.799 111.445C494.459 85.1057 458.747 70.2896 421.497 70.2478C415.414 70.2921 409.342 70.7439 403.32 71.6001C391.123 49.8803 373.363 31.7996 351.865 19.2161C330.368 6.63255 305.907 0 280.997 0C256.087 0 231.626 6.63255 210.128 19.2161C188.63 31.7996 170.871 49.8803 158.674 71.6001C152.652 70.7439 146.579 70.2921 140.497 70.2478C109.59 70.1943 79.5301 80.3515 54.9899 99.1409C30.4497 117.93 12.8031 144.3 4.79262 174.151C-3.21791 204.002 -1.14376 235.663 10.6927 264.214C22.5292 292.765 43.4651 316.607 70.2469 332.034V491.748C70.2469 547.21 202.721 561.998 280.997 561.998C359.273 561.998 491.747 547.21 491.747 491.748V332.034C513.011 319.693 530.679 302.008 543.002 280.734C555.324 259.459 561.872 235.333 561.997 210.748ZM280.997 526.873C174.814 526.873 110.149 503.532 105.372 491.748V252.511C150.104 274.148 227.941 280.998 280.997 280.998C323.587 281.354 366.094 277.174 407.798 268.528C410.048 268.021 412.176 267.075 414.06 265.746C415.945 264.416 417.549 262.728 418.781 260.778C420.013 258.829 420.849 256.655 421.241 254.383C421.633 252.11 421.574 249.782 421.067 247.532C420.559 245.283 419.614 243.155 418.284 241.27C416.954 239.386 415.266 237.782 413.317 236.55C411.367 235.318 409.194 234.482 406.921 234.089C404.648 233.697 402.32 233.757 400.071 234.264C360.903 242.34 320.987 246.232 280.997 245.873C175.323 245.873 110.781 222.725 105.372 211.643V211.327C110.781 198.77 175.323 175.623 280.997 175.623C387.127 175.623 451.827 198.981 456.622 210.748L456.727 350.51C451.845 363.032 387.197 386.373 280.997 386.373C241.006 386.733 201.091 382.842 161.923 374.764C159.672 374.257 157.343 374.197 155.069 374.59C152.796 374.983 150.621 375.819 148.671 377.052C144.732 379.542 141.943 383.495 140.918 388.041C140.411 390.292 140.352 392.621 140.745 394.895C141.137 397.169 141.974 399.343 143.207 401.293C145.697 405.233 149.65 408.021 154.196 409.046C195.902 417.678 238.408 421.852 280.997 421.498C334.071 421.498 411.925 414.648 456.622 392.994V491.01C451.845 503.532 387.197 526.873 280.997 526.873ZM491.747 210.748C491.747 155.285 359.273 140.498 280.997 140.498C202.721 140.498 70.2469 155.285 70.2469 210.748V289.199C54.055 274.74 42.7328 255.625 37.8331 234.477C32.9335 213.329 34.6963 191.182 42.8799 171.076C51.0635 150.969 65.267 133.886 83.5425 122.17C101.818 110.454 123.27 104.679 144.958 105.636C143.674 110.512 142.66 115.454 141.919 120.441C141.592 122.725 141.717 125.05 142.289 127.285C142.86 129.52 143.866 131.62 145.249 133.466C146.631 135.312 148.364 136.868 150.349 138.044C152.333 139.221 154.529 139.995 156.812 140.322C161.424 140.984 166.109 139.786 169.837 136.993C173.566 134.2 176.032 130.04 176.693 125.429C180.299 100.336 192.83 77.3845 211.988 60.7826C231.146 44.1808 255.646 35.0418 280.997 35.0418C306.347 35.0418 330.848 44.1808 350.006 60.7826C369.164 77.3845 381.695 100.336 385.301 125.429C385.962 130.04 388.428 134.2 392.157 136.993C394.003 138.376 396.103 139.382 398.338 139.953C400.573 140.524 402.898 140.65 405.181 140.322C407.465 139.995 409.661 139.221 411.645 138.044C413.629 136.868 415.362 135.312 416.745 133.466C418.128 131.62 419.134 129.52 419.705 127.285C420.276 125.05 420.402 122.725 420.074 120.441C419.334 115.454 418.32 110.512 417.036 105.636C438.723 104.679 460.176 110.454 478.451 122.17C496.727 133.886 510.93 150.969 519.114 171.076C527.297 191.182 529.06 213.329 524.161 234.477C519.261 255.625 507.939 274.74 491.747 289.199V210.748Z" fill="#FF6600"/>
</g>
<defs>
<clipPath id="clip0_328_23">
<rect width="562" height="562" fill="white"/>
</clipPath>
</defs>
</svg>
