<svg width="1440" height="701" viewBox="0 0 1440 701" fill="none" xmlns="http://www.w3.org/2000/svg">
<path d="M-14.9399 310.045C34.6588 432.634 177.775 663.558 353.452 606.535C477.11 554.783 580.995 411.317 708.087 229.693C814.008 78.3189 1286.9 -320.518 1474.76 699.524" stroke="#5F5D5D" stroke-opacity="0.65" stroke-linecap="round" stroke-linejoin="round" stroke-dasharray="8 15"/>
<path d="M300.245 607.445C304.143 614.846 308.036 622.105 311.871 629.378C312.067 629.755 312.484 629.989 312.935 629.986L320.142 629.939L300.151 593.13L280.243 630.205L287.451 630.158C287.907 630.155 288.325 629.915 288.521 629.535L300.241 607.445L300.245 607.445Z" fill="#181818" fill-opacity="0.92"/>
<path d="M1054.18 15.7883C1057.81 23.6619 1061.44 31.3886 1065.01 39.1257C1065.19 39.527 1065.61 39.7922 1066.08 39.8138L1073.54 40.1594L1054.86 0.96611L1032.23 38.251L1039.69 38.5965C1040.16 38.6184 1040.61 38.3929 1040.83 38.0103L1054.17 15.7881L1054.18 15.7883Z" fill="#181818" fill-opacity="0.92"/>
</svg>
