<svg width="32" height="32" viewBox="0 0 32 32" fill="none" xmlns="http://www.w3.org/2000/svg">
<path d="M27.8396 7.68005H7.99961C6.59161 7.68005 5.43961 8.83205 5.43961 10.2401V11.2001C5.43961 11.5521 5.72761 11.8401 6.07961 11.8401C6.43161 11.8401 6.71961 11.5521 6.71961 11.2001V10.2401C6.71961 10.1121 6.75161 9.98405 6.78361 9.85605L13.9516 16.0001L6.78361 22.1441C6.75161 22.0161 6.71961 21.8881 6.71961 21.7601V20.8001C6.71961 20.4481 6.43161 20.1601 6.07961 20.1601C5.72761 20.1601 5.43961 20.4481 5.43961 20.8001V21.7601C5.43961 23.1681 6.59161 24.3201 7.99961 24.3201H27.8396C29.2476 24.3201 30.3996 23.1681 30.3996 21.7601V10.2401C30.3996 8.83205 29.2476 7.68005 27.8396 7.68005ZM7.74361 8.99205C7.80761 8.96005 7.90361 8.96005 7.99961 8.96005H27.8396C27.9356 8.96005 28.0316 8.96005 28.0956 8.99205L18.3356 17.3441C18.0796 17.5361 17.7596 17.5361 17.5036 17.3441L7.74361 8.99205ZM27.8396 23.0401H7.99961C7.90361 23.0401 7.80761 23.0401 7.74361 23.0081L14.9436 16.8321L16.6716 18.3361C17.0236 18.6561 17.4716 18.8161 17.9196 18.8161C18.3676 18.8161 18.8156 18.6561 19.1676 18.3361L20.8956 16.8321L28.0956 23.0081C28.0316 23.0401 27.9356 23.0401 27.8396 23.0401ZM29.1196 21.7601C29.1196 21.8881 29.0876 22.0161 29.0556 22.1441L21.8876 16.0001L29.0556 9.85605C29.0876 9.98405 29.1196 10.1121 29.1196 10.2401V21.7601ZM3.51961 14.4001C3.51961 14.0481 3.80761 13.7601 4.15961 13.7601H7.99961C8.35161 13.7601 8.63961 14.0481 8.63961 14.4001C8.63961 14.7521 8.35161 15.0401 7.99961 15.0401H4.15961C3.80761 15.0401 3.51961 14.7521 3.51961 14.4001ZM7.99961 18.2401H2.23961C1.88761 18.2401 1.59961 17.9521 1.59961 17.6001C1.59961 17.2481 1.88761 16.9601 2.23961 16.9601H7.99961C8.35161 16.9601 8.63961 17.2481 8.63961 17.6001C8.63961 17.9521 8.35161 18.2401 7.99961 18.2401Z" fill="white"/>
</svg>
