<svg width="128" height="128" viewBox="0 0 128 128" fill="none" xmlns="http://www.w3.org/2000/svg">
<path d="M49.6999 43.7202L37.6999 81.1602C37.6287 81.3683 37.6079 81.5903 37.6391 81.808C37.6704 82.0256 37.7529 82.2328 37.8798 82.4124C38.0067 82.592 38.1743 82.7389 38.3691 82.8411C38.5638 82.9433 38.78 82.9978 38.9999 83.0002H42.3599C42.6598 82.9993 42.9513 82.9015 43.1911 82.7212C43.4308 82.541 43.6057 82.2881 43.6899 82.0002L45.5699 76.0002H61.9999L61.7699 75.6302L63.8299 82.0002C63.914 82.2881 64.089 82.541 64.3287 82.7212C64.5684 82.9015 64.86 82.9993 65.1599 83.0002H68.5199C68.74 83.0015 68.9572 82.9505 69.1538 82.8515C69.3503 82.7524 69.5205 82.6081 69.6504 82.4304C69.7802 82.2527 69.866 82.0467 69.9007 81.8293C69.9354 81.612 69.918 81.3895 69.8499 81.1802L57.8499 43.7402C57.7643 43.4532 57.589 43.2012 57.3496 43.0212C57.1102 42.8412 56.8194 42.7427 56.5199 42.7402H50.9999C50.7077 42.7462 50.4248 42.8441 50.1914 43.02C49.958 43.1959 49.786 43.441 49.6999 43.7202ZM47.5699 70.0002L53.7599 50.7302L59.9999 70.0002H47.5699Z" fill="#FF6600"/>
<path d="M83.6 42.75H80.4C79.6268 42.75 79 43.3768 79 44.15V81.59C79 82.3632 79.6268 82.99 80.4 82.99H83.6C84.3732 82.99 85 82.3632 85 81.59V44.15C85 43.3768 84.3732 42.75 83.6 42.75Z" fill="#FF6600"/>
<path d="M67.26 98H38.16C35.9958 98 33.9203 97.1403 32.39 95.61C30.8597 94.0797 30 92.0042 30 89.84V38.16C30 35.9959 30.8597 33.9203 32.39 32.39C33.9203 30.8597 35.9958 30 38.16 30H89.84C92.0042 30 94.0797 30.8597 95.61 32.39C97.1403 33.9203 98 35.9959 98 38.16V64C98.0183 64.5456 98.2513 65.0618 98.6484 65.4364C99.0454 65.8109 99.5743 66.0135 100.12 66C101.823 65.9949 103.504 66.3851 105.03 67.14C105.347 67.3026 105.7 67.3802 106.056 67.3654C106.412 67.3505 106.758 67.2437 107.06 67.0554C107.362 66.867 107.61 66.6035 107.78 66.2906C107.95 65.9777 108.036 65.6261 108.03 65.27V38.16C108.03 35.7727 107.559 33.4088 106.645 31.2036C105.73 28.9983 104.39 26.9951 102.7 25.3083C101.011 23.6216 99.0055 22.2846 96.7987 21.3738C94.592 20.4629 92.2273 19.9961 89.84 20H38.16C33.3437 20 28.7246 21.9133 25.3189 25.319C21.9133 28.7246 20 33.3437 20 38.16V89.84C20 94.6564 21.9133 99.2754 25.3189 102.681C28.7246 106.087 33.3437 108 38.16 108H71.46C71.8692 108.001 72.2693 107.88 72.6099 107.653C72.9505 107.426 73.2162 107.104 73.3735 106.726C73.5308 106.348 73.5726 105.932 73.4937 105.531C73.4148 105.129 73.2186 104.76 72.93 104.47C71.374 103.042 70.1135 101.323 69.22 99.41C69.0768 99.0027 68.8121 98.6491 68.4616 98.397C68.1111 98.1448 67.6917 98.0063 67.26 98Z" fill="#FF6600"/>
<path d="M111.73 101.8L120.79 98.2301C120.976 98.1564 121.136 98.0283 121.249 97.8624C121.362 97.6966 121.422 97.5006 121.422 97.3001C121.422 97.0995 121.362 96.9036 121.249 96.7377C121.136 96.5719 120.976 96.4438 120.79 96.3701L111.73 92.8001C110.126 92.1659 108.669 91.2096 107.45 89.9901C106.23 88.7706 105.274 87.3139 104.64 85.7101L101.07 76.7101C100.996 76.524 100.868 76.3645 100.702 76.2522C100.536 76.1398 100.34 76.0799 100.14 76.0801C99.9396 76.0799 99.7439 76.1398 99.5781 76.2522C99.4123 76.3645 99.284 76.524 99.2099 76.7101L95.6399 85.7101C95.0073 87.3148 94.0515 88.7723 92.8318 89.992C91.6121 91.2117 90.1546 92.1675 88.5499 92.8001L79.5499 96.3701C79.3634 96.4438 79.2034 96.5719 79.0906 96.7377C78.9778 96.9036 78.9175 97.0995 78.9175 97.3001C78.9175 97.5006 78.9778 97.6966 79.0906 97.8624C79.2034 98.0283 79.3634 98.1564 79.5499 98.2301L88.5499 101.8C90.1546 102.433 91.6121 103.388 92.8318 104.608C94.0515 105.828 95.0073 107.285 95.6399 108.89L99.2099 117.89C99.2824 118.078 99.41 118.24 99.576 118.354C99.7419 118.468 99.9385 118.529 100.14 118.53C100.341 118.529 100.538 118.468 100.704 118.354C100.87 118.24 100.997 118.078 101.07 117.89L104.64 108.89C105.274 107.286 106.23 105.83 107.45 104.61C108.669 103.391 110.126 102.434 111.73 101.8Z" fill="#FF6600"/>
</svg>
