<svg width="670" height="717" viewBox="0 0 670 717" fill="none" xmlns="http://www.w3.org/2000/svg">
<g clip-path="url(#clip0_78_2)">
<rect width="670" height="717" fill="#010101"/>
<path d="M640.41 432.787C676.97 503.745 713.5 573.35 749.47 643.077C751.31 646.694 755.25 648.958 759.54 648.958H828L640.41 296L449 649H517.46C521.79 649 525.78 646.733 527.67 643.115L640.37 432.787H640.41Z" fill="white" fill-opacity="0.05"/>
<path d="M409.41 310.787C445.97 381.745 482.5 451.35 518.47 521.077C520.31 524.694 524.25 526.958 528.54 526.958H597L409.41 174L218 527H286.46C290.79 527 294.78 524.733 296.67 521.115L409.37 310.787H409.41Z" fill="white" fill-opacity="0.07"/>
</g>
<defs>
<clipPath id="clip0_78_2">
<rect width="670" height="717" fill="white"/>
</clipPath>
</defs>
</svg>
