<svg width="1245" height="457" viewBox="0 0 1245 457" fill="none" xmlns="http://www.w3.org/2000/svg">
<path d="M1129.54 287.013C1158.16 342.539 1186.74 397.004 1214.88 451.566C1216.32 454.397 1219.41 456.168 1222.76 456.168H1276.33L1129.54 179.976L979.764 456.201H1033.34C1036.73 456.201 1039.84 454.427 1041.32 451.596L1129.51 287.013H1129.54Z" fill="white" fill-opacity="0.05"/>
<path d="M948.783 191.547C977.397 247.073 1005.98 301.539 1034.12 356.1C1035.57 358.931 1038.65 360.703 1042.01 360.703H1095.58L948.783 84.5107L799.005 360.735H852.578C855.967 360.735 859.086 358.962 860.562 356.131L948.751 191.547H948.783Z" fill="white" fill-opacity="0.07"/>
<path d="M-15.4866 109.766C11.7394 166.707 38.9344 222.561 65.7127 278.514C67.0867 281.417 70.021 283.234 73.214 283.234H124.186L-15.4866 0L-158 283.267H-107.026C-103.802 283.267 -100.834 281.448 -99.4287 278.545L-15.5176 109.766H-15.4866Z" fill="white" fill-opacity="0.05"/>
</svg>
