<svg width="1440" height="583" viewBox="0 0 1440 583" fill="none" xmlns="http://www.w3.org/2000/svg">
<path d="M1433.41 366.787C1469.97 437.745 1506.5 507.35 1542.47 577.077C1544.31 580.694 1548.25 582.958 1552.54 582.958H1621L1433.41 230L1242 583H1310.46C1314.79 583 1318.78 580.733 1320.67 577.115L1433.37 366.787H1433.41Z" fill="white" fill-opacity="0.05"/>
<path d="M1202.41 244.787C1238.97 315.745 1275.5 385.35 1311.47 455.077C1313.31 458.694 1317.25 460.958 1321.54 460.958H1390L1202.41 108L1011 461H1079.46C1083.79 461 1087.78 458.733 1089.67 455.115L1202.37 244.787H1202.41Z" fill="white" fill-opacity="0.07"/>
<path d="M-29.8757 140.274C4.9176 213.042 39.6712 284.421 73.8925 355.926C75.6484 359.636 79.3982 361.957 83.4787 361.957H148.618L-29.8757 0L-212 362H-146.858C-142.737 362 -138.945 359.675 -137.149 355.965L-29.9154 140.274H-29.8757Z" fill="white" fill-opacity="0.05"/>
</svg>
