<svg width="179" height="44" viewBox="0 0 179 44" fill="none" xmlns="http://www.w3.org/2000/svg">
<g clip-path="url(#clip0_1_337)">
<path d="M47.2291 7.86255H53.9656V28.7957H47.2291V7.86255Z" fill="white"/>
<path d="M50.5998 6.93726C52.4533 6.93726 53.9559 5.3843 53.9559 3.46863C53.9559 1.55296 52.4533 0 50.5998 0C48.7463 0 47.2438 1.55296 47.2438 3.46863C47.2438 5.3843 48.7463 6.93726 50.5998 6.93726Z" fill="white"/>
<path d="M58.1729 7.86258H64.9094V10.3199C66.0787 8.63114 67.9866 7.46313 70.6724 7.46313C74.7623 7.46313 78.1917 10.0823 78.1917 16.4785V28.8008H71.4552V17.687C71.4552 15.5128 70.4425 13.6217 68.1432 13.6217C65.8438 13.6217 64.9094 15.5128 64.9094 17.687V28.8008H58.1729V7.86258Z" fill="white"/>
<path d="M79.0919 7.86255H85.9458L90.6961 20.6651L95.4073 7.86255H102.261L93.8076 28.7957H87.5358L79.0821 7.86255H79.0919Z" fill="white"/>
<path d="M102.966 18.3291C102.966 11.2047 108.46 7.45801 113.792 7.45801C119.125 7.45801 124.579 11.1997 124.579 18.3291C124.579 25.4585 119.085 29.2001 113.792 29.2001C108.499 29.2001 102.966 25.4585 102.966 18.3291ZM113.792 22.9607C116.091 22.9607 117.96 21.11 117.96 18.3291C117.96 15.5481 116.091 13.6975 113.792 13.6975C111.493 13.6975 109.585 15.5481 109.585 18.3291C109.585 21.11 111.454 22.9607 113.792 22.9607Z" fill="white"/>
<path d="M127.813 7.86255H134.55V28.7957H127.813V7.86255Z" fill="white"/>
<path d="M137.783 18.2886C137.783 11.2047 143.199 7.45801 148.649 7.45801C152.23 7.45801 155.346 9.14682 157.411 12.6104L152.543 15.9122C151.648 14.7441 150.4 13.6975 148.649 13.6975C146.31 13.6975 144.403 15.5481 144.403 18.2886C144.403 21.0291 146.31 22.9607 148.649 22.9607C150.4 22.9607 151.648 21.914 152.543 20.746L157.411 24.0478C155.346 27.4304 152.23 29.2001 148.649 29.2001C143.194 29.2001 137.783 25.4585 137.783 18.2886Z" fill="white"/>
<path d="M158.468 18.3695C158.468 11.2856 163.609 7.45801 168.868 7.45801C174.127 7.45801 180.204 11.1238 178.799 21.0241H165.048C165.865 22.7129 167.616 23.5624 169.954 23.5624C171.588 23.5624 173.071 23.2387 174.548 22.1921L177.508 25.4534C175.874 27.5872 173.027 29.1951 169.211 29.1951C163.526 29.1951 158.463 25.2512 158.463 18.3645L158.468 18.3695ZM172.88 16.1144C172.41 14.1424 170.659 13.2576 168.947 13.2576C167.234 13.2576 165.517 14.1424 164.818 16.1144H172.88Z" fill="white"/>
<path d="M53.3297 34.1858L56.9401 43.8585H54.9881L54.3668 42.1141H50.3846L49.7633 43.8585H47.8113L51.4119 34.1858H53.3248H53.3297ZM53.7651 40.4L52.3806 36.5167L50.9961 40.4H53.7651Z" fill="#00E5FF"/>
<path d="M63.1581 40.2635V34.1858H64.9633V40.2635C64.9633 41.7753 65.8585 42.2405 66.6902 42.2405C67.5219 42.2405 68.4171 41.7753 68.4171 40.2635V34.1858H70.2224V40.2635C70.2224 42.6905 68.652 43.995 66.6902 43.995C64.7284 43.995 63.1581 42.6854 63.1581 40.2635Z" fill="#00E5FF"/>
<path d="M79.2778 35.9049H77.0225V34.1858H83.3383V35.9049H81.083V43.8636H79.2778V35.9049Z" fill="#00E5FF"/>
<path d="M89.3508 39.0246C89.3508 36.0565 91.5522 34.0542 94.1647 34.0542C96.7771 34.0542 98.9884 36.0565 98.9884 39.0246C98.9884 41.9926 96.7722 44 94.1647 44C91.5571 44 89.3508 41.9977 89.3508 39.0246ZM94.1647 42.2252C95.7742 42.2252 97.1293 40.9712 97.1293 39.0246C97.1293 37.0779 95.7693 35.8239 94.1647 35.8239C92.56 35.8239 91.2 37.0779 91.2 39.0246C91.2 40.9712 92.5698 42.2252 94.1647 42.2252Z" fill="#00E5FF"/>
<path d="M105.984 34.1858H107.975L111.033 41.477L114.091 34.1858H116.082V43.8585H114.276V37.7808H114.213L111.693 43.8585H110.363L107.858 37.7808H107.794V43.8585H105.989V34.1858H105.984Z" fill="#00E5FF"/>
<path d="M128.209 34.1858L131.82 43.8585H129.868L129.247 42.1141H125.264L124.643 43.8585H122.691L126.292 34.1858H128.204H128.209ZM128.645 40.4L127.26 36.5167L125.876 40.4H128.645Z" fill="#00E5FF"/>
<path d="M138.909 35.9049H136.653V34.1858H142.969V35.9049H140.714V43.8636H138.909V35.9049Z" fill="#00E5FF"/>
<path d="M149.769 34.1858H155.067V35.9049H151.574V38.155H154.515V39.8438H151.574V42.1444H155.185V43.8636H149.764V34.1908L149.769 34.1858Z" fill="#00E5FF"/>
<path d="M32.1221 4.05518H6.52617C2.92187 4.05518 0 7.07507 0 10.8003V37.2549C0 40.9801 2.92187 44 6.52617 44H32.1221C35.7264 44 38.6482 40.9801 38.6482 37.2549V10.8003C38.6482 7.07507 35.7264 4.05518 32.1221 4.05518Z" fill="#0060FF"/>
<path d="M26.633 10.0974H26.5499C23.3617 10.0974 20.7771 12.7687 20.7771 16.0639V31.9558C20.7771 35.251 23.3617 37.9223 26.5499 37.9223H26.633C29.8213 37.9223 32.4058 35.251 32.4058 31.9558V16.0639C32.4058 12.7687 29.8213 10.0974 26.633 10.0974Z" fill="white"/>
<path d="M12.1033 15.5229H12.0201C8.83187 15.5229 6.24731 18.1942 6.24731 21.4894V26.5255C6.24731 29.8207 8.83187 32.4919 12.0201 32.4919H12.1033C15.2915 32.4919 17.876 29.8207 17.876 26.5255V21.4894C17.876 18.1942 15.2915 15.5229 12.1033 15.5229Z" fill="#00E5FF"/>
<path d="M131.184 6.93726C133.037 6.93726 134.54 5.3843 134.54 3.46863C134.54 1.55296 133.037 0 131.184 0C129.33 0 127.828 1.55296 127.828 3.46863C127.828 5.3843 129.33 6.93726 131.184 6.93726Z" fill="white"/>
</g>
<defs>
<clipPath id="clip0_1_337">
<rect width="179" height="44" fill="white"/>
</clipPath>
</defs>
</svg>
