<svg width="137" height="33" viewBox="0 0 137 33" fill="none" xmlns="http://www.w3.org/2000/svg">
<path d="M35.9023 5.7832H41.0233V21.1832H35.9023V5.7832Z" fill="#989CAA"/>
<path d="M38.4651 5.102C39.8739 5.102 41.0161 3.95988 41.0161 2.551C41.0161 1.14212 39.8739 0 38.4651 0C37.0562 0 35.9141 1.14212 35.9141 2.551C35.9141 3.95988 37.0562 5.102 38.4651 5.102Z" fill="#989CAA"/>
<path d="M44.2217 5.78313H49.3427V7.59013C49.8431 6.90599 50.505 6.35624 51.2694 5.98985C52.0338 5.62345 52.8769 5.45178 53.7237 5.49013C56.8327 5.49013 59.4397 7.41613 59.4397 12.1211V21.1841H54.3187V13.0091C54.3187 11.4091 53.5487 10.0191 51.8007 10.0191C50.0527 10.0191 49.3427 11.4101 49.3427 13.0091V21.1831H44.2217V5.78313Z" fill="#989CAA"/>
<path d="M60.1232 5.7832H65.3332L68.9442 15.1992L72.5252 5.7832H77.7352L71.3092 21.1832H66.5412L60.1152 5.7832H60.1232Z" fill="#989CAA"/>
<path d="M78.2725 13.481C78.2725 8.24096 82.4485 5.48096 86.5025 5.48096C90.5565 5.48096 94.7025 8.23296 94.7025 13.481C94.7025 18.729 90.5265 21.481 86.5025 21.481C82.4785 21.481 78.2725 18.724 78.2725 13.481ZM86.5025 16.888C86.9381 16.8846 87.3684 16.7924 87.7672 16.617C88.1659 16.4415 88.5246 16.1864 88.8213 15.8675C89.118 15.5485 89.3464 15.1723 89.4926 14.7619C89.6388 14.3516 89.6997 13.9157 89.6715 13.481C89.7014 13.0445 89.6413 12.6066 89.4949 12.1943C89.3485 11.7821 89.1189 11.4044 88.8204 11.0846C88.5218 10.7648 88.1607 10.5099 87.7595 10.3356C87.3582 10.1613 86.9254 10.0713 86.488 10.0713C86.0505 10.0713 85.6177 10.1613 85.2165 10.3356C84.8152 10.5099 84.4541 10.7648 84.1556 11.0846C83.857 11.4044 83.6274 11.7821 83.481 12.1943C83.3346 12.6066 83.2745 13.0445 83.3045 13.481C83.2763 13.918 83.3381 14.3562 83.4861 14.7684C83.6341 15.1806 83.8652 15.5581 84.165 15.8773C84.4648 16.1966 84.8269 16.451 85.229 16.6247C85.631 16.7983 86.0645 16.8886 86.5025 16.888Z" fill="#989CAA"/>
<path d="M97.1611 5.7832H102.282V21.1832H97.1611V5.7832Z" fill="#989CAA"/>
<path d="M104.74 13.4512C104.74 8.24123 108.857 5.48524 113 5.48524C114.348 5.46489 115.676 5.80564 116.847 6.47211C118.019 7.13857 118.99 8.10645 119.661 9.27524L115.961 11.7032C115.629 11.2199 115.188 10.8209 114.674 10.5381C114.16 10.2552 113.587 10.0964 113.001 10.0742C112.564 10.0721 112.131 10.1591 111.728 10.3299C111.326 10.5008 110.963 10.7519 110.66 11.068C110.358 11.3841 110.124 11.7584 109.971 12.1682C109.819 12.578 109.751 13.0145 109.773 13.4512C109.751 13.891 109.817 14.3308 109.969 14.7442C110.12 15.1576 110.354 15.5361 110.655 15.857C110.957 16.178 111.32 16.4346 111.723 16.6117C112.126 16.7887 112.561 16.8824 113.001 16.8872C113.587 16.8651 114.16 16.7062 114.674 16.4234C115.188 16.1406 115.629 15.7416 115.961 15.2582L119.661 17.6862C118.981 18.8464 118.007 19.8072 116.838 20.4724C115.669 21.1376 114.345 21.4838 113 21.4762C108.853 21.4762 104.74 18.7242 104.74 13.4512Z" fill="#989CAA"/>
<path d="M120.464 13.5101C120.42 12.4547 120.593 11.4015 120.974 10.4159C121.354 9.43032 121.933 8.53344 122.674 7.78091C123.415 7.02838 124.304 6.43627 125.283 6.04134C126.263 5.64641 127.314 5.45709 128.37 5.48514C132.37 5.48514 136.987 8.18514 135.919 15.4631H125.466C126.087 16.7051 127.418 17.3301 129.196 17.3301C130.437 17.374 131.66 17.0209 132.688 16.3221L134.938 18.7221C134.165 19.6302 133.195 20.3501 132.102 20.827C131.009 21.3039 129.822 21.5252 128.631 21.4741C124.31 21.4741 120.461 18.5741 120.461 13.5081L120.464 13.5101ZM131.42 11.8511C131.238 11.2113 130.841 10.6534 130.297 10.271C129.753 9.88869 129.093 9.70514 128.43 9.75114C127.752 9.72526 127.083 9.91445 126.519 10.2916C125.955 10.6688 125.525 11.2147 125.291 11.8511H131.42Z" fill="#989CAA"/>
<path d="M40.5397 25.144L43.2847 32.258H41.8007L41.3287 30.975H38.3007L37.8287 32.258H36.3447L39.0817 25.144H40.5357H40.5397ZM40.8707 29.715L39.8147 26.858L38.7627 29.714H40.8627L40.8707 29.715Z" fill="#989CAA"/>
<path d="M48.0108 29.614V25.144H49.3828V29.614C49.3638 29.7979 49.3836 29.9836 49.4409 30.1593C49.4982 30.335 49.5918 30.4967 49.7156 30.6339C49.8393 30.7711 49.9905 30.8808 50.1594 30.9559C50.3282 31.031 50.511 31.0698 50.6958 31.0698C50.8806 31.0698 51.0633 31.031 51.2321 30.9559C51.401 30.8808 51.5522 30.7711 51.676 30.6339C51.7997 30.4967 51.8933 30.335 51.9506 30.1593C52.008 29.9836 52.0278 29.7979 52.0088 29.614V25.144H53.3808V29.614C53.3906 29.9728 53.3284 30.3299 53.1978 30.6642C53.0673 30.9985 52.8711 31.3033 52.6208 31.5605C52.3705 31.8178 52.0712 32.0222 51.7405 32.1618C51.4099 32.3014 51.0547 32.3733 50.6958 32.3733C50.3369 32.3733 49.9816 32.3014 49.651 32.1618C49.3203 32.0222 49.021 31.8178 48.7707 31.5605C48.5204 31.3033 48.3242 30.9985 48.1937 30.6642C48.0632 30.3299 48.001 29.9728 48.0108 29.614Z" fill="#989CAA"/>
<path d="M60.2648 26.408H58.5508V25.144H63.3508V26.408H61.6368V32.262H60.2648V26.408Z" fill="#989CAA"/>
<path d="M67.9219 28.7031C67.9211 27.9783 68.1353 27.2696 68.5375 26.6666C68.9397 26.0636 69.5118 25.5935 70.1812 25.3157C70.8507 25.038 71.5876 24.9651 72.2985 25.1063C73.0094 25.2475 73.6625 25.5965 74.175 26.109C74.6875 26.6215 75.0365 27.2746 75.1777 27.9855C75.3189 28.6964 75.246 29.4333 74.9683 30.1028C74.6905 30.7722 74.2204 31.3443 73.6174 31.7465C73.0144 32.1487 72.3057 32.3629 71.5809 32.3621C71.0973 32.3734 70.6165 32.2864 70.1675 32.1065C69.7185 31.9266 69.3106 31.6575 68.9686 31.3154C68.6266 30.9734 68.3574 30.5655 68.1775 30.1165C67.9976 29.6675 67.9106 29.1867 67.9219 28.7031ZM71.5819 31.0571C72.0517 31.0775 72.5169 30.9568 72.9176 30.7105C73.3183 30.4642 73.6361 30.1036 73.8301 29.6752C74.0241 29.2468 74.0854 28.7701 74.0062 28.3065C73.927 27.8429 73.7108 27.4136 73.3856 27.0739C73.0603 26.7342 72.6408 26.4997 72.1811 26.4004C71.7214 26.3012 71.2425 26.3418 70.806 26.517C70.3696 26.6922 69.9956 26.9941 69.7321 27.3837C69.4687 27.7733 69.3279 28.2328 69.3279 28.7031C69.312 29.008 69.3587 29.3129 69.4651 29.599C69.5715 29.8852 69.7353 30.1465 69.9464 30.367C70.1575 30.5875 70.4115 30.7625 70.6928 30.8812C70.974 30.9998 71.2766 31.0597 71.5819 31.0571Z" fill="#989CAA"/>
<path d="M80.5674 25.144H82.0814L84.4054 30.507L86.7274 25.144H88.2414V32.258H86.8694V27.788H86.8274L84.9124 32.258H83.9004L82.0004 27.788H81.9524V32.258H80.5804V25.144H80.5674Z" fill="#989CAA"/>
<path d="M97.4616 25.144L100.207 32.258H98.7226L98.2506 30.975H95.2236L94.7516 32.258H93.2666L96.0036 25.144H97.4576H97.4616ZM97.7926 29.715L96.7406 26.859L95.6886 29.715H97.7886H97.7926Z" fill="#989CAA"/>
<path d="M105.595 26.408H103.881V25.144H108.681V26.408H106.967V32.262H105.595V26.408Z" fill="#989CAA"/>
<path d="M113.851 25.144H117.879V26.408H115.224V28.063H117.459V29.305H115.224V30.997H117.969V32.261H113.847V25.148L113.851 25.144Z" fill="#989CAA"/>
<path d="M25.039 2.98291H4.34C1.94308 2.98291 0 4.92599 0 7.32291V28.0219C0 30.4188 1.94308 32.3619 4.34 32.3619H25.039C27.4359 32.3619 29.379 30.4188 29.379 28.0219V7.32291C29.379 4.92599 27.4359 2.98291 25.039 2.98291Z" fill="#989CAA"/>
<path d="M24.6339 11.8468C24.6339 9.40566 22.655 7.42676 20.2139 7.42676C17.7728 7.42676 15.7939 9.40566 15.7939 11.8468V23.4718C15.7939 25.9129 17.7728 27.8918 20.2139 27.8918C22.655 27.8918 24.6339 25.9129 24.6339 23.4718V11.8468Z" fill="white"/>
<path d="M13.589 15.837C13.589 13.3959 11.6101 11.417 9.16902 11.417C6.72792 11.417 4.74902 13.3959 4.74902 15.837V19.478C4.74902 21.9191 6.72792 23.898 9.16902 23.898C11.6101 23.898 13.589 21.9191 13.589 19.478V15.837Z" fill="white"/>
<path d="M99.7229 5.102C101.132 5.102 102.274 3.95988 102.274 2.551C102.274 1.14212 101.132 0 99.7229 0C98.314 0 97.1719 1.14212 97.1719 2.551C97.1719 3.95988 98.314 5.102 99.7229 5.102Z" fill="#989CAA"/>
</svg>
