<svg width="162" height="29" viewBox="0 0 162 29" fill="none" xmlns="http://www.w3.org/2000/svg">
<path d="M74.9043 22.4331H76.2283L78.2623 27.1251L80.2963 22.4331H81.6203V28.6581H80.4203V24.7471H80.3783L78.7023 28.6581H77.8143L76.1483 24.7471H76.1063V28.6581H74.9063V22.4331H74.9043Z" fill="#989CAA"/>
<path d="M89.6877 22.4331L92.0877 28.6581H90.7877L90.3747 27.5351H87.7257L87.3127 28.6581H86.0127L88.4077 22.4331H89.6797H89.6877ZM89.9777 26.4331L89.0567 23.9331L88.1357 26.4331H89.9767H89.9777Z" fill="#989CAA"/>
<path d="M96.4883 22.4331H97.6883L100.545 26.6861H100.587V22.4331H101.787V28.6581H100.587L97.7303 24.4051H97.6883V28.6581H96.4883V22.4331Z" fill="#989CAA"/>
<path d="M109.859 22.4331L112.259 28.6581H110.959L110.546 27.5351H107.897L107.484 28.6581H106.184L108.579 22.4331H109.859ZM110.149 26.4331L109.228 23.9331L108.307 26.4331H110.149Z" fill="#989CAA"/>
<path d="M116.048 25.5469C116.038 25.1215 116.114 24.6985 116.273 24.3038C116.432 23.9091 116.67 23.551 116.972 23.2515C117.275 22.9519 117.635 22.7172 118.031 22.5616C118.427 22.4061 118.85 22.333 119.276 22.3469C119.776 22.3322 120.272 22.4492 120.714 22.6861C121.155 22.923 121.526 23.2715 121.791 23.6969L120.922 24.3019C120.739 24.0409 120.495 23.8296 120.21 23.6869C119.926 23.5443 119.61 23.4748 119.292 23.4849C118.754 23.5053 118.246 23.7331 117.873 24.1205C117.5 24.5079 117.292 25.0247 117.292 25.5624C117.292 26.1001 117.5 26.6169 117.873 27.0043C118.246 27.3916 118.754 27.6195 119.292 27.6399C119.682 27.67 120.07 27.5497 120.375 27.3036C120.68 27.0574 120.879 26.7041 120.932 26.3159H119.442V25.3059H122.101C122.194 25.7273 122.19 26.1645 122.089 26.5841C121.987 27.0036 121.79 27.3942 121.514 27.726C121.238 28.0578 120.89 28.3219 120.495 28.498C120.101 28.6741 119.672 28.7575 119.241 28.7419C118.818 28.7522 118.398 28.6764 118.005 28.5192C117.613 28.3619 117.256 28.1264 116.958 27.8271C116.659 27.5278 116.425 27.1708 116.268 26.7779C116.112 26.3851 116.037 25.9645 116.049 25.5419L116.048 25.5469Z" fill="#989CAA"/>
<path d="M126.79 22.4331H130.314V23.5391H127.991V24.9871H129.947V26.0741H127.991V27.5551H130.391V28.6611H126.787V22.4361L126.79 22.4331Z" fill="#989CAA"/>
<path d="M137.134 26.5981H136.203V28.6581H135.003V22.4331H137.186C137.473 22.4095 137.762 22.4472 138.034 22.5438C138.306 22.6403 138.554 22.7935 138.762 22.9932C138.97 23.1929 139.133 23.4346 139.241 23.7021C139.348 23.9697 139.398 24.257 139.386 24.5451C139.409 24.9346 139.311 25.3217 139.105 25.6533C138.899 25.9849 138.596 26.2447 138.237 26.3971L139.692 28.6591H138.413L137.134 26.5981ZM137.062 25.5531C137.719 25.5531 138.168 25.2731 138.168 24.5441C138.168 23.8151 137.719 23.5351 137.062 23.5351H136.203V25.5521L137.062 25.5531Z" fill="#989CAA"/>
<path d="M31.707 5.23193H36.188V18.7039H31.707V5.23193Z" fill="#989CAA"/>
<path d="M38.9902 5.23221H43.4702V6.81321C43.9081 6.21453 44.4871 5.73337 45.1559 5.41253C45.8246 5.09169 46.5623 4.94111 47.3032 4.97421C50.0232 4.97421 52.3032 6.66021 52.3032 10.7742V18.7012H47.8222V11.5512C47.8222 10.1512 47.1482 8.93521 45.6222 8.93521C44.0962 8.93521 43.4712 10.1522 43.4712 11.5512V18.7032H38.9902V5.23221Z" fill="#989CAA"/>
<path d="M54.3262 15.0792L57.8502 14.1192C57.9315 14.5065 58.1433 14.8542 58.4502 15.1041C58.757 15.354 59.1404 15.491 59.5362 15.4922C60.1582 15.4922 60.6752 15.2062 60.6752 14.6362C60.6752 14.3502 60.5192 13.9882 59.8192 13.7802L57.8502 13.0542C55.6212 12.2762 54.6642 10.7992 54.6642 9.06519C54.6642 6.47519 57.0232 4.97119 59.7442 4.97119C62.4652 4.97119 64.3032 6.47119 64.7442 8.72619L61.2442 9.58219C60.9582 8.54719 60.3102 8.39119 59.9232 8.39119C59.8119 8.37556 59.6986 8.38291 59.5903 8.4128C59.4819 8.44268 59.3809 8.49446 59.2933 8.56493C59.2058 8.63541 59.1336 8.72309 59.0813 8.82255C59.029 8.922 58.9977 9.03113 58.9892 9.14319C58.9892 9.45519 59.1712 9.81719 59.9492 10.0252L61.7882 10.6992C62.6985 10.8918 63.5176 11.3846 64.1143 12.0985C64.7109 12.8125 65.0504 13.7062 65.0782 14.6362C65.0782 17.3562 62.7452 18.9642 59.6112 18.9642C56.8392 18.9642 54.7402 17.7212 54.3262 15.0792Z" fill="#989CAA"/>
<path d="M67.2246 5.2319H71.7056V6.5009H71.7836C72.2498 5.98071 72.8278 5.57289 73.4741 5.30808C74.1205 5.04326 74.8185 4.92832 75.5156 4.9719C78.5226 4.9719 81.8906 7.2529 81.8906 11.9719C81.8906 16.6909 78.5226 18.9719 75.5156 18.9719C74.8185 19.0155 74.1205 18.9005 73.4741 18.6357C72.8278 18.3709 72.2498 17.9631 71.7836 17.4429H71.7056V28.6579H67.2246V5.2319ZM74.5556 15.0009C74.9509 15.0073 75.3433 14.9324 75.7085 14.7809C76.0736 14.6294 76.4037 14.4045 76.6784 14.1201C76.953 13.8357 77.1663 13.4979 77.305 13.1277C77.4437 12.7575 77.5048 12.3627 77.4846 11.9679C77.4972 11.5737 77.4304 11.181 77.2883 10.8131C77.1461 10.4453 76.9315 10.1097 76.6571 9.82642C76.3827 9.54313 76.0542 9.31788 75.691 9.16405C75.3279 9.01022 74.9375 8.93095 74.5431 8.93095C74.1487 8.93095 73.7584 9.01022 73.3952 9.16405C73.0321 9.31788 72.7035 9.54313 72.4291 9.82642C72.1548 10.1097 71.9401 10.4453 71.7979 10.8131C71.6558 11.181 71.589 11.5737 71.6016 11.9679C71.5777 12.3657 71.6372 12.7641 71.7761 13.1377C71.915 13.5112 72.1304 13.8516 72.4085 14.1371C72.6865 14.4226 73.0211 14.6469 73.3909 14.7956C73.7606 14.9444 74.1573 15.0143 74.5556 15.0009Z" fill="#989CAA"/>
<path d="M83.3906 11.9922C83.3522 11.0686 83.504 10.147 83.8367 9.28452C84.1694 8.42209 84.6758 7.63725 85.3246 6.97875C85.9733 6.32026 86.7505 5.80216 87.6079 5.45663C88.4653 5.1111 89.3845 4.94552 90.3086 4.97017C93.8086 4.97017 97.8486 7.32917 96.9146 13.7012H87.7676C88.0967 14.2588 88.5797 14.7095 89.1587 14.9994C89.7377 15.2892 90.388 15.4058 91.0316 15.3352C92.119 15.3732 93.1903 15.0643 94.0906 14.4532L96.0596 16.5532C95.3833 17.3478 94.5347 17.9777 93.5784 18.395C92.622 18.8122 91.5831 19.0059 90.5406 18.9612C86.7596 18.9612 83.3886 16.4232 83.3886 11.9912L83.3906 11.9922ZM92.9766 10.5412C92.8181 9.9808 92.4716 9.49207 91.9952 9.15716C91.5187 8.82226 90.9415 8.66159 90.3606 8.70217C89.7674 8.67975 89.1823 8.84556 88.6891 9.17588C88.1958 9.50621 87.8197 9.98411 87.6146 10.5412H92.9766Z" fill="#989CAA"/>
<path d="M98.5449 11.942C98.5449 7.38299 102.145 4.97199 105.772 4.97199C106.952 4.95369 108.116 5.252 109.142 5.83588C110.167 6.41976 111.018 7.26788 111.605 8.29199L108.367 10.417C108.076 9.99411 107.69 9.64504 107.241 9.39763C106.791 9.15022 106.29 9.01131 105.777 8.99198C105.394 8.99001 105.015 9.06609 104.663 9.21558C104.311 9.36506 103.993 9.58481 103.728 9.86139C103.464 10.138 103.259 10.4656 103.125 10.8242C102.992 11.1828 102.933 11.5648 102.952 11.947C102.932 12.3319 102.99 12.7168 103.123 13.0787C103.255 13.4405 103.46 13.7718 103.723 14.0527C103.987 14.3336 104.305 14.5582 104.658 14.7131C105.011 14.868 105.392 14.9499 105.777 14.954C106.29 14.9347 106.791 14.7958 107.241 14.5483C107.69 14.3009 108.076 13.9519 108.367 13.529L111.605 15.654C111.009 16.669 110.157 17.5096 109.135 18.0916C108.112 18.6736 106.954 18.9765 105.777 18.97C102.149 18.97 98.5499 16.562 98.5499 11.948L98.5449 11.942Z" fill="#989CAA"/>
<path d="M115.154 14.1961V8.75613H113.107V5.23213H115.154V1.78613H119.635V5.23213H122.486V8.75613H119.635V13.5231C119.635 14.1451 119.996 14.9231 121.269 14.9231C121.701 14.9187 122.128 14.8486 122.538 14.7151V18.1091C121.743 18.6818 120.768 18.9488 119.792 18.8611C117.098 18.8611 115.155 17.5611 115.155 14.1981L115.154 14.1961Z" fill="#989CAA"/>
<path d="M124.763 5.23193H129.244V18.7039H124.763V5.23193Z" fill="#989CAA"/>
<path d="M131.394 11.9679C131.356 10.5385 131.745 9.13029 132.511 7.92309C133.278 6.71589 134.387 5.76455 135.696 5.19062C137.006 4.61669 138.457 4.44623 139.864 4.70102C141.271 4.95582 142.57 5.62429 143.595 6.62103C144.621 7.61778 145.325 8.89754 145.62 10.2968C145.914 11.6961 145.784 13.1513 145.248 14.4766C144.711 15.8019 143.791 16.9371 142.606 17.7371C141.421 18.5371 140.024 18.9656 138.594 18.9679C137.655 19.0089 136.717 18.8574 135.838 18.5228C134.959 18.1881 134.158 17.6773 133.483 17.0218C132.809 16.3662 132.276 15.5798 131.917 14.7107C131.557 13.8416 131.38 12.9082 131.394 11.9679ZM138.594 14.9489C138.975 14.9459 139.352 14.8651 139.7 14.7116C140.049 14.558 140.363 14.3348 140.622 14.0557C140.882 13.7767 141.082 13.4475 141.21 13.0885C141.338 12.7295 141.391 12.3482 141.366 11.9679C141.392 11.5861 141.34 11.203 141.211 10.8425C141.083 10.4819 140.882 10.1515 140.621 9.87179C140.36 9.59212 140.044 9.36912 139.693 9.21666C139.342 9.0642 138.963 8.98553 138.581 8.98553C138.198 8.98553 137.819 9.0642 137.468 9.21666C137.117 9.36912 136.801 9.59212 136.54 9.87179C136.279 10.1515 136.078 10.4819 135.95 10.8425C135.822 11.203 135.769 11.5861 135.795 11.9679C135.77 12.3506 135.824 12.7342 135.954 13.0951C136.084 13.456 136.286 13.7864 136.548 14.0659C136.811 14.3454 137.128 14.568 137.48 14.7199C137.832 14.8718 138.212 14.9497 138.595 14.9489H138.594Z" fill="#989CAA"/>
<path d="M147.925 5.23205H152.406V6.81305C152.843 6.21513 153.422 5.73452 154.09 5.41388C154.758 5.09325 155.495 4.94251 156.235 4.97505C158.955 4.97505 161.235 6.66105 161.235 10.775V18.702H156.754V11.551C156.754 10.151 156.08 8.93505 154.554 8.93505C153.028 8.93505 152.403 10.152 152.403 11.551V18.703H147.925V5.23205Z" fill="#989CAA"/>
<path d="M21.367 3.03906H4.34C1.94308 3.03906 0 4.98215 0 7.37906V24.4061C0 26.803 1.94308 28.7461 4.34 28.7461H21.367C23.7639 28.7461 25.707 26.803 25.707 24.4061V7.37906C25.707 4.98215 23.7639 3.03906 21.367 3.03906Z" fill="#989CAA"/>
<path d="M17.6883 6.92822H17.6873C15.5516 6.92822 13.8203 8.65954 13.8203 10.7952V20.9682C13.8203 23.1039 15.5516 24.8352 17.6873 24.8352H17.6883C19.824 24.8352 21.5553 23.1039 21.5553 20.9682V10.7952C21.5553 8.65954 19.824 6.92822 17.6883 6.92822Z" fill="white"/>
<path d="M8.02327 10.4229H8.02227C5.88659 10.4229 4.15527 12.1542 4.15527 14.2899V17.4769C4.15527 19.6125 5.88659 21.3439 8.02227 21.3439H8.02327C10.159 21.3439 11.8903 19.6125 11.8903 17.4769V14.2899C11.8903 12.1542 10.159 10.4229 8.02327 10.4229Z" fill="white"/>
<path d="M33.949 4.484C35.1873 4.484 36.191 3.48022 36.191 2.242C36.191 1.00378 35.1873 0 33.949 0C32.7108 0 31.707 1.00378 31.707 2.242C31.707 3.48022 32.7108 4.484 33.949 4.484Z" fill="#989CAA"/>
<path d="M127.005 4.484C128.243 4.484 129.247 3.48022 129.247 2.242C129.247 1.00378 128.243 0 127.005 0C125.766 0 124.763 1.00378 124.763 2.242C124.763 3.48022 125.766 4.484 127.005 4.484Z" fill="#989CAA"/>
</svg>
