<svg width="27" height="27" viewBox="0 0 27 27" fill="none" xmlns="http://www.w3.org/2000/svg">
<g clip-path="url(#clip0_1_2527)">
<path d="M19.6913 0H7.30864C3.27859 0 0 3.27859 0 7.30864V19.6915C0 23.7214 3.27859 26.9999 7.30864 26.9999H19.6915C23.7214 26.9999 26.9999 23.7214 26.9999 19.6915V7.30864C26.9999 3.27859 23.7214 0 19.6913 0ZM25.4171 19.6915C25.4171 22.8486 22.8486 25.4171 19.6913 25.4171H7.30864C4.15138 25.4171 1.58285 22.8486 1.58285 19.6915V7.30864C1.58285 4.15138 4.15138 1.58285 7.30864 1.58285H19.6915C22.8486 1.58285 25.4171 4.15138 25.4171 7.30864V19.6915Z" fill="white"/>
<path d="M13.4998 6.11743C9.42894 6.11743 6.11719 9.42919 6.11719 13.5C6.11719 17.5709 9.42894 20.8826 13.4998 20.8826C17.5706 20.8826 20.8824 17.5709 20.8824 13.5C20.8824 9.42919 17.5706 6.11743 13.4998 6.11743ZM13.4998 19.2998C10.3019 19.2998 7.70004 16.6981 7.70004 13.5C7.70004 10.3022 10.3019 7.70028 13.4998 7.70028C16.6978 7.70028 19.2995 10.3022 19.2995 13.5C19.2995 16.6981 16.6978 19.2998 13.4998 19.2998Z" fill="white"/>
<path d="M21.0584 3.49548C19.8554 3.49548 18.877 4.47416 18.877 5.67695C18.877 6.87995 19.8554 7.85863 21.0584 7.85863C22.2614 7.85863 23.2401 6.87995 23.2401 5.67695C23.2401 4.47395 22.2614 3.49548 21.0584 3.49548ZM21.0584 6.27557C20.7284 6.27557 20.4598 6.00695 20.4598 5.67695C20.4598 5.34674 20.7284 5.07834 21.0584 5.07834C21.3886 5.07834 21.6572 5.34674 21.6572 5.67695C21.6572 6.00695 21.3886 6.27557 21.0584 6.27557Z" fill="white"/>
</g>
<defs>
<clipPath id="clip0_1_2527">
<rect width="27" height="27" fill="white"/>
</clipPath>
</defs>
</svg>
