<svg width="37" height="38" viewBox="0 0 37 38" fill="none" xmlns="http://www.w3.org/2000/svg">
<g clip-path="url(#clip0_1_138)">
<path d="M18.6563 22.747C20.7197 22.747 22.3925 21.0742 22.3925 19.0107C22.3925 16.9472 20.7197 15.2744 18.6563 15.2744C16.5928 15.2744 14.92 16.9472 14.92 19.0107C14.92 21.0742 16.5928 22.747 18.6563 22.747Z" fill="white"/>
<path d="M18.6563 1.21924C8.83016 1.21924 0.864502 9.1849 0.864502 19.011C0.864502 28.8371 8.83016 36.8028 18.6563 36.8028C28.4824 36.8028 36.448 28.8371 36.448 19.011C36.448 9.1849 28.4824 1.21924 18.6563 1.21924ZM29.6486 23.533C29.5632 25.2245 29.0879 26.8925 27.8552 28.1121C26.6105 29.3433 24.9346 29.802 23.2268 29.8865H14.0858C12.3778 29.802 10.7021 29.3435 9.45743 28.1121C8.22467 26.8925 7.74942 25.2245 7.66402 23.533V14.4891C7.74942 12.7976 8.22474 11.1295 9.45743 9.90988C10.7021 8.67869 12.378 8.21994 14.0858 8.13547H23.2268C24.9348 8.21994 26.6105 8.67847 27.8551 9.90988C29.0879 11.1295 29.5631 12.7976 29.6485 14.4891L29.6486 23.533Z" fill="white"/>
<path d="M23.1113 10.1957C20.8848 10.1346 16.4283 10.1346 14.2018 10.1957C13.0431 10.2275 11.7296 10.516 10.904 11.3977C10.0462 12.3143 9.72201 13.4216 9.68914 14.6604C9.63135 16.8347 9.68914 23.3608 9.68914 23.3608C9.72678 24.5994 10.0462 25.7069 10.904 26.6235C11.7296 27.5055 13.0431 27.7937 14.2018 27.8255C16.4283 27.8866 20.8848 27.8866 23.1113 27.8255C24.27 27.7937 25.5835 27.5052 26.4091 26.6235C27.2669 25.7069 27.5911 24.5996 27.624 23.3608V14.6604C27.5911 13.4216 27.2669 12.3143 26.4091 11.3977C25.5832 10.5157 24.2697 10.2275 23.1113 10.1957ZM18.6563 24.8018C17.5109 24.8018 16.3912 24.4622 15.4388 23.8258C14.4865 23.1895 13.7442 22.285 13.3059 21.2268C12.8675 20.1686 12.7529 19.0042 12.9763 17.8808C13.1998 16.7574 13.7513 15.7255 14.5612 14.9156C15.3712 14.1057 16.4031 13.5541 17.5264 13.3307C18.6498 13.1072 19.8143 13.2219 20.8725 13.6602C21.9307 14.0985 22.8351 14.8408 23.4715 15.7932C24.1078 16.7455 24.4475 17.8652 24.4475 19.0106C24.4475 20.5465 23.8373 22.0195 22.7513 23.1056C21.6652 24.1917 20.1922 24.8018 18.6563 24.8018ZM24.4721 14.4148C24.243 14.4147 24.0191 14.3467 23.8287 14.2194C23.6383 14.0921 23.4899 13.9112 23.4022 13.6996C23.3146 13.4879 23.2917 13.255 23.3364 13.0304C23.3812 12.8057 23.4915 12.5994 23.6535 12.4374C23.8155 12.2755 24.0219 12.1652 24.2465 12.1205C24.4712 12.0758 24.7041 12.0988 24.9157 12.1865C25.1273 12.2741 25.3082 12.4226 25.4355 12.6131C25.5627 12.8035 25.6306 13.0275 25.6306 13.2565C25.6306 13.4087 25.6007 13.5593 25.5424 13.6998C25.4842 13.8404 25.3989 13.9681 25.2913 14.0756C25.1837 14.1832 25.056 14.2685 24.9154 14.3267C24.7749 14.3849 24.6242 14.4148 24.4721 14.4148Z" fill="white"/>
</g>
<defs>
<clipPath id="clip0_1_138">
<rect width="36.4375" height="36.4375" fill="white" transform="translate(0.4375 0.791992)"/>
</clipPath>
</defs>
</svg>
