<svg width="113" height="23" viewBox="0 0 113 23" fill="none" xmlns="http://www.w3.org/2000/svg">
<mask id="mask0_1_2553" style="mask-type:luminance" maskUnits="userSpaceOnUse" x="0" y="0" width="22" height="23">
<path d="M0 0.0239258H21.667V22.1029H0V0.0239258Z" fill="white"/>
</mask>
<g mask="url(#mask0_1_2553)">
<path d="M0.281483 22.1042C-0.448647 22.1043 -1.17829 22.0666 -1.90452 21.9912C-3.3215 21.8451 -4.7198 21.5542 -6.07752 21.1232C-6.74052 20.9122 -7.40152 20.6662 -8.04252 20.3902C-8.68352 20.1142 -9.30452 19.8082 -9.91152 19.4722C-10.5185 19.1362 -11.1115 18.7722 -11.6745 18.3802C-13.9584 16.8047 -15.9191 14.8059 -17.4505 12.4922C-17.8345 11.9132 -18.1945 11.3082 -18.5215 10.6922C-18.8485 10.0762 -19.1535 9.4332 -19.4215 8.7862C-19.6895 8.1392 -19.9345 7.4622 -20.1415 6.7862C-20.3485 6.1102 -20.5275 5.40019 -20.6685 4.69719C-20.8095 3.99419 -20.9205 3.25719 -20.9925 2.53219C-21.0645 1.80719 -21.1035 1.04719 -21.1035 0.304193C-21.1035 -0.438807 -21.0655 -1.18881 -20.9925 -1.92381C-20.9195 -2.65881 -20.8115 -3.3768 -20.6685 -4.0878C-20.5255 -4.79881 -20.3495 -5.48781 -20.1415 -6.17681C-19.9335 -6.86581 -19.6925 -7.52681 -19.4225 -8.17681C-19.1525 -8.82681 -18.8515 -9.46481 -18.5225 -10.0828C-18.1935 -10.7008 -17.8355 -11.3008 -17.4515 -11.8828C-15.9188 -14.1968 -13.9567 -16.1955 -11.6715 -17.7708C-11.1035 -18.1618 -10.5105 -18.5288 -9.90852 -18.8628C-9.30652 -19.1968 -8.67352 -19.5068 -8.03952 -19.7808C-7.40552 -20.0548 -6.73952 -20.3028 -6.07452 -20.5138C-4.71703 -20.9409 -3.31942 -21.2281 -1.90351 -21.3708C-0.450382 -21.5209 1.01435 -21.5209 2.46748 -21.3708C4.58243 -21.1516 6.65175 -20.6121 8.60448 -19.7708C9.23849 -19.4968 9.86648 -19.1888 10.4735 -18.8528C11.0805 -18.5168 11.6735 -18.1528 12.2365 -17.7608C14.5202 -16.185 16.4808 -14.1863 18.0125 -11.8728C18.3965 -11.2938 18.7565 -10.6888 19.0835 -10.0728C19.4105 -9.45681 19.7155 -8.81381 19.9835 -8.16681C20.2515 -7.51981 20.4965 -6.84281 20.7045 -6.16681C20.9125 -5.49081 21.0905 -4.77981 21.2315 -4.07781C21.3725 -3.37581 21.4835 -2.63881 21.5555 -1.91381C21.6275 -1.18881 21.6665 -0.428804 21.6665 0.314196C21.6665 1.0572 21.6285 1.80719 21.5555 2.54219C21.4825 3.27719 21.3745 3.99519 21.2315 4.70619C21.0885 5.41719 20.9135 6.11119 20.7045 6.79519C20.4955 7.47919 20.2565 8.1452 19.9845 8.7952C19.7125 9.4452 19.4135 10.0832 19.0845 10.7012C18.7555 11.3192 18.3965 11.9192 18.0135 12.5012C16.4819 14.8148 14.5212 16.8134 12.2375 18.3892C11.6695 18.7802 11.0765 19.1482 10.4745 19.4812C9.87248 19.8142 9.23948 20.1252 8.60548 20.3992C7.97148 20.6732 7.30548 20.9222 6.64048 21.1322C5.28275 21.5632 3.88446 21.854 2.46748 22.0002C1.74108 22.0723 1.01145 22.107 0.281483 22.1042ZM0.281483 -16.0738C-4.00452 -15.9852 -8.08511 -14.2204 -11.0849 -11.1579C-14.0848 -8.09542 -15.7649 -3.97923 -15.7649 0.307695C-15.7649 4.59462 -14.0848 8.71081 -11.0849 11.7733C-8.08511 14.8358 -4.00452 16.6006 0.281483 16.6892C4.56749 16.6006 8.64807 14.8358 11.6479 11.7733C14.6477 8.71081 16.3278 4.59462 16.3278 0.307695C16.3278 -3.97923 14.6477 -8.09542 11.6479 -11.1579C8.64807 -14.2204 4.56749 -15.9852 0.281483 -16.0738Z" fill="#989CAA"/>
</g>
<mask id="mask1_1_2553" style="mask-type:luminance" maskUnits="userSpaceOnUse" x="20" y="0" width="93" height="23">
<path d="M20.7793 0H112.921V22.133H20.7793V0Z" fill="white"/>
</mask>
<g mask="url(#mask1_1_2553)">
<path d="M35.8147 18.064H27.6947L26.3947 21.914H20.8467L28.7197 0.122015H34.8567L42.7287 21.914H37.1187L35.8147 18.064ZM34.4517 13.964L31.7517 5.986L29.0867 13.964H34.4517ZM56.2087 21.911L51.6837 13.684H50.4137V21.911H45.1137V0.122015H54.0087C55.5203 0.07879 57.0213 0.386861 58.3937 1.02201C58.6749 1.15319 58.9457 1.30562 59.2037 1.478C59.9808 1.99666 60.6303 2.68452 61.1037 3.49C61.7079 4.55364 62.0185 5.7588 62.0037 6.982C62.0218 8.37305 61.5928 9.73316 60.7797 10.862C59.8844 12.0541 58.6115 12.9075 57.1687 13.283L62.1897 21.913L56.2087 21.911ZM50.4087 9.92801H53.6937C54.4879 9.98889 55.2737 9.73207 55.8787 9.21399C56.132 8.94551 56.3274 8.62784 56.4528 8.28071C56.5782 7.93357 56.6309 7.56439 56.6077 7.19602C56.6271 6.83755 56.5723 6.47892 56.4469 6.14255C56.3214 5.80619 56.128 5.49928 55.8787 5.241C55.5793 4.98419 55.2322 4.78894 54.8573 4.66642C54.4824 4.5439 54.087 4.49654 53.6937 4.52701H50.4087V9.92801ZM85.7417 0.118994L78.0227 21.911H71.3957L63.6787 0.118994H69.3187L74.7117 16.572L80.1357 0.122015L85.7417 0.118994ZM93.2417 0.118994V21.911H87.9417V0.122015L93.2417 0.118994ZM104.956 22.129C103.493 22.1526 102.04 21.8889 100.679 21.353C99.4782 20.8808 98.4323 20.0846 97.6577 19.053C97.2738 18.5238 96.9752 17.9377 96.7727 17.316C96.672 17.0054 96.5955 16.6874 96.5437 16.365C96.4926 16.0425 96.4659 15.7166 96.4637 15.39H102.105C102.138 16.0899 102.437 16.7506 102.942 17.237C103.328 17.5654 103.799 17.7776 104.301 17.849C104.466 17.8732 104.634 17.8816 104.801 17.874C105.465 17.9116 106.121 17.7199 106.661 17.331C106.772 17.2433 106.873 17.1426 106.961 17.031C107.138 16.8046 107.258 16.5392 107.312 16.257C107.339 16.1164 107.349 15.973 107.342 15.83C107.346 15.7063 107.336 15.5826 107.314 15.461C107.294 15.339 107.26 15.2196 107.214 15.105C107.12 14.8753 106.98 14.6675 106.802 14.495C106.415 14.1256 105.964 13.831 105.47 13.626C104.736 13.3261 103.985 13.0671 103.223 12.85C102.045 12.5039 100.896 12.0694 99.7837 11.55C98.8764 11.1005 98.0899 10.4404 97.4897 9.62501C96.8125 8.72535 96.4724 7.61664 96.5287 6.49201C96.488 5.57977 96.6666 4.67106 97.0493 3.84202C97.4321 3.01297 98.008 2.28772 98.7287 1.727C100.388 0.51758 102.41 -0.0901513 104.462 0.00400396C106.535 -0.0970329 108.58 0.510627 110.262 1.727C110.989 2.29927 111.578 3.02787 111.986 3.85877C112.393 4.68967 112.608 5.6016 112.616 6.52701H106.883C106.881 6.36941 106.862 6.21246 106.826 6.059C106.754 5.75085 106.618 5.46145 106.426 5.21C106.331 5.08397 106.223 4.96863 106.104 4.866C105.588 4.44877 104.938 4.23367 104.276 4.26099C103.713 4.23404 103.161 4.41648 102.726 4.77302C102.524 4.95967 102.367 5.18889 102.265 5.44404C102.163 5.69918 102.119 5.97382 102.137 6.24799C102.137 6.94799 102.468 7.31102 103.13 7.70402C104.116 8.23438 105.155 8.66097 106.23 8.977C107.4 9.35813 108.544 9.81441 109.655 10.343C110.101 10.5658 110.52 10.8396 110.903 11.159C111.286 11.4777 111.632 11.8394 111.934 12.237C112.606 13.1647 112.945 14.2925 112.895 15.437C112.908 16.6321 112.58 17.806 111.949 18.821C111.28 19.8694 110.329 20.7083 109.206 21.242C107.88 21.8661 106.426 22.1706 104.961 22.131L104.956 22.129Z" fill="#989CAA"/>
</g>
</svg>
