<svg width="86" height="39" viewBox="0 0 86 39" fill="none" xmlns="http://www.w3.org/2000/svg">
<path d="M52.0562 7.64111H42.3562V8.52811C42.7409 8.56073 43.123 8.61819 43.5002 8.70011C43.8033 8.75375 44.0885 8.88155 44.3302 9.07211C44.9022 9.55911 44.9022 10.5031 44.9022 12.1631V23.4061C44.9022 25.6961 45.1022 28.9291 41.8692 28.8721C41.0914 28.8349 40.3481 28.5394 39.7571 28.0322C39.1661 27.5251 38.7611 26.8353 38.6062 26.0721H37.4902C37.9482 29.1051 39.5792 31.1661 43.5002 31.1661C46.8202 31.1661 49.8002 29.6211 49.8002 24.4411V12.1661C49.8002 10.4781 49.8002 9.61911 50.3722 9.10111C50.849 8.7159 51.4475 8.51312 52.0602 8.52911V7.67011L52.0562 7.64111Z" fill="#989CAA"/>
<path d="M63.2156 7.64111H53.5156V8.52811C54.1304 8.49821 54.7337 8.70263 55.2036 9.10011C55.6616 9.50011 55.7476 10.1311 55.7476 11.2471V26.9301C55.7196 28.0181 55.6616 28.7041 55.2036 29.0771C54.7268 29.4623 54.1284 29.6651 53.5156 29.6491V30.5361H68.1676L69.7156 26.0411H68.5996C68.2641 26.9284 67.6437 27.6793 66.8358 28.1764C66.0279 28.6735 65.0779 28.8886 64.1346 28.7881C63.1857 28.8834 62.2285 28.7254 61.3606 28.3301C60.8736 28.0151 60.7036 27.1861 60.6736 25.7541V12.1661C60.6736 10.4781 60.6736 9.56611 61.2456 9.07511C61.848 8.71251 62.543 8.53353 63.2456 8.56011L63.2156 7.64111Z" fill="#989CAA"/>
<path d="M79.3563 7.64111H69.6562V8.52811C70.271 8.49821 70.8743 8.70263 71.3443 9.10011C71.8023 9.50011 71.8883 10.1311 71.8883 11.2471V26.9301C71.8603 28.0181 71.8023 28.7041 71.3443 29.0771C70.8674 29.4623 70.269 29.6651 69.6562 29.6491V30.5361H84.3083L85.8563 26.0411H84.7403C84.4047 26.9284 83.7844 27.6793 82.9764 28.1764C82.1685 28.6735 81.2185 28.8886 80.2753 28.7881C79.3264 28.8834 78.3691 28.7254 77.5013 28.3301C77.0143 28.0151 76.8443 27.1861 76.8143 25.7541V12.1661C76.8143 10.4781 76.8143 9.56611 77.3863 9.07511C77.9886 8.71251 78.6837 8.53353 79.3863 8.56011V7.64111H79.3563Z" fill="#989CAA"/>
<path d="M14.2524 37.4901C14.7113 37.2811 15.151 37.0321 15.5664 36.7461L15.8244 36.5741C16.3486 36.1904 16.8285 35.7497 17.2554 35.2601C17.8334 34.6372 18.3598 33.9683 18.8294 33.2601C19.1963 32.698 19.5302 32.115 19.8294 31.5141C20.9885 29.1583 21.781 26.6392 22.1794 24.0441C22.4302 22.4057 22.5545 20.7505 22.5514 19.0931C22.5545 17.4356 22.4302 15.7804 22.1794 14.1421C21.7995 11.543 21.0072 9.02133 19.8324 6.67207C19.6864 6.41407 19.5464 6.12807 19.4034 5.87207C18.7693 7.04309 18.2425 8.26909 17.8294 9.53507C18.5943 11.842 19.0647 14.2363 19.2294 16.6611C19.2864 17.4611 19.3154 18.3211 19.3154 19.1221C19.3154 19.9221 19.2874 20.7821 19.2294 21.5831C19.056 24.5509 18.3986 27.4703 17.2834 30.2261C16.8567 31.2952 16.3297 32.3214 15.7094 33.2911C15.5634 33.5201 15.4514 33.7491 15.2804 33.9781C14.9654 34.4361 14.6504 34.8651 14.3074 35.3231C13.9002 35.8275 13.4613 36.3054 12.9934 36.7541C12.5093 37.2371 11.9836 37.6764 11.4224 38.0671C11.3654 38.0951 11.3364 38.1241 11.2764 38.1531V38.2101C12.3063 38.173 13.3183 37.9295 14.2524 37.4941V37.4901Z" fill="#989CAA"/>
<path d="M20.2002 37.4899C20.6592 37.2809 21.0989 37.032 21.5142 36.7459L21.7722 36.5739C23.4736 35.2316 24.845 33.5174 25.7812 31.5629C26.9393 29.2069 27.7308 26.6879 28.1282 24.0929C28.3789 22.4552 28.5033 20.8007 28.5002 19.1439C28.5034 17.4865 28.379 15.8313 28.1282 14.1929C27.7483 11.5939 26.956 9.07216 25.7812 6.72291C24.9078 4.91752 23.6721 3.3112 22.1512 2.00391C21.6555 2.53481 21.1964 3.09877 20.7772 3.69191L21.2062 4.29191C23.5907 8.00285 24.9533 12.2776 25.1562 16.6839C25.2132 17.4839 25.2422 18.3439 25.2422 19.1449C25.2422 19.9459 25.2142 20.8049 25.1562 21.6059C24.9578 26.0126 23.5952 30.288 21.2072 33.9969C20.8922 34.4549 20.5772 34.8839 20.2342 35.3419C19.827 35.8466 19.3881 36.3249 18.9202 36.7739C18.4352 37.2574 17.9085 37.6971 17.3462 38.0879C17.2892 38.1159 17.2602 38.1449 17.2002 38.1739V38.2309C18.2383 38.1775 19.2566 37.926 20.2002 37.4899Z" fill="#989CAA"/>
<path d="M27.7587 36.545C29.4586 35.2032 30.829 33.4901 31.7647 31.537C32.9228 29.181 33.7143 26.662 34.1117 24.067C34.3625 22.4287 34.4869 20.7734 34.4837 19.116C34.4869 17.4586 34.3625 15.8033 34.1117 14.165C33.7316 11.5678 32.9396 9.04776 31.7657 6.7C30.8358 4.74319 29.4645 3.02888 27.7597 1.692C26.4627 0.655081 24.8671 0.0619743 23.2077 0V0.057C24.7846 1.18973 26.1259 2.61865 27.1567 4.264C29.5409 7.97504 30.9031 12.2497 31.1057 16.656C31.1627 17.456 31.1917 18.316 31.1917 19.117C31.1917 19.918 31.1637 20.777 31.1057 21.578C30.9073 25.9847 29.5447 30.2601 27.1567 33.969C26.0915 35.5957 24.7448 37.0193 23.1797 38.173V38.23C24.8421 38.1482 26.4398 37.5602 27.7587 36.545Z" fill="#989CAA"/>
<path d="M20.2053 0.715C19.7453 0.923837 19.3046 1.1728 18.8883 1.459L18.6303 1.631C18.1195 2.02122 17.6413 2.45231 17.2003 2.92C16.623 3.54298 16.0972 4.21184 15.6283 4.92C15.2614 5.48211 14.9275 6.06509 14.6283 6.666C13.4696 9.02155 12.6774 11.5403 12.2793 14.135C12.0285 15.7733 11.9041 17.4286 11.9073 19.086C11.9041 20.7434 12.0285 22.3987 12.2793 24.037C12.6592 26.636 13.4515 29.1577 14.6263 31.507C14.7723 31.765 14.9123 32.051 15.0553 32.307C15.6894 31.136 16.2162 29.91 16.6293 28.644C15.8644 26.3371 15.394 23.9428 15.2293 21.518C15.1723 20.718 15.1433 19.858 15.1433 19.057C15.1433 18.257 15.1713 17.397 15.2293 16.596C15.4026 13.6279 16.0599 10.708 17.1753 7.952C17.629 6.89149 18.1643 5.86776 18.7763 4.89C18.9223 4.661 19.0343 4.432 19.2053 4.203C19.5203 3.745 19.8353 3.316 20.1783 2.858C20.5855 2.3536 21.0244 1.87563 21.4923 1.427C21.9773 0.943849 22.504 0.504476 23.0663 0.114C23.1233 0.086 23.1523 0.057 23.2123 0.028V0C22.1729 0.0397539 21.1513 0.282658 20.2053 0.715Z" fill="#989CAA"/>
<path d="M14.2522 0.715C13.7922 0.923837 13.3515 1.1728 12.9352 1.459L12.6772 1.631C10.9928 2.98958 9.62558 4.6998 8.67121 6.642C7.51337 8.99703 6.72192 11.515 6.32421 14.109C6.07341 15.7568 5.94904 17.4213 5.95221 19.088C5.94902 20.7454 6.07339 22.4007 6.32421 24.039C6.70408 26.638 7.49638 29.1597 8.67121 31.509C9.54575 33.3159 10.7831 34.9233 12.3062 36.231C12.8019 35.7001 13.261 35.1361 13.6802 34.543L13.2522 33.943C10.8682 30.2322 9.50596 25.9579 9.30321 21.552C9.24621 20.752 9.21721 19.892 9.21721 19.091C9.21721 18.29 9.24521 17.431 9.30321 16.63C9.50053 12.2212 10.8632 7.9436 13.2522 4.233C13.5672 3.775 13.8822 3.346 14.2252 2.888C14.6325 2.38463 15.0714 1.90767 15.5392 1.46C16.021 1.00083 16.5375 0.579577 17.0842 0.2C17.1412 0.172 17.1702 0.143 17.2302 0.114V0C16.2001 0.0399025 15.1881 0.282887 14.2522 0.715Z" fill="#989CAA"/>
<path d="M6.72506 1.66C5.02511 3.00181 3.65479 4.71487 2.71906 6.668C1.56103 9.02366 0.769571 11.5424 0.372061 14.137C0.121208 15.7851 -0.00315539 17.4499 6.08113e-05 19.117C-0.00312649 20.7744 0.121241 22.4297 0.372061 24.068C0.752039 26.6667 1.54434 29.1881 2.71906 31.537C3.64891 33.4938 5.02022 35.2081 6.72506 36.545C8.04821 37.5287 9.62931 38.1055 11.2751 38.205V38.148C9.69029 37.0153 8.34035 35.5859 7.30006 33.939C4.9155 30.2287 3.55259 25.9548 3.34906 21.549C3.29206 20.749 3.26306 19.889 3.26306 19.088C3.26306 18.287 3.29106 17.428 3.34906 16.627C3.54751 12.2191 4.9108 7.94252 7.30006 4.233C8.3412 2.59599 9.69136 1.17756 11.2751 0.057V0C9.6203 0.0545665 8.0262 0.63615 6.72506 1.66Z" fill="#989CAA"/>
<path d="M18.2865 36.2592C18.7822 35.7283 19.2413 35.1643 19.6605 34.5712L19.2315 33.9712L18.8025 33.2842C18.344 34.0004 17.8169 34.6702 17.2285 35.2842C17.5435 35.6282 17.9435 35.9412 18.2875 36.2572" fill="#989CAA"/>
<path d="M21.5181 36.7451C21.1036 37.0326 20.6638 37.2816 20.2041 37.4891C21.1383 37.9242 22.1502 38.1673 23.1801 38.2041V38.1451C22.5867 37.727 22.0313 37.2586 21.5181 36.7451Z" fill="#989CAA"/>
<path d="M16.685 38.1762C16.8453 38.1431 17.0083 38.1241 17.172 38.1192C17 38.0042 16.857 37.8902 16.685 37.7752C16.2928 37.4736 15.9191 37.1487 15.566 36.8022C15.1515 37.0897 14.7117 37.3387 14.252 37.5462C14.8711 37.8318 15.5255 38.0336 16.198 38.1462C16.3607 38.127 16.5255 38.1365 16.685 38.1742M17.229 38.2022V38.1452C17.201 38.1172 17.172 38.1172 17.143 38.0882C16.9826 38.1213 16.8196 38.1404 16.656 38.1452C16.843 38.1911 17.0366 38.2103 17.229 38.2022Z" fill="#989CAA"/>
<path d="M16.1982 1.97412C15.7025 2.50502 15.2435 3.06899 14.8242 3.66212L15.2532 4.26212L15.6822 4.94912C16.1407 4.23295 16.6679 3.56312 17.2562 2.94912C16.9322 2.59432 16.5782 2.26811 16.1982 1.97412Z" fill="#989CAA"/>
<path d="M12.9354 1.488C13.3498 1.20055 13.7897 0.951515 14.2494 0.744C13.3224 0.287022 12.3084 0.0333611 11.2754 0V0.057C11.8807 0.470197 12.4375 0.95022 12.9354 1.488Z" fill="#989CAA"/>
<path d="M20.2035 0.715C19.5844 0.429451 18.93 0.227675 18.2575 0.115C18.0972 0.0818915 17.9342 0.0628194 17.7705 0.058C17.5915 0.0230834 17.4099 0.00367808 17.2275 0V0.057C17.2555 0.085 17.2845 0.085 17.3135 0.114C17.4855 0.229 17.6285 0.343 17.8005 0.458C18.1913 0.759769 18.5636 1.08468 18.9155 1.431C19.3324 1.1706 19.7623 0.931627 20.2035 0.715Z" fill="#989CAA"/>
</svg>
