<?xml version="1.0" standalone="no"?>
<!DOCTYPE svg PUBLIC "-//W3C//DTD SVG 1.1//EN" "http://www.w3.org/Graphics/SVG/1.1/DTD/svg11.dtd">
<svg xmlns="http://www.w3.org/2000/svg" xmlns:xlink="http://www.w3.org/1999/xlink" width="450" zoomAndPan="magnify" viewBox="0 0 450 149.999998" height="150" preserveAspectRatio="xMidYMid meet" version="1.0"><defs><clipPath id="16a6be2dce"><path d="M 15.5625 6 L 154 6 L 154 144.445312 L 15.5625 144.445312 Z M 15.5625 6 " clip-rule="nonzero"/></clipPath><clipPath id="a303e96aff"><path d="M 178 116 L 434.0625 116 L 434.0625 143 L 178 143 Z M 178 116 " clip-rule="nonzero"/></clipPath></defs><g clip-path="url(#16a6be2dce)"><path fill="#0060ff" d="M 36.804688 6.050781 L 132.109375 6.050781 C 132.804688 6.050781 133.496094 6.085938 134.191406 6.15625 C 134.882812 6.222656 135.570312 6.324219 136.253906 6.460938 C 136.933594 6.597656 137.609375 6.765625 138.273438 6.96875 C 138.941406 7.171875 139.59375 7.40625 140.238281 7.671875 C 140.878906 7.9375 141.507812 8.234375 142.121094 8.566406 C 142.734375 8.894531 143.332031 9.25 143.910156 9.636719 C 144.488281 10.027344 145.046875 10.441406 145.582031 10.882812 C 146.121094 11.324219 146.636719 11.792969 147.128906 12.285156 C 147.617188 12.777344 148.085938 13.292969 148.527344 13.832031 C 148.96875 14.371094 149.382812 14.929688 149.769531 15.511719 C 150.15625 16.089844 150.511719 16.6875 150.839844 17.300781 C 151.167969 17.917969 151.464844 18.546875 151.730469 19.1875 C 151.996094 19.832031 152.230469 20.488281 152.433594 21.15625 C 152.636719 21.824219 152.804688 22.5 152.941406 23.183594 C 153.074219 23.867188 153.175781 24.554688 153.246094 25.246094 C 153.3125 25.941406 153.347656 26.636719 153.347656 27.332031 L 153.347656 122.808594 C 153.347656 123.503906 153.3125 124.199219 153.246094 124.894531 C 153.175781 125.585938 153.074219 126.277344 152.941406 126.960938 C 152.804688 127.644531 152.636719 128.320312 152.433594 128.984375 C 152.230469 129.652344 151.996094 130.308594 151.730469 130.953125 C 151.464844 131.597656 151.167969 132.226562 150.839844 132.839844 C 150.511719 133.453125 150.15625 134.050781 149.769531 134.632812 C 149.382812 135.210938 148.96875 135.769531 148.527344 136.308594 C 148.085938 136.847656 147.617188 137.363281 147.128906 137.855469 C 146.636719 138.347656 146.121094 138.816406 145.582031 139.257812 C 145.046875 139.699219 144.488281 140.117188 143.910156 140.503906 C 143.332031 140.890625 142.734375 141.25 142.121094 141.578125 C 141.507812 141.90625 140.878906 142.203125 140.238281 142.46875 C 139.59375 142.738281 138.941406 142.972656 138.273438 143.171875 C 137.609375 143.375 136.933594 143.542969 136.253906 143.679688 C 135.570312 143.816406 134.882812 143.917969 134.191406 143.988281 C 133.496094 144.054688 132.804688 144.089844 132.109375 144.089844 L 36.804688 144.089844 C 36.109375 144.089844 35.414062 144.054688 34.722656 143.988281 C 34.03125 143.917969 33.34375 143.816406 32.660156 143.679688 C 31.976562 143.542969 31.304688 143.375 30.636719 143.171875 C 29.972656 142.972656 29.320312 142.738281 28.675781 142.46875 C 28.03125 142.203125 27.40625 141.90625 26.792969 141.578125 C 26.179688 141.25 25.582031 140.890625 25.003906 140.503906 C 24.425781 140.117188 23.867188 139.699219 23.328125 139.257812 C 22.792969 138.816406 22.277344 138.347656 21.785156 137.855469 C 21.292969 137.363281 20.828125 136.847656 20.386719 136.308594 C 19.945312 135.769531 19.53125 135.210938 19.144531 134.632812 C 18.757812 134.050781 18.398438 133.453125 18.070312 132.839844 C 17.746094 132.226562 17.445312 131.597656 17.179688 130.953125 C 16.914062 130.308594 16.679688 129.652344 16.480469 128.984375 C 16.277344 128.320312 16.109375 127.644531 15.972656 126.960938 C 15.835938 126.277344 15.734375 125.585938 15.667969 124.894531 C 15.597656 124.199219 15.5625 123.503906 15.5625 122.808594 L 15.5625 27.332031 C 15.5625 26.636719 15.597656 25.941406 15.667969 25.246094 C 15.734375 24.554688 15.835938 23.867188 15.972656 23.183594 C 16.109375 22.5 16.277344 21.824219 16.480469 21.15625 C 16.679688 20.488281 16.914062 19.832031 17.179688 19.1875 C 17.445312 18.546875 17.746094 17.917969 18.070312 17.300781 C 18.398438 16.6875 18.757812 16.089844 19.144531 15.511719 C 19.53125 14.929688 19.945312 14.371094 20.386719 13.832031 C 20.828125 13.292969 21.292969 12.777344 21.785156 12.285156 C 22.277344 11.792969 22.792969 11.324219 23.328125 10.882812 C 23.867188 10.441406 24.425781 10.027344 25.003906 9.636719 C 25.582031 9.25 26.179688 8.894531 26.792969 8.566406 C 27.40625 8.234375 28.03125 7.9375 28.675781 7.671875 C 29.320312 7.40625 29.972656 7.171875 30.636719 6.96875 C 31.304688 6.765625 31.976562 6.597656 32.660156 6.460938 C 33.34375 6.324219 34.03125 6.222656 34.722656 6.15625 C 35.414062 6.085938 36.109375 6.050781 36.804688 6.050781 Z M 36.804688 6.050781 " fill-opacity="1" fill-rule="nonzero"/></g><path fill="#ffffff" d="M 110.363281 26.921875 C 111.039062 26.921875 111.71875 26.957031 112.394531 27.023438 C 113.070312 27.089844 113.738281 27.1875 114.40625 27.320312 C 115.070312 27.453125 115.730469 27.617188 116.378906 27.816406 C 117.027344 28.011719 117.667969 28.242188 118.292969 28.503906 C 118.921875 28.761719 119.535156 29.054688 120.132812 29.375 C 120.730469 29.695312 121.3125 30.042969 121.878906 30.421875 C 122.441406 30.800781 122.988281 31.203125 123.511719 31.636719 C 124.035156 32.066406 124.539062 32.523438 125.019531 33.003906 C 125.5 33.484375 125.953125 33.988281 126.386719 34.515625 C 126.816406 35.039062 127.21875 35.585938 127.597656 36.152344 C 127.972656 36.71875 128.320312 37.300781 128.640625 37.898438 C 128.960938 38.5 129.253906 39.113281 129.511719 39.742188 C 129.773438 40.371094 130 41.011719 130.195312 41.660156 C 130.394531 42.3125 130.558594 42.972656 130.691406 43.636719 C 130.824219 44.304688 130.921875 44.976562 130.988281 45.65625 C 131.054688 46.332031 131.089844 47.011719 131.089844 47.691406 L 131.089844 102.316406 C 131.089844 103 131.054688 103.675781 130.988281 104.355469 C 130.921875 105.03125 130.824219 105.703125 130.691406 106.371094 C 130.558594 107.035156 130.394531 107.695312 130.195312 108.347656 C 130 108.996094 129.773438 109.636719 129.511719 110.265625 C 129.253906 110.894531 128.960938 111.507812 128.640625 112.109375 C 128.320312 112.707031 127.972656 113.289062 127.597656 113.855469 C 127.21875 114.421875 126.816406 114.96875 126.386719 115.492188 C 125.953125 116.019531 125.5 116.523438 125.019531 117.003906 C 124.539062 117.484375 124.035156 117.941406 123.511719 118.371094 C 122.988281 118.804688 122.441406 119.207031 121.878906 119.585938 C 121.3125 119.964844 120.730469 120.3125 120.132812 120.632812 C 119.535156 120.953125 118.921875 121.246094 118.292969 121.503906 C 117.667969 121.765625 117.027344 121.996094 116.378906 122.191406 C 115.730469 122.390625 115.070312 122.554688 114.40625 122.6875 C 113.738281 122.820312 113.070312 122.917969 112.394531 122.988281 C 111.71875 123.054688 111.039062 123.085938 110.363281 123.085938 C 109.683594 123.085938 109.007812 123.054688 108.332031 122.988281 C 107.65625 122.917969 106.984375 122.820312 106.316406 122.6875 C 105.652344 122.554688 104.996094 122.390625 104.34375 122.191406 C 103.695312 121.996094 103.058594 121.765625 102.429688 121.503906 C 101.804688 121.246094 101.191406 120.953125 100.589844 120.632812 C 99.992188 120.3125 99.410156 119.964844 98.847656 119.585938 C 98.28125 119.207031 97.738281 118.804688 97.210938 118.371094 C 96.6875 117.941406 96.183594 117.484375 95.707031 117.003906 C 95.226562 116.523438 94.769531 116.019531 94.339844 115.492188 C 93.910156 114.96875 93.503906 114.421875 93.128906 113.855469 C 92.75 113.289062 92.402344 112.707031 92.082031 112.109375 C 91.761719 111.507812 91.472656 110.894531 91.210938 110.265625 C 90.953125 109.636719 90.722656 108.996094 90.527344 108.347656 C 90.328125 107.695312 90.164062 107.035156 90.03125 106.371094 C 89.898438 105.703125 89.800781 105.03125 89.734375 104.355469 C 89.667969 103.675781 89.632812 103 89.632812 102.316406 L 89.632812 47.691406 C 89.632812 47.011719 89.667969 46.332031 89.734375 45.65625 C 89.800781 44.976562 89.898438 44.304688 90.03125 43.636719 C 90.164062 42.972656 90.328125 42.3125 90.527344 41.660156 C 90.722656 41.011719 90.953125 40.371094 91.210938 39.742188 C 91.472656 39.113281 91.761719 38.5 92.082031 37.898438 C 92.402344 37.300781 92.75 36.71875 93.128906 36.152344 C 93.503906 35.585938 93.910156 35.039062 94.339844 34.515625 C 94.769531 33.988281 95.226562 33.484375 95.707031 33.003906 C 96.183594 32.523438 96.6875 32.066406 97.210938 31.636719 C 97.738281 31.203125 98.28125 30.800781 98.847656 30.421875 C 99.410156 30.042969 99.992188 29.695312 100.589844 29.375 C 101.191406 29.054688 101.804688 28.761719 102.429688 28.503906 C 103.058594 28.242188 103.695312 28.011719 104.34375 27.816406 C 104.996094 27.617188 105.652344 27.453125 106.316406 27.320312 C 106.984375 27.1875 107.65625 27.089844 108.332031 27.023438 C 109.007812 26.957031 109.683594 26.921875 110.363281 26.921875 Z M 110.363281 26.921875 " fill-opacity="1" fill-rule="nonzero"/><path fill="#00e5ff" d="M 58.566406 45.679688 C 59.242188 45.679688 59.921875 45.710938 60.597656 45.777344 C 61.273438 45.84375 61.941406 45.945312 62.609375 46.078125 C 63.273438 46.210938 63.933594 46.375 64.582031 46.574219 C 65.230469 46.769531 65.871094 47 66.496094 47.257812 C 67.125 47.519531 67.738281 47.808594 68.335938 48.128906 C 68.933594 48.449219 69.515625 48.800781 70.082031 49.179688 C 70.644531 49.554688 71.1875 49.960938 71.714844 50.390625 C 72.238281 50.824219 72.742188 51.28125 73.222656 51.761719 C 73.703125 52.242188 74.15625 52.746094 74.585938 53.269531 C 75.019531 53.796875 75.421875 54.34375 75.800781 54.90625 C 76.175781 55.472656 76.523438 56.054688 76.84375 56.65625 C 77.164062 57.257812 77.453125 57.871094 77.714844 58.5 C 77.972656 59.128906 78.203125 59.765625 78.398438 60.417969 C 78.597656 61.070312 78.761719 61.726562 78.894531 62.394531 C 79.027344 63.0625 79.125 63.734375 79.191406 64.410156 C 79.257812 65.085938 79.292969 65.765625 79.292969 66.445312 L 79.292969 83.554688 C 79.292969 84.234375 79.257812 84.914062 79.191406 85.589844 C 79.125 86.269531 79.027344 86.941406 78.894531 87.609375 C 78.761719 88.273438 78.597656 88.933594 78.398438 89.585938 C 78.203125 90.234375 77.972656 90.875 77.714844 91.503906 C 77.453125 92.132812 77.164062 92.746094 76.84375 93.347656 C 76.523438 93.945312 76.175781 94.527344 75.800781 95.09375 C 75.421875 95.660156 75.019531 96.207031 74.585938 96.730469 C 74.15625 97.257812 73.703125 97.761719 73.222656 98.242188 C 72.742188 98.722656 72.238281 99.179688 71.714844 99.609375 C 71.1875 100.042969 70.644531 100.445312 70.082031 100.824219 C 69.515625 101.203125 68.933594 101.550781 68.335938 101.871094 C 67.738281 102.191406 67.125 102.484375 66.496094 102.742188 C 65.871094 103.003906 65.230469 103.234375 64.582031 103.429688 C 63.933594 103.628906 63.273438 103.792969 62.609375 103.925781 C 61.941406 104.058594 61.273438 104.15625 60.597656 104.222656 C 59.921875 104.289062 59.242188 104.324219 58.566406 104.324219 C 57.886719 104.324219 57.207031 104.289062 56.53125 104.222656 C 55.859375 104.15625 55.1875 104.058594 54.519531 103.925781 C 53.855469 103.792969 53.199219 103.628906 52.546875 103.429688 C 51.898438 103.234375 51.257812 103.003906 50.632812 102.742188 C 50.003906 102.484375 49.390625 102.191406 48.792969 101.871094 C 48.195312 101.550781 47.613281 101.203125 47.050781 100.824219 C 46.484375 100.445312 45.941406 100.042969 45.414062 99.609375 C 44.890625 99.179688 44.386719 98.722656 43.90625 98.242188 C 43.429688 97.761719 42.972656 97.257812 42.542969 96.730469 C 42.113281 96.207031 41.707031 95.660156 41.332031 95.09375 C 40.953125 94.527344 40.605469 93.945312 40.285156 93.347656 C 39.964844 92.746094 39.675781 92.132812 39.414062 91.503906 C 39.15625 90.875 38.925781 90.234375 38.730469 89.585938 C 38.53125 88.933594 38.367188 88.273438 38.234375 87.609375 C 38.101562 86.941406 38.003906 86.269531 37.9375 85.589844 C 37.871094 84.914062 37.835938 84.234375 37.835938 83.554688 L 37.835938 66.445312 C 37.835938 65.765625 37.871094 65.085938 37.9375 64.410156 C 38.003906 63.734375 38.101562 63.0625 38.234375 62.394531 C 38.367188 61.726562 38.53125 61.070312 38.730469 60.417969 C 38.925781 59.765625 39.15625 59.128906 39.414062 58.5 C 39.675781 57.871094 39.964844 57.257812 40.285156 56.65625 C 40.605469 56.054688 40.953125 55.472656 41.332031 54.90625 C 41.707031 54.34375 42.113281 53.796875 42.542969 53.269531 C 42.972656 52.746094 43.429688 52.242188 43.90625 51.761719 C 44.386719 51.28125 44.890625 50.824219 45.414062 50.390625 C 45.941406 49.960938 46.484375 49.554688 47.050781 49.179688 C 47.613281 48.800781 48.195312 48.449219 48.792969 48.128906 C 49.390625 47.808594 50.003906 47.519531 50.632812 47.257812 C 51.257812 47 51.898438 46.769531 52.546875 46.574219 C 53.199219 46.375 53.855469 46.210938 54.519531 46.078125 C 55.1875 45.945312 55.859375 45.84375 56.53125 45.777344 C 57.207031 45.710938 57.886719 45.679688 58.566406 45.679688 Z M 58.566406 45.679688 " fill-opacity="1" fill-rule="nonzero"/><path fill="#ffffff" d="M 213.019531 82.234375 L 195.691406 58.335938 L 195.691406 82.234375 L 178.261719 82.234375 L 178.261719 6.664062 L 195.691406 6.664062 L 195.691406 48.433594 L 212.914062 25.238281 L 234.421875 25.238281 L 210.777344 53.832031 L 234.625 82.222656 Z M 294.859375 52.820312 C 294.855469 54.53125 294.753906 56.230469 294.550781 57.929688 L 255.109375 57.929688 C 255.140625 59.449219 255.449219 60.914062 256.039062 62.316406 C 256.628906 63.71875 257.457031 64.960938 258.527344 66.046875 C 259.527344 66.984375 260.664062 67.695312 261.945312 68.179688 C 263.222656 68.667969 264.546875 68.890625 265.917969 68.855469 C 266.863281 68.925781 267.800781 68.847656 268.722656 68.625 C 269.648438 68.402344 270.515625 68.042969 271.328125 67.550781 C 272.140625 67.058594 272.859375 66.453125 273.484375 65.734375 C 274.109375 65.015625 274.609375 64.222656 274.988281 63.347656 L 293.535156 63.347656 C 292.589844 67.109375 290.871094 70.480469 288.390625 73.457031 C 285.824219 76.53125 282.71875 78.878906 279.0625 80.503906 C 275.070312 82.269531 270.890625 83.121094 266.527344 83.058594 C 263.9375 83.105469 261.378906 82.824219 258.859375 82.21875 C 256.339844 81.613281 253.9375 80.703125 251.648438 79.480469 C 249.492188 78.308594 247.546875 76.855469 245.8125 75.117188 C 244.078125 73.378906 242.625 71.429688 241.457031 69.269531 C 240.191406 66.882812 239.246094 64.375 238.625 61.746094 C 238 59.117188 237.722656 56.453125 237.785156 53.75 C 237.722656 51.050781 237.996094 48.386719 238.609375 45.757812 C 239.222656 43.128906 240.152344 40.617188 241.402344 38.226562 C 242.554688 36.066406 243.992188 34.117188 245.71875 32.378906 C 247.441406 30.640625 249.378906 29.183594 251.527344 28.015625 C 253.835938 26.792969 256.253906 25.875 258.792969 25.269531 C 261.332031 24.664062 263.902344 24.386719 266.511719 24.441406 C 269.066406 24.394531 271.585938 24.664062 274.070312 25.253906 C 276.554688 25.84375 278.929688 26.730469 281.1875 27.917969 C 283.304688 29.046875 285.21875 30.453125 286.929688 32.132812 C 288.636719 33.816406 290.078125 35.707031 291.242188 37.804688 C 292.488281 40.105469 293.417969 42.53125 294.03125 45.074219 C 294.644531 47.621094 294.917969 50.203125 294.859375 52.820312 Z M 277.019531 48.242188 C 277.078125 46.878906 276.839844 45.570312 276.300781 44.316406 C 275.765625 43.0625 274.984375 41.988281 273.960938 41.089844 C 272.894531 40.1875 271.703125 39.507812 270.382812 39.050781 C 269.066406 38.59375 267.710938 38.386719 266.316406 38.433594 C 264.96875 38.394531 263.660156 38.59375 262.386719 39.035156 C 261.113281 39.476562 259.960938 40.125 258.925781 40.988281 C 257.878906 41.925781 257.035156 43.015625 256.390625 44.265625 C 255.75 45.515625 255.355469 46.839844 255.203125 48.238281 Z M 362.125 25.261719 L 326.457031 109.296875 L 307.691406 109.296875 L 320.738281 80.304688 L 297.589844 25.261719 L 317.054688 25.261719 L 330.203125 60.898438 L 343.285156 25.25 Z M 362.125 25.261719 " fill-opacity="1" fill-rule="nonzero"/><g clip-path="url(#a303e96aff)"><path fill="#00e5ff" d="M 195.496094 137.5625 L 185.367188 137.5625 L 183.699219 142.414062 L 178.351562 142.414062 L 187.484375 116.917969 L 193.417969 116.917969 L 202.554688 142.414062 L 197.167969 142.414062 Z M 194.113281 133.476562 L 190.445312 122.828125 L 186.757812 133.476562 Z M 219.375 116.953125 L 219.375 132.710938 C 219.324219 133.4375 219.414062 134.140625 219.648438 134.828125 C 219.882812 135.511719 220.238281 136.128906 220.71875 136.671875 C 221.230469 137.148438 221.8125 137.507812 222.472656 137.746094 C 223.128906 137.984375 223.804688 138.082031 224.503906 138.039062 C 225.207031 138.082031 225.890625 137.988281 226.554688 137.75 C 227.222656 137.511719 227.8125 137.152344 228.328125 136.671875 C 228.808594 136.128906 229.164062 135.511719 229.398438 134.828125 C 229.632812 134.140625 229.726562 133.4375 229.675781 132.710938 L 229.675781 116.957031 L 234.804688 116.957031 L 234.804688 132.675781 C 234.871094 134.644531 234.402344 136.472656 233.40625 138.167969 C 232.484375 139.664062 231.230469 140.789062 229.644531 141.542969 C 227.988281 142.320312 226.25 142.695312 224.421875 142.671875 C 222.617188 142.699219 220.898438 142.320312 219.269531 141.542969 C 217.714844 140.785156 216.5 139.660156 215.621094 138.167969 C 214.660156 136.460938 214.210938 134.632812 214.273438 132.675781 L 214.273438 116.957031 Z M 265.382812 116.953125 L 265.382812 121.070312 L 258.613281 121.070312 L 258.613281 142.40625 L 253.527344 142.40625 L 253.527344 121.070312 L 246.757812 121.070312 L 246.757812 116.953125 Z M 289.261719 142.664062 C 286.929688 142.683594 284.746094 142.125 282.710938 140.984375 C 280.710938 139.871094 279.132812 138.324219 277.980469 136.34375 C 276.78125 134.261719 276.203125 132.019531 276.242188 129.617188 C 276.207031 127.222656 276.785156 124.992188 277.980469 122.925781 C 279.132812 120.945312 280.710938 119.398438 282.710938 118.285156 C 284.746094 117.144531 286.929688 116.585938 289.261719 116.605469 C 291.601562 116.578125 293.792969 117.140625 295.835938 118.285156 C 297.824219 119.398438 299.390625 120.945312 300.53125 122.925781 C 301.722656 124.996094 302.300781 127.226562 302.265625 129.617188 C 302.304688 132.019531 301.726562 134.261719 300.53125 136.34375 C 299.386719 138.328125 297.816406 139.875 295.816406 140.984375 C 293.78125 142.128906 291.597656 142.691406 289.261719 142.667969 Z M 289.261719 138.105469 C 290.710938 138.136719 292.058594 137.789062 293.3125 137.0625 C 294.515625 136.34375 295.425781 135.351562 296.042969 134.09375 C 296.730469 132.675781 297.058594 131.183594 297.027344 129.605469 C 297.0625 128.039062 296.734375 126.546875 296.042969 125.140625 C 295.425781 123.886719 294.515625 122.910156 293.3125 122.203125 C 292.058594 121.488281 290.707031 121.148438 289.261719 121.179688 C 287.820312 121.152344 286.46875 121.496094 285.210938 122.203125 C 284 122.90625 283.085938 123.882812 282.460938 125.140625 C 281.773438 126.546875 281.445312 128.039062 281.480469 129.605469 C 281.445312 131.183594 281.773438 132.675781 282.460938 134.09375 C 283.085938 135.355469 284 136.347656 285.210938 137.0625 C 286.464844 137.785156 287.816406 138.136719 289.261719 138.109375 Z M 342.117188 116.941406 L 342.117188 142.394531 L 337.019531 142.394531 L 337.019531 125.839844 L 330.210938 142.414062 L 326.355469 142.414062 L 319.503906 125.855469 L 319.503906 142.414062 L 314.414062 142.414062 L 314.414062 116.957031 L 320.203125 116.957031 L 328.285156 135.886719 L 336.367188 116.957031 Z M 371.089844 137.5625 L 360.960938 137.5625 L 359.285156 142.414062 L 353.941406 142.414062 L 363.074219 116.917969 L 369.007812 116.917969 L 378.144531 142.414062 L 372.765625 142.414062 Z M 369.707031 133.476562 L 366.03125 122.828125 L 362.355469 133.476562 Z M 407.234375 116.953125 L 407.234375 121.070312 L 400.460938 121.070312 L 400.460938 142.40625 L 395.371094 142.40625 L 395.371094 121.070312 L 388.597656 121.070312 L 388.597656 116.953125 Z M 424.414062 121.070312 L 424.414062 127.449219 L 432.96875 127.449219 L 432.96875 131.507812 L 424.417969 131.507812 L 424.417969 138.257812 L 434.0625 138.257812 L 434.0625 142.414062 L 419.320312 142.414062 L 419.320312 116.917969 L 434.0625 116.917969 L 434.0625 121.078125 Z M 424.414062 121.070312 " fill-opacity="1" fill-rule="nonzero"/></g></svg>