<svg width="131" height="46" viewBox="0 0 131 46" fill="none" xmlns="http://www.w3.org/2000/svg">
<g clip-path="url(#clip0_100_102)">
<mask id="mask0_100_102" style="mask-type:luminance" maskUnits="userSpaceOnUse" x="0" y="0" width="131" height="47">
<path d="M130.836 0H0V46.0078H130.836V0Z" fill="white"/>
</mask>
<g mask="url(#mask0_100_102)">
<mask id="mask1_100_102" style="mask-type:luminance" maskUnits="userSpaceOnUse" x="0" y="0" width="131" height="47">
<path d="M130.836 0H0V46.0078H130.836V0Z" fill="white"/>
</mask>
<g mask="url(#mask1_100_102)">
<path d="M52.1455 37.1101L55.3943 45.8625H53.6378L53.0788 44.284H49.4953L48.9361 45.8625H47.1796L50.4198 37.1101H52.1455ZM52.5372 42.7331L51.2913 39.2192L50.0455 42.7331H52.5372Z" fill="#0066FF"/>
<path d="M59.0707 42.6096V37.1101H60.6952V42.6096C60.6952 43.9774 61.5009 44.3985 62.2494 44.3985C62.9978 44.3985 63.8033 43.9774 63.8033 42.6096V37.1101H65.4277V42.6096C65.4277 44.8055 64.0146 45.9861 62.2494 45.9861C60.4841 45.9861 59.0707 44.801 59.0707 42.6096Z" fill="#0066FF"/>
<path d="M72.0003 38.6655H69.9709V37.1101H75.654V38.6655H73.6249V45.8671H72.0003V38.6655Z" fill="#0066FF"/>
<path d="M79.3845 41.4885C79.3845 38.8029 81.3655 36.991 83.7163 36.991C86.067 36.991 88.0574 38.8029 88.0574 41.4885C88.0574 44.1741 86.0633 45.9905 83.7163 45.9905C81.3699 45.9905 79.3845 44.1786 79.3845 41.4885ZM83.7163 44.3847C85.1653 44.3847 86.3843 43.25 86.3843 41.4885C86.3843 39.727 85.1602 38.5922 83.7163 38.5922C82.2723 38.5922 81.0489 39.727 81.0489 41.4885C81.0489 43.25 82.2811 44.3847 83.7163 44.3847Z" fill="#0066FF"/>
<path d="M91.7713 37.1101H93.5631L96.3141 43.7076L99.0658 37.1101H100.858V45.8625H99.2332V40.363H99.1757L96.9087 45.8625H95.7115L93.4576 40.363H93.4001V45.8625H91.7757V37.1101H91.7713Z" fill="#0066FF"/>
<path d="M109.619 37.1101L112.868 45.8625H111.111L110.552 44.284H106.969L106.41 45.8625H104.653L107.893 37.1101H109.619ZM110.011 42.7331L108.765 39.2192L107.519 42.7331H110.011Z" fill="#0066FF"/>
<path d="M118.078 38.6655H116.049V37.1101H121.732V38.6655H119.703V45.8671H118.078V38.6655Z" fill="#0066FF"/>
<path d="M125.962 37.1101H130.73V38.6655H127.587V40.7018H130.233V42.2298H127.587V44.3114H130.836V45.8671H125.958V37.1146L125.962 37.1101Z" fill="#0066FF"/>
<path d="M33.3177 4.29736H6.7691C3.03061 4.29736 0 7.45034 0 11.3398V38.9602C0 42.8495 3.03061 46.0027 6.7691 46.0027H33.3177C37.0562 46.0027 40.0867 42.8495 40.0867 38.9602V11.3398C40.0867 7.45034 37.0562 4.29736 33.3177 4.29736Z" fill="#0066FF"/>
<path d="M27.6252 10.606H27.5388C24.2321 10.606 21.5513 13.3949 21.5513 16.8353V33.4276C21.5513 36.8679 24.2321 39.6571 27.5388 39.6571H27.6252C30.9322 39.6571 33.6129 36.8679 33.6129 33.4276V16.8353C33.6129 13.3949 30.9322 10.606 27.6252 10.606Z" fill="white"/>
<path d="M12.5538 16.2705H12.4676C9.1607 16.2705 6.47992 19.0595 6.47992 22.4998V27.758C6.47992 31.1983 9.1607 33.9874 12.4676 33.9874H12.5538C15.8607 33.9874 18.5415 31.1983 18.5415 27.758V22.4998C18.5415 19.0595 15.8607 16.2705 12.5538 16.2705Z" fill="#00E1FF"/>
<mask id="mask2_100_102" style="mask-type:luminance" maskUnits="userSpaceOnUse" x="87" y="6" width="26" height="26">
<path d="M112.549 6.07593H87.1958V31.8989H112.549V6.07593Z" fill="white"/>
</mask>
<g mask="url(#mask2_100_102)">
<path d="M111.407 5.26229C111.337 5.15424 111.242 5.0656 111.137 5.00714C111.028 4.94656 110.905 4.91603 110.79 4.91727H105.127C104.974 4.91727 104.828 4.96611 104.709 5.05436C104.582 5.14634 104.485 5.27626 104.43 5.43029L100.682 16.0116L97.0499 5.43003C96.9953 5.27725 96.9 5.14783 96.7755 5.05697C96.6504 4.96563 96.5048 4.91727 96.3534 4.91727H90.4381C90.3151 4.91677 90.1957 4.94583 90.0814 5.00838C89.9716 5.07009 89.8777 5.16069 89.8151 5.26095C89.743 5.37244 89.6986 5.50274 89.687 5.63735C89.6753 5.76727 89.6943 5.8993 89.7423 6.02155L97.0346 24.373L93.085 33.7104C93.0311 33.835 93.0078 33.9725 93.0173 34.0959C93.0253 34.2276 93.0646 34.3568 93.1316 34.4704C93.1985 34.5837 93.2924 34.6773 93.4008 34.7404C93.5086 34.8042 93.6308 34.8383 93.7596 34.8395H99.4545C99.6008 34.8395 99.7427 34.7941 99.8591 34.7117C99.9865 34.6242 100.084 34.4993 100.14 34.3562L111.477 6.02429C111.528 5.89869 111.547 5.76087 111.533 5.63763C111.523 5.50634 111.48 5.37885 111.407 5.26229Z" fill="white"/>
</g>
<path d="M47.082 0H53.7655V14.632L59.6387 7.57636H67.5599L59.8327 16.4296L68.3753 28.3125H61.0705L55.7362 21.1768L53.7655 23.4502V28.3125H47.082V0Z" fill="white"/>
<path d="M67.6706 17.2069C67.6706 9.81069 72.9779 5.81421 78.4057 5.81421C83.8342 5.81421 90.1054 9.64174 88.6564 19.9786H74.4619C75.3054 21.7419 77.1132 22.6288 79.5272 22.6288C81.2135 22.6288 82.7432 22.291 84.2687 21.1981L87.3231 24.6033C85.6369 26.8311 82.6981 28.5101 78.7594 28.5101C72.892 28.5101 67.6656 24.3921 67.6656 17.2016L67.6706 17.2069ZM82.5467 14.8524C82.062 12.7934 80.2542 11.8695 78.4865 11.8695C76.7194 11.8695 74.9473 12.7934 74.2253 14.8524H82.5467Z" fill="white"/>
</g>
</g>
</g>
<defs>
<clipPath id="clip0_100_102">
<rect width="131" height="46" fill="white"/>
</clipPath>
</defs>
</svg>
