<svg width="118" height="118" viewBox="0 0 118 118" fill="none" xmlns="http://www.w3.org/2000/svg">
<path d="M112.616 55.9021L109.924 54.1689L64.9738 83.0421C63.1669 84.1852 61.1019 84.8121 59 84.8121C56.8981 84.8121 54.8331 84.2221 53.0263 83.0789L8.07563 54.1689L5.38375 55.9021C4.31438 56.5658 3.6875 57.7458 3.6875 58.9996C3.6875 60.2533 4.31438 61.4333 5.38375 62.0971L57.0088 95.2846C57.6356 95.6902 58.2994 95.8746 59 95.8746C59.7006 95.8746 60.4013 95.6902 60.9913 95.2846L112.616 62.0971C113.686 61.4333 114.312 60.2533 114.312 58.9996C114.312 57.7458 113.686 56.5658 112.616 55.9021Z" fill="#FF6600"/>
<path d="M112.616 74.3396L109.924 72.6064L64.9738 101.48C63.1669 102.623 61.1019 103.25 59 103.25C56.8981 103.25 54.8331 102.66 53.0263 101.516L8.07563 72.6064L5.38375 74.3396C4.31438 75.0033 3.6875 76.1833 3.6875 77.4371C3.6875 78.6908 4.31438 79.8708 5.38375 80.5346L57.0088 113.722C57.6356 114.128 58.2994 114.312 59 114.312C59.7006 114.312 60.4013 114.128 60.9913 113.722L112.616 80.5346C113.686 79.8708 114.312 78.6908 114.312 77.4371C114.312 76.1833 113.686 75.0033 112.616 74.3396Z" fill="#FF6600"/>
<path d="M5.38375 43.6596L57.0088 76.8471C57.6356 77.2527 58.2994 77.4371 59 77.4371C59.7006 77.4371 60.4013 77.2527 60.9913 76.8471L112.616 43.6596C113.686 42.9958 114.312 41.8158 114.312 40.5621C114.312 39.3083 113.686 38.1283 112.616 37.4646L60.9913 4.27707C59.7744 3.5027 58.2256 3.5027 57.0088 4.27707L5.38375 37.4646C4.31438 38.1283 3.6875 39.3083 3.6875 40.5621C3.6875 41.8158 4.31438 42.9958 5.38375 43.6596ZM71.2425 35.6208C69.8412 34.1458 69.8781 31.8227 71.3163 30.4214C72.7913 29.0202 75.1144 29.0571 76.5156 30.4952L83.7431 37.9808C85.1444 39.4189 85.1444 41.6683 83.7431 43.1064L76.5156 50.5921C75.7781 51.3296 74.8194 51.6983 73.8606 51.6983C72.9019 51.6983 72.0169 51.3664 71.2794 50.6658C69.8044 49.2646 69.7675 46.9046 71.2056 45.4664L75.9625 40.5252L71.2056 35.5839L71.2425 35.6208ZM52.51 51.6614L58.2994 27.6927C58.7788 25.7014 60.77 24.4846 62.7613 24.9639C64.7525 25.4433 65.9694 27.4346 65.49 29.4258L59.7006 53.3946C59.295 55.0908 57.7831 56.1971 56.1238 56.1971C55.8288 56.1971 55.5337 56.1971 55.2387 56.0864C53.2475 55.6071 52.0306 53.6158 52.51 51.6246V51.6614ZM34.22 37.9808L41.4475 30.4952C42.8487 29.0202 45.2087 28.9833 46.6469 30.4214C48.1219 31.8227 48.1588 34.1827 46.7206 35.6208L41.9638 40.5621L46.7206 45.5033C48.1219 46.9783 48.085 49.3014 46.6469 50.7027C45.9462 51.4033 44.9875 51.7352 44.0656 51.7352C43.1437 51.7352 42.1481 51.3664 41.4106 50.6289L34.1831 43.1433C32.7819 41.7052 32.7819 39.4558 34.1831 38.0177L34.22 37.9808Z" fill="#FF6600"/>
</svg>
