<svg width="24" height="24" viewBox="0 0 24 24" fill="none" xmlns="http://www.w3.org/2000/svg">
<path d="M5.93803 23.916H1.15288V8.4668H5.93803V23.916ZM6.41548 3.54466C6.41548 1.99776 5.16045 0.742188 3.61435 0.742188C2.06238 0.742188 0.810547 1.99776 0.810547 3.54466C0.810547 5.09209 2.06238 6.34766 3.61435 6.34766C5.16045 6.34766 6.41548 5.09209 6.41548 3.54466ZM23.8477 15.4165C23.8477 11.2693 22.9715 8.19336 18.1268 8.19336C15.7989 8.19336 14.2362 9.3576 13.5983 10.5683H13.5938V8.4668H8.94531V23.916H13.5938V16.2453C13.5938 14.2365 14.1051 12.2904 16.5952 12.2904C19.0513 12.2904 19.1309 14.5876 19.1309 16.373V23.916H23.8477V15.4165Z" fill="white"/>
</svg>
