<svg width="37" height="37" viewBox="0 0 37 37" fill="none" xmlns="http://www.w3.org/2000/svg">
<g clip-path="url(#clip0_1_134)">
<path d="M18.2188 0C14.6154 0 11.093 1.06851 8.09697 3.07042C5.10091 5.07232 2.76577 7.91771 1.38683 11.2468C0.00789386 14.5758 -0.352899 18.239 0.350077 21.7731C1.05305 25.3072 2.78822 28.5535 5.33616 31.1014C7.8841 33.6493 11.1304 35.3845 14.6645 36.0875C18.1986 36.7905 21.8618 36.4297 25.1908 35.0507C28.5198 33.6718 31.3652 31.3366 33.3671 28.3406C35.369 25.3445 36.4376 21.8221 36.4376 18.2188C36.4376 13.3869 34.5181 8.75284 31.1014 5.33616C27.6847 1.91947 23.0507 0 18.2188 0ZM12.921 27.8076H8.94638V15.0041H12.921V27.8076ZM10.9313 13.2566C10.4739 13.2584 10.0261 13.1247 9.64472 12.8722C9.26331 12.6197 8.96532 12.2598 8.78841 11.8379C8.61151 11.4161 8.56363 10.9513 8.65084 10.5022C8.73805 10.0532 8.95642 9.64011 9.27836 9.31516C9.60029 8.99021 10.0113 8.76799 10.4595 8.6766C10.9077 8.58522 11.373 8.62876 11.7964 8.80172C12.2199 8.97469 12.5826 9.26931 12.8386 9.64836C13.0947 10.0274 13.2326 10.4738 13.235 10.9313C13.2363 11.5446 12.9947 12.1336 12.563 12.5693C12.1313 13.005 11.5446 13.2521 10.9313 13.2566ZM27.8076 27.8076H23.8354V21.5749C23.8354 20.0886 23.8067 18.1828 21.769 18.1828C19.7314 18.1828 19.3718 19.7985 19.3718 21.467V27.8076H15.414V15.0041H19.228V16.7493H19.2831C19.8129 15.7425 21.1098 14.6805 23.0444 14.6805C27.0669 14.6805 27.8076 17.3318 27.8076 20.7742V27.8076Z" fill="white"/>
</g>
<defs>
<clipPath id="clip0_1_134">
<rect width="36.4375" height="36.4375" fill="white"/>
</clipPath>
</defs>
</svg>
