<svg width="27" height="27" viewBox="0 0 27 27" fill="none" xmlns="http://www.w3.org/2000/svg">
<path fill-rule="evenodd" clip-rule="evenodd" d="M13.5 1.6875C18.7779 1.6875 23.0625 5.97206 23.0625 11.25C23.0625 13.9984 21.6911 16.8272 19.9693 19.2026C17.5652 22.5203 14.5586 24.939 14.5586 24.939V24.9396C13.9404 25.4368 13.0596 25.4368 12.4414 24.9396V24.939C12.4414 24.939 9.43481 22.5203 7.03068 19.2026C5.30887 16.8272 3.9375 13.9984 3.9375 11.25C3.9375 5.97206 8.22206 1.6875 13.5 1.6875ZM13.5 7.3125C15.6729 7.3125 17.4375 9.07706 17.4375 11.25C17.4375 13.4229 15.6729 15.1875 13.5 15.1875C11.3271 15.1875 9.5625 13.4229 9.5625 11.25C9.5625 9.07706 11.3271 7.3125 13.5 7.3125Z" fill="white"/>
</svg>
