<?xml version="1.0" standalone="no"?>
<!DOCTYPE svg PUBLIC "-//W3C//DTD SVG 1.1//EN" "http://www.w3.org/Graphics/SVG/1.1/DTD/svg11.dtd">
<svg xmlns="http://www.w3.org/2000/svg" id="Layer_2" data-name="Layer 2" viewBox="0 0 987.38 89.35" width="987.3800048828125" height="89.3499984741211">
  <defs>
    <style>
      .cls-1 {
        fill: #fff;
      }

      .cls-2 {
        fill: #f15a23;
      }
    </style>
  </defs>
  <g id="Layer_1-2" data-name="Layer 1">
    <path id="Path_4777" data-name="Path 4777" class="cls-1" d="m394.4.57c24.13.48,43.55,19.97,43.95,44.11-.24,25.32-21.64,44.15-43.26,44.3-24.81.28-45.15-19.6-45.43-44.41,0-.13,0-.26,0-.38.68-24.24,20.49-43.56,44.74-43.62m-.08,73.69c16.16-.3,29.16-13.38,29.35-29.54-.05-16.42-13.39-29.7-29.82-29.65-16.42.05-29.7,13.39-29.65,29.82h0c.45,16.32,13.79,29.34,30.12,29.38"/>
    <path id="Path_4780" data-name="Path 4780" class="cls-1" d="m331.45,11.82l-11.68,9.02c-3.22-3.76-7.95-5.87-12.9-5.76-2.99-.31-6.01.01-8.88.93-6.54,2.34-8.11,6.74-6.73,12.93.39,1.95,1.68,3.59,3.49,4.43,1.91.88,3.9,1.57,5.95,2.07,2.91.68,5.9.95,8.83,1.62,2.75.59,5.45,1.38,8.09,2.34,13.71,5.22,16.85,19.66,13.96,29.48-2.01,8.03-7.88,14.52-15.66,17.33-11.56,4.28-22.81,3.87-33.32-3.12-2.2-1.65-4.31-3.41-6.32-5.29l11.74-9.11c.6.51,1.1.97,1.64,1.39,5.45,4.3,12.72,5.5,19.27,3.19,5.79-1.71,9.17-7.71,7.66-13.55-.52-2.74-2.34-5.06-4.88-6.23-2.9-1.24-5.89-2.27-8.94-3.08-2.53-.72-5.25-.85-7.72-1.73-3.42-1.12-6.72-2.59-9.84-4.39-7.85-5.09-11.62-14.58-9.42-23.68,1.97-8.83,8.67-15.84,17.39-18.2,8.42-2.88,17.58-2.72,25.9.45,4.74,2.02,8.97,5.08,12.38,8.95"/>
    <path id="Path_4782" data-name="Path 4782" class="cls-1" d="m198.74,66.3l11,9.49c-16.37,17.07-43.48,17.65-60.55,1.28-.15-.14-.29-.28-.44-.42-19.14-18.08-19.08-44.51-1.31-62.67,19.12-19.52,45.34-16.97,62.05-.84l-9.56,9.61-1.95-1.29c-4.33-3.12-9.29-5.25-14.54-6.22-16.07-2.67-31.26,8.19-33.93,24.26-.31,1.89-.44,3.81-.38,5.73-.04,13.74,9.59,25.61,23.04,28.4,8.87,2.22,18.27-.07,25.13-6.11.4-.34.8-.68,1.44-1.22"/>
    <g>
      <rect class="cls-1" x="928.14" y="74.76" width="59.24" height="14.22"/>
      <rect class="cls-1" x="928.14" y=".3" width="59.24" height="14.22"/>
      <rect class="cls-1" x="928.14" y="37.53" width="52.77" height="14.22"/>
    </g>
    <g>
      <rect id="Rectangle_4044" data-name="Rectangle 4044" class="cls-1" x="459.35" y=".18" width="59.03" height="14.4"/>
      <polygon class="cls-1" points="459.37 35.12 459.37 88.98 474.17 88.98 474.17 49.56 513.59 49.56 513.59 35.12 459.37 35.12"/>
    </g>
    <path class="cls-1" d="m104.68,24c.09,1.4.08,3.81-.03,5.22-.28,5.07-4.35,9.1-9.42,9.33-.79.06-1.59.04-2.38.04l-40.49.05v14.55l30.77-.04c1.31-.17,2.58.55,3.1,1.77l19.14,34.44h16.16l-20.1-35.99c.92-.38,1.63-.69,2.35-.98,7.88-3.07,13.59-10.04,15.05-18.38.97-4.49.98-10.13.02-14.63-1.25-7.92-6.66-14.04-14.16-16.88-4.03-1.57-8.33-2.36-12.65-2.31h-39.68s0,14.62,0,14.62l42.37.13c5.39-.1,9.84,3.67,9.94,9.05Z"/>
    <path class="cls-1" d="m890.85,23.81c.09,1.4.08,3.81-.03,5.22-.28,5.07-4.35,9.1-9.42,9.33-.79.06-1.59.04-2.38.04l-40.49.05v14.55l30.77-.04c1.31-.17,2.58.55,3.1,1.77l19.14,34.44h16.16l-20.1-35.99c.92-.38,1.63-.69,2.35-.98,7.88-3.07,13.59-10.04,15.05-18.38.97-4.49.98-10.13.02-14.63-1.25-7.92-6.66-14.04-14.16-16.88-4.03-1.57-8.33-2.36-12.65-2.31h-39.68s0,14.62,0,14.62l42.37.13c5.39-.1,9.84,3.67,9.94,9.05Z"/>
    <polygon class="cls-1" points="562.67 88.98 577.47 88.98 577.47 14.85 601.8 14.71 601.8 .33 538.33 .33 538.33 14.85 562.67 14.85 562.67 88.98"/>
    <path class="cls-1" d="m705.5,54.57c-8.53-17.85-17.05-35.36-25.44-52.9-.43-.91-1.35-1.48-2.35-1.48h-15.97s43.77,88.8,43.77,88.8L750.15.18h-15.97c-1.01,0-1.94.57-2.38,1.48l-26.29,52.91Z"/>
    <path class="cls-2" d="m784.96,34.86c8.53,17.85,17.05,35.36,25.44,52.9.43.91,1.35,1.48,2.35,1.48h15.97S784.96.45,784.96.45l-44.65,88.8h15.97c1.01,0,1.94-.57,2.38-1.48l26.29-52.91Z"/>
    <path class="cls-1" d="m638.9.18h-16.09c5.31,11.44,44.21,86.67,45.94,88.8h.01c2.37-4.77,4.67-9.55,7.12-14.25.84-1.46.83-3.27-.04-4.71L641.23,1.62c-.44-.88-1.35-1.43-2.33-1.43Z"/>
    <path class="cls-1" d="m18.29.18l-.02,37.87c-.04,7.11-.13,14.23-.43,21.34-.4,8.29-7.03,14.93-15.33,15.33-.85.04-1.2.04-2.51,0v14.25c3.84.01,7.67-.49,11.38-1.49,8.78-1.96,15.92-8.34,18.85-16.84,1.94-5.29,2.91-10.89,2.85-16.53.06-16.8.02-37.04.02-53.94h-14.8Z"/>
  </g>
</svg>