<svg width="43" height="43" viewBox="0 0 43 43" fill="none" xmlns="http://www.w3.org/2000/svg">
<path d="M30.5202 31.5781C30.432 31.5781 30.3446 31.5955 30.2631 31.6292C30.1816 31.663 30.1075 31.7125 30.0451 31.7749C29.9827 31.8373 29.9332 31.9113 29.8995 31.9929C29.8657 32.0744 29.8483 32.1618 29.8484 32.25V37.625C29.8479 37.9813 29.7062 38.3228 29.4543 38.5747C29.2024 38.8266 28.8609 38.9683 28.5046 38.9688H11.1028C10.7465 38.9683 10.405 38.8266 10.1531 38.5747C9.90114 38.3228 9.75944 37.9813 9.75903 37.625V5.375C9.75944 5.01874 9.90114 4.67719 10.1531 4.42527C10.405 4.17336 10.7465 4.03166 11.1028 4.03125H14.6166L15.1353 5.58759C15.1798 5.72136 15.2653 5.83772 15.3797 5.92016C15.4941 6.0026 15.6315 6.04693 15.7724 6.04688H23.8349C23.9759 6.04693 24.1133 6.0026 24.2277 5.92016C24.3421 5.83771 24.4275 5.72136 24.472 5.58759L24.9908 4.03125H28.5046C28.8609 4.03166 29.2024 4.17336 29.4543 4.42527C29.7062 4.67719 29.8479 5.01874 29.8484 5.375V10.75C29.8484 10.9282 29.9191 11.0991 30.0451 11.2251C30.1711 11.3511 30.342 11.4219 30.5202 11.4219C30.6984 11.4219 30.8693 11.3511 30.9953 11.2251C31.1213 11.0991 31.1921 10.9282 31.1921 10.75V5.375C31.1914 4.66246 30.908 3.97933 30.4041 3.47549C29.9003 2.97165 29.2171 2.68826 28.5046 2.6875H11.1028C10.3902 2.68826 9.70711 2.97165 9.20327 3.47549C8.69943 3.97933 8.41604 4.66246 8.41528 5.375V37.625C8.41604 38.3375 8.69943 39.0207 9.20327 39.5245C9.70711 40.0284 10.3902 40.3117 11.1028 40.3125H28.5046C29.2171 40.3117 29.9003 40.0284 30.4041 39.5245C30.908 39.0207 31.1914 38.3375 31.1921 37.625V32.25C31.1921 32.1618 31.1748 32.0744 31.141 31.9929C31.1073 31.9113 31.0578 31.8373 30.9954 31.7749C30.933 31.7125 30.8589 31.663 30.7774 31.6292C30.6958 31.5955 30.6085 31.5781 30.5202 31.5781ZM23.5748 4.03125L23.3507 4.70312H16.2567L16.0326 4.03125H23.5748Z" fill="white"/>
<path d="M17.116 36.2812C16.9378 36.2812 16.7669 36.352 16.6409 36.478C16.5149 36.604 16.4441 36.7749 16.4441 36.9531C16.4441 37.1313 16.5149 37.3022 16.6409 37.4282C16.7669 37.5542 16.9378 37.625 17.116 37.625H22.491C22.6692 37.625 22.8401 37.5542 22.9661 37.4282C23.0921 37.3022 23.1628 37.1313 23.1628 36.9531C23.1628 36.7749 23.0921 36.604 22.9661 36.478C22.8401 36.352 22.6692 36.2812 22.491 36.2812H17.116Z" fill="white"/>
<path d="M25.3707 14.7812C25.3701 14.2469 25.1576 13.7345 24.7797 13.3566C24.4018 12.9788 23.8895 12.7662 23.3551 12.7656H19.1316C18.5972 12.7662 18.0849 12.9788 17.707 13.3566C17.3291 13.7345 17.1166 14.2469 17.116 14.7812V19.0044C17.1166 19.5388 17.3291 20.0512 17.707 20.429C18.0849 20.8069 18.5972 21.0195 19.1316 21.02H23.3551C23.8895 21.0195 24.4018 20.8069 24.7797 20.429C25.1576 20.0512 25.3701 19.5388 25.3707 19.0044V14.7812ZM24.027 19.0044C24.0268 19.1826 23.9559 19.3533 23.83 19.4793C23.704 19.6053 23.5332 19.6761 23.3551 19.6763H19.1316C18.9535 19.6761 18.7827 19.6053 18.6567 19.4793C18.5307 19.3533 18.4599 19.1826 18.4597 19.0044V14.7812C18.4599 14.6031 18.5307 14.4323 18.6567 14.3064C18.7827 14.1804 18.9535 14.1096 19.1316 14.1094H23.3551C23.5332 14.1096 23.704 14.1804 23.83 14.3064C23.9559 14.4323 24.0268 14.6031 24.027 14.7812V19.0044Z" fill="white"/>
<path d="M32.5692 12.7656H28.3457C27.8113 12.7662 27.299 12.9788 26.9211 13.3566C26.5432 13.7345 26.3307 14.2469 26.3301 14.7812V19.0044C26.3307 19.5388 26.5432 20.0512 26.9211 20.429C27.299 20.8069 27.8113 21.0195 28.3457 21.02H32.5692C33.1036 21.0195 33.6159 20.8069 33.9938 20.429C34.3717 20.0512 34.5842 19.5388 34.5848 19.0044V14.7812C34.5842 14.2469 34.3717 13.7345 33.9938 13.3566C33.6159 12.9788 33.1036 12.7662 32.5692 12.7656ZM33.2411 19.0044C33.2409 19.1826 33.17 19.3533 33.0441 19.4793C32.9181 19.6053 32.7473 19.6761 32.5692 19.6763H28.3457C28.1676 19.6761 27.9968 19.6053 27.8708 19.4793C27.7449 19.3533 27.674 19.1826 27.6738 19.0044V14.7812C27.674 14.6031 27.7449 14.4323 27.8708 14.3064C27.9968 14.1804 28.1676 14.1096 28.3457 14.1094H32.5692C32.7473 14.1096 32.9181 14.1804 33.0441 14.3064C33.17 14.4323 33.2409 14.6031 33.2411 14.7812V19.0044Z" fill="white"/>
<path d="M25.3707 28.2188V23.9956C25.3701 23.4612 25.1576 22.9489 24.7797 22.571C24.4018 22.1931 23.8895 21.9806 23.3551 21.98H19.1316C18.5972 21.9806 18.0849 22.1931 17.707 22.571C17.3291 22.9489 17.1166 23.4612 17.116 23.9956V28.2188C17.1166 28.7532 17.3291 29.2655 17.707 29.6434C18.0849 30.0213 18.5972 30.2338 19.1316 30.2344H23.3551C23.8895 30.2338 24.4018 30.0213 24.7797 29.6434C25.1576 29.2655 25.3701 28.7532 25.3707 28.2188ZM18.4597 28.2188V23.9956C18.4599 23.8175 18.5307 23.6467 18.6567 23.5207C18.7827 23.3948 18.9535 23.3239 19.1316 23.3237H23.3551C23.5332 23.3239 23.704 23.3948 23.83 23.5207C23.9559 23.6467 24.0268 23.8175 24.027 23.9956V28.2188C24.0268 28.3969 23.9559 28.5677 23.83 28.6937C23.704 28.8196 23.5332 28.8905 23.3551 28.8906H19.1316C18.9535 28.8905 18.7827 28.8196 18.6567 28.6937C18.5307 28.5677 18.4599 28.3969 18.4597 28.2188Z" fill="white"/>
<path d="M32.5692 21.98H28.3457C27.8113 21.9806 27.299 22.1931 26.9211 22.571C26.5432 22.9489 26.3307 23.4612 26.3301 23.9956V28.2188C26.3307 28.7532 26.5432 29.2655 26.9211 29.6434C27.299 30.0213 27.8113 30.2338 28.3457 30.2344H32.5692C33.1036 30.2338 33.6159 30.0213 33.9938 29.6434C34.3717 29.2655 34.5842 28.7532 34.5848 28.2188V23.9956C34.5842 23.4612 34.3717 22.9489 33.9938 22.571C33.6159 22.1931 33.1036 21.9806 32.5692 21.98ZM33.2411 28.2188C33.2409 28.3969 33.17 28.5677 33.0441 28.6937C32.9181 28.8196 32.7473 28.8905 32.5692 28.8906H28.3457C28.1676 28.8905 27.9968 28.8196 27.8708 28.6937C27.7449 28.5677 27.674 28.3969 27.6738 28.2188V23.9956C27.674 23.8175 27.7449 23.6467 27.8708 23.5207C27.9968 23.3948 28.1676 23.3239 28.3457 23.3237H32.5692C32.7473 23.3239 32.9181 23.3948 33.0441 23.5207C33.17 23.6467 33.2409 23.8175 33.2411 23.9956V28.2188Z" fill="white"/>
</svg>
