<svg width="75" height="43" viewBox="0 0 75 43" fill="none" xmlns="http://www.w3.org/2000/svg">
<path d="M2.772 40.0632C2.78582 40.3496 2.69401 40.631 2.514 40.8542C2.3123 41.0739 2.03678 41.2116 1.74 41.2412L2.875 42.8912H2.231L1.2 41.2662H0.5V42.8912H0V38.9282H1.384C1.75328 38.9008 2.11921 39.0144 2.408 39.2462C2.52298 39.3485 2.61471 39.4743 2.67698 39.615C2.73925 39.7558 2.77063 39.9083 2.769 40.0622L2.772 40.0632ZM1.354 40.9312C1.59918 40.9463 1.84122 40.8697 2.033 40.7162C2.1105 40.6422 2.1713 40.5526 2.21132 40.4533C2.25133 40.3539 2.26964 40.2472 2.265 40.1402C2.26996 40.035 2.25256 39.93 2.21395 39.8321C2.17534 39.7342 2.11639 39.6456 2.041 39.5722C1.8614 39.4214 1.63118 39.3445 1.397 39.3571H0.512001V40.9302L1.354 40.9312ZM4.254 38.9312H6.695V39.3612H4.752V40.6912H6.581V41.1122H4.752V42.4702H6.695V42.9091H4.25V38.9302L4.254 38.9312ZM9.076 38.9312H9.686L11.018 42.9022H10.502L10.167 41.8872H8.585L8.25 42.9022H7.726L9.076 38.9312ZM8.707 41.5012H10.031L9.378 39.5412L8.707 41.5012ZM12.695 42.4722H14.466V42.9112H12.198V38.9322H12.698V42.4732L12.695 42.4722ZM17.913 38.9312H20.354V39.3612H18.404V40.6912H20.233V41.1122H18.404V42.4702H20.345V42.9091H17.904V38.9302L17.913 38.9312ZM23.964 39.9022C23.895 39.5152 23.603 39.3172 23.113 39.3172C22.8956 39.2993 22.679 39.3603 22.503 39.4892C22.4367 39.5376 22.3828 39.601 22.3454 39.6741C22.3081 39.7472 22.2884 39.8281 22.288 39.9102C22.2828 39.978 22.2924 40.0462 22.3163 40.1099C22.3401 40.1736 22.3776 40.2314 22.426 40.2792C22.552 40.3833 22.6985 40.4596 22.856 40.5032L23.681 40.7872C23.9343 40.863 24.1648 41.0004 24.352 41.1872C24.4389 41.2834 24.5057 41.3961 24.5485 41.5185C24.5913 41.641 24.6091 41.7707 24.601 41.9002C24.6011 42.0503 24.5662 42.1983 24.499 42.3325C24.4318 42.4667 24.3342 42.5834 24.214 42.6732C23.9101 42.8933 23.5397 43.0024 23.165 42.9821C22.78 42.9981 22.4009 42.8829 22.09 42.6552C21.9517 42.5423 21.8411 42.3992 21.7666 42.237C21.692 42.0747 21.6556 41.8977 21.66 41.7192H22.15C22.1456 41.8338 22.1682 41.9477 22.2159 42.052C22.2637 42.1562 22.3353 42.2477 22.425 42.3192C22.6309 42.4636 22.8787 42.536 23.13 42.5252C23.3733 42.5344 23.6136 42.4684 23.818 42.3362C23.8929 42.2855 23.9546 42.2178 23.9979 42.1385C24.0412 42.0591 24.0649 41.9705 24.067 41.8802C24.0714 41.8043 24.0599 41.7284 24.0332 41.6573C24.0065 41.5861 23.9652 41.5214 23.912 41.4672C23.7823 41.3487 23.6258 41.2632 23.456 41.2182L22.751 40.9602C22.4801 40.878 22.2266 40.7468 22.003 40.5732C21.9176 40.4871 21.8512 40.3841 21.8083 40.2707C21.7654 40.1573 21.7469 40.0362 21.754 39.9152C21.7522 39.7742 21.7831 39.6347 21.8444 39.5077C21.9056 39.3806 21.9955 39.2696 22.107 39.1832C22.3965 38.9729 22.7498 38.8693 23.107 38.8902C23.4542 38.8656 23.7987 38.9664 24.078 39.1742C24.1894 39.2682 24.281 39.3836 24.3474 39.5133C24.4138 39.6431 24.4538 39.7848 24.465 39.9302H23.975V39.9042L23.964 39.9022ZM25.322 38.9312H28.404V39.3612H27.104V42.9022H26.604V39.3632H25.304L25.322 38.9312ZM30.222 38.9312H30.832L32.164 42.9022H31.648L31.314 41.8872H29.732L29.397 42.9022H28.873L30.222 38.9312ZM29.861 41.5012H31.178L30.525 39.5412L29.861 41.5012ZM32.494 38.9312H35.58V39.3612H34.28V42.9022H33.78V39.3632H32.48L32.494 38.9312ZM36.629 38.9312H39.07V39.3612H37.127V40.6912H38.956V41.1122H37.127V42.4702H39.07V42.9091H36.629V38.9312ZM45.07 39.9022C45.001 39.5152 44.709 39.3172 44.219 39.3172C44.0016 39.2993 43.785 39.3603 43.609 39.4892C43.5427 39.5376 43.4888 39.601 43.4514 39.6741C43.4141 39.7472 43.3944 39.8281 43.394 39.9102C43.3888 39.978 43.3984 40.0462 43.4223 40.1099C43.4461 40.1736 43.4836 40.2314 43.532 40.2792C43.658 40.3833 43.8045 40.4596 43.962 40.5032L44.787 40.7872C45.0403 40.863 45.2708 41.0004 45.458 41.1872C45.5449 41.2834 45.6117 41.3961 45.6545 41.5185C45.6973 41.641 45.7151 41.7707 45.707 41.9002C45.7071 42.0503 45.6722 42.1983 45.605 42.3325C45.5378 42.4667 45.4402 42.5834 45.32 42.6732C45.0161 42.8933 44.6457 43.0024 44.271 42.9821C43.886 42.9981 43.5069 42.8829 43.196 42.6552C43.0575 42.5422 42.9468 42.399 42.8722 42.2366C42.7977 42.0742 42.7614 41.8968 42.766 41.7182H43.256C43.2517 41.8327 43.2743 41.9467 43.322 42.0509C43.3698 42.1551 43.4414 42.2467 43.531 42.3182C43.7351 42.4663 43.9843 42.5391 44.236 42.5242C44.4793 42.5334 44.7195 42.4674 44.924 42.3352C44.999 42.2846 45.0607 42.2168 45.104 42.1375C45.1474 42.0581 45.171 41.9696 45.173 41.8792C45.1774 41.8033 45.1659 41.7274 45.1392 41.6563C45.1125 41.5851 45.0712 41.5204 45.018 41.4662C44.8883 41.3476 44.7319 41.2622 44.562 41.2172L43.857 40.9592C43.5861 40.877 43.3326 40.7458 43.109 40.5722C43.0236 40.4862 42.9572 40.3831 42.9143 40.2697C42.8714 40.1564 42.8529 40.0352 42.86 39.9142C42.8582 39.7731 42.8891 39.6336 42.9504 39.5066C43.0116 39.3796 43.1015 39.2685 43.213 39.1822C43.5025 38.9719 43.8558 38.8684 44.213 38.8892C44.5602 38.8647 44.9047 38.9654 45.184 39.1732C45.2954 39.2673 45.387 39.3825 45.4534 39.5123C45.5198 39.6421 45.5598 39.7838 45.571 39.9292H45.081L45.07 39.9022ZM48.423 38.8622C48.6567 38.8547 48.8892 38.8986 49.1041 38.9907C49.3191 39.0828 49.5112 39.2208 49.667 39.3952C50.0143 39.8287 50.1859 40.377 50.148 40.9312C50.1881 41.4825 50.0193 42.0287 49.675 42.4612C49.5182 42.6332 49.3255 42.7686 49.1105 42.8578C48.8955 42.9469 48.6635 42.9877 48.431 42.9772C48.1972 42.9856 47.9644 42.9421 47.7493 42.8499C47.5343 42.7578 47.3422 42.6192 47.187 42.4442C46.8427 42.0117 46.6739 41.4655 46.714 40.9142C46.6739 40.3628 46.8427 39.8167 47.187 39.3842C47.3419 39.2109 47.5332 39.074 47.7472 38.9834C47.9613 38.8928 48.1928 38.8507 48.425 38.8602L48.423 38.8622ZM48.423 39.3092C48.2534 39.3021 48.0846 39.3368 47.9315 39.4102C47.7784 39.4837 47.6457 39.5935 47.545 39.7302C47.3101 40.0826 47.1983 40.5027 47.227 40.9252C47.1967 41.3453 47.3087 41.7634 47.545 42.1122C47.6498 42.2429 47.7839 42.3473 47.9364 42.4168C48.0889 42.4863 48.2556 42.5189 48.423 42.5122C48.5913 42.5177 48.7586 42.4845 48.912 42.4151C49.0655 42.3458 49.2009 42.2421 49.308 42.1122C49.5487 41.7651 49.664 41.3465 49.635 40.9252C49.6653 40.5013 49.5499 40.0797 49.308 39.7302C49.2045 39.5936 49.0695 39.484 48.9146 39.4107C48.7596 39.3374 48.5893 39.3025 48.418 39.3092H48.423ZM51.354 38.9312H53.768V39.3612H51.851V40.6782H53.626V41.1082H51.847V42.8961H51.347L51.354 38.9312ZM54.577 38.9312H57.663V39.3612H56.363V42.9022H55.863V39.3632H54.573L54.577 38.9312ZM58.849 38.9312L59.812 42.2312L60.792 39.3432H61.127L62.098 42.2312L63.207 38.9312H63.757L62.357 42.9022H61.833L60.973 40.3582L60.079 42.9022H59.552L58.289 38.9312H58.849ZM65.549 38.9312H66.159L67.491 42.9022H66.975L66.64 41.8872H65.058L64.723 42.9022H64.204L65.549 38.9312ZM65.18 41.5012H66.497L65.844 39.5412L65.18 41.5012ZM71.274 40.0662C71.2878 40.3526 71.196 40.634 71.016 40.8571C70.8143 41.0768 70.5388 41.2146 70.242 41.2442L71.377 42.8942H70.733L69.702 41.2692H69.002V42.8942H68.502V38.9312H69.886C70.2553 38.9038 70.6212 39.0174 70.91 39.2492C71.025 39.3515 71.1167 39.4773 71.179 39.618C71.2413 39.7588 71.2726 39.9112 71.271 40.0652L71.274 40.0662ZM69.847 40.9342C70.0922 40.9494 70.3343 40.8728 70.526 40.7192C70.6035 40.6453 70.6643 40.5556 70.7043 40.4563C70.7443 40.3569 70.7626 40.2502 70.758 40.1432C70.763 40.038 70.7456 39.933 70.707 39.8351C70.6683 39.7372 70.6094 39.6486 70.534 39.5752C70.3543 39.4245 70.1242 39.3476 69.89 39.3602H69.012V40.9332L69.847 40.9342ZM72.494 38.9342H74.935V39.3642H72.994V40.6942H74.823V41.1152H72.994V42.4732H74.937V42.9122H72.496V38.9332L72.494 38.9342Z" fill="#989CAA"/>
<path d="M61.3092 5.95796C59.3389 5.90938 57.3844 6.31975 55.6001 7.15663C53.8157 7.99352 52.2505 9.23399 51.0282 10.78L51.0112 10.754C50.2288 9.75505 49.2948 8.88484 48.2432 8.17497V33.343H53.8562V19.133C53.8562 14.603 56.7822 11.233 61.3002 11.233C62.4788 11.1979 63.6476 11.4569 64.701 11.9866C65.7545 12.5163 66.6594 13.3 67.3342 14.267V7.46697C65.4921 6.44522 63.4144 5.92423 61.3082 5.95597L61.3092 5.95796Z" fill="#989CAA"/>
<path d="M46.6795 19.3312V33.3422H41.0315V19.1372C41.0315 14.6072 38.1055 11.2292 33.5875 11.2292C29.0695 11.2292 26.1435 14.6012 26.1435 19.1372V33.3542H20.5565V19.1372C20.5565 14.6072 17.6305 11.2292 13.1125 11.2292C11.9328 11.1678 10.7569 11.4069 9.69487 11.9241C8.63285 12.4413 7.71952 13.2196 7.0405 14.1862C6.08671 15.6301 5.59493 17.3301 5.63051 19.0602V33.3462H0.0205078V8.10922C1.02892 8.82438 1.9176 9.69486 2.6535 10.6882L2.74751 10.8092C3.97695 9.2502 5.54982 7.99614 7.34353 7.14482C9.13723 6.2935 11.1033 5.86791 13.0885 5.90123C15.2004 5.89061 17.2791 6.42665 19.1225 7.45723C20.8867 8.44775 22.344 9.90505 23.3345 11.6692C23.3469 11.6859 23.3582 11.7032 23.3685 11.7212L23.3945 11.6692C24.4172 9.88012 25.9086 8.40387 27.708 7.39948C29.5075 6.39508 31.5469 5.90057 33.6065 5.96922C41.2875 5.96022 46.6805 11.7692 46.6805 19.3352L46.6795 19.3312Z" fill="#989CAA"/>
<path d="M71.9576 5.964C73.6045 5.964 74.9396 4.62891 74.9396 2.982C74.9396 1.33509 73.6045 0 71.9576 0C70.3107 0 68.9756 1.33509 68.9756 2.982C68.9756 4.62891 70.3107 5.964 71.9576 5.964Z" fill="#989CAA"/>
<path d="M68.9934 14.4683V7.96826C70.0174 8.66826 74.9074 11.7243 74.9074 16.7273L74.9244 18.8423L74.8904 33.3263C73.6521 32.7592 72.5739 31.8937 71.7524 30.8073C71.7524 30.8073 71.7344 30.7643 71.7264 30.7733C71.6264 30.6353 71.5204 30.5073 71.4174 30.3603C70.8969 29.6266 70.4554 28.8399 70.1004 28.0133C70.0224 27.8503 69.9624 27.6783 69.8944 27.5063C69.8252 27.3406 69.7648 27.1713 69.7134 26.9993C69.5379 26.4751 69.3943 25.9408 69.2834 25.3993C69.082 24.4265 68.9814 23.4356 68.9834 22.4423L68.9924 14.4683H68.9934Z" fill="#989CAA"/>
</svg>
