<svg width="1096" height="386" viewBox="0 0 1096 386" fill="none" xmlns="http://www.w3.org/2000/svg">
<path d="M994.36 242.633C1019.55 289.406 1044.71 335.287 1069.49 381.249C1070.76 383.634 1073.47 385.126 1076.43 385.126H1123.58L994.36 152.467L862.507 385.154H909.669C912.651 385.154 915.397 383.66 916.697 381.275L994.331 242.633H994.36Z" fill="white" fill-opacity="0.05"/>
<path d="M835.234 162.214C860.423 208.988 885.584 254.869 910.359 300.831C911.63 303.215 914.345 304.708 917.299 304.708H964.458L835.234 72.0484L703.381 304.735H750.543C753.525 304.735 756.271 303.241 757.571 300.856L835.205 162.214H835.234Z" fill="white" fill-opacity="0.07"/>
<path d="M-13.6332 93.3227C10.3344 141.289 34.2747 188.34 57.8483 235.473C59.0578 237.919 61.6409 239.449 64.4518 239.449H109.323L-13.6332 0.858139L-139.091 239.477H-94.217C-91.3788 239.477 -88.7661 237.945 -87.5292 235.499L-13.6606 93.3227H-13.6332Z" fill="white" fill-opacity="0.05"/>
</svg>
