<svg width="977" height="352" viewBox="0 0 977 352" fill="none" xmlns="http://www.w3.org/2000/svg">
<path d="M952.979 208.584C978.168 255.358 1003.33 301.239 1028.1 347.201C1029.38 349.586 1032.09 351.078 1035.04 351.078H1082.2L952.979 118.419L821.126 351.105H868.287C871.27 351.105 874.016 349.611 875.316 347.226L952.95 208.584H952.979Z" fill="white" fill-opacity="0.05"/>
<path d="M793.853 128.166C819.042 174.939 844.203 220.82 868.978 266.782C870.249 269.167 872.964 270.659 875.918 270.659H923.077L793.853 38L662 270.687H709.161C712.144 270.687 714.89 269.193 716.19 266.808L793.824 128.166H793.853Z" fill="white" fill-opacity="0.07"/>
<path d="M-9.5424 92.4646C14.4252 140.431 38.3655 187.482 61.9391 234.615C63.1486 237.061 65.7317 238.591 68.5426 238.591H113.414L-9.5424 0L-135 238.619H-90.1262C-87.288 238.619 -84.6753 237.087 -83.4384 234.641L-9.56973 92.4646H-9.5424Z" fill="white" fill-opacity="0.05"/>
</svg>
