<svg width="512" height="512" viewBox="0 0 512 512" fill="none" xmlns="http://www.w3.org/2000/svg">
<g clip-path="url(#clip0_328_6)">
<path d="M473.912 199.739C479.43 221.175 482 239.053 482 256C482 380.617 380.617 482 256 482C184.057 482 116.477 447.704 73.8792 391H106V361H34.2892L16.4482 432.362L45.5522 439.638L52.4052 412.226C99.4902 472.604 174.124 512 256 512C396.959 512 512 396.951 512 256C512 236.46 509.129 216.207 502.965 192.261L473.912 199.739Z" fill="#FF6600"/>
<path d="M0 256C0 275.539 2.871 295.792 9.035 319.739L38.088 312.261C32.57 290.824 30 272.947 30 256C30 131.383 131.383 30 256 30C327.943 30 395.523 64.296 438.121 121H406V151H477.712L495.552 79.638L466.448 72.362L459.595 99.773C412.501 39.385 337.863 0 256 0C115.039 0 0 115.05 0 256Z" fill="#FF6600"/>
<path d="M376.393 134.354L343.551 153.455C331.218 143.016 316.792 134.78 301 129.167V91H211V129.167C195.208 134.78 180.783 143.015 168.449 153.455L135.608 134.354L90.627 212.621L123.632 231.624C122.154 238.882 121 247.162 121 256C121 264.837 122.154 273.117 123.631 280.376L90.626 299.38L135.607 377.647L168.449 358.545C180.782 368.983 195.207 377.218 211 382.832V421H301V382.833C316.793 377.219 331.219 368.984 343.551 358.546L376.393 377.648L421.374 299.381L388.368 280.377C389.846 273.116 391 264.834 391 256C391 247.164 389.846 238.883 388.369 231.624L421.374 212.621L376.393 134.354ZM361 256C361 270.703 356.541 284.052 353.763 295.068L380.427 310.421L365.408 336.553L338.955 321.167L330.788 329.498C306.197 354.58 276.507 358.212 271 360.286V391H241V360.286C235.531 358.227 205.772 354.55 181.212 329.498L173.045 321.167L146.592 336.553L131.573 310.421L158.239 295.067C155.431 283.941 151 270.696 151 256C151 241.295 155.452 227.976 158.239 216.933L131.573 201.58L146.592 175.448L173.045 190.833L181.212 182.502C205.806 157.416 235.492 153.79 241 151.716V121H271V151.715C276.684 153.855 306.224 157.446 330.788 182.501L338.955 190.832L365.408 175.447L380.427 201.579L353.763 216.932C356.571 228.065 361 241.307 361 256Z" fill="#FF6600"/>
<path d="M256 181C214.645 181 181 214.645 181 256C181 297.355 214.645 331 256 331C297.355 331 331 297.355 331 256C331 214.645 297.355 181 256 181ZM256 301C231.187 301 211 280.813 211 256C211 231.187 231.187 211 256 211C280.813 211 301 231.187 301 256C301 280.813 280.813 301 256 301Z" fill="#FF6600"/>
</g>
<defs>
<clipPath id="clip0_328_6">
<rect width="512" height="512" fill="white"/>
</clipPath>
</defs>
</svg>
