<svg width="40" height="38" viewBox="0 0 40 38" fill="none" xmlns="http://www.w3.org/2000/svg">
<path fill-rule="evenodd" clip-rule="evenodd" d="M6.25482 24.8197C7.01127 25.5087 7.48591 26.5055 7.48591 27.6145C7.48591 29.6949 5.80837 31.3852 3.74221 31.3852C1.67754 31.3852 0 29.6949 0 27.6145C0 25.5326 1.67754 23.8423 3.74221 23.8423C4.1768 23.8423 4.59359 23.917 4.98072 24.0545L5.84396 22.5929C0.986354 17.3201 1.10353 9.06584 6.19401 3.9366C11.4031 -1.3122 19.8621 -1.3122 25.0727 3.9366C26.4298 5.3041 27.4325 6.89428 28.0837 8.59058L30.3575 6.05136C29.8784 5.41768 29.5951 4.62857 29.5951 3.77071C29.5951 1.69032 31.2726 3.56324e-07 33.3388 3.56324e-07C35.4034 3.56324e-07 37.081 1.69032 37.081 3.77071C37.081 5.85259 35.4034 7.54291 33.3388 7.54291C32.658 7.54291 32.0202 7.35908 31.4699 7.03925L28.5983 10.2465C29.3815 13.4852 28.9573 16.9629 27.3242 19.9445L38.9143 31.6213C39.6084 32.3223 40 33.2728 40 34.2637C40 35.2545 39.6084 36.2051 38.9143 36.906C38.2186 37.6069 37.2753 38 36.2919 38C35.3085 38 34.3652 37.6069 33.6695 36.906L22.081 25.2292C17.2931 27.8895 11.2222 27.3664 6.94008 23.657L6.25482 24.8197ZM26.9519 9.85495C26.3972 8.07646 25.4212 6.40258 24.024 4.99324C19.3934 0.327303 11.8733 0.327303 7.24266 4.99324C2.8226 9.44694 2.62088 16.552 6.6375 21.2463L9.92139 15.6806C9.06704 14.9902 8.51973 13.9276 8.51973 12.7379C8.51973 10.6575 10.1958 8.9672 12.2619 8.9672C14.3281 8.9672 16.0056 10.6575 16.0056 12.7379C16.0056 12.8724 15.9982 13.0039 15.9849 13.134L18.6844 14.7167C19.3711 13.8992 20.3975 13.3806 21.5411 13.3806C22.2041 13.3806 22.8256 13.5539 23.3655 13.8588L26.9519 9.85495ZM26.5144 21.2418C26.0887 21.8441 25.6081 22.4195 25.0727 22.959C24.5357 23.5 23.9662 23.9843 23.3684 24.4132L25.3738 26.4323L28.5197 23.2624L26.5144 21.2418ZM7.71136 22.3507C12.3687 26.5638 19.5461 26.4144 24.024 21.9024C26.7992 19.1061 27.9116 15.2637 27.3598 11.6305L24.4927 14.8317C24.9881 15.4714 25.2848 16.277 25.2848 17.1528C25.2848 19.2331 23.6072 20.9235 21.5411 20.9235C19.4764 20.9235 17.7989 19.2331 17.7989 17.1528C17.7989 16.7597 17.8582 16.3816 17.9694 16.0259L15.5221 14.5911C14.8799 15.7359 13.6592 16.5101 12.2619 16.5101C11.9089 16.5101 11.5663 16.4608 11.2415 16.3681L7.71136 22.3507ZM26.4224 27.4889L34.7182 35.8494C35.135 36.2693 35.7016 36.5055 36.2919 36.5055C36.8822 36.5055 37.4473 36.2693 37.8641 35.8494C38.2824 35.4294 38.5168 34.8585 38.5168 34.2637C38.5168 33.6688 38.2824 33.0994 37.8641 32.6795L29.5684 24.319L26.4224 27.4889ZM1.48324 27.6145C1.48324 28.8699 2.49629 29.8907 3.74221 29.8907C4.98962 29.8907 6.00267 28.8699 6.00267 27.6145C6.00267 26.3576 4.98962 25.3368 3.74221 25.3368C2.49629 25.3368 1.48324 26.3576 1.48324 27.6145ZM31.0783 3.77071C31.0783 5.02761 32.0914 6.04838 33.3388 6.04838C34.5847 6.04838 35.5977 5.02761 35.5977 3.77071C35.5977 2.5153 34.5847 1.49453 33.3388 1.49453C32.0914 1.49453 31.0783 2.5153 31.0783 3.77071ZM10.003 12.7379C10.003 13.9948 11.0145 15.0156 12.2619 15.0156C13.5093 15.0156 14.5224 13.9948 14.5224 12.7379C14.5224 11.4825 13.5093 10.4617 12.2619 10.4617C11.0145 10.4617 10.003 11.4825 10.003 12.7379ZM19.2821 17.1528C19.2821 18.4082 20.2952 19.4289 21.5411 19.4289C22.7885 19.4289 23.8015 18.4082 23.8015 17.1528C23.8015 15.8959 22.7885 14.8751 21.5411 14.8751C20.2952 14.8751 19.2821 15.8959 19.2821 17.1528Z" fill="white"/>
</svg>
