<svg width="40" height="40" viewBox="0 0 40 40" fill="none" xmlns="http://www.w3.org/2000/svg">
<path d="M1.34752 31.9509C1.40186 32.0955 1.50861 32.2144 1.64655 32.2839C1.7845 32.3534 1.94356 32.3686 2.09214 32.3263L2.25829 32.277C2.68343 32.1665 3.1312 32.179 3.54953 32.313C3.96785 32.447 4.33954 32.697 4.62137 33.0339C4.77521 33.2063 4.93521 33.3786 5.10137 33.5447C5.42047 33.8429 5.64788 34.226 5.75688 34.6489C5.86589 35.0718 5.85197 35.5171 5.71675 35.9324L5.66137 36.0986C5.61074 36.2435 5.61612 36.4022 5.67647 36.5433C5.73681 36.6845 5.84776 36.7981 5.98752 36.8616L8.55983 38.0124C8.70044 38.0747 8.85929 38.0821 9.00508 38.0331C9.15087 37.9841 9.27304 37.8823 9.34752 37.7478L9.42752 37.6001C9.64896 37.2224 9.97278 36.915 10.3615 36.7135C10.7503 36.5121 11.1881 36.4247 11.6244 36.4616H12.326C12.7643 36.4508 13.1967 36.5641 13.5735 36.7884C13.9502 37.0126 14.2558 37.3388 14.4552 37.7293L14.5352 37.8893C14.5872 37.9897 14.6658 38.0738 14.7624 38.1324C14.859 38.191 14.9699 38.2219 15.0829 38.2216C15.1563 38.2223 15.2293 38.2098 15.2983 38.1847L17.926 37.1816C18.0706 37.1273 18.1895 37.0205 18.259 36.8826C18.3286 36.7447 18.3437 36.5856 18.3014 36.437L18.2521 36.3078C18.1422 35.8841 18.1544 35.438 18.2872 35.0209C18.4201 34.6039 18.6682 34.2329 19.0029 33.9509C19.1814 33.797 19.3537 33.637 19.5137 33.4709C19.8152 33.1508 20.2015 32.923 20.6275 32.8141C21.0535 32.7051 21.5017 32.7195 21.9198 32.8555L22.086 32.9109C22.2301 32.9576 22.3864 32.9495 22.5249 32.8882C22.6634 32.8269 22.7745 32.7166 22.8368 32.5786L23.9998 30.0062C24.0626 29.8664 24.0709 29.7081 24.0231 29.5624C23.9753 29.4167 23.8748 29.294 23.7414 29.2186L23.5814 29.1324C23.2048 28.9117 22.8985 28.5887 22.698 28.201C22.4976 27.8132 22.4113 27.3765 22.4491 26.9416C22.4491 26.7078 22.4491 26.4739 22.4491 26.2401C22.4352 25.8065 22.5432 25.3778 22.7608 25.0025C22.9783 24.6272 23.2967 24.3205 23.6798 24.117L23.8398 24.037C23.9766 23.9691 24.0832 23.8527 24.1389 23.7105C24.1946 23.5684 24.1955 23.4106 24.1414 23.2678L23.1444 20.6401C23.0901 20.4955 22.9834 20.3766 22.8454 20.3071C22.7075 20.2375 22.5484 20.2224 22.3998 20.2647L22.2768 20.3078C21.8516 20.4183 21.4038 20.4058 20.9855 20.2718C20.5672 20.1378 20.1955 19.8878 19.9137 19.5509C19.7598 19.3724 19.5998 19.2001 19.4337 19.0401C19.1146 18.7419 18.8872 18.3588 18.7782 17.9359C18.6692 17.513 18.6831 17.0677 18.8183 16.6524L18.8737 16.4801C18.9226 16.3359 18.9163 16.1788 18.856 16.039C18.7958 15.8992 18.6859 15.7867 18.5475 15.7232L15.9998 14.5724C15.8592 14.5101 15.7004 14.5027 15.5546 14.5517C15.4088 14.6007 15.2866 14.7025 15.2121 14.837L15.1321 14.9847C14.9101 15.3644 14.5842 15.6726 14.1928 15.8732C13.8013 16.0738 13.3608 16.1584 12.9229 16.117C12.6829 16.117 12.4552 16.117 12.2152 16.117C11.7761 16.128 11.3429 16.0142 10.966 15.7887C10.5891 15.5632 10.2839 15.2353 10.086 14.8432L10.006 14.6893C9.94007 14.5489 9.82358 14.4386 9.67981 14.3804C9.53605 14.3222 9.37561 14.3205 9.2306 14.3755L6.60906 15.3847C6.46445 15.4391 6.34556 15.5458 6.27602 15.6837C6.20648 15.8217 6.19136 15.9807 6.23368 16.1293L6.28291 16.2893C6.39305 16.7115 6.38159 17.1562 6.24984 17.5722C6.11809 17.9881 5.87142 18.3583 5.53829 18.6401C5.35983 18.7939 5.18752 18.9601 5.02752 19.1262C4.726 19.4463 4.33973 19.6741 3.91372 19.783C3.48772 19.892 3.03953 19.8776 2.62137 19.7416L2.46137 19.6924C2.31652 19.6461 2.15966 19.655 2.02102 19.7175C1.88239 19.78 1.7718 19.8917 1.7106 20.0309L0.541367 22.5724C0.471252 22.715 0.459 22.8791 0.507174 23.0306C0.555348 23.182 0.660216 23.3089 0.799828 23.3847L0.959828 23.477C1.33245 23.6943 1.63631 24.0122 1.83658 24.3942C2.03684 24.7762 2.12542 25.207 2.09214 25.637V26.3447C2.10788 26.7794 2.00075 27.2098 1.78306 27.5864C1.56537 27.963 1.24592 28.2706 0.861367 28.4739L0.701367 28.5539C0.564628 28.6219 0.458038 28.7383 0.402311 28.8804C0.346583 29.0226 0.345698 29.1804 0.399828 29.3232L1.34752 31.9509ZM3.30444 26.3447C3.30444 26.1355 3.30444 25.9263 3.30444 25.7293C3.35198 25.1274 3.24527 24.5234 2.99438 23.9742C2.74348 23.4251 2.35671 22.9489 1.8706 22.5909L2.57829 21.0093C3.16905 21.1351 3.78217 21.1079 4.35944 20.9302C4.93672 20.7525 5.45901 20.4302 5.87675 19.9939C6.01829 19.8524 6.16598 19.7109 6.32598 19.5755C6.78853 19.1844 7.14413 18.6822 7.35941 18.116C7.57469 17.5498 7.6426 16.9382 7.55675 16.3386L9.17521 15.7232C9.50499 16.2263 9.9566 16.638 10.4881 16.9199C11.0196 17.2018 11.6137 17.3447 12.2152 17.3355C12.4202 17.3239 12.6256 17.3239 12.8306 17.3355C13.4362 17.388 14.0452 17.285 14.5998 17.0362C15.1544 16.7875 15.6363 16.4012 15.9998 15.9139L17.5568 16.6155C17.4304 17.2062 17.4573 17.8195 17.635 18.3969C17.8128 18.9743 18.1354 19.4965 18.5721 19.9139C18.7198 20.0555 18.8614 20.2093 18.9968 20.357C19.3865 20.8195 19.8876 21.1752 20.4529 21.3905C21.0181 21.6058 21.6288 21.6737 22.2275 21.5878L22.8429 23.2062C22.3335 23.5385 21.9179 23.9958 21.6356 24.5345C21.3533 25.0732 21.2139 25.6752 21.2306 26.2832V26.8986C21.183 27.4996 21.2897 28.1028 21.5406 28.651C21.7915 29.1992 22.1784 29.6742 22.6644 30.0309L21.9568 31.6186C21.3647 31.4883 20.7493 31.5116 20.1688 31.686C19.5882 31.8605 19.0619 32.1804 18.6398 32.6155C18.4976 32.7648 18.3477 32.9065 18.1906 33.0401C17.7267 33.4288 17.3701 33.9297 17.1546 34.4953C16.9392 35.0608 16.8721 35.6721 16.9598 36.2709L15.3352 36.8862C15.01 36.3802 14.5616 35.9651 14.032 35.6799C13.5024 35.3946 12.909 35.2486 12.3075 35.2555C12.1026 35.2672 11.8971 35.2672 11.6921 35.2555C11.0909 35.2078 10.4874 35.3139 9.93835 35.5636C9.38933 35.8134 8.91285 36.1986 8.55367 36.6832L6.97214 35.9755C7.09803 35.3857 7.0708 34.7734 6.89306 34.1971C6.71532 33.6208 6.39298 33.0996 5.95675 32.6832C5.80906 32.5355 5.66752 32.3878 5.53214 32.2339C5.14385 31.7696 4.64294 31.4126 4.0773 31.1971C3.51165 30.9816 2.90019 30.9149 2.30137 31.0032L1.68598 29.3847C2.1907 29.0561 2.60387 28.6049 2.8869 28.0732C3.16993 27.5416 3.31359 26.9469 3.30444 26.3447Z" fill="white"/>
<path d="M10.1353 31.0462C11.3962 31.6111 12.8298 31.6523 14.121 31.1608C15.4122 30.6692 16.4555 29.6851 17.0215 28.4247C17.3249 27.7971 17.4993 27.115 17.5345 26.4188C17.5696 25.7226 17.4648 25.0265 17.2262 24.3715C16.9875 23.7166 16.6199 23.1161 16.1451 22.6057C15.6704 22.0954 15.098 21.6854 14.462 21.4001C13.826 21.1148 13.1392 20.96 12.4423 20.9448C11.7454 20.9297 11.0525 21.0544 10.4046 21.3118C9.7568 21.5691 9.16716 21.9538 8.67061 22.443C8.17406 22.9322 7.78068 23.5161 7.51376 24.16C7.2332 24.7842 7.07846 25.4576 7.05839 26.1417C7.03832 26.8258 7.15332 27.5071 7.39681 28.1467C7.64029 28.7862 8.00749 29.3715 8.47738 29.8691C8.94728 30.3666 9.51066 30.7666 10.1353 31.0462ZM8.6153 24.6585C9.04781 23.6948 9.84545 22.9423 10.8328 22.5666C11.3216 22.3806 11.8423 22.2927 12.3652 22.308C12.888 22.3232 13.4027 22.4413 13.8799 22.6554C14.3571 22.8696 14.7875 23.1756 15.1464 23.5561C15.5053 23.9366 15.7858 24.384 15.9718 24.8729C16.1578 25.3618 16.2457 25.8825 16.2304 26.4053C16.2152 26.9281 16.0971 27.4428 15.883 27.92C15.5567 28.6323 15.0274 29.2325 14.3616 29.6455C13.6957 30.0584 12.9228 30.2657 12.1397 30.2413C11.3566 30.217 10.5981 29.9622 9.95909 29.5088C9.32012 29.0554 8.82913 28.4235 8.54761 27.6924C8.35837 27.2072 8.26693 26.6893 8.27855 26.1687C8.29017 25.648 8.40461 25.1348 8.6153 24.6585Z" fill="white"/>
<path d="M19.7784 15.9999C19.7282 16.1456 19.7345 16.3048 19.796 16.4461C19.8575 16.5874 19.9698 16.7005 20.1107 16.763L21.7723 17.5014C21.9136 17.5632 22.073 17.5697 22.2189 17.5196C22.3648 17.4694 22.4865 17.3663 22.56 17.2307L22.6092 17.1384C22.735 16.9298 22.9175 16.7612 23.1353 16.6522C23.3532 16.5433 23.5976 16.4985 23.84 16.523H24.3138C24.5555 16.5191 24.7934 16.5835 25.0002 16.7087C25.207 16.8338 25.3743 17.0147 25.483 17.2307L25.5323 17.3291C25.5842 17.4295 25.6628 17.5135 25.7595 17.5722C25.8561 17.6308 25.967 17.6617 26.08 17.6614C26.1553 17.6612 26.2301 17.6487 26.3015 17.6245L27.9938 16.9722C28.1371 16.9179 28.2549 16.8122 28.3244 16.6756C28.3938 16.539 28.4098 16.3815 28.3692 16.2337L28.3384 16.123C28.2771 15.8892 28.2839 15.6427 28.3581 15.4126C28.4322 15.1826 28.5706 14.9785 28.7569 14.8245C28.8777 14.7223 28.9928 14.6134 29.1015 14.4984C29.2674 14.3206 29.4806 14.1937 29.716 14.1327C29.9514 14.0717 30.1993 14.079 30.4307 14.1537L30.5415 14.1845C30.6856 14.2312 30.8419 14.2232 30.9804 14.1619C31.1189 14.1005 31.23 13.9903 31.2923 13.8522L32.0369 12.1968C32.0997 12.0569 32.108 11.8986 32.0602 11.7529C32.0124 11.6072 31.9119 11.4846 31.7784 11.4091L31.68 11.3537C31.4714 11.2279 31.3028 11.0455 31.1938 10.8276C31.0849 10.6097 31.0401 10.3653 31.0646 10.123C31.0646 9.96297 31.0646 9.80912 31.0646 9.65528C31.0559 9.41331 31.1161 9.17386 31.2381 8.96472C31.3601 8.75558 31.5389 8.58533 31.7538 8.47374L31.8584 8.42451C31.9952 8.35655 32.1017 8.24018 32.1575 8.09802C32.2132 7.95586 32.2141 7.79805 32.16 7.65528L31.52 5.96297C31.4656 5.81699 31.3578 5.69708 31.2185 5.62741C31.0792 5.55774 30.9186 5.54351 30.7692 5.58758L30.6584 5.61835C30.4231 5.67945 30.1752 5.67193 29.9441 5.59669C29.7129 5.52145 29.5081 5.38163 29.3538 5.19374C29.2492 5.07682 29.1446 4.96605 29.0338 4.85528C28.8564 4.6917 28.7297 4.4807 28.6686 4.24729C28.6075 4.01387 28.6147 3.76784 28.6892 3.53835L28.7261 3.43374C28.7785 3.288 28.774 3.12787 28.7136 2.98529C28.6531 2.84271 28.5411 2.72816 28.4 2.66451L26.7384 1.92605C26.5971 1.86195 26.4368 1.85359 26.2896 1.90266C26.1424 1.95173 26.0192 2.0546 25.9446 2.19066L25.9015 2.28297C25.7768 2.49262 25.5945 2.66206 25.3763 2.77115C25.1582 2.88023 24.9133 2.92439 24.6707 2.89835C24.513 2.88617 24.3546 2.88617 24.1969 2.89835C23.9538 2.9051 23.7137 2.84277 23.5046 2.7186C23.2954 2.59443 23.1258 2.4135 23.0153 2.19682L22.9661 2.0922C22.8971 1.95657 22.7803 1.85131 22.6382 1.79676C22.4962 1.74221 22.3389 1.74223 22.1969 1.79682L20.523 2.46143C20.3809 2.51686 20.2644 2.6231 20.1962 2.75955C20.128 2.896 20.1129 3.05293 20.1538 3.19989V3.31066C20.2121 3.54458 20.2038 3.79015 20.1299 4.01961C20.0559 4.24907 19.9193 4.45326 19.7353 4.60912C19.6147 4.71153 19.4996 4.82041 19.3907 4.93528C19.2234 5.11093 19.0096 5.23542 18.7743 5.29426C18.539 5.35309 18.2918 5.34384 18.0615 5.26759H17.9507C17.8178 5.22421 17.6741 5.22739 17.5432 5.27661C17.4123 5.32583 17.3021 5.41814 17.2307 5.53835L16.4861 7.19374C16.4174 7.33493 16.4052 7.49707 16.4521 7.64694C16.499 7.79681 16.6014 7.92308 16.7384 7.99989L16.843 8.06143C17.0565 8.18196 17.2292 8.3635 17.3388 8.58278C17.4484 8.80206 17.4901 9.04909 17.4584 9.2922V9.76605C17.4665 10.0087 17.4054 10.2486 17.2822 10.4578C17.1591 10.667 16.979 10.8368 16.763 10.9476L16.6646 10.9968C16.5267 11.0637 16.4188 11.1796 16.3619 11.3219C16.305 11.4642 16.3032 11.6225 16.3569 11.766L17.0092 13.4645C17.0635 13.6078 17.1692 13.7256 17.3058 13.7951C17.4424 13.8645 17.5999 13.8805 17.7476 13.8399L17.8523 13.8091C18.0885 13.7483 18.3372 13.7559 18.5693 13.8311C18.8014 13.9063 19.0073 14.0459 19.163 14.2337C19.2615 14.3507 19.3723 14.4614 19.483 14.5722C19.6626 14.7342 19.7904 14.9455 19.8506 15.1797C19.9108 15.4139 19.9007 15.6606 19.8215 15.8891L19.7784 15.9999ZM17.963 12.5414L17.6861 11.8153C18.0019 11.5749 18.2567 11.2636 18.4298 10.9065C18.603 10.5495 18.6898 10.1567 18.683 9.75989C18.683 9.63066 18.683 9.50143 18.683 9.3722C18.7227 8.97542 18.6674 8.5749 18.5219 8.20364C18.3764 7.83238 18.1448 7.501 17.8461 7.23682L18.1661 6.52297C18.5564 6.57454 18.9534 6.53406 19.3252 6.40476C19.6971 6.27547 20.0335 6.06095 20.3076 5.77835C20.3919 5.69413 20.4802 5.61404 20.5723 5.53835C20.8745 5.2807 21.1112 4.95504 21.2632 4.58811C21.4151 4.22118 21.4778 3.82345 21.4461 3.42758L22.1538 3.12605C22.3947 3.44426 22.7079 3.70061 23.0674 3.87395C23.4269 4.04729 23.8225 4.13264 24.2215 4.12297H24.6153C25.0092 4.15512 25.4051 4.09385 25.7708 3.94414C26.1365 3.79444 26.4617 3.56052 26.72 3.26143L27.4338 3.57528C27.3795 3.96902 27.4192 4.37003 27.5497 4.74546C27.6802 5.1209 27.8978 5.46009 28.1846 5.73528C28.2789 5.82964 28.3651 5.92194 28.443 6.0122C28.7016 6.31325 29.0274 6.54921 29.3941 6.70102C29.7608 6.85282 30.1581 6.91621 30.5538 6.88605L30.8307 7.6122C30.5157 7.85288 30.2619 8.16439 30.0897 8.5215C29.9176 8.8786 29.832 9.27124 29.84 9.66758V10.0553C29.8098 10.4501 29.8732 10.8465 30.025 11.2121C30.1769 11.5778 30.4129 11.9026 30.7138 12.1599L30.3938 12.8737C30.0006 12.8192 29.6 12.8582 29.2247 12.9875C28.8494 13.1169 28.5099 13.3331 28.2338 13.6184C28.1476 13.7107 28.0553 13.7968 27.963 13.883C27.6581 14.1403 27.4187 14.4665 27.2646 14.8346C27.1106 15.2026 27.0462 15.6021 27.0769 15.9999L26.3507 16.2768C26.1109 15.9635 25.8015 15.7102 25.4469 15.5372C25.0922 15.3642 24.7022 15.2761 24.3076 15.2799C24.1765 15.2891 24.0449 15.2891 23.9138 15.2799C23.5184 15.2526 23.122 15.3174 22.7558 15.469C22.3896 15.6206 22.0635 15.855 21.803 16.1537L21.0953 15.8399C21.1481 15.4462 21.1077 15.0456 20.9773 14.6704C20.8469 14.2953 20.6302 13.956 20.3446 13.6799L20.08 13.403C19.8236 13.0965 19.4977 12.8557 19.1295 12.7005C18.7613 12.5453 18.3614 12.4802 17.963 12.5107V12.5414Z" fill="white"/>
<path d="M22.7691 12.9724C23.2301 13.1778 23.729 13.2847 24.2337 13.2862C24.8791 13.2871 25.5127 13.1138 26.0679 12.7847C26.623 12.4556 27.0791 11.9829 27.3881 11.4163C27.6971 10.8497 27.8475 10.2103 27.8236 9.56533C27.7996 8.92041 27.6021 8.29389 27.252 7.7518C26.9018 7.2097 26.4118 6.7721 25.8338 6.48511C25.2558 6.19811 24.611 6.07235 23.9675 6.12108C23.324 6.16981 22.7055 6.39122 22.1773 6.76198C21.649 7.13274 21.2306 7.63912 20.966 8.22776C20.5772 9.0962 20.5487 10.0834 20.8868 10.9728C21.2248 11.8622 21.9017 12.5813 22.7691 12.9724ZM22.086 8.73238C22.2725 8.31742 22.5751 7.9653 22.9573 7.71851C23.3395 7.47173 23.7849 7.34083 24.2398 7.34161C24.6326 7.34353 25.0187 7.44332 25.3632 7.63196C25.7077 7.82059 25.9997 8.09211 26.2129 8.42198C26.4261 8.75184 26.5537 9.12964 26.5842 9.52122C26.6147 9.9128 26.5471 10.3058 26.3875 10.6647C26.2607 10.9475 26.0793 11.2026 25.8539 11.4154C25.6284 11.6281 25.3632 11.7944 25.0735 11.9047C24.4884 12.1274 23.8388 12.1086 23.2675 11.8524C22.9847 11.7255 22.7296 11.5442 22.5168 11.3187C22.3041 11.0932 22.1378 10.8281 22.0275 10.5384C21.8048 9.95324 21.8236 9.30361 22.0798 8.73238H22.086Z" fill="white"/>
<path d="M33.4398 22.7693L33.3967 22.8616C33.272 23.0713 33.0897 23.2407 32.8716 23.3498C32.6534 23.4589 32.4085 23.5031 32.1659 23.477C32.0059 23.477 31.8705 23.477 31.6921 23.477C31.4504 23.4809 31.2125 23.4165 31.0057 23.2913C30.7989 23.1662 30.6315 22.9852 30.5229 22.7693L30.4736 22.6647C30.4046 22.5291 30.2878 22.4238 30.1457 22.3693C30.0037 22.3147 29.8464 22.3147 29.7044 22.3693L28.0059 23.0216C27.8638 23.0771 27.7473 23.1833 27.6791 23.3198C27.6109 23.4562 27.5958 23.6131 27.6367 23.7601L27.6675 23.8709C27.7273 24.1047 27.7197 24.3507 27.6456 24.5805C27.5716 24.8102 27.4341 25.0144 27.249 25.1693C27.1283 25.2717 27.0133 25.3806 26.9044 25.4955C26.7371 25.6711 26.5233 25.7956 26.288 25.8545C26.0526 25.9133 25.8054 25.904 25.5752 25.8278H25.4644C25.3203 25.7811 25.164 25.7891 25.0255 25.8504C24.887 25.9118 24.7759 26.022 24.7136 26.1601L23.9998 27.8093C23.9365 27.9485 23.9272 28.1063 23.9739 28.2519C24.0205 28.3975 24.1197 28.5205 24.2521 28.597L24.3567 28.6524C24.5669 28.7765 24.7368 28.9587 24.8459 29.177C24.9551 29.3954 24.9989 29.6406 24.9721 29.8832V30.357C24.9801 30.5996 24.919 30.8395 24.7959 31.0487C24.6728 31.2579 24.4927 31.4278 24.2767 31.5386L24.1782 31.5878C24.0404 31.6547 23.9325 31.7706 23.8756 31.9129C23.8187 32.0551 23.8169 32.2135 23.8705 32.357L24.5229 34.0555C24.5771 34.1987 24.6829 34.3166 24.8195 34.386C24.956 34.4555 25.1136 34.4714 25.2613 34.4309L25.3721 34.4001C25.6074 34.3398 25.8551 34.3477 26.0861 34.4228C26.3171 34.498 26.522 34.6374 26.6767 34.8247C26.7752 34.9416 26.8859 35.0524 26.9967 35.1632C27.1763 35.3252 27.3041 35.5364 27.3643 35.7707C27.4245 36.0049 27.4144 36.2516 27.3352 36.4801L27.2982 36.5909C27.248 36.7366 27.2543 36.8958 27.3158 37.0371C27.3774 37.1784 27.4897 37.2915 27.6305 37.3539L29.2921 38.0924C29.4327 38.1547 29.5915 38.1621 29.7373 38.1131C29.8831 38.0641 30.0053 37.9623 30.0798 37.8278L30.129 37.7355C30.2554 37.5274 30.4379 37.3592 30.6557 37.2504C30.8734 37.1415 31.1175 37.0963 31.3598 37.1201H31.8336C32.0766 37.1141 32.3164 37.1767 32.5254 37.3008C32.7344 37.4249 32.9041 37.6054 33.0152 37.8216L33.0644 37.9262C33.1164 38.0266 33.195 38.1107 33.2916 38.1693C33.3882 38.2279 33.4991 38.2588 33.6121 38.2586C33.6874 38.2583 33.7623 38.2459 33.8336 38.2216L35.4767 37.5386C35.62 37.4843 35.7378 37.3785 35.8073 37.2419C35.8767 37.1054 35.8927 36.9478 35.8521 36.8001V36.6893C35.7908 36.4555 35.7976 36.2091 35.8718 35.979C35.9459 35.7489 36.0843 35.5449 36.2705 35.3909C36.3875 35.2862 36.5044 35.1816 36.6152 35.0647C36.782 34.8884 36.9958 34.7635 37.2313 34.7046C37.4668 34.6458 37.7142 34.6554 37.9444 34.7324L38.0552 34.7632C38.1907 34.8023 38.3356 34.7938 38.4655 34.7389C38.5955 34.684 38.7026 34.5861 38.769 34.4616L39.5136 32.8062C39.5824 32.6651 39.5945 32.5029 39.5476 32.353C39.5007 32.2032 39.3983 32.0769 39.2613 32.0001L39.1629 31.9447C38.9543 31.8189 38.7857 31.6364 38.6767 31.4185C38.5678 31.2007 38.523 30.9563 38.5475 30.7139C38.5475 30.5601 38.5475 30.4001 38.5475 30.2462C38.5396 30.0044 38.6001 29.7653 38.722 29.5563C38.8439 29.3473 39.0223 29.1769 39.2367 29.0647L39.3413 29.0155C39.4781 28.9475 39.5846 28.8312 39.6404 28.689C39.6961 28.5468 39.697 28.389 39.6429 28.2462L38.9967 26.5478C38.9424 26.4045 38.8367 26.2867 38.7001 26.2172C38.5635 26.1478 38.406 26.1318 38.2582 26.1724H38.1475C37.9121 26.2327 37.6645 26.2248 37.4335 26.1497C37.2024 26.0745 36.9976 25.9351 36.8429 25.7478C36.7382 25.6309 36.6336 25.5201 36.5229 25.4093C36.3455 25.2458 36.2188 25.0347 36.1577 24.8013C36.0966 24.5679 36.1037 24.3219 36.1782 24.0924L36.2213 23.9816C36.2715 23.8359 36.2653 23.6767 36.2037 23.5354C36.1422 23.3941 36.0299 23.281 35.889 23.2186L34.2275 22.4801C34.0839 22.4197 33.9229 22.416 33.7767 22.4696C33.6305 22.5233 33.5101 22.6304 33.4398 22.7693ZM35.6921 26.3386C35.7864 26.4329 35.8726 26.5252 35.9505 26.6155C36.2095 26.9161 36.5353 27.1518 36.9019 27.3036C37.2685 27.4554 37.6656 27.519 38.0613 27.4893L38.3382 28.2155C38.0243 28.4572 37.7713 28.7689 37.5992 29.1257C37.4272 29.4826 37.341 29.8747 37.3475 30.2709V30.6586C37.3173 31.0534 37.3807 31.4497 37.5326 31.8154C37.6844 32.1811 37.9204 32.5058 38.2213 32.7632L37.9013 33.477C37.5003 33.4143 37.0901 33.4492 36.7055 33.5789C36.3209 33.7085 35.9733 33.929 35.6921 34.2216C35.6043 34.3145 35.5119 34.4028 35.4152 34.4862C35.1141 34.7449 34.8782 35.0707 34.7263 35.4374C34.5745 35.804 34.5112 36.2013 34.5413 36.597L33.8459 36.8739C33.6075 36.5591 33.2983 36.3049 32.9434 36.1317C32.5884 35.9585 32.1977 35.8712 31.8029 35.877C31.6719 35.8894 31.54 35.8894 31.409 35.877C31.0134 35.8483 30.6166 35.9124 30.2502 36.0641C29.8837 36.2158 29.5578 36.451 29.2982 36.7509L28.5905 36.437C28.6434 36.0433 28.6029 35.6428 28.4725 35.2676C28.3421 34.8924 28.1254 34.5531 27.8398 34.277C27.7475 34.1909 27.6613 34.0924 27.5752 34.0001C27.3169 33.6987 26.9911 33.4624 26.6243 33.3106C26.2576 33.1588 25.8602 33.0956 25.4644 33.1262L25.1875 32.4001C25.5032 32.1597 25.758 31.8484 25.9312 31.4914C26.1044 31.1343 26.1911 30.7415 26.1844 30.3447C26.1844 30.2155 26.1844 30.0862 26.1844 29.957C26.2146 29.5622 26.1511 29.1658 25.9993 28.8001C25.8475 28.4345 25.6115 28.1097 25.3105 27.8524L25.6305 27.1386C26.0238 27.1931 26.4243 27.1541 26.7997 27.0248C27.175 26.8954 27.5145 26.6792 27.7905 26.3939C27.8767 26.3016 27.969 26.2155 28.0613 26.1293C28.364 25.8686 28.6 25.5393 28.7498 25.169C28.8997 24.7987 28.959 24.3979 28.9229 24.0001L29.6552 23.7232C29.8936 24.038 30.2028 24.2923 30.5577 24.4654C30.9127 24.6386 31.3034 24.7259 31.6982 24.7201H32.0921C32.487 24.7508 32.8835 24.6876 33.2492 24.5357C33.615 24.3838 33.9397 24.1476 34.1967 23.8462L34.9105 24.1601C34.857 24.5592 34.9001 24.9654 35.0361 25.3445C35.1721 25.7236 35.397 26.0645 35.6921 26.3386Z" fill="white"/>
<path d="M33.2308 27.0277C32.3633 26.6392 31.377 26.6108 30.4886 26.9489C29.6001 27.287 28.8822 27.9638 28.4924 28.8308C28.1036 29.6992 28.0751 30.6864 28.4131 31.5758C28.7511 32.4652 29.428 33.1843 30.2954 33.5754C30.7565 33.7808 31.2553 33.8877 31.7601 33.8892C32.5815 33.89 33.3784 33.6088 34.0175 33.0927C34.6566 32.5765 35.0992 31.8567 35.2714 31.0535C35.4435 30.2502 35.3348 29.4122 34.9635 28.6795C34.5921 27.9468 33.9804 27.3637 33.2308 27.0277ZM33.9139 31.2677C33.787 31.5534 33.6044 31.811 33.377 32.0255C33.1495 32.2399 32.8817 32.407 32.589 32.517C32.2964 32.6269 31.9848 32.6776 31.6723 32.6659C31.3599 32.6543 31.053 32.5806 30.7693 32.4492C30.2001 32.1924 29.7556 31.7208 29.5331 31.1373C29.3105 30.5539 29.328 29.906 29.5816 29.3354C29.7687 28.9209 30.0715 28.5692 30.4535 28.3225C30.8356 28.0758 31.2807 27.9446 31.7354 27.9446C32.1282 27.9465 32.5143 28.0463 32.8588 28.235C33.2033 28.4236 33.4953 28.6951 33.7085 29.025C33.9217 29.3548 34.0493 29.7327 34.0798 30.1242C34.1103 30.5158 34.0427 30.9088 33.8831 31.2677H33.9139Z" fill="white"/>
</svg>
