<svg width="40" height="45" viewBox="0 0 40 45" fill="none" xmlns="http://www.w3.org/2000/svg">
<path d="M29.0687 9.86404C27.6413 8.57706 25.9554 7.60989 24.124 7.02729C22.2925 6.44469 20.3577 6.2601 18.4491 6.48588C15.5683 6.8149 12.8682 8.05653 10.7434 10.0294C8.61852 12.0022 7.18023 14.6028 6.63864 17.4513C6.09705 20.2998 6.48056 23.2468 7.73313 25.8618C8.9857 28.4768 11.0417 30.6227 13.6007 31.986V40C13.6011 40.4243 13.7698 40.831 14.0698 41.1309C14.3698 41.4309 14.7765 41.5996 15.2007 41.6H16.8007V43.2C16.8011 43.6243 16.9698 44.031 17.2698 44.3309C17.5698 44.6309 17.9765 44.7996 18.4007 44.8H21.6007C22.0249 44.7996 22.4316 44.6309 22.7316 44.3309C23.0316 44.031 23.2003 43.6243 23.2007 43.2V41.6H24.8007C25.2249 41.5996 25.6316 41.4309 25.9316 41.1309C26.2316 40.831 26.4003 40.4243 26.4007 40V31.9864C28.3315 30.958 29.9855 29.4786 31.222 27.674C32.4586 25.8693 33.2411 23.7928 33.503 21.6209C33.7649 19.449 33.4986 17.246 32.7265 15.1991C31.9545 13.1522 30.6997 11.322 29.0687 9.86404ZM24.8007 35.2V36.8H15.2007V35.2H24.8007ZM21.6019 43.2H18.4007V41.6H21.6011L21.6019 43.2ZM22.4007 40H15.2007V38.4H24.8007V40H22.4007ZM25.2499 30.7778C25.1152 30.8434 25.0016 30.9456 24.9222 31.0727C24.8427 31.1998 24.8006 31.3467 24.8007 31.4965V33.6H20.8007V29.9313L22.9663 27.7656C23.112 27.6148 23.1926 27.4127 23.1908 27.2029C23.189 26.9932 23.1049 26.7925 22.9565 26.6442C22.8082 26.4959 22.6076 26.4117 22.3978 26.4099C22.1881 26.4081 21.986 26.4887 21.8351 26.6344L20.0007 28.4688L18.1663 26.6344C18.0154 26.4887 17.8133 26.4081 17.6036 26.4099C17.3938 26.4117 17.1932 26.4959 17.0448 26.6442C16.8965 26.7925 16.8124 26.9932 16.8105 27.2029C16.8087 27.4127 16.8894 27.6148 17.0351 27.7656L19.2007 29.9313V33.6H15.2007V31.4965C15.2007 31.3467 15.1586 31.1998 15.0792 31.0727C14.9998 30.9456 14.8862 30.8434 14.7515 30.7778C12.4162 29.6436 10.512 27.7822 9.32506 25.4732C8.13814 23.1643 7.73258 20.5325 8.16934 17.9733C8.60609 15.4141 9.86156 13.0658 11.7471 11.2812C13.6326 9.49657 16.0464 8.37205 18.6257 8.07661C19.0877 8.025 19.5522 7.99904 20.0171 7.99884C22.966 7.99004 25.8125 9.07996 28.0015 11.056C29.4688 12.3675 30.5907 14.02 31.2681 15.8678C31.9455 17.7155 32.1576 19.7016 31.8857 21.6507C31.6137 23.5998 30.8661 25.452 29.7088 27.0437C28.5515 28.6355 27.0202 29.9181 25.2499 30.7778Z" fill="white"/>
<path d="M20.0002 4.8C20.2124 4.8 20.4159 4.71571 20.5659 4.56568C20.7159 4.41566 20.8002 4.21217 20.8002 4V0.8C20.8002 0.587827 20.7159 0.384344 20.5659 0.234315C20.4159 0.0842856 20.2124 0 20.0002 0C19.788 0 19.5845 0.0842856 19.4345 0.234315C19.2845 0.384344 19.2002 0.587827 19.2002 0.8V4C19.2002 4.21217 19.2845 4.41566 19.4345 4.56568C19.5845 4.71571 19.788 4.8 20.0002 4.8Z" fill="white"/>
<path d="M8.12088 9.25196C8.19468 9.32837 8.28295 9.38931 8.38056 9.43124C8.47816 9.47317 8.58313 9.49523 8.68936 9.49616C8.79558 9.49708 8.90093 9.47684 8.99924 9.43662C9.09756 9.39639 9.18688 9.33699 9.262 9.26187C9.33711 9.18676 9.39651 9.09744 9.43674 8.99912C9.47696 8.9008 9.4972 8.79546 9.49628 8.68924C9.49536 8.58301 9.47329 8.47804 9.43136 8.38043C9.38943 8.28283 9.32849 8.19456 9.25208 8.12076L6.9892 5.85788C6.9154 5.78147 6.82713 5.72052 6.72952 5.6786C6.63192 5.63667 6.52694 5.6146 6.42072 5.61368C6.3145 5.61275 6.20915 5.633 6.11084 5.67322C6.01252 5.71345 5.9232 5.77285 5.84808 5.84796C5.77297 5.92308 5.71357 6.0124 5.67334 6.11071C5.63312 6.20903 5.61288 6.31438 5.6138 6.4206C5.61472 6.52682 5.63679 6.6318 5.67872 6.7294C5.72065 6.827 5.78159 6.91528 5.858 6.98908L8.12088 9.25196Z" fill="white"/>
<path d="M4 19.2H0.8C0.587827 19.2 0.384344 19.2842 0.234315 19.4343C0.0842856 19.5843 0 19.7878 0 20C0 20.2121 0.0842856 20.4156 0.234315 20.5656C0.384344 20.7157 0.587827 20.8 0.8 20.8H4C4.21217 20.8 4.41566 20.7157 4.56568 20.5656C4.71571 20.4156 4.8 20.2121 4.8 20C4.8 19.7878 4.71571 19.5843 4.56568 19.4343C4.41566 19.2842 4.21217 19.2 4 19.2Z" fill="white"/>
<path d="M8.12088 30.7481L5.858 33.011C5.78159 33.0848 5.72065 33.1731 5.67872 33.2707C5.63679 33.3683 5.61472 33.4733 5.6138 33.5795C5.61288 33.6857 5.63312 33.7911 5.67334 33.8894C5.71357 33.9877 5.77297 34.077 5.84808 34.1521C5.9232 34.2272 6.01252 34.2866 6.11084 34.3269C6.20915 34.3671 6.3145 34.3873 6.42072 34.3864C6.52694 34.3855 6.63192 34.3634 6.72952 34.3215C6.82713 34.2796 6.9154 34.2186 6.9892 34.1422L9.25208 31.8793C9.39781 31.7284 9.47844 31.5264 9.47662 31.3166C9.4748 31.1068 9.39066 30.9062 9.24233 30.7579C9.09401 30.6095 8.89336 30.5254 8.6836 30.5236C8.47384 30.5218 8.27176 30.6024 8.12088 30.7481Z" fill="white"/>
<path d="M33.0115 5.85788L30.7486 8.12076C30.6722 8.19456 30.6113 8.28283 30.5693 8.38043C30.5274 8.47804 30.5053 8.58301 30.5044 8.68924C30.5035 8.79546 30.5237 8.9008 30.564 8.99912C30.6042 9.09744 30.6636 9.18676 30.7387 9.26187C30.8138 9.33699 30.9031 9.39639 31.0015 9.43662C31.0998 9.47684 31.2051 9.49708 31.3113 9.49616C31.4176 9.49523 31.5225 9.47317 31.6202 9.43124C31.7178 9.38931 31.806 9.32837 31.8798 9.25196L34.1427 6.98908C34.2191 6.91528 34.2801 6.827 34.322 6.7294C34.3639 6.6318 34.386 6.52682 34.3869 6.4206C34.3878 6.31438 34.3676 6.20903 34.3274 6.11071C34.2871 6.0124 34.2277 5.92308 34.1526 5.84796C34.0775 5.77285 33.9882 5.71345 33.8899 5.67322C33.7916 5.633 33.6862 5.61275 33.58 5.61368C33.4738 5.6146 33.3688 5.63667 33.2712 5.6786C33.1736 5.72052 33.0853 5.78147 33.0115 5.85788Z" fill="white"/>
<path d="M31.8802 30.7481C31.7293 30.6024 31.5272 30.5218 31.3175 30.5236C31.1077 30.5254 30.9071 30.6095 30.7587 30.7579C30.6104 30.9062 30.5263 31.1068 30.5244 31.3166C30.5226 31.5264 30.6033 31.7284 30.749 31.8793L33.0119 34.1422C33.1627 34.2879 33.3648 34.3686 33.5746 34.3667C33.7843 34.3649 33.985 34.2808 34.1333 34.1325C34.2816 33.9841 34.3658 33.7835 34.3676 33.5737C34.3694 33.364 34.2888 33.1619 34.1431 33.011L31.8802 30.7481Z" fill="white"/>
<path d="M39.2012 19.2H36.0012C35.789 19.2 35.5855 19.2842 35.4355 19.4343C35.2855 19.5843 35.2012 19.7878 35.2012 20C35.2012 20.2121 35.2855 20.4156 35.4355 20.5656C35.5855 20.7157 35.789 20.8 36.0012 20.8H39.2012C39.4133 20.8 39.6168 20.7157 39.7669 20.5656C39.9169 20.4156 40.0012 20.2121 40.0012 20C40.0012 19.7878 39.9169 19.5843 39.7669 19.4343C39.6168 19.2842 39.4133 19.2 39.2012 19.2Z" fill="white"/>
</svg>
