<svg width="40" height="40" viewBox="0 0 40 40" fill="none" xmlns="http://www.w3.org/2000/svg">
<path d="M12.3617 22.5435C9.60317 22.5435 7.35847 24.7997 7.35847 27.5724C7.35847 30.3451 9.60317 32.6013 12.3617 32.6013C15.1202 32.6013 17.3649 30.3451 17.3649 27.5724C17.3649 24.7997 15.121 22.5435 12.3617 22.5435ZM12.3617 31.6207C10.1406 31.6207 8.33408 29.8049 8.33408 27.5724C8.33408 25.3398 10.1406 23.5241 12.3617 23.5241C14.5828 23.5241 16.3893 25.3398 16.3893 27.5724C16.3893 29.8049 14.5828 31.6207 12.3617 31.6207ZM39.9972 26.032C39.9614 25.1429 39.5875 24.3502 38.9444 23.8003L31.2697 17.2351C32.3477 15.5043 32.9721 13.4597 32.9721 11.2713C32.9721 5.05669 27.9412 0 21.7584 0C15.5755 0 10.5446 5.05587 10.5446 11.2705C10.5446 12.6319 10.7861 13.9378 11.2284 15.1472H10.9967C10.2804 15.1472 9.69748 15.7331 9.69748 16.453V18.4322C9.69748 18.5793 9.61455 18.6954 9.47472 18.7411C9.0357 18.8858 8.60399 19.0664 8.19017 19.2772C8.05928 19.3442 7.91944 19.3213 7.81538 19.2167L6.42271 17.8169C6.178 17.5709 5.85117 17.4353 5.50402 17.4353C5.15687 17.4353 4.83004 17.5709 4.58533 17.8169L2.65445 19.7577C2.40974 20.0037 2.27478 20.3322 2.27478 20.6811C2.27478 21.0301 2.40974 21.3586 2.65445 21.6045L4.04712 23.0044C4.15118 23.1089 4.17314 23.2495 4.10728 23.3811C3.89834 23.7962 3.71867 24.2309 3.57477 24.6722C3.52924 24.8119 3.41379 24.8961 3.26745 24.8961H1.29918C0.582922 24.8961 0 25.482 0 26.202V28.946C0 29.666 0.582922 30.2519 1.29918 30.2519H3.26826C3.4146 30.2519 3.53005 30.3352 3.57558 30.4758C3.71948 30.9171 3.89915 31.351 4.10809 31.7669C4.17476 31.8985 4.152 32.0391 4.04793 32.1437L2.65526 33.5435C2.41055 33.7895 2.27559 34.118 2.27559 34.4669C2.27559 34.8158 2.41055 35.1443 2.65526 35.3903L4.58614 37.3311C4.83085 37.5771 5.15768 37.7127 5.50483 37.7127C5.85198 37.7127 6.17881 37.5771 6.42352 37.3311L7.81619 35.9313C7.92026 35.8267 8.06009 35.8046 8.19099 35.8708C8.60399 36.0816 9.03651 36.2614 9.47553 36.4061C9.61455 36.4518 9.69829 36.5679 9.69829 36.7149V38.6941C9.69829 39.4141 10.2812 40 10.9975 40H13.7275C14.4438 40 15.0267 39.4141 15.0267 38.6941V36.7149C15.0267 36.5679 15.1096 36.4518 15.2495 36.4061C15.6885 36.2606 16.121 36.0808 16.534 35.8708C16.6649 35.8038 16.8047 35.8267 16.9088 35.9313L18.3015 37.3311C18.5462 37.5771 18.873 37.7127 19.2202 37.7127C19.5673 37.7127 19.8941 37.5771 20.1389 37.3311L22.0697 35.3903C22.3144 35.1443 22.4494 34.8158 22.4494 34.4669C22.4494 34.118 22.3144 33.7895 22.0697 33.5435L20.6771 32.1437C20.573 32.0391 20.551 31.8985 20.6169 31.7669C20.8258 31.3518 21.0055 30.9171 21.1494 30.4758C21.1949 30.3361 21.3104 30.2519 21.4567 30.2519H23.4258C24.1421 30.2519 24.725 29.666 24.725 28.946V26.202C24.725 25.482 24.1421 24.8961 23.4258 24.8961H21.4567C21.3104 24.8961 21.1949 24.8128 21.1494 24.6722C21.0055 24.2309 20.8258 23.797 20.6169 23.3811C20.5502 23.2495 20.573 23.1089 20.6762 23.0044L21.1519 22.5263C21.3527 22.5369 21.5551 22.5426 21.7592 22.5426C23.8884 22.5426 25.8811 21.9428 27.5786 20.9026L34.1306 28.6396C34.6786 29.2868 35.4672 29.6627 36.3509 29.6978C36.3981 29.6995 36.4444 29.7003 36.4907 29.7003C37.4184 29.7003 38.3159 29.3285 38.9737 28.6682C39.6631 27.9744 40.0362 27.0134 39.9972 26.032ZM19.7454 23.8232C19.9323 24.195 20.0925 24.5831 20.2218 24.977C20.3998 25.5229 20.8844 25.8751 21.4559 25.8751H23.425C23.6031 25.8751 23.7486 26.0206 23.7486 26.2003V28.9444C23.7486 29.1234 23.6031 29.2696 23.425 29.2696H21.4559C20.8844 29.2696 20.3998 29.6219 20.2218 30.1677C20.0925 30.5624 19.9323 30.9506 19.7454 31.3216C19.4868 31.8348 19.5811 32.4289 19.986 32.835L21.3787 34.2348C21.4397 34.2961 21.473 34.3778 21.473 34.4644C21.473 34.5519 21.4397 34.6336 21.3787 34.6941L19.4478 36.6349C19.3868 36.6962 19.3055 36.7297 19.2193 36.7297C19.1332 36.7297 19.0511 36.6962 18.9909 36.6349L17.5982 35.235C17.1942 34.8281 16.6031 34.7341 16.0925 34.994C15.7234 35.1819 15.3373 35.3429 14.9446 35.4728C14.4015 35.6518 14.0511 36.1388 14.0511 36.7133V38.6925C14.0511 38.8715 13.9064 39.0178 13.7275 39.0178H10.9975C10.8194 39.0178 10.6739 38.8723 10.6739 38.6925V36.7133C10.6739 36.1388 10.3235 35.6518 9.7804 35.4728C9.38854 35.3437 9.00155 35.1819 8.63245 34.994C8.12269 34.7341 7.53164 34.8289 7.12677 35.2359L5.7341 36.6357C5.67312 36.697 5.59182 36.7305 5.50564 36.7305C5.41947 36.7305 5.33735 36.697 5.27719 36.6357L3.34631 34.6949C3.28534 34.6336 3.252 34.5519 3.252 34.4653C3.252 34.3778 3.28534 34.2961 3.34631 34.2356L4.73898 32.8358C5.14386 32.4297 5.23817 31.8356 4.97963 31.3224C4.79264 30.9506 4.63248 30.5624 4.50321 30.1685C4.32517 29.6227 3.84062 29.2705 3.26908 29.2705H1.29918C1.12113 29.2705 0.975601 29.125 0.975601 28.9452V26.2011C0.975601 26.0222 1.12113 25.8759 1.29918 25.8759H3.26826C3.8398 25.8759 4.32435 25.5237 4.5024 24.9778C4.63085 24.5831 4.79183 24.195 4.97882 23.824C5.23735 23.3108 5.14305 22.7175 4.73817 22.3106L3.3455 20.9107C3.28452 20.8495 3.25119 20.7677 3.25119 20.6811C3.25119 20.5937 3.28452 20.512 3.3455 20.4515L5.27638 18.5107C5.33735 18.4494 5.41865 18.4159 5.50483 18.4159C5.59101 18.4159 5.67312 18.4494 5.73328 18.5107L7.12596 19.9105C7.53002 20.3175 8.12107 20.4114 8.63163 20.1524C9.00155 19.9645 9.38772 19.8027 9.77959 19.6735C10.3227 19.4946 10.6731 19.0075 10.6731 18.4331V16.4539C10.6731 16.2749 10.8186 16.1286 10.9967 16.1286H11.6406C13.1934 19.3843 16.2576 21.7786 19.9137 22.389C19.5706 22.7903 19.5031 23.3427 19.7454 23.8232ZM11.5202 11.2705C11.5202 5.59603 16.1129 0.979795 21.7584 0.979795C27.4038 0.979795 31.9965 5.59603 31.9965 11.2705C31.9965 16.945 27.4038 21.5612 21.7584 21.5612C16.1129 21.5612 11.5202 16.945 11.5202 11.2705ZM30.7136 18.0465L31.9469 19.1015L29.455 21.6062L28.3924 20.3518C29.2729 19.7005 30.055 18.9234 30.7136 18.0465ZM38.2826 27.9744C37.7915 28.468 37.0834 28.745 36.3891 28.7172C35.7802 28.6927 35.2412 28.4386 34.8721 28.003L30.0892 22.3547L32.6916 19.7389L38.3111 24.5464C38.7444 24.9174 38.9972 25.4592 39.0216 26.0712C39.0501 26.7699 38.7737 27.4808 38.2826 27.9744ZM21.7584 3.12734C17.2909 3.12734 13.6568 6.78012 13.6568 11.2705C13.6568 15.7609 17.2909 19.4137 21.7584 19.4137C26.2258 19.4137 29.8599 15.7609 29.8599 11.2705C29.8599 6.78012 26.2258 3.12734 21.7584 3.12734ZM21.7584 18.4331C17.8291 18.4331 14.6324 15.2199 14.6324 11.2705C14.6324 7.32109 17.8291 4.10795 21.7584 4.10795C25.6876 4.10795 28.8843 7.32109 28.8843 11.2705C28.8843 15.2199 25.6876 18.4331 21.7584 18.4331ZM26.0396 8.60978C26.2299 8.801 26.2299 9.11152 26.0396 9.30356L20.7966 14.5735C20.7055 14.6651 20.5811 14.7174 20.4519 14.7174C20.3226 14.7174 20.1982 14.6659 20.1071 14.5735L17.1177 11.5688C16.9275 11.3776 16.9275 11.067 17.1177 10.875C17.308 10.6838 17.6169 10.6838 17.8072 10.875L20.4519 13.5333L25.3502 8.60978C25.5404 8.41856 25.8494 8.41856 26.0396 8.60978Z" fill="white"/>
</svg>
