<svg width="512" height="512" viewBox="0 0 512 512" fill="none" xmlns="http://www.w3.org/2000/svg">
<path d="M432 32H80C67.2696 32 55.0606 37.0571 46.0589 46.0589C37.0571 55.0606 32 67.2696 32 80V432C32 444.73 37.0571 456.939 46.0589 465.941C55.0606 474.943 67.2696 480 80 480H432C444.73 480 456.939 474.943 465.941 465.941C474.943 456.939 480 444.73 480 432V80C480 67.2696 474.943 55.0606 465.941 46.0589C456.939 37.0571 444.73 32 432 32ZM80 64H432C436.243 64 440.313 65.6857 443.314 68.6863C446.314 71.6869 448 75.7565 448 80V160H64V80C64 75.7565 65.6857 71.6869 68.6863 68.6863C71.6869 65.6857 75.7565 64 80 64ZM432 448H80C75.7565 448 71.6869 446.314 68.6863 443.314C65.6857 440.313 64 436.243 64 432V192H448V432C448 436.243 446.314 440.313 443.314 443.314C440.313 446.314 436.243 448 432 448Z" fill="#FF6600"/>
<path d="M112 128H128C132.243 128 136.313 126.314 139.314 123.314C142.314 120.313 144 116.243 144 112C144 107.757 142.314 103.687 139.314 100.686C136.313 97.6857 132.243 96 128 96H112C107.757 96 103.687 97.6857 100.686 100.686C97.6857 103.687 96 107.757 96 112C96 116.243 97.6857 120.313 100.686 123.314C103.687 126.314 107.757 128 112 128Z" fill="#FF6600"/>
<path d="M192 128H208C212.243 128 216.313 126.314 219.314 123.314C222.314 120.313 224 116.243 224 112C224 107.757 222.314 103.687 219.314 100.686C216.313 97.6857 212.243 96 208 96H192C187.757 96 183.687 97.6857 180.686 100.686C177.686 103.687 176 107.757 176 112C176 116.243 177.686 120.313 180.686 123.314C183.687 126.314 187.757 128 192 128Z" fill="#FF6600"/>
<path d="M323.312 364.688C322.307 363.81 321.194 363.062 320 362.464C332.687 344.388 338.137 322.213 335.273 300.315C332.408 278.418 321.439 258.39 304.53 244.185C287.62 229.981 266 222.631 243.937 223.588C221.874 224.546 200.971 233.739 185.356 249.355C169.74 264.971 160.546 285.873 159.589 307.937C158.632 330 165.981 351.62 180.186 368.529C194.39 385.439 214.418 396.408 236.316 399.272C258.213 402.136 280.388 396.687 298.464 384C299.06 385.205 299.808 386.328 300.688 387.344L324.688 411.344C327.706 414.258 331.748 415.871 335.943 415.835C340.138 415.798 344.151 414.116 347.117 411.149C350.084 408.183 351.767 404.17 351.803 399.974C351.84 395.779 350.227 391.738 347.312 388.72L323.312 364.688ZM248 368C236.925 368 226.098 364.716 216.888 358.562C207.679 352.409 200.502 343.663 196.263 333.43C192.025 323.198 190.916 311.938 193.076 301.075C195.237 290.212 200.571 280.234 208.402 272.402C216.234 264.57 226.212 259.237 237.075 257.076C247.938 254.915 259.198 256.024 269.431 260.263C279.663 264.501 288.409 271.679 294.563 280.888C300.716 290.097 304 300.924 304 312C304 326.852 298.1 341.096 287.598 351.598C277.096 362.1 262.852 368 248 368Z" fill="#FF6600"/>
</svg>
