<svg width="50" height="50" viewBox="0 0 50 50" fill="none" xmlns="http://www.w3.org/2000/svg">
<path d="M29.4248 38.6495H28.7489L27.0648 35.0195H17.1848L15.5007 38.6495H11.6748C11.2648 38.6495 10.9248 38.9896 10.9248 39.3995C10.9248 39.8195 11.2648 40.1495 11.6748 40.1495H14.8048H29.4248H29.4448L29.4248 40.1064V38.6495Z" fill="#FF6600"/>
<path d="M29.425 27.9502H1.375V30.6102C1.375 32.2202 2.67499 33.5202 4.28497 33.5202H29.425V27.9502ZM23.735 31.1102H20.515C20.095 31.1102 19.765 30.7802 19.765 30.3602C19.765 29.9502 20.095 29.6102 20.515 29.6102H23.735C24.145 29.6102 24.485 29.9502 24.485 30.3602C24.485 30.7802 24.145 31.1102 23.735 31.1102Z" fill="#FF6600"/>
<path d="M45.6748 20.2002H33.8748C32.2548 20.2002 30.9248 21.5302 30.9248 23.1602V44.3402C30.9248 45.9602 32.2548 47.2902 33.8748 47.2902H45.6748C47.2948 47.2902 48.6248 45.9602 48.6248 44.3402V23.1602C48.6248 21.5302 47.2948 20.2002 45.6748 20.2002ZM38.6888 22.8453H40.8616C41.2757 22.8453 41.6116 23.1813 41.6116 23.5953C41.6116 24.0094 41.2757 24.3453 40.8616 24.3453H38.6888C38.2747 24.3453 37.9388 24.0094 37.9388 23.5953C37.9388 23.1813 38.2747 22.8453 38.6888 22.8453ZM40.473 44.6456H39.0775C38.6634 44.6456 38.3275 44.3097 38.3275 43.8956C38.3275 43.4816 38.6634 43.1456 39.0775 43.1456H40.473C40.887 43.1456 41.223 43.4816 41.223 43.8956C41.223 44.3097 40.887 44.6456 40.473 44.6456ZM46.218 41.545H33.3317V25.9454H46.218V41.545Z" fill="#FF6600"/>
<path d="M42.875 18.7V5.62C42.875 4.01996 41.575 2.70996 39.965 2.70996H4.28497C2.67499 2.70996 1.375 4.01996 1.375 5.62V26.45H29.425V23.16C29.425 20.7 31.425 18.7 33.875 18.7H42.875ZM4.97498 10.23C4.67499 9.94 4.67499 9.45996 4.97498 9.16998L7.58496 6.54999C7.88501 6.25995 8.35498 6.25995 8.64496 6.54999C8.94501 6.83997 8.94501 7.31995 8.64496 7.60999L6.03497 10.23C5.72601 10.5391 5.23492 10.5085 4.97498 10.23ZM12.535 8.87L7.28497 14.12C7.00085 14.404 6.54895 14.4222 6.22498 14.12C5.935 13.8199 5.935 13.35 6.22498 13.06L11.475 7.81C11.765 7.51996 12.245 7.51996 12.535 7.81C12.825 8.09998 12.825 8.57996 12.535 8.87Z" fill="#FF6600"/>
</svg>
