<svg width="41" height="41" viewBox="0 0 41 41" fill="none" xmlns="http://www.w3.org/2000/svg">
<path d="M26.2656 5.125V4.48437C26.2651 3.97483 26.0624 3.48632 25.7021 3.12602C25.3418 2.76572 24.8533 2.56306 24.3438 2.5625H16.6562C16.1467 2.56306 15.6582 2.76572 15.2979 3.12602C14.9376 3.48632 14.7349 3.97483 14.7344 4.48437V5.125H10.8906C10.0414 5.126 9.22726 5.46379 8.62677 6.06427C8.02629 6.66476 7.6885 7.47891 7.6875 8.32812V9.60937C7.69069 9.77717 7.75959 9.93702 7.87938 10.0546C7.99918 10.1721 8.16031 10.2379 8.32814 10.2379C8.49597 10.2379 8.6571 10.1721 8.77689 10.0545C8.89668 9.93699 8.96557 9.77714 8.96875 9.60934V8.32812C8.96931 7.81858 9.17197 7.33007 9.53227 6.96977C9.89257 6.60947 10.3811 6.40681 10.8906 6.40625H14.7344V7.6875C14.7347 8.0272 14.8698 8.3529 15.11 8.59311C15.3502 8.83331 15.6759 8.96841 16.0156 8.96875H24.9844C25.3241 8.96841 25.6498 8.83331 25.89 8.59311C26.1302 8.3529 26.2653 8.0272 26.2656 7.6875V6.40625H30.1094C30.6189 6.40681 31.1074 6.60947 31.4677 6.96977C31.828 7.33007 32.0307 7.81858 32.0312 8.32812V20.1797C32.034 20.3478 32.1027 20.5081 32.2225 20.626C32.3424 20.744 32.5038 20.81 32.6719 20.81C32.84 20.81 33.0014 20.7439 33.1213 20.626C33.2411 20.5081 33.3098 20.3478 33.3125 20.1796V8.32812C33.3115 7.47891 32.9737 6.66476 32.3732 6.06427C31.7727 5.46379 30.9586 5.126 30.1094 5.125H26.2656ZM24.9844 7.6875L16.0156 7.68844V4.48437C16.0158 4.31454 16.0834 4.15172 16.2035 4.03163C16.3236 3.91154 16.4864 3.84397 16.6562 3.84375H24.3438C24.5136 3.84397 24.6764 3.91154 24.7965 4.03163C24.9166 4.15172 24.9842 4.31454 24.9844 4.48437V7.6875Z" fill="white"/>
<path d="M28.1873 38.4375H30.1092C30.9584 38.4365 31.7726 38.0987 32.3731 37.4982C32.9736 36.8977 33.3113 36.0836 33.3123 35.2344V23.3828C33.3123 23.2129 33.2449 23.05 33.1247 22.9298C33.0046 22.8097 32.8416 22.7422 32.6717 22.7422C32.5018 22.7422 32.3389 22.8097 32.2187 22.9298C32.0986 23.05 32.0311 23.2129 32.0311 23.3828V35.2344C32.0305 35.7439 31.8279 36.2324 31.4676 36.5927C31.1073 36.953 30.6188 37.1557 30.1092 37.1562H28.1873C28.0191 37.1587 27.8586 37.2273 27.7405 37.3472C27.6224 37.4671 27.5562 37.6286 27.5562 37.7969C27.5562 37.9652 27.6224 38.1267 27.7405 38.2465C27.8586 38.3664 28.0191 38.435 28.1873 38.4375Z" fill="white"/>
<path d="M8.32812 12.1719C8.15822 12.1719 7.99528 12.2394 7.87513 12.3595C7.75499 12.4796 7.6875 12.6426 7.6875 12.8125V35.2344C7.6885 36.0836 8.02629 36.8977 8.62677 37.4982C9.22726 38.0987 10.0414 38.4365 10.8906 38.4375H24.9844C25.1543 38.4375 25.3172 38.37 25.4374 38.2499C25.5575 38.1297 25.625 37.9668 25.625 37.7969C25.625 37.627 25.5575 37.464 25.4374 37.3439C25.3172 37.2237 25.1543 37.1562 24.9844 37.1562H10.8906C10.3811 37.1557 9.89257 36.953 9.53227 36.5927C9.17197 36.2324 8.96931 35.7439 8.96875 35.2344V12.8125C8.96875 12.6426 8.90126 12.4796 8.78112 12.3595C8.66097 12.2394 8.49803 12.1719 8.32812 12.1719Z" fill="white"/>
<path d="M13.3204 17.4295C13.3799 17.489 13.4505 17.5362 13.5282 17.5684C13.6059 17.6006 13.6892 17.6172 13.7733 17.6172C13.8575 17.6172 13.9408 17.6006 14.0185 17.5684C14.0962 17.5362 14.1668 17.489 14.2263 17.4295L17.4294 14.2264C17.5483 14.106 17.6147 13.9435 17.6142 13.7743C17.6136 13.6051 17.5462 13.443 17.4265 13.3233C17.3069 13.2037 17.1448 13.1363 16.9756 13.1357C16.8064 13.1352 16.6439 13.2016 16.5235 13.3205L13.7733 16.0707L12.6247 14.9221C12.5038 14.8059 12.3421 14.7417 12.1744 14.7434C12.0066 14.745 11.8463 14.8124 11.7277 14.931C11.6091 15.0496 11.5417 15.21 11.5401 15.3777C11.5384 15.5454 11.6026 15.7071 11.7188 15.828L13.3204 17.4295Z" fill="white"/>
<path d="M20.3397 14.4141H25.4647C25.6324 14.4108 25.7922 14.3419 25.9097 14.2221C26.0271 14.1023 26.0929 13.9412 26.0929 13.7734C26.0929 13.6056 26.0271 13.4446 25.9096 13.3248C25.7922 13.205 25.6324 13.1361 25.4646 13.1328H20.3397C20.1719 13.1361 20.0122 13.205 19.8947 13.3248C19.7772 13.4446 19.7114 13.6057 19.7114 13.7734C19.7114 13.9412 19.7772 14.1023 19.8947 14.2221C20.0122 14.3419 20.1719 14.4108 20.3397 14.4141Z" fill="white"/>
<path d="M20.3399 17.6172H28.8281C28.9958 17.6138 29.1555 17.5449 29.2729 17.4251C29.3903 17.3053 29.4561 17.1443 29.4561 16.9765C29.456 16.8088 29.3903 16.6478 29.2729 16.528C29.1555 16.4082 28.9958 16.3393 28.8281 16.3359H20.3399C20.1722 16.3393 20.0125 16.4083 19.8951 16.528C19.7777 16.6478 19.7119 16.8088 19.7119 16.9766C19.7119 17.1443 19.7777 17.3053 19.8951 17.4251C20.0125 17.5449 20.1722 17.6138 20.3399 17.6172Z" fill="white"/>
<path d="M11.719 23.5154L13.3206 25.117C13.38 25.1765 13.4506 25.2237 13.5284 25.2559C13.6061 25.2881 13.6894 25.3047 13.7735 25.3047C13.8576 25.3047 13.9409 25.2881 14.0187 25.2559C14.0964 25.2237 14.167 25.1765 14.2264 25.117L17.4296 21.9139C17.5458 21.7929 17.61 21.6313 17.6083 21.4635C17.6066 21.2958 17.5393 21.1355 17.4207 21.0169C17.3021 20.8983 17.1417 20.8309 16.974 20.8293C16.8063 20.8276 16.6446 20.8918 16.5237 21.008L13.7735 23.7582L12.6248 22.6095C12.5039 22.4935 12.3423 22.4294 12.1746 22.4311C12.007 22.4328 11.8467 22.5002 11.7282 22.6187C11.6096 22.7373 11.5423 22.8976 11.5406 23.0652C11.5388 23.2328 11.6029 23.3945 11.719 23.5154Z" fill="white"/>
<path d="M20.3397 22.1016H25.4647C25.6324 22.0983 25.7922 22.0294 25.9097 21.9096C26.0271 21.7898 26.0929 21.6287 26.0929 21.4609C26.0929 21.2931 26.0271 21.1321 25.9096 21.0123C25.7922 20.8925 25.6324 20.8236 25.4646 20.8203H20.3397C20.1719 20.8236 20.0122 20.8925 19.8947 21.0123C19.7772 21.1321 19.7114 21.2932 19.7114 21.4609C19.7114 21.6287 19.7772 21.7898 19.8947 21.9096C20.0122 22.0294 20.1719 22.0983 20.3397 22.1016Z" fill="white"/>
<path d="M20.3397 25.3047H28.828C28.9957 25.3014 29.1555 25.2325 29.2729 25.1127C29.3904 24.9929 29.4562 24.8318 29.4562 24.664C29.4562 24.4963 29.3904 24.3352 29.2729 24.2154C29.1554 24.0956 28.9957 24.0267 28.8279 24.0234H20.3397C20.1719 24.0267 20.0122 24.0956 19.8947 24.2154C19.7772 24.3352 19.7114 24.4963 19.7114 24.6641C19.7114 24.8318 19.7772 24.9929 19.8947 25.1127C20.0122 25.2325 20.1719 25.3014 20.3397 25.3047Z" fill="white"/>
<path d="M11.719 31.2029L13.3206 32.8045C13.38 32.864 13.4506 32.9112 13.5284 32.9434C13.6061 32.9756 13.6894 32.9922 13.7735 32.9922C13.8576 32.9922 13.9409 32.9756 14.0187 32.9434C14.0964 32.9112 14.167 32.864 14.2264 32.8045L17.4296 29.6014C17.5458 29.4804 17.61 29.3188 17.6083 29.151C17.6066 28.9833 17.5393 28.823 17.4207 28.7044C17.3021 28.5858 17.1417 28.5184 16.974 28.5168C16.8063 28.5151 16.6446 28.5793 16.5237 28.6955L13.7735 31.4457L12.6248 30.297C12.5039 30.181 12.3423 30.1169 12.1746 30.1186C12.007 30.1203 11.8467 30.1877 11.7282 30.3062C11.6096 30.4248 11.5423 30.5851 11.5406 30.7527C11.5388 30.9203 11.6029 31.082 11.719 31.2029Z" fill="white"/>
<path d="M20.3397 29.7891H25.4647C25.6324 29.7858 25.7922 29.7169 25.9097 29.5971C26.0271 29.4773 26.0929 29.3162 26.0929 29.1484C26.0929 28.9806 26.0271 28.8196 25.9096 28.6998C25.7922 28.58 25.6324 28.5111 25.4646 28.5078H20.3397C20.1719 28.5111 20.0122 28.58 19.8947 28.6998C19.7772 28.8196 19.7114 28.9807 19.7114 29.1484C19.7114 29.3162 19.7772 29.4773 19.8947 29.5971C20.0122 29.7169 20.1719 29.7858 20.3397 29.7891Z" fill="white"/>
<path d="M29.4688 32.3516C29.4688 32.2674 29.4522 32.1841 29.42 32.1064C29.3878 32.0286 29.3407 31.958 29.2812 31.8985C29.2217 31.839 29.151 31.7918 29.0733 31.7597C28.9956 31.7275 28.9123 31.7109 28.8281 31.7109H20.3398C20.1699 31.7109 20.007 31.7784 19.8869 31.8986C19.7667 32.0187 19.6992 32.1817 19.6992 32.3516C19.6992 32.5215 19.7667 32.6844 19.8869 32.8046C20.007 32.9247 20.1699 32.9922 20.3398 32.9922H28.8281C28.9123 32.9922 28.9956 32.9757 29.0733 32.9435C29.151 32.9113 29.2217 32.8641 29.2812 32.8046C29.3407 32.7451 29.3878 32.6745 29.42 32.5967C29.4522 32.519 29.4688 32.4357 29.4688 32.3516Z" fill="white"/>
</svg>
