<svg width="39" height="41" viewBox="0 0 39 41" fill="none" xmlns="http://www.w3.org/2000/svg">
<path fill-rule="evenodd" clip-rule="evenodd" d="M35.621 39.6774H38.3257C38.6978 39.6774 39 39.9738 39 40.3387C39 40.7037 38.6978 41 38.3257 41H0.674312C0.302176 41 0 40.7037 0 40.3387C0 39.9738 0.302176 39.6774 0.674312 39.6774H3.37898V24.8348H3.38125C3.37974 24.808 3.37898 24.7811 3.37898 24.7543C3.37898 24.2006 3.6975 23.6574 4.32166 23.2424C5.01806 22.7793 6.137 22.4593 7.40386 22.4593C8.67072 22.4593 9.78966 22.7793 10.4861 23.2424C11.1102 23.6574 11.4287 24.2006 11.4287 24.7543C11.4287 24.7811 11.428 24.808 11.4265 24.8348H11.4287V39.6774H15.4751V17.6257C15.4751 17.0721 15.7936 16.5289 16.4178 16.1138C17.1142 15.6508 18.2331 15.3309 19.5 15.3309C20.7669 15.3309 21.8858 15.6508 22.5822 16.1138C23.2064 16.5289 23.5249 17.0721 23.5249 17.6257V39.6774H27.5713V9.16972C27.5713 8.61614 27.8898 8.07297 28.514 7.65793C29.2103 7.19486 30.3293 6.87488 31.5961 6.87488C32.863 6.87488 33.9819 7.19486 34.6783 7.65793C35.3025 8.07297 35.621 8.61614 35.621 9.16972V39.6774ZM4.7276 39.6774H10.0801V26.4965C9.3908 26.8319 8.44753 27.0491 7.40386 27.0491C6.36019 27.0491 5.41692 26.8319 4.7276 26.4965V39.6774ZM16.8237 39.6774H22.1763V19.3681C21.4869 19.7034 20.5437 19.9206 19.5 19.9206C18.4563 19.9206 17.5131 19.7034 16.8237 19.3681V39.6774ZM28.9199 39.6774H34.2724V10.9121C33.5831 11.2475 32.6398 11.4646 31.5961 11.4646C30.5525 11.4646 29.6092 11.2475 28.9199 10.9121V39.6774ZM22.1763 17.6257C22.1763 17.4568 22.0159 17.3352 21.8254 17.2085C21.3018 16.8604 20.4523 16.6535 19.5 16.6535C18.5477 16.6535 17.6982 16.8604 17.1746 17.2085C16.9841 17.3352 16.8237 17.4568 16.8237 17.6257C16.8237 17.7947 16.9841 17.9162 17.1746 18.0429C17.6982 18.391 18.5477 18.598 19.5 18.598C20.4523 18.598 21.3018 18.391 21.8254 18.0429C22.0159 17.9162 22.1763 17.7947 22.1763 17.6257ZM34.2724 9.16972C34.2724 9.00085 34.112 8.87925 33.9215 8.75261C33.398 8.40453 32.5484 8.19746 31.5961 8.19746C30.6438 8.19746 29.7943 8.40453 29.2708 8.75261C29.0804 8.87925 28.9199 9.00085 28.9199 9.16972C28.9199 9.33868 29.0804 9.46028 29.2708 9.58691C29.7943 9.935 30.6438 10.1421 31.5961 10.1421C32.5484 10.1421 33.398 9.935 33.9215 9.58691C34.112 9.46028 34.2724 9.33868 34.2724 9.16972ZM7.40386 23.7819C6.45156 23.7819 5.60201 23.989 5.0785 24.3371C4.888 24.4637 4.7276 24.5853 4.7276 24.7543C4.7276 24.9232 4.888 25.0447 5.0785 25.1714C5.60201 25.5195 6.45156 25.7265 7.40386 25.7265C8.35616 25.7265 9.2057 25.5195 9.72922 25.1714C9.91963 25.0447 10.0801 24.9232 10.0801 24.7543C10.0801 24.5853 9.91963 24.4637 9.72922 24.3371C9.2057 23.989 8.35616 23.7819 7.40386 23.7819ZM32.0902 2.35017C23.8112 9.28289 14.7518 13.6622 6.18445 16.4928C5.83179 16.6094 5.44895 16.4232 5.3301 16.0773C5.21125 15.7315 5.40115 15.356 5.75382 15.2395C14.1406 12.4685 23.0093 8.19077 31.1198 1.42354L29.824 1.49132C29.4523 1.51075 29.1346 1.23061 29.1148 0.866155C29.0949 0.501702 29.3805 0.189986 29.7522 0.170561L32.9949 0.00093982C33.1973 -0.00964082 33.3938 0.0695486 33.53 0.216686C33.6662 0.36374 33.7278 0.563119 33.6977 0.759604L33.2299 3.81253C33.1746 4.17343 32.831 4.42241 32.4629 4.36818C32.0949 4.31395 31.841 3.97694 31.8963 3.61605L32.0902 2.35017Z" fill="white"/>
</svg>
