<svg width="512" height="512" viewBox="0 0 512 512" fill="none" xmlns="http://www.w3.org/2000/svg">
<path d="M291.478 512H220.523C203.2 512 188.459 500.16 184.662 483.221L175.659 443.264C161.003 437.056 147.051 428.949 133.974 419.072L95.1042 431.339C78.4215 436.48 60.2882 429.419 51.9255 414.528L16.5548 353.344C8.0855 338.197 10.9442 319.531 23.4242 307.797L53.5468 280.107C52.6295 272 52.1602 263.915 52.1602 256C52.1602 248.085 52.6082 240 53.5255 231.893L23.5522 204.331C10.9442 192.469 8.06417 173.824 16.4482 158.869L52.0322 97.3227C60.3095 82.6027 78.4215 75.4773 95.0615 80.6613L133.974 92.928C147.051 83.0507 161.024 74.944 175.659 68.736L184.662 28.7573C188.459 11.84 203.2 0 220.523 0H291.478C308.8 0 323.542 11.84 327.339 28.7787L336.342 68.736C350.998 74.944 364.949 83.0507 378.027 92.928L416.896 80.6613C433.536 75.456 451.691 82.5813 460.075 97.472L495.446 158.656C503.915 173.803 501.056 192.469 488.576 204.203L458.454 231.893C459.371 240 459.819 248.085 459.819 256C459.819 263.915 459.371 272 458.454 280.107L488.448 307.669C488.491 307.712 488.534 307.755 488.576 307.797C501.056 319.531 503.936 338.176 495.552 353.131L459.968 414.677C451.67 429.397 433.558 436.523 416.939 431.339L378.006 419.051C364.928 428.928 350.955 437.035 336.32 443.243L327.318 483.221C323.542 500.16 308.8 512 291.478 512ZM137.259 385.259C140.928 385.259 144.534 386.517 147.456 388.907C162.07 400.96 178.07 410.24 194.987 416.491C200.064 418.368 203.862 422.699 205.056 427.989L215.915 476.203C216.406 478.4 218.368 480 220.565 480H291.52C293.718 480 295.659 478.4 296.171 476.224L307.03 428.011C308.224 422.72 312 418.389 317.099 416.512C334.016 410.261 350.016 400.96 364.629 388.928C368.811 385.472 374.422 384.363 379.627 386.005L426.582 400.832C428.8 401.515 431.19 400.747 432.235 398.848L467.819 337.323C468.886 335.424 468.501 332.821 466.773 331.157L430.763 298.048C426.837 294.443 424.982 289.152 425.792 283.883C427.2 274.496 427.926 265.109 427.926 256C427.926 246.891 427.222 237.525 425.792 228.117C425.003 222.848 426.859 217.557 430.763 213.952L466.859 180.757C468.48 179.221 468.907 176.597 467.712 174.485L432.342 113.323C431.19 111.296 428.885 110.507 426.539 111.189L379.648 125.995C374.443 127.637 368.832 126.528 364.651 123.072C350.038 111.019 334.038 101.739 317.12 95.488C312.043 93.6107 308.245 89.28 307.051 83.9893L296.192 35.776C295.616 33.6 293.675 32 291.478 32H220.523C218.325 32 216.384 33.6 215.872 35.776L205.013 84.0107C203.84 89.3013 200.043 93.6107 194.966 95.5093C178.048 101.76 162.048 111.04 147.435 123.093C143.254 126.549 137.643 127.637 132.438 126.016L85.4828 111.189C83.2642 110.507 80.8748 111.296 79.8295 113.173L44.2455 174.677C43.1575 176.597 43.5842 179.221 45.3335 180.885L81.3228 213.952C85.2482 217.557 87.1042 222.848 86.2935 228.117C84.8855 237.504 84.1602 246.891 84.1602 256C84.1602 265.109 84.8642 274.475 86.2935 283.883C87.0828 289.152 85.2268 294.443 81.3228 298.048L45.2268 331.243C43.6055 332.779 43.1788 335.403 44.3735 337.515L79.7442 398.677C80.9175 400.725 83.2428 401.557 85.5468 400.811L132.438 386.005C134.016 385.493 135.638 385.259 137.259 385.259Z" fill="#FF6600"/>
<path d="M240.021 341.333C238.805 341.333 237.61 341.205 236.394 340.928C227.797 338.944 222.421 330.347 224.405 321.749L256.405 183.083C258.389 174.443 267.093 169.131 275.584 171.072C284.181 173.056 289.557 181.653 287.573 190.251L255.573 328.917C253.866 336.341 247.296 341.333 240.021 341.333Z" fill="#FF6600"/>
<path d="M325.333 320C320.96 320 316.608 318.229 313.429 314.709C307.52 308.139 308.053 298.027 314.624 292.096L354.752 256L314.624 219.904C308.053 213.995 307.52 203.883 313.429 197.291C319.36 190.741 329.472 190.208 336.043 196.096L389.376 244.096C392.747 247.147 394.667 251.477 394.667 256C394.667 260.523 392.747 264.853 389.376 267.904L336.043 315.904C332.971 318.656 329.152 320 325.333 320Z" fill="#FF6600"/>
<path d="M186.666 320C182.848 320 179.029 318.656 175.957 315.904L122.624 267.904C119.253 264.853 117.333 260.523 117.333 256C117.333 251.477 119.253 247.147 122.624 244.096L175.957 196.096C182.528 190.187 192.618 190.72 198.57 197.291C204.48 203.861 203.946 213.973 197.376 219.904L157.248 256L197.376 292.096C203.946 298.005 204.48 308.117 198.57 314.709C195.392 318.229 191.04 320 186.666 320Z" fill="#FF6600"/>
</svg>
