<svg width="44" height="39" viewBox="0 0 44 39" fill="none" xmlns="http://www.w3.org/2000/svg">
<path d="M23.1527 18.8717V22.8711H24.5939V18.8717C24.5936 17.9216 24.3439 16.9883 23.8696 16.165C23.3954 15.3418 22.7133 14.6574 21.8916 14.1805C22.4522 13.4457 22.7962 12.5689 22.8848 11.649C22.9735 10.7291 22.8033 9.80268 22.3933 8.97438C21.9834 8.14609 21.3501 7.44885 20.565 6.96137C19.7798 6.47389 18.874 6.21558 17.9499 6.21558C17.0257 6.21558 16.1199 6.47389 15.3347 6.96137C14.5496 7.44885 13.9163 8.14609 13.5064 8.97438C13.0965 9.80268 12.9262 10.7291 13.0149 11.649C13.1035 12.5689 13.4476 13.4457 14.0081 14.1805C13.1855 14.6571 12.5024 15.3411 12.027 16.1643C11.5515 16.9875 11.3004 17.9211 11.2986 18.8717V22.8711H12.7398V18.8717C12.7392 18.1024 12.9605 17.3492 13.3772 16.7024C13.7938 16.0557 14.3882 15.5428 15.089 15.2254L15.2836 15.3407C15.3917 15.4128 15.507 15.4776 15.6151 15.5353C15.7155 15.5892 15.819 15.6373 15.9249 15.6794C16.094 15.7583 16.2672 15.8281 16.4438 15.8884C17.4114 16.2151 18.4595 16.2151 19.4271 15.8884C19.6065 15.8293 19.7822 15.7596 19.9532 15.6794C20.0568 15.6373 20.1578 15.5891 20.2558 15.5353C20.3703 15.4774 20.481 15.4124 20.5873 15.3407L20.7891 15.2254C21.4931 15.54 22.091 16.0517 22.5105 16.6988C22.9299 17.3459 23.153 18.1006 23.1527 18.8717ZM20.227 13.8274C19.7469 14.2199 19.1736 14.4819 18.5626 14.5879C17.9516 14.694 17.3235 14.6405 16.7392 14.4327C16.3501 14.2971 15.9887 14.092 15.6727 13.8274C15.1265 13.3616 14.7363 12.7396 14.5547 12.0451C14.373 11.3507 14.4087 10.6172 14.6569 9.94369C14.9051 9.27015 15.3539 8.68892 15.9427 8.27837C16.5315 7.86782 17.2321 7.64771 17.9499 7.64771C18.6677 7.64771 19.3682 7.86782 19.957 8.27837C20.5459 8.68892 20.9946 9.27015 21.2428 9.94369C21.491 10.6172 21.5267 11.3507 21.3451 12.0451C21.1634 12.7396 20.7732 13.3616 20.227 13.8274Z" fill="white"/>
<path d="M7.06314 23.4764C5.27675 21.0946 4.31542 18.1954 4.3248 15.2182C4.32918 13.004 4.86573 10.8233 5.88922 8.85994C6.91271 6.89653 8.39316 5.20791 10.2058 3.93637C12.0185 2.66483 14.1102 1.84763 16.3048 1.55364C18.4993 1.25965 20.7324 1.49748 22.8158 2.24709L23.3058 0.892328C20.2245 -0.210566 16.8702 -0.293294 13.7382 0.656361C10.6062 1.60602 7.86272 3.53771 5.91278 6.16616C3.96285 8.79461 2.9099 11.9805 2.90942 15.2532C2.90895 18.526 3.96098 21.7121 5.91015 24.3412L7.06314 23.4764Z" fill="white"/>
<path d="M32.7796 27.8505L31.9005 28.7297L29.018 25.8472C31.7939 22.9943 33.3454 19.1698 33.3417 15.1893C33.3408 14.3882 33.2782 13.5884 33.1544 12.7969L31.7131 13.0275C31.8285 13.7423 31.8864 14.4652 31.8861 15.1893C31.8961 18.3953 30.7919 21.5051 28.7623 23.9869C26.7327 26.4686 23.9039 28.1681 20.7598 28.7945L21.0336 30.2358C23.5992 29.7446 25.9931 28.5948 27.9803 26.8993L30.8628 29.7818L29.9836 30.6609C29.6105 31.0363 29.401 31.5441 29.401 32.0733C29.401 32.6026 29.6105 33.1104 29.9836 33.4858L35.1937 38.703L36.217 37.6797L30.9853 32.4409C30.8921 32.3355 30.8406 32.1996 30.8406 32.0589C30.8406 31.9182 30.8921 31.7824 30.9853 31.677L33.7957 28.8666C33.901 28.7619 34.0435 28.7031 34.192 28.7031C34.3406 28.7031 34.4831 28.7619 34.5884 28.8666L40.5623 34.8477L41.5856 33.8389L35.6045 27.8577C35.2301 27.4836 34.7228 27.2729 34.1935 27.2715C33.6642 27.2702 33.1559 27.4783 32.7796 27.8505Z" fill="white"/>
<path d="M42.5164 1.41113H25.2216C25.0305 1.41113 24.8472 1.48705 24.712 1.6222C24.5769 1.75734 24.501 1.94063 24.501 2.13175V10.7791C24.501 10.9703 24.5769 11.1535 24.712 11.2887C24.8472 11.4238 25.0305 11.4998 25.2216 11.4998H42.5164C42.7075 11.4998 42.8908 11.4238 43.0259 11.2887C43.1611 11.1535 43.237 10.9703 43.237 10.7791V2.13175C43.237 1.94063 43.1611 1.75734 43.0259 1.6222C42.8908 1.48705 42.7075 1.41113 42.5164 1.41113ZM41.7958 10.0585H25.9422V2.85236H41.7958V10.0585Z" fill="white"/>
<path d="M18.0154 25.1914H0.720616C0.529496 25.1914 0.346205 25.2673 0.211063 25.4025C0.0759218 25.5376 0 25.7209 0 25.912V34.5594C0 34.7505 0.0759218 34.9338 0.211063 35.069C0.346205 35.2041 0.529496 35.28 0.720616 35.28H18.0154C18.2065 35.28 18.3898 35.2041 18.5249 35.069C18.6601 34.9338 18.736 34.7505 18.736 34.5594V25.912C18.736 25.7209 18.6601 25.5376 18.5249 25.4025C18.3898 25.2673 18.2065 25.1914 18.0154 25.1914ZM17.2948 33.8388H1.44123V26.6326H17.2948V33.8388Z" fill="white"/>
</svg>
