<svg width="39" height="39" viewBox="0 0 39 39" fill="none" xmlns="http://www.w3.org/2000/svg">
<path d="M36.7281 1.76147H7.25356C6.13435 1.76147 5.22084 2.61126 5.22084 3.65238V6.5394H3.20021C2.081 6.5394 1.16748 7.38918 1.16748 8.43031V32.1398C1.16748 33.181 2.081 34.0307 3.20021 34.0307H16.7094V36.7658C16.7094 37.0247 16.9393 37.2385 17.2176 37.2385H26.7641C27.0424 37.2385 27.2723 37.0247 27.2723 36.7658V34.0307H32.6748C33.794 34.0307 34.7075 33.181 34.7075 32.1398V29.2528H36.7281C37.8473 29.2528 38.7608 28.403 38.7608 27.3619V3.65238C38.7608 2.61126 37.8473 1.76147 36.7281 1.76147ZM6.2372 3.65238C6.2372 3.12901 6.69698 2.70693 7.25356 2.70693H36.7281C37.2907 2.70693 37.7445 3.13463 37.7445 3.65238V7.8H18.4578L16.1891 5.61083C16.0136 5.44199 15.7717 5.34632 15.5236 5.34632H10.5265C10.0183 5.34632 9.60088 5.73464 9.60088 6.20736V7.8H6.2372V3.65238ZM3.20021 33.0909C2.63758 33.0909 2.18384 32.6632 2.18384 32.1455V8.43031C2.18384 7.90693 2.64363 7.48485 3.20021 7.48485H5.22084V27.3675C5.22084 28.4087 6.13435 29.2584 7.25356 29.2584H18.2884C18.488 29.6186 18.5788 30.0238 18.5425 30.4403H17.756C17.1752 30.4403 16.7094 30.8792 16.7094 31.4139V33.0909H3.20021ZM21.4887 23.1918C21.5915 23.0229 21.7791 22.916 21.9908 22.916C22.3054 22.916 22.5595 23.1524 22.5595 23.445C22.5595 23.6364 22.4506 23.8108 22.2752 23.9065C22.0816 24.0134 21.8517 24.0022 21.6157 23.8784C21.5855 23.8615 21.5553 23.839 21.5431 23.8108C21.3496 23.5238 21.4282 23.2987 21.4887 23.1918ZM21.4827 22.0606C21.1136 22.1788 20.799 22.4095 20.6054 22.7359C20.315 23.2199 20.3513 23.8108 20.6901 24.3173C20.799 24.4749 20.9442 24.6043 21.1197 24.7C21.398 24.8463 21.7004 24.9251 21.9969 24.9251C22.2752 24.9251 22.5474 24.8576 22.7894 24.7281C23.2734 24.4636 23.5759 23.974 23.5759 23.4507C23.5759 22.8035 23.1221 22.2576 22.499 22.0606V19.6294L26.994 27.1762C26.988 27.1818 26.9819 27.1931 26.9638 27.1987C25.3727 27.5814 24.3321 28.9658 24.4168 30.4403H19.5709C19.6617 28.9602 18.6151 27.5758 16.9937 27.1537L21.4827 19.6294V22.0606ZM26.2559 36.2931H17.7257L17.756 31.3801H26.2257C26.2438 31.3801 26.2559 31.3913 26.2559 31.4082V36.2931ZM33.6911 32.1398C33.6911 32.6632 33.2313 33.0853 32.6748 33.0853H27.2723V31.4082C27.2723 30.868 26.8004 30.4346 26.2257 30.4346H25.4392C25.4029 30.0182 25.4997 29.613 25.6933 29.2528H33.6911V32.1398ZM36.7281 28.313H26.6794C26.8428 28.2286 27.0182 28.1554 27.2118 28.1104C27.5324 28.0316 27.7926 27.8234 27.9257 27.542C28.0527 27.2662 28.0346 26.9567 27.8773 26.6922L22.6745 17.9749C22.5414 17.7442 22.2812 17.5978 21.9969 17.5978C21.7065 17.6035 21.4464 17.7385 21.3072 17.9693L16.0983 26.6922C15.9411 26.9567 15.929 27.2719 16.056 27.5476C16.183 27.829 16.4432 28.0316 16.7638 28.1104C16.9574 28.1554 17.1268 28.2286 17.2962 28.313H7.25356C6.69093 28.313 6.2372 27.8853 6.2372 27.3675V8.74546H9.68558C10.1938 8.74546 10.6112 8.35715 10.6112 7.88442V6.29178H15.4813L17.7499 8.48096C17.9254 8.64979 18.1674 8.74546 18.4154 8.74546H37.7445V27.3619C37.7445 27.8853 37.2907 28.313 36.7281 28.313Z" fill="white"/>
</svg>
