<svg width="512" height="512" viewBox="0 0 512 512" fill="none" xmlns="http://www.w3.org/2000/svg">
<g clip-path="url(#clip0_328_2)">
<path d="M344.15 129.285L255.999 0L167.85 129.285L14.8086 236.611V512H497.192V236.611L344.15 129.285ZM339.795 162.971L455.214 243.912L325.473 327.616V291.626C336.297 282.169 343.155 268.279 343.155 252.81C343.155 234.778 333.842 218.889 319.78 209.671L339.795 162.971ZM240.959 75.4563V149.823H271.04V75.4563L316.193 141.681L290.66 201.257H221.337L195.805 141.681L240.959 75.4563ZM216.607 304.366H295.392V347.024L255.999 372.439L216.607 347.024V304.366ZM291.6 274.286H220.399C208.557 274.286 198.924 264.653 198.924 252.811C198.924 240.97 208.557 231.337 220.399 231.337H291.6C303.442 231.337 313.074 240.97 313.074 252.812C313.074 264.652 303.442 274.286 291.6 274.286ZM172.205 162.971L192.219 209.672C178.158 218.889 168.845 234.779 168.845 252.811V252.812C168.845 268.28 175.703 282.17 186.527 291.627V327.617L56.7852 243.913L172.205 162.971ZM467.111 481.919H44.8893V272.036L256 408.236L467.112 272.036V481.919H467.111Z" fill="#FF6600"/>
<path d="M92.1377 413.457H165.09V443.537H92.1377V413.457Z" fill="#FF6600"/>
</g>
<defs>
<clipPath id="clip0_328_2">
<rect width="512" height="512" fill="white"/>
</clipPath>
</defs>
</svg>
