<svg width="43" height="43" viewBox="0 0 43 43" fill="none" xmlns="http://www.w3.org/2000/svg">
<path d="M37.7326 23.7285C37.6444 23.7284 37.557 23.7458 37.4754 23.7795C37.3939 23.8133 37.3198 23.8628 37.2574 23.9252C37.195 23.9876 37.1455 24.0616 37.1118 24.1432C37.078 24.2247 37.0607 24.3121 37.0607 24.4004V30.0772C37.0606 30.2553 36.9898 30.4261 36.8638 30.5521C36.7378 30.6781 36.567 30.7489 36.3889 30.749H4.70312C4.52497 30.7489 4.35414 30.6781 4.22817 30.5521C4.10219 30.4261 4.03137 30.2553 4.03125 30.0772V9.854C4.03137 9.67585 4.1022 9.50502 4.22817 9.37905C4.35415 9.25308 4.52497 9.18225 4.70312 9.18213H18.7653C18.9435 9.18213 19.1143 9.11134 19.2403 8.98534C19.3663 8.85934 19.4371 8.68845 19.4371 8.51025C19.4371 8.33206 19.3663 8.16117 19.2403 8.03517C19.1143 7.90917 18.9435 7.83838 18.7653 7.83838H4.70312C4.16873 7.83896 3.65638 8.05151 3.27851 8.42939C2.90063 8.80726 2.68808 9.31961 2.6875 9.854V30.0772C2.68808 30.6116 2.90063 31.1239 3.27851 31.5018C3.65638 31.8797 4.16873 32.0922 4.70312 32.0928H17.7253V34.1504C17.7237 34.6911 17.6536 35.2294 17.5167 35.7525C10.3278 36.1826 7.7307 38.0562 7.61109 38.1462C7.47376 38.2546 7.38409 38.4122 7.36113 38.5856C7.33817 38.759 7.38372 38.9345 7.48812 39.0749C7.59252 39.2152 7.74753 39.3094 7.92022 39.3372C8.0929 39.3651 8.26965 39.3246 8.41292 39.2242C8.44371 39.2019 11.5682 37.0059 20.5453 37.0059C30.1487 37.0522 32.2252 39.2019 33.0761 39.3555C33.2158 39.3529 33.3513 39.3071 33.4639 39.2243C33.5765 39.1416 33.6607 39.0259 33.705 38.8934C33.7492 38.7608 33.7513 38.6178 33.7109 38.484C33.6705 38.3502 33.5897 38.2322 33.4795 38.1462C33.3599 38.0562 30.7627 36.1826 23.5734 35.7525C23.3631 34.5447 23.2933 33.3166 23.3654 32.0928H36.3889C36.9233 32.0922 37.4356 31.8796 37.8135 31.5018C38.1914 31.1239 38.4039 30.6116 38.4045 30.0772V24.4004C38.4045 24.3121 38.3872 24.2247 38.3534 24.1432C38.3197 24.0616 38.2702 23.9876 38.2078 23.9252C38.1454 23.8628 38.0713 23.8133 37.9898 23.7795C37.9082 23.7458 37.8209 23.7284 37.7326 23.7285ZM18.9068 35.6878C19.0122 35.1821 19.0666 34.667 19.069 34.1504V32.0928H22.0216C21.964 33.2935 22.0183 34.4971 22.1837 35.6878C21.1459 35.6541 19.9446 35.6541 18.9068 35.6878Z" fill="white"/>
<path d="M38.9891 12.2554C38.97 12.2546 38.9516 12.2482 38.9361 12.237C38.9205 12.2258 38.9087 12.2103 38.9019 12.1924C38.6815 11.0208 38.0973 10.2235 37.7823 9.33964C38.0167 9.06284 38.138 8.70784 38.1221 8.34552C38.1062 7.98319 37.9542 7.64019 37.6965 7.38499L36.568 6.25643C36.313 5.99785 35.9697 5.84528 35.6069 5.82934C35.2441 5.81339 34.8888 5.93526 34.6121 6.17047C33.6997 5.70731 32.745 5.33252 31.7612 5.05124C31.7427 5.04411 31.7268 5.03171 31.7154 5.01558C31.704 4.99946 31.6975 4.98033 31.6969 4.96058C31.6667 4.59927 31.5014 4.26264 31.234 4.01783C30.9665 3.77302 30.6166 3.63803 30.2541 3.63979H28.6584C28.2998 3.63793 27.9535 3.76993 27.6871 4.00996C27.4207 4.24999 27.2535 4.58077 27.2182 4.93758C27.2188 4.98507 27.1947 5.04125 27.1519 5.05046C26.1837 5.28352 25.2579 5.66651 24.408 6.18556C24.3905 6.19449 24.3707 6.19777 24.3513 6.19495C24.3319 6.19212 24.3139 6.18334 24.2997 6.1698C24.0229 5.93552 23.6679 5.81424 23.3056 5.83018C22.9433 5.84611 22.6003 5.99808 22.3451 6.25576L21.2166 7.38495C20.9589 7.64014 20.8069 7.98312 20.791 8.34543C20.7751 8.70774 20.8964 9.06273 21.1306 9.33955C20.8174 10.2194 20.2294 11.0272 20.0107 12.1924C20.0038 12.2106 19.9916 12.2263 19.9757 12.2375C19.9598 12.2488 19.9409 12.255 19.9214 12.2554C19.56 12.2855 19.2234 12.4508 18.9785 12.7182C18.7337 12.9857 18.5987 13.3356 18.6006 13.6982V15.2939C18.5989 15.6569 18.7342 16.0072 18.9796 16.2747C19.2249 16.5422 19.5622 16.7072 19.924 16.7367C19.9431 16.7375 19.9616 16.744 19.977 16.7554C19.9924 16.7667 20.0041 16.7824 20.0106 16.8004C20.2324 17.9733 20.8181 18.7727 21.1308 19.6525C20.8965 19.9293 20.7751 20.2843 20.791 20.6466C20.8069 21.009 20.9589 21.352 21.2166 21.6072L22.3458 22.737C22.6012 22.9942 22.9441 23.1458 23.3062 23.1615C23.6683 23.1772 24.0231 23.0558 24.2997 22.8217C24.3141 22.8085 24.3321 22.7999 24.3514 22.7971C24.3707 22.7943 24.3905 22.7974 24.408 22.8059C25.258 23.3258 26.1844 23.709 27.1532 23.9417C27.1951 23.9498 27.2181 24.0094 27.2188 24.0552C27.2542 24.4119 27.4213 24.7425 27.6876 24.9824C27.9538 25.2223 28.3 25.3542 28.6584 25.3524H30.2541C30.6171 25.354 30.9674 25.2185 31.2349 24.973C31.5024 24.7275 31.6674 24.3902 31.6969 24.0283C31.6978 24.0091 31.7044 23.9906 31.7159 23.9752C31.7273 23.9598 31.7431 23.9481 31.7612 23.9417C32.7451 23.6599 33.6997 23.2845 34.6121 22.8209C34.8885 23.056 35.2437 23.178 35.6063 23.1623C35.9689 23.1466 36.3122 22.9945 36.5674 22.7364L37.6966 21.6072C37.9543 21.3519 38.1063 21.0087 38.1221 20.6463C38.1379 20.2838 38.0164 19.9287 37.7819 19.6519C38.0961 18.7714 38.6834 17.9657 38.9018 16.7997C38.9087 16.7813 38.921 16.7655 38.937 16.7543C38.9531 16.743 38.9722 16.7369 38.9918 16.7367C39.3531 16.7066 39.6898 16.5414 39.9346 16.2739C40.1795 16.0065 40.3144 15.6565 40.3125 15.2939V13.6982C40.3143 13.3352 40.1789 12.985 39.9336 12.7175C39.6882 12.45 39.3509 12.2849 38.9891 12.2554ZM38.9688 15.2939C38.9689 15.3205 38.9588 15.3461 38.9406 15.3655C38.9225 15.3849 38.8975 15.3966 38.871 15.3983C38.5712 15.4231 38.2867 15.5414 38.0577 15.7366C37.8287 15.9318 37.6668 16.194 37.5948 16.4861C37.3955 17.3182 37.0665 18.1138 36.6198 18.8436C36.4638 19.1011 36.3926 19.4011 36.4164 19.7012C36.4402 20.0013 36.5577 20.2864 36.7524 20.5161C36.7694 20.5359 36.7783 20.5616 36.7772 20.5878C36.7761 20.614 36.7651 20.6388 36.7465 20.6571L35.6173 21.7863C35.5986 21.8045 35.5738 21.8151 35.5477 21.8161C35.5217 21.8171 35.4962 21.8083 35.4762 21.7916C35.2464 21.5973 34.9615 21.48 34.6616 21.4562C34.3617 21.4325 34.0618 21.5034 33.8044 21.6591C33.0746 22.1055 32.2794 22.4348 31.4476 22.6347C31.1548 22.7064 30.8921 22.8685 30.6966 23.0979C30.5011 23.3273 30.3828 23.6124 30.3584 23.9129C30.3562 23.939 30.3443 23.9634 30.3249 23.9811C30.3056 23.9989 30.2803 24.0087 30.2541 24.0086H28.6584C28.6431 24.0079 28.6282 24.0041 28.6145 23.9974C28.6008 23.9907 28.5885 23.9813 28.5785 23.9698C28.5685 23.9583 28.561 23.9449 28.5563 23.9303C28.5517 23.9158 28.55 23.9005 28.5514 23.8853C28.5222 23.5902 28.4022 23.3115 28.208 23.0875C28.0137 22.8636 27.7548 22.7053 27.4668 22.6347C26.6345 22.435 25.8388 22.1058 25.1087 21.6591C24.8509 21.5035 24.5509 21.4326 24.2507 21.4565C23.9506 21.4804 23.6655 21.5978 23.4356 21.7922C23.4157 21.8092 23.3903 21.818 23.3642 21.8169C23.3382 21.8158 23.3135 21.8049 23.2952 21.7863L22.1666 20.6571C22.1479 20.6388 22.1369 20.614 22.1358 20.5878C22.1348 20.5616 22.1436 20.5359 22.1607 20.5161C22.3554 20.2862 22.4729 20.001 22.4966 19.7008C22.5202 19.4005 22.4489 19.1004 22.2926 18.8429C21.8463 18.1134 21.5173 17.3183 21.3176 16.4868C21.246 16.194 21.084 15.9312 20.8545 15.7358C20.6251 15.5404 20.3399 15.4223 20.0394 15.3983C20.0134 15.3961 19.9891 15.3841 19.9714 15.3648C19.9538 15.3454 19.9441 15.3201 19.9443 15.2939V13.6982C19.9442 13.6716 19.9543 13.646 19.9725 13.6266C19.9906 13.6072 20.0155 13.5955 20.0421 13.5939C20.3418 13.5692 20.6262 13.451 20.8551 13.2559C21.084 13.0608 21.2457 12.7987 21.3176 12.5067C21.5173 11.6745 21.8463 10.8788 22.2926 10.1486C22.4488 9.89121 22.5202 9.59122 22.4965 9.29106C22.4728 8.99091 22.3554 8.7058 22.1607 8.47611C22.1436 8.45622 22.1348 8.43059 22.1358 8.4044C22.1369 8.37821 22.1479 8.35341 22.1666 8.33501L23.2952 7.20583C23.3135 7.18724 23.3381 7.17623 23.3641 7.17501C23.3902 7.1738 23.4157 7.18246 23.4356 7.19927C23.6652 7.39428 23.9504 7.51209 24.2507 7.536C24.551 7.5599 24.8512 7.48869 25.1087 7.33246C25.839 6.88612 26.6347 6.55691 27.4669 6.35681C27.7548 6.28612 28.0137 6.12789 28.2079 5.90392C28.4022 5.67994 28.5222 5.40125 28.5514 5.10622C28.55 5.09106 28.5517 5.07577 28.5563 5.06127C28.561 5.04678 28.5686 5.03338 28.5786 5.0219C28.5886 5.01042 28.6008 5.0011 28.6145 4.9945C28.6282 4.98791 28.6432 4.98417 28.6584 4.98353H30.2541C30.2808 4.98346 30.3065 4.99363 30.3259 5.01194C30.3453 5.03025 30.3569 5.05531 30.3584 5.08195C30.3834 5.38167 30.5018 5.66599 30.697 5.89482C30.8922 6.12366 31.1543 6.28547 31.4463 6.35746C32.2782 6.55698 33.0737 6.88576 33.8037 7.33181C34.061 7.48822 34.3611 7.55965 34.6613 7.53598C34.9615 7.51231 35.2466 7.39473 35.4762 7.19993C35.4962 7.18301 35.5218 7.17422 35.5479 7.17531C35.5741 7.17641 35.5988 7.1873 35.6173 7.20583L36.7465 8.33503C36.7651 8.35329 36.7761 8.37791 36.7773 8.40395C36.7785 8.42999 36.7699 8.45553 36.7531 8.47545C36.5581 8.70493 36.4403 8.98998 36.4164 9.29017C36.3924 9.59036 36.4637 9.89046 36.6199 10.1479C37.0666 10.8785 37.3958 11.6747 37.5955 12.5073C37.6678 12.7996 37.8301 13.0617 38.0594 13.2567C38.2888 13.4517 38.5736 13.5696 38.8737 13.5939C38.8998 13.5961 38.924 13.6081 38.9417 13.6274C38.9593 13.6468 38.969 13.6721 38.9688 13.6982V15.2939Z" fill="white"/>
<path d="M29.4562 8.13293C28.1977 8.13293 26.9674 8.50612 25.921 9.20531C24.8746 9.90449 24.059 10.8983 23.5774 12.061C23.0958 13.2237 22.9698 14.5031 23.2153 15.7374C23.4608 16.9718 24.0668 18.1056 24.9567 18.9955C25.8466 19.8854 26.9804 20.4914 28.2148 20.7369C29.4491 20.9825 30.7285 20.8564 31.8912 20.3748C33.0539 19.8932 34.0477 19.0776 34.7469 18.0312C35.4461 16.9848 35.8193 15.7546 35.8193 14.4961C35.8173 12.8091 35.1462 11.1918 33.9533 9.99888C32.7605 8.806 31.1432 8.13496 29.4562 8.13293ZM29.4562 19.5154C28.4634 19.5154 27.493 19.2211 26.6675 18.6695C25.8421 18.118 25.1988 17.3341 24.8189 16.4169C24.4389 15.4997 24.3395 14.4905 24.5332 13.5168C24.7269 12.5432 25.2049 11.6488 25.9069 10.9468C26.6089 10.2449 27.5032 9.7668 28.4769 9.57313C29.4506 9.37945 30.4598 9.47885 31.377 9.85875C32.2942 10.2387 33.0781 10.882 33.6296 11.7074C34.1812 12.5329 34.4755 13.5033 34.4755 14.4961C34.474 15.8268 33.9447 17.1026 33.0037 18.0436C32.0627 18.9846 30.7869 19.5139 29.4562 19.5154Z" fill="white"/>
<path d="M9.60648 22.1131C9.5441 22.0507 9.47005 22.0012 9.38854 21.9674C9.30703 21.9336 9.21967 21.9163 9.13144 21.9163C9.04321 21.9163 8.95585 21.9336 8.87434 21.9674C8.79283 22.0012 8.71877 22.0507 8.6564 22.1131L6.38752 24.382C6.32511 24.4444 6.27561 24.5185 6.24183 24.6C6.20806 24.6815 6.19067 24.7688 6.19067 24.8571C6.19067 24.9453 6.20806 25.0327 6.24183 25.1142C6.27561 25.1957 6.32511 25.2697 6.38752 25.3321L8.6564 27.601C8.71879 27.6634 8.79285 27.7129 8.87435 27.7466C8.95586 27.7804 9.04322 27.7978 9.13144 27.7978C9.21966 27.7978 9.30702 27.7804 9.38853 27.7466C9.47004 27.7129 9.5441 27.6634 9.60648 27.601C9.66886 27.5386 9.71835 27.4646 9.75211 27.3831C9.78587 27.3016 9.80324 27.2142 9.80324 27.126C9.80324 27.0378 9.78587 26.9504 9.7521 26.8689C9.71834 26.7874 9.66886 26.7133 9.60648 26.6509L7.81262 24.857L9.60648 23.0632C9.66888 23.0008 9.71838 22.9267 9.75216 22.8452C9.78593 22.7637 9.80332 22.6764 9.80332 22.5881C9.80332 22.4999 9.78593 22.4125 9.75216 22.331C9.71838 22.2495 9.66888 22.1755 9.60648 22.1131Z" fill="white"/>
<path d="M16.5967 26.6509C16.4707 26.7768 16.3999 26.9477 16.3999 27.1259C16.3999 27.3041 16.4707 27.4749 16.5967 27.6009C16.7227 27.7269 16.8935 27.7977 17.0717 27.7977C17.2499 27.7977 17.4208 27.7269 17.5467 27.6009L19.8157 25.332C19.8781 25.2696 19.9276 25.1956 19.9613 25.1141C19.9951 25.0326 20.0125 24.9452 20.0125 24.857C20.0125 24.7688 19.9951 24.6814 19.9613 24.5999C19.9276 24.5184 19.8781 24.4443 19.8157 24.3819L17.5467 22.113C17.4844 22.0506 17.4103 22.0012 17.3288 21.9674C17.2473 21.9336 17.1599 21.9163 17.0717 21.9163C16.9835 21.9163 16.8961 21.9336 16.8146 21.9674C16.7331 22.0012 16.6591 22.0506 16.5967 22.113C16.5343 22.1754 16.4848 22.2495 16.451 22.331C16.4173 22.4125 16.3999 22.4998 16.3999 22.5881C16.3999 22.6763 16.4173 22.7636 16.451 22.8451C16.4848 22.9267 16.5343 23.0007 16.5967 23.0631L18.3905 24.857L16.5967 26.6509Z" fill="white"/>
<path d="M13.0168 22.4254L11.883 26.9632C11.8617 27.0487 11.8574 27.1377 11.8704 27.2249C11.8834 27.3121 11.9134 27.3959 11.9588 27.4715C12.0042 27.5472 12.0641 27.6131 12.1349 27.6656C12.2058 27.7181 12.2863 27.7561 12.3719 27.7774C12.4574 27.7988 12.5464 27.8031 12.6336 27.7901C12.7208 27.7771 12.8046 27.747 12.8802 27.7017C12.9558 27.6563 13.0218 27.5964 13.0743 27.5256C13.1267 27.4547 13.1648 27.3742 13.1861 27.2886L14.3199 22.7509C14.3593 22.5794 14.3299 22.3993 14.2379 22.2493C14.146 22.0993 13.9988 21.9914 13.8281 21.9487C13.6574 21.9061 13.4768 21.9321 13.3251 22.0213C13.1733 22.1104 13.0627 22.2555 13.0168 22.4254Z" fill="white"/>
</svg>
